<svg width="146" height="156" viewBox="0 0 146 156" fill="none" xmlns="http://www.w3.org/2000/svg">
<g clip-path="url(#clip0_1382_13872)">
<rect width="146" height="156" rx="12" fill="#E7E7FD"/>
<g opacity="0.1" clip-path="url(#clip1_1382_13872)">
<mask id="mask0_1382_13872" style="mask-type:luminance" maskUnits="userSpaceOnUse" x="-65" y="1" width="283" height="187">
<path d="M218 1H-65V188H218V1Z" fill="white"/>
</mask>
<g mask="url(#mask0_1382_13872)">
<path d="M76.5 94.5L-65 10.6866V31.9298L76.5 94.5Z" fill="#B2B2FA"/>
<path d="M76.5001 94.5L2.31635 0.999966H-17.8333L76.5001 94.5Z" fill="#B2B2FA"/>
<path d="M76.5 94.5L-65 77.7448V94.5H76.5Z" fill="#B2B2FA"/>
<path d="M76.5 94.5L87.7823 0.999966H76.5V94.5Z" fill="#B2B2FA"/>
<path d="M196.454 0.999966H170.833L76.5 94.5L196.454 0.999966Z" fill="#B2B2FA"/>
<path d="M76.5 94.5L132.874 0.999966H118.61L76.5 94.5Z" fill="#B2B2FA"/>
<path d="M52.7657 0.999966H40.3892L76.5 94.5L52.7657 0.999966Z" fill="#B2B2FA"/>
<path d="M76.5 94.5L150.684 188H170.833L76.5 94.5Z" fill="#B2B2FA"/>
<path d="M76.5 94.5L100.234 188H112.611L76.5 94.5Z" fill="#B2B2FA"/>
<path d="M76.5 94.5L218 178.351V157.108L76.5 94.5Z" fill="#B2B2FA"/>
<path d="M20.1263 188H34.3896L76.4999 94.5L20.1263 188Z" fill="#B2B2FA"/>
<path d="M76.5 94.5L65.2178 188H76.5V94.5Z" fill="#B2B2FA"/>
<path d="M76.5 94.5L-65 129.806V148.206L76.5 94.5Z" fill="#B2B2FA"/>
<path d="M76.5 94.5L-43.4542 188H-17.8333L76.5 94.5Z" fill="#B2B2FA"/>
<path d="M76.5 94.5L218 111.293V94.5H76.5Z" fill="#B2B2FA"/>
<path d="M76.5 94.4999L218 59.1943V40.8309L76.5 94.4999Z" fill="#B2B2FA"/>
</g>
<mask id="mask1_1382_13872" style="mask-type:luminance" maskUnits="userSpaceOnUse" x="-65" y="1" width="283" height="187">
<path d="M218 1H-65V188H218V1Z" fill="white"/>
</mask>
<g mask="url(#mask1_1382_13872)">
<path d="M76.5001 94.4999L-83.8665 -12.9877L-85.3004 11.9207L76.5001 94.4999Z" stroke="#B2B2FA" stroke-width="1.1745" stroke-miterlimit="10"/>
<path d="M76.4999 94.5001L-4.28714 -19.9439L-27.9082 -21.2529L76.4999 94.5001Z" stroke="#B2B2FA" stroke-width="1.1745" stroke-miterlimit="10"/>
<path d="M76.5 94.4999L-88.3192 65.6271L-89.4135 85.2995L76.5 94.4999Z" stroke="#B2B2FA" stroke-width="1.1745" stroke-miterlimit="10"/>
<path d="M76.5 94.5L95.9327 -14.4088L82.6883 -15.1194L76.5 94.5Z" stroke="#B2B2FA" stroke-width="1.1745" stroke-miterlimit="10"/>
<path d="M223.358 -7.34012L193.322 -8.98573L76.5 94.5001L223.358 -7.34012Z" stroke="#B2B2FA" stroke-width="1.1745" stroke-miterlimit="10"/>
<path d="M76.5 94.4999L148.835 -11.4543L132.043 -12.3893L76.5 94.4999Z" stroke="#B2B2FA" stroke-width="1.1745" stroke-miterlimit="10"/>
<path d="M54.841 -16.6904L40.3514 -17.4758L76.5 94.4998L54.841 -16.6904Z" stroke="#B2B2FA" stroke-width="1.1745" stroke-miterlimit="10"/>
<path d="M76.5 94.4999L157.287 208.981L180.946 210.29L76.5 94.4999Z" stroke="#B2B2FA" stroke-width="1.1745" stroke-miterlimit="10"/>
<path d="M76.5 94.4999L98.1589 205.69L112.649 206.513L76.5 94.4999Z" stroke="#B2B2FA" stroke-width="1.1745" stroke-miterlimit="10"/>
<path d="M76.5 94.4999L236.867 202.025L238.301 177.117L76.5 94.4999Z" stroke="#B2B2FA" stroke-width="1.1745" stroke-miterlimit="10"/>
<path d="M4.16504 200.492L20.9564 201.427L76.4998 94.4999L4.16504 200.492Z" stroke="#B2B2FA" stroke-width="1.1745" stroke-miterlimit="10"/>
<path d="M76.5 94.4999L57.0674 203.409L70.3118 204.157L76.5 94.4999Z" stroke="#B2B2FA" stroke-width="1.1745" stroke-miterlimit="10"/>
<path d="M76.4999 94.4999L-91.753 126.701L-92.9982 148.281L76.4999 94.4999Z" stroke="#B2B2FA" stroke-width="1.1745" stroke-miterlimit="10"/>
<path d="M76.5 94.4999L-70.3582 196.34L-40.3224 198.023L76.5 94.4999Z" stroke="#B2B2FA" stroke-width="1.1745" stroke-miterlimit="10"/>
<path d="M76.5 94.4999L241.319 123.41L242.413 103.738L76.5 94.4999Z" stroke="#B2B2FA" stroke-width="1.1745" stroke-miterlimit="10"/>
<path d="M76.5 94.5L244.753 62.336L245.998 40.7562L76.5 94.5Z" stroke="#B2B2FA" stroke-width="1.1745" stroke-miterlimit="10"/>
</g>
</g>
</g>
<defs>
<clipPath id="clip0_1382_13872">
<rect width="146" height="156" rx="12" fill="white"/>
</clipPath>
<clipPath id="clip1_1382_13872">
<rect width="283" height="187" fill="white" transform="translate(-65 1)"/>
</clipPath>
</defs>
</svg>
