<svg width="146" height="156" viewBox="0 0 146 156" fill="none" xmlns="http://www.w3.org/2000/svg">
<g clip-path="url(#clip0_1382_13918)">
<rect width="146" height="156" rx="12" fill="#EAFBF3"/>
<g opacity="0.12">
<mask id="mask0_1382_13918" style="mask-type:luminance" maskUnits="userSpaceOnUse" x="-62" y="-1" width="271" height="181">
<path d="M208.919 -1H-62V180H208.919V-1Z" fill="white"/>
</mask>
<g mask="url(#mask0_1382_13918)">
<path d="M73.4595 89.5L-62 8.37582V28.9374L73.4595 89.5Z" fill="#AAEFCF"/>
<path d="M73.4596 89.5L2.44274 -1.00003H-16.8467L73.4596 89.5Z" fill="#AAEFCF"/>
<path d="M73.4595 89.5L-62 73.2824V89.5H73.4595Z" fill="#AAEFCF"/>
<path d="M73.4595 89.5L84.2601 -1.00003H73.4595V89.5Z" fill="#AAEFCF"/>
<path d="M188.293 -1.00003H163.766L73.4595 89.5L188.293 -1.00003Z" fill="#AAEFCF"/>
<path d="M73.4595 89.5L127.427 -1.00003H113.772L73.4595 89.5Z" fill="#AAEFCF"/>
<path d="M50.7383 -1.00003H38.8901L73.4594 89.5L50.7383 -1.00003Z" fill="#AAEFCF"/>
<path d="M73.4595 89.5L144.476 180H163.766L73.4595 89.5Z" fill="#AAEFCF"/>
<path d="M73.4595 89.5L96.1805 180H108.029L73.4595 89.5Z" fill="#AAEFCF"/>
<path d="M73.4595 89.5L208.919 170.66V150.099L73.4595 89.5Z" fill="#AAEFCF"/>
<path d="M19.4924 180H33.1468L73.4595 89.5L19.4924 180Z" fill="#AAEFCF"/>
<path d="M73.4594 89.5L62.6588 180H73.4594V89.5Z" fill="#AAEFCF"/>
<path d="M73.4595 89.5L-62 123.673V141.483L73.4595 89.5Z" fill="#AAEFCF"/>
<path d="M73.4595 89.5L-41.374 180H-16.8468L73.4595 89.5Z" fill="#AAEFCF"/>
<path d="M73.4595 89.5L208.919 105.754V89.5H73.4595Z" fill="#AAEFCF"/>
<path d="M73.4595 89.4999L208.919 55.3271V37.5529L73.4595 89.4999Z" fill="#AAEFCF"/>
</g>
<mask id="mask1_1382_13918" style="mask-type:luminance" maskUnits="userSpaceOnUse" x="-62" y="-1" width="271" height="181">
<path d="M208.919 -1H-62V180H208.919V-1Z" fill="white"/>
</mask>
<g mask="url(#mask1_1382_13918)">
<path d="M73.4597 89.4999L-80.0611 -14.5389L-81.4337 9.57026L73.4597 89.4999Z" stroke="#AAEFCF" stroke-width="1.1745" stroke-miterlimit="10"/>
<path d="M73.4594 89.5001L-3.87888 -21.2719L-26.4916 -22.5389L73.4594 89.5001Z" stroke="#AAEFCF" stroke-width="1.1745" stroke-miterlimit="10"/>
<path d="M73.4595 89.4999L-84.3237 61.5535L-85.3712 80.5947L73.4595 89.4999Z" stroke="#AAEFCF" stroke-width="1.1745" stroke-miterlimit="10"/>
<path d="M73.4595 89.5L92.0626 -15.9144L79.3836 -16.6022L73.4595 89.5Z" stroke="#AAEFCF" stroke-width="1.1745" stroke-miterlimit="10"/>
<path d="M214.048 -9.07252L185.295 -10.6653L73.4595 89.5001L214.048 -9.07252Z" stroke="#AAEFCF" stroke-width="1.1745" stroke-miterlimit="10"/>
<path d="M73.4595 89.4999L142.706 -13.0547L126.632 -13.9597L73.4595 89.4999Z" stroke="#AAEFCF" stroke-width="1.1745" stroke-miterlimit="10"/>
<path d="M52.7252 -18.1228L38.8541 -18.883L73.4595 89.4998L52.7252 -18.1228Z" stroke="#AAEFCF" stroke-width="1.1745" stroke-miterlimit="10"/>
<path d="M73.4595 89.4999L150.798 200.308L173.447 201.575L73.4595 89.4999Z" stroke="#AAEFCF" stroke-width="1.1745" stroke-miterlimit="10"/>
<path d="M73.4595 89.4999L94.1938 197.123L108.065 197.919L73.4595 89.4999Z" stroke="#AAEFCF" stroke-width="1.1745" stroke-miterlimit="10"/>
<path d="M73.4595 89.4999L226.98 193.575L228.353 169.466L73.4595 89.4999Z" stroke="#AAEFCF" stroke-width="1.1745" stroke-miterlimit="10"/>
<path d="M4.21252 192.091L20.287 192.996L73.4594 89.4999L4.21252 192.091Z" stroke="#AAEFCF" stroke-width="1.1745" stroke-miterlimit="10"/>
<path d="M73.4595 89.4999L54.8564 194.914L67.5355 195.638L73.4595 89.4999Z" stroke="#AAEFCF" stroke-width="1.1745" stroke-miterlimit="10"/>
<path d="M73.4595 89.4999L-87.6108 120.668L-88.8029 141.556L73.4595 89.4999Z" stroke="#AAEFCF" stroke-width="1.1745" stroke-miterlimit="10"/>
<path d="M73.4594 89.4999L-67.1294 188.073L-38.3759 189.702L73.4594 89.4999Z" stroke="#AAEFCF" stroke-width="1.1745" stroke-miterlimit="10"/>
<path d="M73.4595 89.4999L231.243 117.483L232.29 98.4413L73.4595 89.4999Z" stroke="#AAEFCF" stroke-width="1.1745" stroke-miterlimit="10"/>
<path d="M73.4595 89.5L234.53 58.368L235.722 37.4806L73.4595 89.5Z" stroke="#AAEFCF" stroke-width="1.1745" stroke-miterlimit="10"/>
</g>
</g>
</g>
<defs>
<clipPath id="clip0_1382_13918">
<rect width="146" height="156" rx="12" fill="white"/>
</clipPath>
</defs>
</svg>
