<svg width="277" height="456" viewBox="0 0 277 456" fill="none" xmlns="http://www.w3.org/2000/svg">
<g clip-path="url(#clip0_1543_22054)">
<rect x="0.470703" width="276" height="456" rx="138" fill="#04150E"/>
<g filter="url(#filter0_d_1543_22054)">
<g clip-path="url(#clip1_1543_22054)">
<rect x="291.471" y="-25" width="506" height="306.263" rx="20.24" transform="rotate(90 291.471 -25)" fill="#04150E"/>
<path d="M79.0294 -33.4333L15.8967 20.2161C15.701 20.3824 15.5249 20.5706 15.3718 20.7769L6.60071 32.6011C5.54958 34.0181 5.76791 36.0057 7.10156 37.1608L69.3391 91.0634L143.044 154.63" stroke="#52525B" stroke-width="2.53" stroke-linecap="round"/>
<path d="M294.844 385.736L255.098 439.025M221.904 483.53L255.098 439.025M255.098 439.025L120.257 341.23L-1.96609 243.321C-2.11408 243.203 -2.25181 243.072 -2.37782 242.93L-24.7704 217.75C-25.3196 217.132 -25.623 216.335 -25.623 215.508L-25.623 206.016C-25.623 205.222 -25.3428 204.453 -24.8319 203.845L69.8726 91.181L177.671 -37.65" stroke="#52525B" stroke-width="4.21667" stroke-linecap="round"/>
<path d="M291.471 -30.06L42.6873 278.6" stroke="#52525B" stroke-width="2.53" stroke-linecap="round"/>
<path d="M156.537 139.45L272.917 234.747" stroke="#52525B" stroke-width="2.53" stroke-linecap="round"/>
<path d="M299.061 187.52L221.536 321.714L176.777 381.487" stroke="#52525B" stroke-width="4.21667" stroke-linecap="round"/>
<path d="M99.1906 209.447L188.584 281.13" stroke="#52525B" stroke-width="2.53" stroke-linecap="round"/>
<path d="M294.001 107.218L280.961 103.867C279.417 103.471 277.806 104.209 277.099 105.637L275.787 108.286C275.094 109.686 275.452 111.379 276.653 112.377L294.001 126.8" stroke="#52525B" stroke-width="2.53" stroke-linecap="round"/>
<path d="M100.408 340.553L115.202 352.153C116.623 353.267 116.915 355.304 115.862 356.772L111.676 362.614C110.561 364.17 108.377 364.488 106.866 363.314L91.7554 351.587C90.2759 350.439 90.015 348.305 91.1741 346.834L95.6769 341.12C96.828 339.659 98.9443 339.406 100.408 340.553Z" fill="#52525B"/>
<path d="M273.307 440.989L284.907 426.196C286.021 424.774 288.058 424.483 289.526 425.535L295.368 429.721C296.924 430.836 297.242 433.02 296.068 434.532L284.341 449.642C283.193 451.121 281.059 451.382 279.588 450.223L273.874 445.721C272.413 444.569 272.159 442.453 273.307 440.989Z" fill="#52525B"/>
<path d="M216.873 441.13L223.546 432.877C224.67 431.487 226.684 431.215 228.136 432.258L233.775 436.306C235.341 437.431 235.648 439.638 234.447 441.147L227.641 449.698C226.484 451.151 224.369 451.396 222.911 450.245L217.406 445.898C215.932 444.735 215.692 442.591 216.873 441.13Z" fill="#52525B"/>
<path d="M247.233 53.1966L253.905 44.9439C255.029 43.5534 257.043 43.2817 258.496 44.3245L264.134 48.3726C265.701 49.4974 266.007 51.7045 264.806 53.2136L258 61.7644C256.843 63.218 254.729 63.4625 253.271 62.3113L247.766 57.9652C246.291 56.8013 246.052 54.6573 247.233 53.1966Z" fill="#52525B"/>
<path d="M261.57 35.4866L268.242 27.2339C269.366 25.8434 271.38 25.5717 272.832 26.6145L278.471 30.6626C280.038 31.7874 280.344 33.9945 279.143 35.5036L272.337 44.0544C271.18 45.508 269.066 45.7525 267.608 44.6013L262.102 40.2552C260.628 39.0913 260.389 36.9473 261.57 35.4866Z" fill="#52525B"/>
<path d="M275.906 19.4633L282.579 11.2105C283.703 9.82007 285.717 9.54837 287.169 10.5912L292.808 14.6393C294.375 15.7641 294.681 17.9712 293.48 19.4803L286.674 28.0311C285.517 29.4847 283.403 29.7292 281.944 28.578L276.439 24.2318C274.965 23.0679 274.725 20.924 275.906 19.4633Z" fill="#52525B"/>
<path d="M205.067 458.84L211.739 450.587C212.863 449.197 214.877 448.925 216.33 449.968L221.968 454.016C223.535 455.141 223.841 457.348 222.64 458.857L215.834 467.408C214.677 468.861 212.563 469.106 211.105 467.955L205.6 463.608C204.125 462.445 203.886 460.301 205.067 458.84Z" fill="#52525B"/>
<path d="M231.209 72.3085L240.379 60.9672C241.503 59.5767 243.517 59.305 244.969 60.3479L253.171 66.236C254.737 67.3608 255.044 69.5679 253.843 71.0769L244.474 82.8477C243.317 84.3013 241.203 84.5459 239.744 83.3947L231.742 77.0771C230.268 75.9132 230.028 73.7692 231.209 72.3085Z" fill="#52525B"/>
<path d="M163.743 2.31185L172.913 -9.02947C174.037 -10.4199 176.051 -10.6916 177.503 -9.64882L185.705 -3.76072C187.271 -2.63589 187.578 -0.4288 186.377 1.08025L177.008 12.851C175.851 14.3047 173.737 14.5492 172.279 13.398L164.276 7.08041C162.802 5.91649 162.562 3.77252 163.743 2.31185Z" fill="#52525B"/>
<path d="M212.656 95.3633L219.329 87.1105C220.453 85.7201 222.467 85.4484 223.919 86.4912L229.558 90.5393C231.125 91.6641 231.431 93.8712 230.23 95.3802L223.424 103.931C222.267 105.385 220.153 105.629 218.694 104.478L213.189 100.132C211.715 98.9679 211.475 96.8239 212.656 95.3633Z" fill="#52525B"/>
<path d="M152.779 87.7733L159.452 79.5205C160.576 78.1301 162.59 77.8584 164.042 78.9012L169.681 82.9493C171.248 84.0741 171.554 86.2812 170.353 87.7903L163.547 96.3411C162.39 97.7947 160.276 98.0392 158.818 96.888L153.312 92.5418C151.838 91.3779 151.598 89.234 152.779 87.7733Z" fill="#52525B"/>
<path d="M269.918 452.716L284.712 464.316C286.133 465.431 286.424 467.467 285.372 468.936L281.186 474.778C280.071 476.333 277.887 476.651 276.375 475.478L261.265 463.75C259.786 462.602 259.525 460.469 260.684 458.998L265.187 453.283C266.338 451.822 268.454 451.569 269.918 452.716Z" fill="#52525B"/>
<path d="M57.4733 272.792L77.5545 249.496C78.8939 247.942 81.2986 247.934 82.649 249.478L93.9561 262.409C95.0328 263.64 95.0711 265.466 94.0468 266.742L75.9398 289.285C74.7188 290.805 72.467 290.977 71.0299 289.659L57.7485 277.481C56.4051 276.249 56.2832 274.172 57.4733 272.792Z" fill="#52525B"/>
<path d="M78.4027 291.883L94.4964 270.658C95.716 269.05 98.0659 268.865 99.5215 270.264L109.832 280.17C110.998 281.29 111.205 283.08 110.325 284.437L96.4576 305.827C95.3705 307.503 93.0724 307.873 91.5145 306.621L78.9782 296.551C77.5544 295.407 77.2993 293.338 78.4027 291.883Z" fill="#52525B"/>
<path d="M159.906 324.912L116.446 288.819C114.808 287.459 112.336 287.937 111.323 289.809L101.345 308.262C100.582 309.672 100.918 311.425 102.148 312.454L142.708 346.373C144.165 347.591 146.339 347.368 147.518 345.878L160.396 329.6C161.533 328.164 161.315 326.082 159.906 324.912Z" fill="#52525B"/>
<path d="M169.289 335.058L186.273 350.48C187.577 351.664 187.751 353.652 186.671 355.044L176.734 367.86C175.593 369.331 173.476 369.6 172.004 368.461L154.111 354.616C152.651 353.486 152.371 351.393 153.482 349.918L164.327 335.526C165.522 333.941 167.819 333.724 169.289 335.058Z" fill="#52525B"/>
<path d="M290.526 284.548L273.541 269.127C272.237 267.943 272.064 265.954 273.143 264.562L283.08 251.746C284.221 250.275 286.338 250.006 287.811 251.146L305.703 264.991C307.163 266.12 307.444 268.214 306.333 269.689L295.487 284.081C294.293 285.666 291.995 285.882 290.526 284.548Z" fill="#52525B"/>
<path d="M186.999 311.445L203.983 326.867C205.287 328.051 205.461 330.039 204.381 331.431L194.444 344.247C193.303 345.718 191.186 345.987 189.714 344.848L171.821 331.003C170.361 329.873 170.081 327.779 171.192 326.305L182.037 311.912C183.231 310.327 185.529 310.111 186.999 311.445Z" fill="#52525B"/>
<path d="M272.816 308.162L255.831 292.74C254.527 291.556 254.354 289.568 255.433 288.175L265.371 275.36C266.511 273.888 268.628 273.62 270.101 274.759L287.993 288.604C289.453 289.734 289.734 291.827 288.623 293.302L277.777 307.694C276.583 309.279 274.285 309.496 272.816 308.162Z" fill="#52525B"/>
<path d="M202.178 286.988L219.163 302.41C220.467 303.594 220.641 305.582 219.561 306.974L209.624 319.79C208.483 321.261 206.366 321.53 204.893 320.391L187.001 306.546C185.541 305.416 185.26 303.323 186.371 301.848L197.217 287.456C198.411 285.871 200.709 285.654 202.178 286.988Z" fill="#52525B"/>
<path d="M257.636 331.775L240.652 316.353C239.347 315.169 239.174 313.181 240.253 311.789L250.191 298.973C251.332 297.502 253.449 297.233 254.921 298.372L272.813 312.217C274.274 313.347 274.554 315.441 273.443 316.915L262.598 331.308C261.403 332.893 259.105 333.109 257.636 331.775Z" fill="#52525B"/>
<path d="M215.673 262.532L232.657 277.953C233.961 279.137 234.135 281.126 233.055 282.518L223.118 295.334C221.977 296.805 219.86 297.074 218.388 295.934L200.495 282.089C199.035 280.96 198.754 278.866 199.865 277.391L210.711 262.999C211.905 261.414 214.203 261.198 215.673 262.532Z" fill="#52525B"/>
<path d="M244.986 356.232L228.001 340.81C226.697 339.626 226.524 337.638 227.603 336.245L237.54 323.43C238.681 321.958 240.798 321.69 242.271 322.829L260.163 336.674C261.623 337.804 261.904 339.897 260.793 341.372L249.947 355.764C248.753 357.349 246.455 357.566 244.986 356.232Z" fill="#52525B"/>
<path d="M232.539 237.232L249.523 252.653C250.827 253.837 251.001 255.826 249.921 257.218L239.984 270.034C238.843 271.505 236.726 271.774 235.254 270.634L217.361 256.789C215.901 255.66 215.621 253.566 216.732 252.091L227.577 237.699C228.772 236.114 231.069 235.898 232.539 237.232Z" fill="#52525B"/>
<path d="M227.276 381.532L210.291 366.11C208.987 364.926 208.814 362.938 209.893 361.545L219.83 348.73C220.971 347.258 223.088 346.99 224.561 348.129L242.453 361.974C243.913 363.104 244.194 365.197 243.083 366.672L232.237 381.064C231.043 382.649 228.745 382.866 227.276 381.532Z" fill="#52525B"/>
<path d="M241.636 220.843L257.88 234.132C259.232 235.238 259.516 237.193 258.534 238.638L254.111 245.153C252.989 246.805 250.685 247.126 249.154 245.843L232.483 231.877C231.059 230.684 230.868 228.564 232.055 227.136L236.906 221.298C238.09 219.873 240.202 219.67 241.636 220.843Z" fill="#52525B"/>
<path d="M218.179 397.92L201.936 384.631C200.584 383.525 200.3 381.57 201.281 380.125L205.705 373.611C206.827 371.958 209.131 371.637 210.662 372.92L227.332 386.886C228.756 388.079 228.948 390.199 227.761 391.628L222.91 397.465C221.726 398.89 219.614 399.094 218.179 397.92Z" fill="#52525B"/>
<path d="M157.42 292.445L167.443 282.194C168.536 281.076 170.254 280.856 171.594 281.662L182.238 288.065C183.866 289.044 184.365 291.175 183.34 292.775L169.32 314.665C168.344 316.189 166.339 316.672 164.777 315.758L160.119 313.033C158.494 312.083 157.961 309.987 158.935 308.376L161.439 304.234C162.305 302.801 161.989 300.95 160.696 299.885L157.687 297.407C156.161 296.151 156.038 293.858 157.42 292.445Z" fill="#52525B"/>
<path d="M126.216 114.501L136.24 104.251C137.333 103.133 139.051 102.912 140.391 103.718L151.035 110.122C152.663 111.101 153.162 113.231 152.137 114.831L138.117 136.722C137.141 138.246 135.136 138.728 133.574 137.814L128.915 135.09C127.291 134.14 126.758 132.044 127.732 130.433L130.235 126.291C131.102 124.858 130.786 123.006 129.493 121.942L126.484 119.464C124.958 118.207 124.835 115.914 126.216 114.501Z" fill="#52525B"/>
<path d="M255.105 394.85L265.867 404.323C267.04 405.356 267.35 407.06 266.615 408.44L260.778 419.405C259.885 421.082 257.784 421.691 256.132 420.752L233.538 407.897C231.965 407.002 231.378 405.025 232.209 403.417L234.686 398.622C235.55 396.95 237.615 396.308 239.275 397.196L243.542 399.48C245.019 400.27 246.851 399.858 247.846 398.511L250.164 395.376C251.339 393.787 253.622 393.544 255.105 394.85Z" fill="#52525B"/>
<path d="M152.847 268.735L163.564 276.321C165.211 277.487 165.472 279.829 164.123 281.33L154.255 292.308C153.079 293.615 151.096 293.801 149.698 292.733L140.578 285.766C139.132 284.661 138.823 282.608 139.88 281.126L148.152 269.53C149.231 268.017 151.33 267.662 152.847 268.735Z" fill="#52525B"/>
<path d="M277.845 388.037L270.83 399.136C269.752 400.842 267.427 401.226 265.858 399.957L254.378 390.676C253.011 389.571 252.722 387.6 253.715 386.148L260.195 376.676C261.223 375.174 263.257 374.758 264.792 375.736L276.806 383.39C278.373 384.388 278.838 386.466 277.845 388.037Z" fill="#52525B"/>
<path d="M135.43 256.1L144.735 263.462C146.148 264.58 146.433 266.612 145.381 268.076L142.109 272.63C140.972 274.212 138.702 274.433 137.281 273.099C135.899 271.802 133.701 271.97 132.533 273.463L128.839 278.184C127.606 279.76 125.281 279.922 123.841 278.534L119.257 274.115C117.944 272.85 117.874 270.771 119.099 269.42L130.838 256.479C132.03 255.164 134.038 254.999 135.43 256.1Z" fill="#52525B"/>
<path d="M289.741 370.617L282.876 380.295C281.834 381.765 279.819 382.156 278.303 381.182L273.584 378.153C271.944 377.1 271.605 374.845 272.862 373.356C274.086 371.908 273.802 369.722 272.25 368.634L267.342 365.192C265.705 364.043 265.42 361.73 266.731 360.219L270.904 355.41C272.099 354.033 274.172 353.854 275.585 355.007L289.122 366.052C290.498 367.174 290.768 369.17 289.741 370.617Z" fill="#52525B"/>
<path d="M119.66 243.003L127.306 249.896C128.584 251.048 128.79 252.976 127.786 254.372L120.347 264.709C119.207 266.293 116.964 266.582 115.46 265.338L106.856 258.224C105.418 257.036 105.218 254.906 106.409 253.47L114.805 243.354C116.03 241.879 118.236 241.719 119.66 243.003Z" fill="#52525B"/>
<path d="M100.612 227.944L111.928 238.181C113.286 239.41 113.416 241.499 112.219 242.887L104.425 251.919C103.325 253.194 101.454 253.463 100.04 252.549L87.9004 244.701C86.255 243.638 85.8588 241.401 87.0386 239.837L95.6554 228.414C96.8487 226.832 99.1421 226.615 100.612 227.944Z" fill="#52525B"/>
<path d="M195.238 239.187L206.775 247.184C208.352 248.278 208.701 250.465 207.541 251.995L194.545 269.133C193.41 270.63 191.27 270.912 189.787 269.759L179.315 261.621C177.894 260.517 177.59 258.493 178.624 257.02L190.556 240.022C191.621 238.503 193.714 238.13 195.238 239.187Z" fill="#52525B"/>
<path d="M176.685 224.851L188.221 232.847C189.799 233.941 190.147 236.129 188.987 237.658L175.991 254.797C174.856 256.294 172.717 256.575 171.233 255.422L160.762 247.285C159.341 246.181 159.037 244.156 160.07 242.683L172.002 225.685C173.068 224.166 175.16 223.794 176.685 224.851Z" fill="#52525B"/>
<path d="M192.708 186.901L204.244 194.897C205.822 195.991 206.17 198.179 205.011 199.708L192.014 216.847C190.879 218.344 188.74 218.625 187.257 217.472L176.785 209.335C175.364 208.231 175.06 206.206 176.094 204.733L188.025 187.735C189.091 186.216 191.183 185.844 192.708 186.901Z" fill="#52525B"/>
<path d="M237.404 153.167L248.941 161.164C250.518 162.258 250.867 164.445 249.707 165.975L236.711 183.113C235.576 184.61 233.436 184.892 231.953 183.739L221.481 175.601C220.06 174.497 219.756 172.473 220.79 171L232.722 154.002C233.787 152.483 235.88 152.11 237.404 153.167Z" fill="#52525B"/>
<path d="M154.637 208.813L168.362 219.747C169.769 220.867 170.049 222.895 168.999 224.355L159.393 237.712C158.251 239.3 156.001 239.587 154.497 238.336L139.112 225.542C137.596 224.282 137.479 221.995 138.859 220.587L150.125 209.091C151.336 207.856 153.284 207.736 154.637 208.813Z" fill="#52525B"/>
<path d="M212.27 202.067L227.064 211.506C228.58 212.473 229.07 214.46 228.179 216.022L220.021 230.31C219.051 232.009 216.844 232.529 215.218 231.443L198.579 220.327C196.94 219.232 196.585 216.97 197.81 215.426L207.813 202.814C208.888 201.459 210.813 201.137 212.27 202.067Z" fill="#52525B"/>
<path d="M98.9764 143.033L112.702 153.967C114.109 155.087 114.389 157.115 113.339 158.575L103.733 171.932C102.59 173.52 100.341 173.807 98.8371 172.556L83.4516 159.762C81.9358 158.502 81.8193 156.215 83.1991 154.807L94.4653 143.311C95.6756 142.076 97.6239 141.956 98.9764 143.033Z" fill="#52525B"/>
<path d="M1.15026 45.2065L14.8758 56.1401C16.2826 57.2607 16.5628 59.288 15.5126 60.7482L5.90641 74.1053C4.76423 75.6935 2.51504 75.9802 1.01092 74.7295L-14.3745 61.9354C-15.8904 60.6749 -16.0069 58.3887 -14.627 56.9807L-3.36089 45.484C-2.15057 44.2489 -0.202307 44.129 1.15026 45.2065Z" fill="#52525B"/>
<path d="M135.312 217.121L146.75 204.56C147.975 203.215 147.912 201.14 146.607 199.871L132.988 186.623C131.603 185.277 129.373 185.365 128.099 186.818L124.823 190.554C123.678 191.86 123.711 193.822 124.901 195.088L128.441 198.857C129.589 200.079 129.666 201.959 128.621 203.27L124.812 208.047C123.688 209.457 123.871 211.501 125.228 212.688L130.596 217.388C131.978 218.598 134.075 218.479 135.312 217.121Z" fill="#52525B"/>
<path d="M156.493 156.717L170.727 167.405L171.839 168.343C173.195 169.487 173.433 171.486 172.383 172.916L168.793 177.812C167.624 179.405 165.342 179.657 163.854 178.358L160.605 175.522C159.221 174.313 157.125 174.435 155.89 175.794L153.343 178.598C152.211 179.845 150.332 180.065 148.941 179.113L143.337 175.278C141.784 174.216 141.401 172.088 142.486 170.55L151.711 157.47C152.807 155.915 154.972 155.574 156.493 156.717Z" fill="#52525B"/>
<path d="M177.899 175.73L183.868 179.659C185.505 180.737 185.882 182.976 184.69 184.531L174.079 198.36C172.952 199.829 170.851 200.115 169.373 199.001L163.507 194.581C161.996 193.443 161.716 191.285 162.887 189.799L173.394 176.46C174.478 175.084 176.436 174.767 177.899 175.73Z" fill="#52525B"/>
<path d="M223.439 142.84L229.408 146.769C231.045 147.847 231.422 150.086 230.23 151.641L219.619 165.47C218.492 166.939 216.391 167.225 214.913 166.111L209.047 161.691C207.536 160.553 207.256 158.395 208.427 156.909L218.934 143.57C220.018 142.194 221.976 141.877 223.439 142.84Z" fill="#52525B"/>
<path d="M70.7954 113.323L76.7648 117.253C78.4011 118.33 78.7789 120.57 77.5864 122.124L66.9754 135.954C65.8483 137.423 63.7478 137.708 62.269 136.594L56.4031 132.174C54.8926 131.036 54.6129 128.878 55.7833 127.393L66.2907 114.054C67.3748 112.677 69.332 112.36 70.7954 113.323Z" fill="#52525B"/>
<path d="M83.0214 128.779L91.6329 135.736C91.7497 135.83 91.8572 135.935 91.954 136.05C92.7158 136.956 92.6852 138.286 91.8826 139.156L85.917 145.617C84.7322 146.9 82.7639 147.067 81.3802 146.001L73.4469 139.891C71.8742 138.68 71.6823 136.379 73.0326 134.924L78.429 129.109C79.6352 127.809 81.642 127.665 83.0214 128.779Z" fill="#52525B"/>
<path d="M185.065 46.9759L193.677 53.9323C193.794 54.0267 193.901 54.1321 193.998 54.247C194.76 55.1523 194.729 56.483 193.927 57.3524L187.961 63.8135C186.776 65.0966 184.808 65.2633 183.424 64.1976L175.491 58.0876C173.918 56.8764 173.726 54.5756 175.077 53.1205L180.473 47.3053C181.679 46.0055 183.686 45.8615 185.065 46.9759Z" fill="#52525B"/>
<path d="M47.7747 224.674L55.6716 231.308L58.3817 233.178C59.9472 234.258 60.311 236.418 59.1857 237.951L51.4061 248.549C50.7705 249.415 49.7607 249.927 48.6867 249.927L28.4636 249.927C27.6714 249.927 26.9045 249.648 26.2973 249.139L8.68706 234.386C7.39165 233.301 7.09916 231.424 8.00278 229.996L15.2968 218.469C16.357 216.794 18.6266 216.39 20.2 217.596L35.4506 229.29C36.9117 230.41 39.0012 230.152 40.1456 228.71L42.9624 225.16C44.1434 223.672 46.32 223.452 47.7747 224.674Z" fill="#52525B"/>
<path d="M62.0563 229.962L50.2362 220.223C48.844 219.076 48.6006 217.037 49.6837 215.594L67.3983 192C68.5445 190.473 70.7281 190.201 72.214 191.4L84.0176 200.922C85.4271 202.06 85.6873 204.107 84.6069 205.56L66.9087 229.371C65.7579 230.919 63.5453 231.188 62.0563 229.962Z" fill="#52525B"/>
<path d="M85.019 169.483L97.6207 180.01C98.9801 181.146 99.2296 183.139 98.1919 184.575L90.8943 194.671C89.7388 196.27 87.4642 196.54 85.9661 195.257L73.0022 184.154C71.6178 182.969 71.4256 180.898 72.5682 179.477L80.2281 169.957C81.4112 168.487 83.5706 168.273 85.019 169.483Z" fill="#52525B"/>
<path d="M39.5776 152.393L50.7683 136.707C51.959 135.038 54.3508 134.808 55.8374 136.22L61.7964 141.879C62.9483 142.973 63.1809 144.722 62.355 146.079L52.8845 161.637C51.8624 163.316 49.6268 163.769 48.0317 162.62L40.3523 157.089C38.8453 156.004 38.499 153.905 39.5776 152.393Z" fill="#52525B"/>
<path d="M24.7845 170.154L32.835 160.43C33.9662 159.064 35.9622 158.807 37.4025 159.842L43.3171 164.094C44.8316 165.183 45.1751 167.294 44.084 168.807L36.7858 178.925C35.7084 180.419 33.6322 180.772 32.1212 179.719L25.4543 175.073C23.8354 173.945 23.5262 171.674 24.7845 170.154Z" fill="#52525B"/>
<path d="M73.4311 -9.47441L84.2088 -16.0478C85.7231 -16.9714 87.6941 -16.5645 88.7188 -15.1166L92.9269 -9.17076C94.0044 -7.64833 93.642 -5.54045 92.1178 -4.46539L81.923 2.72549C80.4181 3.78701 78.3399 3.44531 77.2541 1.95782L72.4629 -4.60554C71.2995 -6.19929 71.7465 -8.44697 73.4311 -9.47441Z" fill="#52525B"/>
<path d="M10.4476 187.864L18.4981 178.14C19.6292 176.774 21.6253 176.517 23.0655 177.552L28.9802 181.804C30.4947 182.893 30.8382 185.004 29.7471 186.517L22.4489 196.635C21.3715 198.129 19.2953 198.482 17.7843 197.429L11.1174 192.783C9.4985 191.655 9.18931 189.384 10.4476 187.864Z" fill="#52525B"/>
<path d="M8.29734 195.301L16.1816 200.752C17.7593 201.843 18.1113 204.028 16.9559 205.559L13.1572 210.593C12.0463 212.065 9.95934 212.372 8.47152 211.282L8.10174 211.012C6.67937 209.97 4.69481 210.199 3.54749 211.538L0.870629 214.661C-0.277947 216.001 -2.26527 216.229 -3.68765 215.184L-5.21386 214.063C-6.70748 212.966 -7.03628 210.869 -5.95022 209.368L3.64558 196.099C4.721 194.612 6.78784 194.258 8.29734 195.301Z" fill="#52525B"/>
<path d="M36.6246 79.0053L48.1716 87.5187C49.7596 88.6895 50.0082 90.9673 48.7102 92.4531L42.4827 99.582C41.1843 101.068 38.8926 101.127 37.5193 99.7098L27.8487 89.727C26.6841 88.5249 26.5771 86.6507 27.5973 85.3238L31.9485 79.6643C33.0679 78.2083 35.1464 77.9154 36.6246 79.0053Z" fill="#52525B"/>
<path d="M13.4465 112.394L24.6864 102.14C26.0853 100.864 28.2601 100.989 29.5037 102.416L33.1505 106.603C34.2641 107.882 34.2556 109.789 33.1306 111.057L23.6241 121.777C22.3989 123.159 20.2904 123.299 18.8936 122.091L13.5133 117.437C11.9849 116.115 11.9537 113.756 13.4465 112.394Z" fill="#52525B"/>
<path d="M85.9729 21.3138L97.2128 11.0598C98.6116 9.78366 100.787 9.90852 102.03 11.3363L105.677 15.5234C106.791 16.802 106.782 18.7085 105.657 19.9771L96.1505 30.6972C94.9252 32.0789 92.8167 32.2186 91.4199 31.0105L86.0397 26.3573C84.5113 25.0355 84.48 22.6756 85.9729 21.3138Z" fill="#52525B"/>
<path d="M132.631 41.0713L142.334 29.3528C143.542 27.8944 145.713 27.7154 147.143 28.9562L151.337 32.595C152.618 33.7062 152.875 35.5953 151.937 37.0081L144.015 48.947C142.994 50.4857 140.926 50.9175 139.374 49.9156L133.399 46.0565C131.701 44.9602 131.342 42.6277 132.631 41.0713Z" fill="#52525B"/>
<path d="M102.84 3.60377L114.08 -6.65023C115.479 -7.92633 117.654 -7.80147 118.897 -6.37366L122.544 -2.18658C123.658 -0.907993 123.649 0.998523 122.524 2.26712L113.018 12.9872C111.792 14.3689 109.684 14.5086 108.287 13.3005L102.907 8.64734C101.378 7.3255 101.347 4.96564 102.84 3.60377Z" fill="#52525B"/>
<path d="M147.871 21.4663L158.175 10.2717C159.457 8.87849 161.635 8.81333 162.998 10.1273L166.996 13.9806C168.217 15.1573 168.374 17.0573 167.364 18.4191L158.828 29.927C157.728 31.4102 155.64 31.7331 154.143 30.6514L148.378 26.4848C146.74 25.3012 146.503 22.9531 147.871 21.4663Z" fill="#52525B"/>
<path d="M11.2513 76.2829L21.5548 65.0883C22.8371 63.6952 25.0146 63.63 26.3778 64.944L30.3757 68.7973C31.5965 69.9739 31.7542 71.874 30.7441 73.2358L22.208 84.7436C21.1079 86.2269 19.0196 86.5497 17.5228 85.4681L11.7575 81.3015C10.1197 80.1179 9.88286 77.7697 11.2513 76.2829Z" fill="#52525B"/>
<path d="M-2.70112 131.658L4.84749 121.664C5.89785 120.274 7.83459 119.912 9.316 120.83L15.3311 124.557C16.9272 125.546 17.4086 127.648 16.4021 129.233L8.87202 141.092C7.74251 142.87 5.27678 143.19 3.73131 141.757L-2.30232 136.166C-3.57264 134.988 -3.74499 133.04 -2.70112 131.658Z" fill="#52525B"/>
<path d="M68.9825 39.735L76.5311 29.7411C77.5814 28.3505 79.5182 27.9888 80.9996 28.9067L87.0147 32.6337C88.6108 33.6227 89.0922 35.7245 88.0857 37.3095L80.5556 49.1682C79.4261 50.947 76.9604 51.2664 75.4149 49.8341L69.3813 44.2424C68.111 43.0651 67.9386 41.1171 68.9825 39.735Z" fill="#52525B"/>
<path d="M118.739 59.975L126.288 49.9811C127.338 48.5904 129.275 48.2288 130.756 49.1467L136.772 52.8737C138.368 53.8627 138.849 55.9645 137.843 57.5495L130.312 69.4082C129.183 71.187 126.717 71.5064 125.172 70.0741L119.138 64.4824C117.868 63.3051 117.695 61.3571 118.739 59.975Z" fill="#52525B"/>
<path d="M-21.1785 153.097L-9.46359 139.657C-8.1754 138.179 -5.90304 138.107 -4.52362 139.5L1.78607 145.872C2.98871 147.087 3.09284 149.009 2.02846 150.346L-9.57353 164.924C-10.8937 166.583 -13.3989 166.627 -14.7767 165.016L-21.1993 157.505C-22.2866 156.234 -22.2777 154.358 -21.1785 153.097Z" fill="#52525B"/>
<path d="M46.0022 10.9101L60.2554 0.199652C61.8227 -0.978096 64.0604 -0.576271 65.1201 1.0732L69.967 8.61815C70.8908 10.0562 70.593 11.958 69.2739 13.0449L54.8945 24.8921C53.2582 26.2402 50.7986 25.7626 49.7859 23.9001L45.0652 15.2184C44.266 13.7486 44.6648 11.9152 46.0022 10.9101Z" fill="#52525B"/>
<path d="M50.5042 62.0166L62.219 48.5768C63.5072 47.0989 65.7796 47.0267 67.159 48.4198L73.4687 54.7922C74.6713 56.0067 74.7755 57.9289 73.7111 59.2663L62.1091 73.8443C60.7889 75.5031 58.2838 75.5473 56.9059 73.936L50.4833 66.4255C49.396 65.154 49.4049 63.2777 50.5042 62.0166Z" fill="#52525B"/>
<path d="M-5.56789 25.1644L-5.62487 25.0923C-6.46327 24.0316 -7.96879 23.7784 -9.10808 24.5064C-10.278 25.254 -11.8275 24.9646 -12.6487 23.8451L-19.6885 14.2481C-20.6757 12.9024 -20.5304 11.037 -19.3467 9.86041L-12.0436 2.60091C-10.753 1.31804 -8.67752 1.29 -7.35276 2.53754L-1.31044 8.22765C0.0756588 9.53295 -0.0736151 11.7787 -1.62028 12.8891C-2.90219 13.8093 -3.26174 15.5602 -2.44627 16.9112L-0.189075 20.6507C0.696239 22.1174 0.341566 24.0148 -1.01379 25.0627L-1.75018 25.632C-2.93587 26.5487 -4.63852 26.3401 -5.56789 25.1644Z" fill="#52525B"/>
<path d="M10.8833 -9.66116L13.3658 -6.55102C14.3722 -5.29017 14.345 -3.49324 13.3009 -2.26342L13.1012 -2.02821C12.0731 -0.817295 12.0292 0.946763 12.9956 2.20739L14.5933 4.29143C15.6863 5.7171 15.4702 7.74922 14.102 8.91322L13.936 9.05435C12.5064 10.2705 10.359 10.0859 9.15794 8.64347L7.38574 6.51509C6.82897 5.84642 5.87335 5.67225 5.11647 6.1015C4.36524 6.52755 3.41722 6.35944 2.85827 5.70107L-1.48959 0.579786C-2.70439 -0.851105 -2.51755 -2.99841 -1.07387 -4.19798L6.09098 -10.1513C7.54389 -11.3586 9.70487 -11.1375 10.8833 -9.66116Z" fill="#52525B"/>
<path d="M36.6765 23.5811L38.949 25.4574C39.8188 26.1755 41.0653 26.2111 41.9746 25.5437C42.9357 24.8384 44.2639 24.9225 45.1282 25.7435L46.7971 27.3285C47.8052 28.286 47.8946 29.8624 47.0013 30.9278L46.8202 31.1438C46.0169 32.1019 46.1098 33.5224 47.0311 34.3676C47.9164 35.1797 48.0417 36.5307 47.321 37.4918L42.6352 43.7402C41.4485 45.3228 39.1609 45.5493 37.6869 44.2301L27.3381 34.9691C26.0111 33.7815 25.8357 31.767 26.9377 30.368L31.8788 24.095C33.0504 22.6076 35.2164 22.3755 36.6765 23.5811Z" fill="#52525B"/>
<path d="M267.445 173.475L282.058 183.069C283.554 184.051 284.022 186.031 283.125 187.58L278.218 196.047C277.206 197.793 274.898 198.266 273.281 197.058L259.275 186.597C257.914 185.581 257.521 183.712 258.358 182.234L262.657 174.633C263.618 172.936 265.814 172.404 267.445 173.475Z" fill="#52525B"/>
<path d="M254.794 190.341L269.407 199.935C270.904 200.918 271.372 202.898 270.475 204.447L265.568 212.914C264.556 214.66 262.247 215.133 260.63 213.925L246.625 203.464C245.264 202.448 244.871 200.578 245.707 199.1L250.007 191.5C250.967 189.802 253.164 189.271 254.794 190.341Z" fill="#52525B"/>
<path d="M215.158 -2.78202L229.771 6.81193C231.267 7.79434 231.735 9.77446 230.838 11.3232L225.931 19.7905C224.919 21.5366 222.611 22.0095 220.994 20.8018L206.988 10.3407C205.627 9.32447 205.234 7.45515 206.07 5.97702L210.37 -1.62316C211.331 -3.32102 213.527 -3.85263 215.158 -2.78202Z" fill="#52525B"/>
<path d="M280.665 159.81L287.84 164.213C289.393 165.166 289.909 167.18 289.005 168.762L285.269 175.3C284.341 176.923 282.271 177.483 280.652 176.548L273.316 172.309C271.699 171.375 271.149 169.306 272.087 167.692L275.984 160.99C276.936 159.352 279.05 158.819 280.665 159.81Z" fill="#52525B"/>
<path d="M271.659 123.068L280.133 139.546C280.379 140.023 280.507 140.552 280.507 141.088L280.507 141.729C280.507 142.993 279.8 144.151 278.676 144.729L262.533 153.027C260.83 153.902 258.741 153.186 257.933 151.451L255.66 146.572C254.925 144.994 255.511 143.116 257.013 142.236L261.465 139.629C262.861 138.812 263.48 137.118 262.941 135.593L260.391 128.384C259.831 126.799 260.523 125.044 262.014 124.267L267.102 121.619C268.76 120.755 270.804 121.406 271.659 123.068Z" fill="#52525B"/>
<path d="M213.357 105.247L218.152 109.084C219.526 110.184 219.759 112.184 218.675 113.57L218.273 114.085C217.426 115.169 217.595 116.73 218.655 117.607C219.743 118.507 219.887 120.123 218.976 121.203L217.118 123.402C215.924 124.817 213.812 125.004 212.387 123.822L203.845 116.737C202.405 115.543 202.212 113.406 203.414 111.973L208.665 105.713C209.843 104.308 211.926 104.101 213.357 105.247Z" fill="#52525B"/>
<path d="M181.784 67.683L177.243 63.5478C175.943 62.363 173.93 62.4454 172.731 63.7326L172.285 64.2104C171.348 65.2165 169.779 65.2937 168.747 64.3844C167.687 63.4504 166.069 63.5607 165.145 64.6298L163.264 66.8084C162.053 68.2094 162.199 70.3241 163.589 71.5467L171.923 78.8756C173.327 80.1107 175.469 79.9673 176.696 78.556L182.058 72.3906C183.261 71.0076 183.139 68.9172 181.784 67.683Z" fill="#52525B"/>
<path d="M183.052 134.104L195.354 119.887C196.508 118.554 198.494 118.334 199.912 119.384L206.238 124.068C207.686 125.139 208.036 127.159 207.034 128.655L205.719 130.619C204.833 131.944 205.139 133.73 206.416 134.684C207.744 135.676 208.013 137.559 207.015 138.884L196.051 153.44C194.878 154.997 192.632 155.239 191.155 153.967L185.221 148.857C183.967 147.777 183.681 145.946 184.547 144.536L184.872 144.006C185.69 142.674 185.485 140.954 184.377 139.851L183.223 138.702C181.968 137.452 181.893 135.444 183.052 134.104Z" fill="#52525B"/>
<path d="M224.376 -16.8527L236.677 -31.0692C237.831 -32.403 239.818 -32.6226 241.235 -31.5731L247.562 -26.8891C249.009 -25.8174 249.359 -23.7977 248.357 -22.3012L247.042 -20.3372C246.156 -19.013 246.462 -17.2264 247.739 -16.2729C249.067 -15.2807 249.336 -13.3975 248.339 -12.073L237.374 2.48352C236.201 4.04084 233.956 4.28233 232.478 3.01009L226.544 -2.10011C225.29 -3.18007 225.004 -5.01035 225.87 -6.42089L226.195 -6.95079C227.013 -8.28316 226.808 -10.0028 225.7 -11.1059L224.546 -12.2549C223.291 -13.5049 223.216 -15.513 224.376 -16.8527Z" fill="#52525B"/>
<path d="M144.061 93.8805L144.731 94.4338C145.757 95.28 146.19 96.6496 145.837 97.9315L145.796 98.0807C145.205 100.227 142.734 101.222 140.82 100.085L140.046 99.6251C138.442 98.6722 137.916 96.5983 138.872 94.9963L139.017 94.7537C140.076 92.9793 142.467 92.5653 144.061 93.8805Z" fill="#52525B"/>
<path d="M182.855 30.6305L183.525 31.1838C184.551 32.03 184.984 33.3996 184.631 34.6815L184.59 34.8307C183.998 36.9766 181.528 37.9719 179.614 36.8351L178.84 36.3751C177.236 35.4222 176.71 33.3484 177.666 31.7463L177.811 31.5037C178.87 29.7293 181.261 29.3153 182.855 30.6305Z" fill="#52525B"/>
<path d="M272.858 90.0233L280.264 95.5647C281.783 96.7019 282.066 98.8686 280.889 100.358L268.705 115.77C267.565 117.212 265.481 117.476 264.017 116.364L257.035 111.056C255.557 109.932 255.265 107.827 256.38 106.343L268.141 90.6973C269.259 89.2103 271.369 88.9088 272.858 90.0233Z" fill="#52525B"/>
<path d="M113.446 68.4382L120.7 74.7652C121.899 75.8113 122.145 77.5809 121.277 78.9144C120.324 80.3771 120.722 82.3339 122.171 83.3075L126.47 86.1962C128.122 87.3061 128.459 89.5971 127.197 91.1356L118.754 101.429C117.574 102.866 115.454 103.079 114.013 101.903L110.727 99.2221C109.425 98.1592 107.514 98.3211 106.408 99.5879C105.362 100.787 103.582 101.005 102.277 100.095L93.6566 94.0831C92.0778 92.982 91.7389 90.7852 92.9124 89.2595L108.555 68.9237C109.74 67.3823 111.98 67.1599 113.446 68.4382Z" fill="#52525B"/>
<path d="M200.713 32.5822L205.021 35.5728C206.623 36.6852 206.95 38.9205 205.735 40.4459L201.436 45.8413C200.309 47.2549 198.269 47.5295 196.809 46.464L192.934 43.6365C191.453 42.5558 191.107 40.4902 192.154 38.9853L196.02 33.4268C197.083 31.8983 199.184 31.5203 200.713 32.5822Z" fill="#52525B"/>
<path d="M214.206 17.4022L218.514 20.3928C220.116 21.5052 220.444 23.7405 219.228 25.266L214.929 30.6613C213.802 32.0749 211.762 32.3495 210.302 31.284L206.427 28.4565C204.947 27.3758 204.6 25.3102 205.647 23.8053L209.513 18.2468C210.577 16.7183 212.677 16.3403 214.206 17.4022Z" fill="#52525B"/>
<path d="M192.611 15.3183L197.044 18.3048C198.443 19.2476 198.85 21.1263 197.966 22.5634C196.974 24.1757 194.793 24.5537 193.317 23.3693L189.147 20.0251C187.9 19.0246 187.687 17.2076 188.67 15.9462C189.615 14.7339 191.337 14.4596 192.611 15.3183Z" fill="#52525B"/>
<path d="M-31.9763 238.173L85.4762 330.145C86.3995 330.868 86.8811 332.018 86.7479 333.184L83.8459 358.577C83.6904 359.937 84.3723 361.256 85.5717 361.916L106.578 373.469C107.936 374.216 109.628 373.941 110.68 372.804L122.395 360.139C123.581 358.856 125.55 358.692 126.933 359.76L209.677 423.656C211.092 424.748 211.409 426.754 210.4 428.23L158.011 504.831C157.383 505.75 156.341 506.3 155.227 506.3L-34.0561 506.3C-35.9191 506.3 -37.4294 504.79 -37.4294 502.927L-37.4294 240.829C-37.4294 238.017 -34.1905 236.44 -31.9763 238.173Z" fill="#115536"/>
<rect width="306.263" height="506" transform="translate(-14.792 -25)" fill="url(#paint0_linear_1543_22054)"/>
<path d="M108.754 117.467C113.207 95.9802 99.4035 74.9507 77.9231 70.4962C56.4428 66.0417 35.4196 79.8491 30.9664 101.336C26.5133 122.823 40.3166 143.852 61.7969 148.307C83.2773 152.761 104.3 138.954 108.754 117.467Z" fill="#2AD587"/>
<path d="M60.4385 141.983L66.9549 158.698L73.6715 141.115L60.4385 141.983Z" fill="#2AD587"/>
<path fill-rule="evenodd" clip-rule="evenodd" d="M55.7402 96.5707H82.1832V101.057H55.7402V96.5707Z" fill="#FFE5C2"/>
<path fill-rule="evenodd" clip-rule="evenodd" d="M55.7402 96.5707H82.1832V98.2341H55.7402V96.5707Z" fill="#F0CEA1"/>
<path fill-rule="evenodd" clip-rule="evenodd" d="M49.5156 104.92H88.5147V132.425H49.5156V104.92Z" fill="#FFE5C2"/>
<path fill-rule="evenodd" clip-rule="evenodd" d="M49.5156 104.92H88.5146V109.513C88.3215 109.535 88.1283 109.545 87.9351 109.545H87.6883C86.3361 109.545 85.0376 109.02 84.0502 108.097C83.0737 109.03 81.7751 109.545 80.4122 109.545H80.1654C78.8132 109.545 77.5146 109.02 76.5273 108.097C75.5507 109.03 74.2522 109.545 72.8893 109.545H72.6424C71.2902 109.545 69.9917 109.02 69.0044 108.097C68.0278 109.03 66.7293 109.545 65.3663 109.545H65.1195C63.7673 109.545 62.4688 109.02 61.4815 108.097C60.5049 109.03 59.2063 109.545 57.8434 109.545H57.6073C56.2444 109.545 54.9566 109.02 53.9693 108.097C52.982 109.03 51.6942 109.545 50.3312 109.545H50.0844C49.8912 109.545 49.6981 109.535 49.5049 109.513L49.5156 104.92Z" fill="#F0CEA1"/>
<path d="M87.3561 97.1395H50.5678C50.2673 97.1395 50.0098 96.8927 50.0098 96.5815V87.0624C50.0098 86.7619 50.2566 86.5151 50.5678 86.5151H87.3561C87.6566 86.5151 87.9034 86.7619 87.9034 87.0624V96.5815C87.9142 96.8927 87.6566 97.1395 87.3561 97.1395Z" fill="#6C3429"/>
<path d="M51.1152 87.6098H86.7982V96.0234H51.1152V87.6098Z" fill="#A44F3E"/>
<path d="M83.9003 129.463C83.9003 129.764 83.6534 130.011 83.353 130.011H73.233C72.9325 130.011 72.6856 129.764 72.6856 129.463V117.133C72.6856 114.042 75.2076 111.52 78.2983 111.52C81.389 111.52 83.911 114.042 83.911 117.133L83.9003 129.463ZM55.1286 111.016H68.511C68.8866 111.016 69.2193 111.166 69.4661 111.413C69.713 111.66 69.8632 111.992 69.8632 112.368V125.546C69.8632 125.922 69.713 126.255 69.4661 126.501C69.4554 126.512 69.4447 126.523 69.4232 126.534C69.1764 126.759 68.8544 126.899 68.5003 126.899H55.1286C54.753 126.899 54.4203 126.748 54.1734 126.501C53.9266 126.255 53.7764 125.922 53.7764 125.546V112.368C53.7764 111.992 53.9266 111.66 54.1734 111.413C54.4203 111.166 54.753 111.016 55.1286 111.016Z" fill="#A44F3E"/>
<path fill-rule="evenodd" clip-rule="evenodd" d="M54.9677 112.175L54.9462 112.196C54.9033 112.239 54.8711 112.303 54.8711 112.368V125.546C54.8711 125.6 54.8926 125.654 54.9248 125.707C54.9355 125.707 54.9355 125.718 54.9462 125.729C54.9891 125.772 55.0535 125.804 55.1179 125.804H68.5004C68.5648 125.804 68.6184 125.782 68.6721 125.74L68.6935 125.718C68.7365 125.675 68.7579 125.611 68.7579 125.557V112.368C68.7579 112.303 68.7257 112.239 68.6828 112.196C68.6399 112.153 68.5755 112.121 68.5111 112.121H55.1287C55.0643 112.121 55.0106 112.142 54.9677 112.175ZM82.795 128.905V117.133C82.795 114.654 80.7667 112.625 78.2877 112.625C75.8087 112.625 73.7804 114.654 73.7804 117.133V128.916C76.7745 128.905 79.7901 128.905 82.795 128.905Z" fill="#C8EFFE"/>
<path fill-rule="evenodd" clip-rule="evenodd" d="M64.4867 115.426C64.7335 115.18 65.1306 115.18 65.3774 115.426C65.6242 115.673 65.6242 116.07 65.3774 116.317L59.1423 122.584C58.8954 122.831 58.4984 122.831 58.2515 122.584C58.0047 122.338 58.0047 121.94 58.2515 121.694L64.4867 115.426ZM60.2691 115.33C60.5267 115.094 60.9237 115.104 61.1598 115.351C61.3959 115.598 61.3852 116.006 61.1384 116.242L59.2818 118.013C59.0242 118.249 58.6271 118.238 58.391 117.991C58.1549 117.744 58.1657 117.337 58.4125 117.1L60.2691 115.33Z" fill="white"/>
<path d="M48.0565 100.069H53.9697C54.2702 100.069 54.5277 100.316 54.5277 100.617V104.255C54.5277 105.403 54.0555 106.455 53.3043 107.217C52.5424 107.979 51.5014 108.44 50.3531 108.44H50.0955C48.9472 108.44 47.8955 107.968 47.1443 107.217C46.3824 106.455 45.9102 105.414 45.9102 104.255V102.226C45.9102 101.636 46.157 101.089 46.5433 100.702C46.9297 100.305 47.4663 100.069 48.0565 100.069Z" fill="#F6A96C"/>
<path d="M53.9799 100.069H61.5028C61.8033 100.069 62.0502 100.316 62.0502 100.617V104.255C62.0502 105.403 61.578 106.455 60.8268 107.217C60.0648 107.979 59.0238 108.44 57.8648 108.44H57.6072C56.4589 108.44 55.4072 107.968 54.6453 107.217C53.8833 106.455 53.4219 105.414 53.4219 104.255V100.617C53.4219 100.316 53.6687 100.069 53.9799 100.069Z" fill="#A44F3E"/>
<path d="M61.4926 100.069H69.0156C69.316 100.069 69.5629 100.316 69.5629 100.617V104.255C69.5629 105.403 69.0907 106.455 68.3395 107.217C67.5775 107.979 66.5365 108.44 65.3775 108.44H65.1307C63.9824 108.44 62.9307 107.968 62.1687 107.217C61.4068 106.455 60.9453 105.414 60.9453 104.255V100.617C60.9453 100.316 61.1921 100.069 61.4926 100.069Z" fill="#F6A96C"/>
<path d="M69.0154 100.069H76.5384C76.8388 100.069 77.0857 100.316 77.0857 100.617V104.255C77.0857 105.403 76.6135 106.455 75.8515 107.217C75.0896 107.979 74.0486 108.44 72.9003 108.44H72.6535C71.5052 108.44 70.4535 107.968 69.6915 107.217C68.9296 106.455 68.4681 105.414 68.4681 104.255V100.617C68.4574 100.316 68.7042 100.069 69.0154 100.069Z" fill="#A44F3E"/>
<path d="M76.5278 100.069H84.0507C84.3512 100.069 84.598 100.316 84.598 100.617V104.255C84.598 105.403 84.1258 106.455 83.3639 107.217C82.6019 107.979 81.561 108.44 80.4127 108.44H80.1658C79.0175 108.44 77.9658 107.968 77.2146 107.217C76.4527 106.455 75.9805 105.414 75.9805 104.255V100.617C75.9805 100.316 76.2273 100.069 76.5278 100.069Z" fill="#F6A96C"/>
<path d="M84.0506 100.069H89.9638C90.554 100.069 91.1013 100.316 91.4877 100.702C91.874 101.089 92.1208 101.636 92.1208 102.226V104.255C92.1208 105.403 91.6486 106.455 90.8867 107.217C90.1247 107.979 89.0838 108.44 87.9355 108.44H87.6886C86.5403 108.44 85.4886 107.968 84.7374 107.217C83.9755 106.455 83.5033 105.414 83.5033 104.255V100.617C83.4925 100.316 83.7394 100.069 84.0506 100.069Z" fill="#A44F3E"/>
<path d="M80.2627 118.882C80.2627 118.581 80.5095 118.335 80.81 118.335C81.1105 118.335 81.3573 118.581 81.3573 118.882V122.638C81.3573 122.939 81.1105 123.185 80.81 123.185C80.5095 123.185 80.2627 122.939 80.2627 122.638V118.882Z" fill="#783A2D"/>
<path fill-rule="evenodd" clip-rule="evenodd" d="M63.6392 92.9649C63.8431 92.7395 64.1865 92.718 64.4119 92.9219C64.6372 93.1259 64.6587 93.4693 64.4548 93.6946C64.165 94.0166 63.8216 94.2634 63.4353 94.4351C63.0489 94.6068 62.6304 94.7034 62.2011 94.7034C61.3641 94.7034 60.6021 94.36 60.0441 93.8127C59.4967 93.2654 59.1533 92.5034 59.1533 91.6556C59.1533 90.8078 59.4967 90.0566 60.0441 89.4985C60.5914 88.9512 61.3533 88.6078 62.2011 88.6078C62.5767 88.6078 62.9416 88.6722 63.285 88.8117C63.6284 88.9405 63.9504 89.1337 64.2294 89.3805C64.4548 89.5844 64.4762 89.9278 64.2723 90.1639C64.0684 90.3893 63.725 90.4107 63.4889 90.2068C63.3065 90.0459 63.1026 89.9278 62.888 89.8419C62.6733 89.7561 62.4372 89.7132 62.2011 89.7132C61.6645 89.7132 61.1816 89.9278 60.8275 90.2819C60.4733 90.6361 60.2587 91.119 60.2587 91.6556C60.2587 92.1922 60.4733 92.6751 60.8275 93.0293C61.1816 93.3834 61.6645 93.598 62.2011 93.598C62.4802 93.598 62.7484 93.5444 62.9953 93.4371C63.2314 93.3298 63.4567 93.1688 63.6392 92.9649ZM66.5045 94.521C66.3972 94.8107 66.086 94.9502 65.7962 94.8537C65.5065 94.7463 65.367 94.4351 65.4636 94.1454L67.3738 89.0049C67.4811 88.7151 67.7923 88.5756 68.0821 88.6722C68.2431 88.7259 68.3611 88.8546 68.4148 89.0049L70.3143 94.1454C70.4216 94.4351 70.2714 94.7463 69.9816 94.8537C69.6919 94.961 69.3806 94.8107 69.2733 94.521L67.8889 90.7756L66.5045 94.521Z" fill="#FFE5C2"/>
<path fill-rule="evenodd" clip-rule="evenodd" d="M66.687 92.9863C66.3865 92.9863 66.1396 92.7395 66.1396 92.4283C66.1396 92.1278 66.3865 91.8702 66.687 91.8702H69.0801C69.3806 91.8702 69.6275 92.1171 69.6275 92.4283C69.6275 92.7288 69.3806 92.9863 69.0801 92.9863H66.687ZM71.1728 89.1873C71.1728 88.8868 71.4196 88.6293 71.7201 88.6293C72.0206 88.6293 72.2675 88.8761 72.2675 89.1873V94.478C72.2675 94.7785 72.0206 95.0361 71.7201 95.0361C71.4196 95.0361 71.1728 94.7893 71.1728 94.478V89.1873Z" fill="#FFE5C2"/>
<path fill-rule="evenodd" clip-rule="evenodd" d="M71.7202 89.7454C71.4197 89.7454 71.1729 89.4985 71.1729 89.1873C71.1729 88.8868 71.4197 88.6293 71.7202 88.6293H74.006C74.3065 88.6293 74.5533 88.8761 74.5533 89.1873C74.5533 89.4878 74.3065 89.7454 74.006 89.7454H71.7202ZM71.7202 92.1278C71.4197 92.1278 71.1729 91.881 71.1729 91.5698C71.1729 91.2693 71.4197 91.0117 71.7202 91.0117H74.006C74.3065 91.0117 74.5533 91.2585 74.5533 91.5698C74.5533 91.8702 74.3065 92.1278 74.006 92.1278H71.7202ZM75.3797 89.1873C75.3797 88.8868 75.6265 88.6293 75.927 88.6293C76.2275 88.6293 76.4743 88.8761 76.4743 89.1873V94.478C76.4743 94.7785 76.2275 95.0361 75.927 95.0361C75.6265 95.0361 75.3797 94.7893 75.3797 94.478V89.1873Z" fill="#FFE5C2"/>
<path fill-rule="evenodd" clip-rule="evenodd" d="M75.9379 89.7454C75.6375 89.7454 75.3906 89.4985 75.3906 89.1873C75.3906 88.8868 75.6375 88.6293 75.9379 88.6293H78.2131C78.5136 88.6293 78.7604 88.8761 78.7604 89.1873C78.7604 89.4878 78.5136 89.7454 78.2131 89.7454H75.9379ZM75.9379 95.0361C75.6375 95.0361 75.3906 94.7893 75.3906 94.478C75.3906 94.1776 75.6375 93.92 75.9379 93.92H78.2131C78.5136 93.92 78.7604 94.1668 78.7604 94.478C78.7604 94.7785 78.5136 95.0361 78.2131 95.0361H75.9379ZM75.9379 92.3854C75.6375 92.3854 75.3906 92.1385 75.3906 91.8273C75.3906 91.5268 75.6375 91.2693 75.9379 91.2693H78.2131C78.5136 91.2693 78.7604 91.5161 78.7604 91.8273C78.7604 92.1278 78.5136 92.3854 78.2131 92.3854H75.9379Z" fill="#FFE5C2"/>
<path d="M89.416 132.865C90.0063 132.865 90.5536 132.629 90.9721 132.221C91.3906 131.803 91.616 131.256 91.616 130.665C91.616 130.075 91.3799 129.528 90.9721 129.109C90.5536 128.691 90.0063 128.465 89.416 128.465H48.6141C48.0238 128.465 47.4765 128.701 47.058 129.109C46.6394 129.528 46.4141 130.075 46.4141 130.665C46.4141 131.256 46.6502 131.803 47.058 132.221C47.4658 132.64 48.0238 132.865 48.6141 132.865H89.416Z" fill="#F6A96C"/>
<path d="M255.689 214.774C259.24 197.584 248.234 180.761 231.106 177.197C213.978 173.633 197.215 184.679 193.664 201.869C190.113 219.058 201.119 235.882 218.247 239.445C235.375 243.009 252.139 231.963 255.689 214.774Z" fill="#4A4AF2"/>
<path d="M217.164 234.387L222.36 247.758L227.716 233.692L217.164 234.387Z" fill="#4A4AF2"/>
<g clip-path="url(#clip2_1543_22054)">
<path d="M237.68 199.338H212.163V190.283C212.163 189.676 212.656 189.183 213.263 189.183H236.58C237.187 189.183 237.68 189.676 237.68 190.283V199.338Z" fill="#FCE270"/>
<path d="M236.58 189.183H233.257C233.864 189.183 234.357 189.676 234.357 190.283V199.338H237.68V190.283C237.68 189.676 237.187 189.183 236.58 189.183Z" fill="#FFBE7C"/>
<path d="M210.689 224.626V201.635H239.153V224.626H210.689Z" fill="#FEEBCA"/>
<path d="M210.689 201.635V205.12H223.3C230.114 205.12 235.637 210.643 235.637 217.457V224.626H239.154V201.635L210.689 201.635Z" fill="#F9D9AF"/>
<path d="M236.58 189.183H213.263C212.656 189.183 212.163 189.676 212.163 190.283V191.721H237.68V190.283C237.68 189.676 237.187 189.183 236.58 189.183Z" fill="#FF5876"/>
<path d="M236.58 189.183H233.257C233.864 189.183 234.357 189.676 234.357 190.283V191.721H237.68V190.283C237.68 189.676 237.187 189.183 236.58 189.183Z" fill="#ED4A79"/>
<path d="M222.119 222.533H212.863C212.82 222.532 212.777 222.541 212.737 222.558C212.697 222.574 212.661 222.598 212.631 222.629C212.6 222.659 212.576 222.696 212.559 222.736C212.543 222.776 212.534 222.818 212.534 222.862V224.626H222.449V222.862C222.449 222.818 222.44 222.776 222.424 222.736C222.407 222.696 222.383 222.659 222.352 222.629C222.322 222.598 222.285 222.574 222.245 222.558C222.205 222.541 222.163 222.532 222.119 222.533Z" fill="#D5E0F2"/>
<path d="M220.737 208.742H214.244C213.875 208.742 213.576 209.041 213.576 209.41V222.532H221.405V209.41C221.405 209.233 221.335 209.063 221.21 208.938C221.084 208.812 220.914 208.742 220.737 208.742Z" fill="#DD3A71"/>
<path d="M220.407 209.42H214.519C214.42 209.42 214.326 209.459 214.256 209.529C214.187 209.599 214.148 209.693 214.148 209.792V222.532H220.797V209.81C220.797 209.595 220.622 209.42 220.407 209.42ZM242.641 199.744H207.202L210.002 195.605C210.214 195.292 210.499 195.035 210.833 194.858C211.167 194.681 211.54 194.588 211.918 194.588H237.926C238.304 194.588 238.676 194.681 239.01 194.858C239.344 195.035 239.63 195.292 239.842 195.605L242.641 199.744Z" fill="#FF5876"/>
<path d="M238.711 199.744H211.132L213.31 195.605C213.645 194.969 214.204 194.588 214.802 194.588H235.042C235.639 194.588 236.198 194.969 236.533 195.605L238.711 199.744Z" fill="#E4EEF9"/>
<path d="M234.76 199.744H215.092L216.645 195.605C216.884 194.969 217.283 194.588 217.709 194.588H232.143C232.569 194.588 232.968 194.969 233.206 195.605L234.76 199.744Z" fill="#FF5876"/>
<path d="M230.842 199.744H219.011L219.945 195.605C220.089 194.969 220.329 194.588 220.585 194.588H229.268C229.524 194.588 229.764 194.969 229.908 195.605L230.842 199.744Z" fill="#E4EEF9"/>
<path d="M226.891 199.744H222.962L223.272 195.605C223.32 194.969 223.4 194.588 223.485 194.588H226.368C226.454 194.588 226.533 194.969 226.581 195.605L226.891 199.744Z" fill="#FF5876"/>
<path d="M207.203 199.739V202.057C207.203 203.145 208.085 204.026 209.172 204.026C210.26 204.026 211.141 203.145 211.141 202.057V199.739H207.203Z" fill="#E4EEF9"/>
<path d="M211.142 199.739V202.057C211.142 203.145 212.023 204.026 213.111 204.026C214.199 204.026 215.08 203.145 215.08 202.057V199.739H211.142Z" fill="#FF5876"/>
<path d="M215.08 199.739V202.057C215.08 203.145 215.962 204.026 217.05 204.026C218.137 204.026 219.019 203.145 219.019 202.057V199.739H215.08Z" fill="#E4EEF9"/>
<path d="M219.019 199.739V202.057C219.019 203.145 219.9 204.026 220.988 204.026C222.076 204.026 222.957 203.145 222.957 202.057V199.739H219.019Z" fill="#FF5876"/>
<path d="M222.958 199.739V202.057C222.958 203.145 223.84 204.026 224.927 204.026C226.015 204.026 226.897 203.145 226.897 202.057V199.739H222.958Z" fill="#E4EEF9"/>
<path d="M226.896 199.739V202.057C226.896 203.145 227.778 204.026 228.866 204.026C229.953 204.026 230.835 203.145 230.835 202.057V199.739H226.896Z" fill="#FF5876"/>
<path d="M230.835 199.739V202.057C230.835 203.145 231.717 204.026 232.804 204.026C233.892 204.026 234.774 203.145 234.774 202.057V199.739H230.835Z" fill="#E4EEF9"/>
<path d="M234.773 199.739V202.057C234.773 203.145 235.655 204.026 236.743 204.026C237.831 204.026 238.712 203.145 238.712 202.057V199.739H234.773Z" fill="#FF5876"/>
<path d="M238.712 199.739V202.057C238.712 203.145 239.594 204.026 240.681 204.026C241.769 204.026 242.651 203.145 242.651 202.057V199.739H238.712Z" fill="#E4EEF9"/>
<path d="M225.603 225.109C225.308 225.109 225.068 224.87 225.068 224.574V213.131C225.067 213.06 225.08 212.989 225.107 212.923C225.133 212.857 225.172 212.797 225.222 212.747C225.272 212.696 225.331 212.656 225.397 212.628C225.462 212.601 225.532 212.587 225.603 212.587C225.674 212.587 225.745 212.601 225.81 212.628C225.876 212.656 225.935 212.696 225.985 212.747C226.034 212.797 226.074 212.857 226.1 212.923C226.126 212.989 226.139 213.06 226.138 213.131V224.574C226.138 224.716 226.082 224.852 225.982 224.953C225.881 225.053 225.745 225.109 225.603 225.109Z" fill="white"/>
<path d="M229.495 225.161C229.425 225.161 229.355 225.147 229.29 225.12C229.225 225.093 229.166 225.054 229.117 225.004C229.067 224.954 229.028 224.895 229.001 224.831C228.974 224.766 228.96 224.696 228.96 224.626V221.099H226.138V224.626C226.138 224.696 226.125 224.766 226.098 224.831C226.071 224.896 226.031 224.955 225.982 225.004C225.932 225.054 225.873 225.093 225.808 225.12C225.743 225.147 225.674 225.161 225.603 225.161C225.533 225.161 225.464 225.147 225.399 225.12C225.334 225.093 225.275 225.054 225.225 225.004C225.175 224.955 225.136 224.896 225.109 224.831C225.082 224.766 225.068 224.696 225.068 224.626V220.564C225.068 220.422 225.125 220.286 225.225 220.185C225.325 220.085 225.461 220.029 225.603 220.029H229.099C229.612 220.029 230.03 220.429 230.03 220.921V224.626C230.03 224.921 229.791 225.161 229.495 225.161Z" fill="white"/>
<path d="M241.313 225.109C241.171 225.109 241.035 225.053 240.935 224.953C240.835 224.852 240.778 224.716 240.778 224.574V213.131C240.777 213.06 240.79 212.989 240.817 212.923C240.843 212.857 240.882 212.797 240.932 212.747C240.982 212.696 241.041 212.656 241.107 212.628C241.172 212.601 241.242 212.587 241.313 212.587C241.384 212.587 241.455 212.601 241.52 212.628C241.586 212.656 241.645 212.696 241.695 212.747C241.744 212.797 241.784 212.857 241.81 212.923C241.836 212.989 241.849 213.06 241.848 213.131V224.574C241.848 224.716 241.792 224.852 241.692 224.953C241.591 225.053 241.455 225.109 241.313 225.109Z" fill="#E4EEF9"/>
<path d="M241.313 225.161C241.243 225.161 241.173 225.147 241.109 225.12C241.044 225.093 240.985 225.054 240.935 225.004C240.885 224.954 240.846 224.895 240.819 224.831C240.792 224.766 240.778 224.696 240.778 224.626V221.099H237.957V224.626C237.957 224.921 237.717 225.161 237.422 225.161C237.126 225.161 236.887 224.921 236.887 224.626V220.921C236.887 220.429 237.304 220.028 237.817 220.028H241.313C241.383 220.028 241.453 220.042 241.518 220.069C241.583 220.096 241.642 220.136 241.691 220.185C241.741 220.235 241.781 220.294 241.807 220.359C241.834 220.424 241.848 220.493 241.848 220.564V224.626C241.848 224.921 241.608 225.161 241.313 225.161Z" fill="#E4EEF9"/>
<path d="M233.394 225.161C233.324 225.161 233.255 225.147 233.19 225.12C233.125 225.093 233.066 225.054 233.016 225.004C232.966 224.954 232.927 224.895 232.9 224.831C232.873 224.766 232.859 224.696 232.859 224.626V218.357C232.859 218.215 232.916 218.079 233.016 217.979C233.116 217.879 233.253 217.822 233.394 217.822C233.536 217.822 233.672 217.879 233.773 217.979C233.873 218.079 233.929 218.215 233.929 218.357V224.626C233.929 224.921 233.69 225.161 233.394 225.161Z" fill="white"/>
<path d="M232.477 225.161C231.677 225.161 231.025 224.509 231.025 223.709C231.025 223.567 231.082 223.431 231.182 223.331C231.282 223.23 231.418 223.174 231.56 223.174C231.63 223.174 231.7 223.188 231.765 223.215C231.83 223.241 231.889 223.281 231.938 223.33C231.988 223.38 232.028 223.439 232.054 223.504C232.081 223.569 232.095 223.638 232.095 223.709C232.095 223.92 232.267 224.091 232.477 224.091C232.688 224.091 232.859 223.919 232.859 223.709C232.859 223.413 233.099 223.174 233.394 223.174C233.69 223.174 233.929 223.413 233.929 223.709C233.929 224.509 233.278 225.161 232.477 225.161Z" fill="white"/>
<path d="M234.312 225.161C233.511 225.161 232.859 224.509 232.859 223.709C232.859 223.413 233.099 223.174 233.394 223.174C233.69 223.174 233.929 223.413 233.929 223.709C233.93 223.81 233.97 223.907 234.041 223.979C234.113 224.051 234.21 224.091 234.312 224.091C234.413 224.091 234.51 224.05 234.582 223.979C234.653 223.907 234.693 223.81 234.693 223.709C234.693 223.413 234.933 223.174 235.229 223.174C235.524 223.174 235.764 223.413 235.764 223.709C235.764 224.509 235.112 225.161 234.312 225.161Z" fill="white"/>
<path d="M237.747 218.357H229.041C228.434 218.357 227.941 217.865 227.941 217.258V216.725C227.941 216.664 227.991 216.615 228.052 216.615H238.736C238.797 216.615 238.847 216.664 238.847 216.725V217.258C238.846 217.865 238.354 218.357 237.747 218.357Z" fill="#10C6FF"/>
<path d="M242.64 225.161H207.203C206.907 225.161 206.668 224.921 206.668 224.626C206.668 224.33 206.908 224.091 207.203 224.091H242.64C242.711 224.09 242.781 224.103 242.847 224.129C242.913 224.155 242.973 224.195 243.024 224.244C243.074 224.294 243.115 224.354 243.142 224.419C243.17 224.484 243.184 224.555 243.184 224.626C243.184 224.697 243.17 224.767 243.142 224.832C243.115 224.898 243.074 224.957 243.024 225.007C242.973 225.057 242.913 225.096 242.847 225.122C242.781 225.149 242.711 225.162 242.64 225.161Z" fill="#60768C"/>
<path d="M233.459 214.876C233.317 214.876 233.181 214.82 233.081 214.719C232.98 214.619 232.924 214.483 232.924 214.341V213.973C232.927 213.833 232.984 213.699 233.084 213.601C233.184 213.503 233.319 213.448 233.459 213.448C233.599 213.448 233.733 213.503 233.833 213.601C233.933 213.699 233.991 213.833 233.994 213.973V214.341C233.994 214.637 233.754 214.876 233.459 214.876Z" fill="#7C8FA5"/>
<path d="M231.618 216.615C231.618 215.359 232.442 214.341 233.458 214.341C234.475 214.341 235.299 215.359 235.299 216.615" fill="#91A0B5"/>
<path d="M219.94 215.79C219.94 215.932 219.884 216.068 219.784 216.169C219.683 216.269 219.547 216.326 219.405 216.326C219.263 216.326 219.127 216.269 219.027 216.169C218.926 216.068 218.87 215.932 218.87 215.79C218.87 215.649 218.926 215.512 219.027 215.412C219.127 215.312 219.263 215.255 219.405 215.255C219.547 215.255 219.683 215.312 219.784 215.412C219.884 215.512 219.94 215.649 219.94 215.79Z" fill="#EA9D57"/>
</g>
<path d="M148.082 293.851C151.711 276.184 140.462 258.893 122.957 255.23C105.452 251.568 88.3191 262.92 84.69 280.587C81.061 298.254 92.3098 315.545 109.815 319.208C127.32 322.87 144.452 311.518 148.082 293.851Z" fill="#FFD622"/>
<path d="M108.708 314.009L114.018 327.752L119.492 313.295L108.708 314.009Z" fill="#FFD622"/>
<g clip-path="url(#clip3_1543_22054)">
<path d="M97.751 280.646H134.484V303.003H97.751V280.646Z" fill="#F6A96C"/>
<path d="M97.751 299.26H100.063V283.809C100.063 283.758 100.073 283.706 100.093 283.659C100.112 283.611 100.141 283.567 100.178 283.531C100.215 283.494 100.258 283.465 100.306 283.445C100.354 283.425 100.405 283.415 100.457 283.415H101.141V280.723H97.751V299.26Z" fill="#EA9B58"/>
<path d="M100.139 299.26H96.9234C96.8717 299.26 96.8204 299.27 96.7726 299.29C96.7248 299.31 96.6813 299.339 96.6447 299.376C96.6081 299.412 96.5791 299.456 96.5593 299.503C96.5395 299.551 96.5293 299.603 96.5293 299.654V302.609C96.5293 302.661 96.5395 302.712 96.5593 302.76C96.5791 302.808 96.6081 302.851 96.6447 302.888C96.6813 302.925 96.7248 302.954 96.7726 302.973C96.8204 302.993 96.8717 303.003 96.9234 303.003H100.063L100.139 302.658V299.26ZM135.665 280.154L132.565 273.868C132.532 273.802 132.482 273.746 132.419 273.708C132.357 273.669 132.285 273.648 132.211 273.648H126.801V276.282C126.801 276.366 126.767 276.446 126.708 276.506C126.648 276.566 126.567 276.599 126.483 276.599H105.752C105.668 276.599 105.587 276.566 105.527 276.506C105.468 276.446 105.434 276.366 105.434 276.282V273.648H100.024C99.9503 273.648 99.8782 273.669 99.8158 273.708C99.7533 273.746 99.703 273.802 99.6705 273.868L96.5705 280.154C96.4413 280.416 96.6319 280.723 96.9239 280.723H135.311C135.603 280.723 135.794 280.416 135.665 280.154Z" fill="#FD5426"/>
<path d="M134.736 278.272H100.905C100.613 278.272 100.422 277.965 100.551 277.703L102.551 273.648H100.024C99.9503 273.648 99.8782 273.669 99.8158 273.708C99.7533 273.746 99.703 273.802 99.6704 273.868L96.5704 280.154C96.4413 280.416 96.6319 280.723 96.9239 280.723H135.311C135.603 280.723 135.794 280.416 135.665 280.154L134.736 278.272Z" fill="#EF4424"/>
<path d="M113.506 283.306H129.51V293.589H113.506V283.306Z" fill="#C8EFFE"/>
<path d="M114.084 288.096H115.582V293.512H114.084V288.096Z" fill="#99E6FC"/>
<path d="M129.51 293.589V290.391H127.224C127.193 290.391 127.162 290.397 127.133 290.409C127.105 290.421 127.079 290.439 127.057 290.461C127.035 290.483 127.017 290.509 127.005 290.537C126.993 290.566 126.987 290.597 126.987 290.628V293.589H129.51Z" fill="white"/>
<path d="M128.099 293.512V290.628C128.099 290.597 128.105 290.566 128.117 290.537C128.129 290.509 128.147 290.482 128.169 290.461C128.191 290.439 128.217 290.421 128.245 290.409C128.274 290.397 128.305 290.391 128.336 290.391H127.224C127.161 290.391 127.101 290.416 127.057 290.461C127.012 290.505 126.987 290.565 126.987 290.628V293.512H128.099Z" fill="#F3F0FF"/>
<path d="M112.937 287.987H114.084V293.589H112.937V287.987ZM128.94 287.987H130.088V293.589H128.94V287.987Z" fill="#6D3326"/>
<path d="M117.393 293.589H119.135C120.02 293.263 120.672 292.456 120.773 291.485C120.788 291.344 120.679 291.222 120.537 291.222H115.991C115.85 291.222 115.741 291.344 115.755 291.485C115.856 292.456 116.508 293.263 117.393 293.589Z" fill="white"/>
<path d="M117.208 293.512H118.86C118.069 293.148 117.498 292.388 117.404 291.485C117.39 291.344 117.499 291.222 117.64 291.222H115.991C115.85 291.222 115.741 291.344 115.755 291.485C115.849 292.387 116.418 293.148 117.208 293.512Z" fill="#F3F0FF"/>
<path d="M130.621 293.512H112.393C112.341 293.512 112.29 293.522 112.242 293.542C112.194 293.562 112.151 293.591 112.114 293.628C112.078 293.664 112.049 293.708 112.029 293.756C112.009 293.803 111.999 293.855 111.999 293.906V295.089C111.999 295.141 112.009 295.192 112.029 295.24C112.049 295.287 112.078 295.331 112.114 295.368C112.151 295.404 112.194 295.433 112.242 295.453C112.29 295.473 112.341 295.483 112.393 295.483H130.621C130.673 295.483 130.724 295.473 130.772 295.453C130.82 295.433 130.863 295.404 130.9 295.368C130.937 295.331 130.966 295.287 130.985 295.24C131.005 295.192 131.015 295.141 131.015 295.089V293.906C131.015 293.802 130.974 293.702 130.9 293.628C130.826 293.554 130.726 293.512 130.621 293.512Z" fill="#A44F3E"/>
<path d="M115.31 295.089V293.906C115.31 293.855 115.32 293.803 115.34 293.756C115.36 293.708 115.389 293.664 115.425 293.628C115.462 293.591 115.505 293.562 115.553 293.542C115.601 293.522 115.652 293.512 115.704 293.512H112.393C112.341 293.512 112.29 293.522 112.242 293.542C112.194 293.562 112.151 293.591 112.114 293.628C112.078 293.664 112.049 293.708 112.029 293.756C112.009 293.803 111.999 293.855 111.999 293.906V295.089C111.999 295.141 112.009 295.192 112.029 295.24C112.049 295.287 112.078 295.331 112.114 295.368C112.151 295.404 112.194 295.433 112.242 295.453C112.29 295.473 112.341 295.483 112.393 295.483H115.704C115.599 295.483 115.499 295.441 115.425 295.368C115.351 295.294 115.31 295.193 115.31 295.089Z" fill="#883F2E"/>
<path d="M114.295 299.459H116.266V303.003H114.295V299.459ZM126.749 299.459H128.72V303.003H126.749V299.459Z" fill="#6D3326"/>
<path d="M129.501 299.535H113.513C113.462 299.535 113.41 299.525 113.362 299.505C113.315 299.485 113.271 299.456 113.235 299.42C113.198 299.383 113.169 299.34 113.149 299.292C113.129 299.244 113.119 299.193 113.119 299.141V297.959C113.119 297.907 113.129 297.856 113.149 297.808C113.169 297.76 113.198 297.716 113.235 297.68C113.271 297.643 113.315 297.614 113.362 297.594C113.41 297.575 113.462 297.564 113.513 297.564H129.501C129.553 297.564 129.604 297.575 129.652 297.594C129.7 297.614 129.743 297.643 129.78 297.68C129.816 297.716 129.845 297.76 129.865 297.808C129.885 297.856 129.895 297.907 129.895 297.959V299.141C129.895 299.246 129.854 299.346 129.78 299.42C129.706 299.494 129.605 299.535 129.501 299.535Z" fill="#A44F3E"/>
<path d="M115.565 299.141V297.959C115.565 297.907 115.576 297.856 115.595 297.808C115.615 297.76 115.644 297.716 115.681 297.68C115.717 297.643 115.761 297.614 115.809 297.594C115.857 297.575 115.908 297.564 115.96 297.564H113.513C113.462 297.564 113.41 297.575 113.362 297.594C113.315 297.614 113.271 297.643 113.235 297.68C113.198 297.716 113.169 297.76 113.149 297.808C113.129 297.856 113.119 297.907 113.119 297.959V299.141C113.119 299.193 113.129 299.244 113.149 299.292C113.169 299.34 113.198 299.383 113.235 299.42C113.271 299.456 113.315 299.485 113.362 299.505C113.41 299.525 113.462 299.535 113.513 299.535H115.96C115.908 299.535 115.857 299.525 115.809 299.505C115.761 299.485 115.717 299.456 115.681 299.42C115.644 299.383 115.615 299.34 115.595 299.292C115.576 299.244 115.565 299.193 115.565 299.141Z" fill="#883F2E"/>
<path d="M115.932 288.096H112.517V283.707C112.517 283.601 112.559 283.499 112.634 283.423C112.709 283.348 112.811 283.306 112.917 283.306H117.012L116.175 287.893C116.165 287.95 116.135 288.002 116.09 288.039C116.046 288.076 115.99 288.096 115.932 288.096Z" fill="#FD5426"/>
<path d="M121.507 288.096H118.124C118.067 288.096 118.011 288.076 117.966 288.039C117.922 288.003 117.892 287.951 117.881 287.895L117.012 283.306H121.507V288.096H121.507Z" fill="#FD5426"/>
<path d="M125.755 288.096H121.508V283.306H126.003V287.849C126.003 287.914 125.977 287.977 125.931 288.024C125.884 288.07 125.821 288.096 125.755 288.096Z" fill="#EF4424"/>
<path d="M130.498 288.096H127.932C127.881 288.096 127.831 288.081 127.79 288.052C127.748 288.023 127.716 287.981 127.699 287.934L126.003 283.306H130.097C130.204 283.306 130.306 283.348 130.381 283.423C130.456 283.499 130.498 283.601 130.498 283.707L130.498 288.096Z" fill="#FD5426"/>
<path d="M109.89 303.003H100.063V283.809C100.062 283.758 100.073 283.706 100.092 283.658C100.112 283.611 100.141 283.567 100.178 283.531C100.215 283.494 100.258 283.465 100.306 283.445C100.354 283.425 100.405 283.415 100.457 283.415H109.496C109.548 283.415 109.599 283.425 109.647 283.445C109.695 283.465 109.738 283.494 109.775 283.531C109.811 283.567 109.84 283.611 109.86 283.658C109.88 283.706 109.89 283.758 109.89 283.809V303.003Z" fill="#883F2E"/>
<path d="M100.062 292.645H109.89V300.083H100.062V292.645Z" fill="#A44F3E"/>
<path d="M107.783 290.202V285.834C107.783 285.782 107.773 285.731 107.753 285.683C107.733 285.635 107.704 285.592 107.667 285.555C107.631 285.519 107.587 285.49 107.539 285.47C107.492 285.45 107.44 285.44 107.389 285.44H102.565C102.513 285.44 102.462 285.45 102.414 285.47C102.366 285.49 102.323 285.519 102.286 285.555C102.25 285.592 102.221 285.635 102.201 285.683C102.181 285.731 102.171 285.782 102.171 285.834V290.202C102.171 290.253 102.181 290.305 102.201 290.353C102.221 290.4 102.25 290.444 102.286 290.48C102.323 290.517 102.366 290.546 102.414 290.566C102.462 290.586 102.513 290.596 102.565 290.596H107.389C107.493 290.596 107.593 290.554 107.667 290.48C107.741 290.406 107.783 290.306 107.783 290.202Z" fill="white"/>
<path d="M103.821 290.202V285.834C103.821 285.782 103.831 285.731 103.851 285.683C103.871 285.635 103.9 285.592 103.936 285.555C103.973 285.519 104.017 285.49 104.064 285.47C104.112 285.45 104.163 285.44 104.215 285.44H102.565C102.513 285.44 102.462 285.45 102.414 285.47C102.366 285.49 102.323 285.519 102.286 285.555C102.25 285.592 102.221 285.635 102.201 285.683C102.181 285.731 102.171 285.782 102.171 285.834V290.202C102.171 290.253 102.181 290.305 102.201 290.353C102.221 290.4 102.25 290.444 102.286 290.48C102.323 290.517 102.366 290.546 102.414 290.566C102.462 290.586 102.513 290.596 102.565 290.596H104.215C104.163 290.596 104.112 290.586 104.064 290.566C104.017 290.546 103.973 290.517 103.936 290.48C103.9 290.444 103.871 290.4 103.851 290.352C103.831 290.305 103.821 290.253 103.821 290.202Z" fill="#F3F0FF"/>
<path d="M107.388 291.17H102.565C102.031 291.17 101.597 290.735 101.597 290.202V285.834C101.597 285.3 102.031 284.866 102.565 284.866H107.388C107.922 284.866 108.356 285.3 108.356 285.834V290.202C108.356 290.735 107.922 291.17 107.388 291.17ZM102.745 290.022H107.209V286.014H102.745V290.022Z" fill="#6D3326"/>
<path d="M106.977 292.645H108.125V300.083H106.977V292.645ZM101.828 292.645H102.976V300.083H101.828V292.645ZM104.403 292.645H105.55V300.083H104.403V292.645Z" fill="#6D3326"/>
<path d="M126.483 276.676H105.752C105.7 276.676 105.649 276.665 105.601 276.646C105.553 276.626 105.509 276.597 105.473 276.56C105.436 276.524 105.407 276.48 105.387 276.432C105.368 276.384 105.357 276.333 105.357 276.281V270.685C105.357 270.633 105.368 270.582 105.387 270.534C105.407 270.486 105.436 270.443 105.473 270.406C105.509 270.369 105.553 270.34 105.601 270.321C105.649 270.301 105.7 270.291 105.752 270.291H126.483C126.535 270.291 126.586 270.301 126.634 270.321C126.681 270.34 126.725 270.369 126.762 270.406C126.798 270.443 126.827 270.486 126.847 270.534C126.867 270.582 126.877 270.633 126.877 270.685V276.281C126.877 276.333 126.867 276.384 126.847 276.432C126.827 276.48 126.798 276.524 126.762 276.56C126.725 276.597 126.681 276.626 126.634 276.646C126.586 276.665 126.535 276.676 126.483 276.676Z" fill="#FFE5C2"/>
<path d="M107.941 275.28C107.89 275.28 107.838 275.27 107.791 275.25C107.743 275.23 107.699 275.201 107.663 275.165C107.626 275.128 107.597 275.085 107.577 275.037C107.558 274.989 107.547 274.938 107.547 274.886V270.291H105.752C105.7 270.291 105.649 270.301 105.601 270.321C105.553 270.34 105.509 270.369 105.473 270.406C105.436 270.443 105.407 270.486 105.387 270.534C105.368 270.582 105.357 270.633 105.357 270.685V276.281C105.357 276.333 105.368 276.384 105.387 276.432C105.407 276.48 105.436 276.524 105.473 276.56C105.509 276.597 105.553 276.626 105.601 276.646C105.649 276.665 105.7 276.676 105.752 276.676H126.483C126.535 276.676 126.586 276.665 126.634 276.646C126.681 276.626 126.725 276.597 126.762 276.56C126.798 276.524 126.827 276.48 126.847 276.432C126.867 276.384 126.877 276.333 126.877 276.281V275.28L107.941 275.28Z" fill="#FED2A4"/>
<path d="M121.635 273.111H110.599C110.282 273.111 110.025 272.854 110.025 272.537C110.025 272.22 110.282 271.963 110.599 271.963H121.635C121.952 271.963 122.209 272.22 122.209 272.537C122.209 272.854 121.952 273.111 121.635 273.111ZM119.507 275.003H112.728C112.411 275.003 112.154 274.746 112.154 274.429C112.154 274.112 112.411 273.855 112.728 273.855H119.507C119.824 273.855 120.081 274.112 120.081 274.429C120.081 274.746 119.824 275.003 119.507 275.003Z" fill="#F6A96C"/>
<path d="M135.312 303.003H132.316V299.654C132.316 299.603 132.327 299.551 132.346 299.503C132.366 299.456 132.395 299.412 132.432 299.376C132.468 299.339 132.512 299.31 132.56 299.29C132.608 299.27 132.659 299.26 132.711 299.26H135.312C135.364 299.26 135.415 299.27 135.463 299.29C135.51 299.31 135.554 299.339 135.591 299.376C135.627 299.412 135.656 299.456 135.676 299.503C135.696 299.551 135.706 299.603 135.706 299.654V302.609C135.706 302.714 135.664 302.814 135.59 302.888C135.517 302.962 135.416 303.003 135.312 303.003Z" fill="#FD5426"/>
<path d="M134.996 285.437V283.825C134.996 283.716 134.953 283.612 134.876 283.535C134.799 283.458 134.695 283.415 134.586 283.415H133.435C133.381 283.415 133.328 283.426 133.278 283.446C133.229 283.467 133.183 283.497 133.145 283.535C133.107 283.573 133.077 283.618 133.057 283.668C133.036 283.718 133.025 283.771 133.025 283.825V285.437H134.996ZM133.025 291.798V293.41C133.025 293.519 133.069 293.623 133.145 293.7C133.222 293.777 133.326 293.82 133.435 293.82H134.586C134.695 293.82 134.799 293.777 134.876 293.7C134.953 293.623 134.996 293.519 134.996 293.41V291.798H133.025Z" fill="#554E6F"/>
<path d="M133.793 285.361V283.825C133.793 283.716 133.836 283.612 133.913 283.535C133.989 283.458 134.094 283.415 134.202 283.415H133.435C133.326 283.415 133.222 283.458 133.145 283.535C133.069 283.612 133.025 283.716 133.025 283.825V285.361H133.793ZM133.793 293.41V291.875H133.025V293.41C133.025 293.519 133.069 293.623 133.145 293.7C133.222 293.777 133.326 293.82 133.435 293.82H134.202C134.094 293.82 133.989 293.777 133.913 293.7C133.836 293.623 133.793 293.519 133.793 293.41Z" fill="#433F5C"/>
<path d="M135.281 291.875H132.742C132.629 291.875 132.521 291.83 132.441 291.75C132.361 291.67 132.316 291.562 132.316 291.45V285.786C132.316 285.673 132.361 285.565 132.441 285.485C132.521 285.405 132.629 285.361 132.742 285.361H135.281C135.394 285.361 135.502 285.405 135.581 285.485C135.661 285.565 135.706 285.673 135.706 285.786V291.45C135.706 291.562 135.661 291.67 135.581 291.75C135.502 291.83 135.394 291.875 135.281 291.875Z" fill="#FD5426"/>
<path d="M133.923 291.45V285.786C133.923 285.673 133.968 285.565 134.048 285.485C134.128 285.405 134.236 285.361 134.348 285.361H132.742C132.629 285.361 132.521 285.405 132.441 285.485C132.361 285.565 132.316 285.673 132.316 285.786V291.45C132.316 291.562 132.361 291.67 132.441 291.75C132.521 291.83 132.629 291.875 132.742 291.875H134.348C134.236 291.875 134.128 291.83 134.048 291.75C133.968 291.67 133.923 291.562 133.923 291.45Z" fill="#EF4424"/>
</g>
</g>
</g>
</g>
<defs>
<filter id="filter0_d_1543_22054" x="-18.1653" y="-25" width="313.009" height="512.747" filterUnits="userSpaceOnUse" color-interpolation-filters="sRGB">
<feFlood flood-opacity="0" result="BackgroundImageFix"/>
<feColorMatrix in="SourceAlpha" type="matrix" values="0 0 0 0 0 0 0 0 0 0 0 0 0 0 0 0 0 0 127 0" result="hardAlpha"/>
<feOffset dy="3.37333"/>
<feGaussianBlur stdDeviation="1.68667"/>
<feComposite in2="hardAlpha" operator="out"/>
<feColorMatrix type="matrix" values="0 0 0 0 0 0 0 0 0 0 0 0 0 0 0 0 0 0 0.25 0"/>
<feBlend mode="normal" in2="BackgroundImageFix" result="effect1_dropShadow_1543_22054"/>
<feBlend mode="normal" in="SourceGraphic" in2="effect1_dropShadow_1543_22054" result="shape"/>
</filter>
<linearGradient id="paint0_linear_1543_22054" x1="153.131" y1="-8.44272" x2="153.131" y2="404.125" gradientUnits="userSpaceOnUse">
<stop stop-color="#1C1C22"/>
<stop offset="1" stop-color="white" stop-opacity="0"/>
</linearGradient>
<clipPath id="clip0_1543_22054">
<rect x="0.470703" width="276" height="456" rx="138" fill="white"/>
</clipPath>
<clipPath id="clip1_1543_22054">
<rect x="291.471" y="-25" width="506" height="306.263" rx="20.24" transform="rotate(90 291.471 -25)" fill="white"/>
</clipPath>
<clipPath id="clip2_1543_22054">
<rect width="36.507" height="36.507" fill="white" transform="translate(206.668 189.183)"/>
</clipPath>
<clipPath id="clip3_1543_22054">
<rect width="39.1765" height="39.1765" fill="white" transform="translate(96.5293 267.059)"/>
</clipPath>
</defs>
</svg>
