<svg width="276" height="456" viewBox="0 0 276 456" fill="none" xmlns="http://www.w3.org/2000/svg">
<g clip-path="url(#clip0_918_5844)">
<rect width="276" height="456" rx="138" fill="#E5FCFF"/>
<g clip-path="url(#clip1_918_5844)">
<path d="M168.247 382.222C171.737 382.222 174.565 379.388 174.565 375.892C174.565 372.396 171.737 369.562 168.247 369.562C164.758 369.562 161.93 372.396 161.93 375.892C161.93 379.388 164.758 382.222 168.247 382.222Z" fill="#F9CA24"/>
<path d="M156.661 371.887C156.661 371.887 160.505 365.672 167.995 365.672V385.728L156.661 371.887Z" fill="#22A6B3"/>
<path d="M168.967 387.209C168.14 387.209 167.466 386.534 167.466 385.705V365.91C167.466 365.081 168.14 364.406 168.967 364.406C169.794 364.406 170.468 365.081 170.468 365.91V385.705C170.468 386.534 169.794 387.209 168.967 387.209Z" fill="#7ED6DF"/>
<path d="M95.7507 384.347C95.7507 384.347 101.808 372.692 99.9778 363.731C98.1476 354.769 92.9249 353.372 92.9249 353.372C92.9249 353.372 129.468 353.372 133.726 353.372C137.984 353.372 146.859 372.247 146.859 372.247L95.7507 384.347Z" fill="#7ED6DF"/>
<path d="M19.8375 432.911C32.2576 423.157 34.4347 405.163 24.7003 392.719C14.9659 380.274 -2.99381 378.093 -15.4139 387.846C-27.834 397.6 -30.0111 415.594 -20.2767 428.038C-10.5423 440.483 7.41741 442.664 19.8375 432.911Z" fill="#130F40"/>
<path d="M15.5425 414.156C13.4519 421.537 5.79404 425.826 -1.5728 423.731C-8.93964 421.637 -13.2127 413.964 -11.1298 406.583C-9.03919 399.202 -1.38135 394.913 5.98549 397.007C13.3523 399.102 17.6254 406.775 15.5425 414.156Z" fill="#22A6B3"/>
<path d="M7.24137 411.8C6.45262 414.585 3.55795 416.212 0.770501 415.422C-2.00929 414.631 -3.63276 411.731 -2.844 408.938C-2.05524 406.153 0.839421 404.526 3.62687 405.324C6.41433 406.115 8.03013 409.015 7.24137 411.8Z" fill="#7ED6DF"/>
<path d="M10.3658 381.516C-5.53955 376.997 -22.0881 386.258 -26.5909 402.186L31.0037 418.545C35.5065 402.616 26.2711 386.035 10.3658 381.516Z" fill="#7ED6DF"/>
<path d="M-26.1851 399.34L31.4325 415.706C32.1906 415.92 32.6271 416.711 32.4127 417.47C32.1983 418.23 31.4095 418.667 30.6514 418.452L-26.9662 402.086C-27.7243 401.872 -28.1608 401.081 -27.9464 400.322C-27.732 399.562 -26.9432 399.125 -26.1851 399.34Z" fill="#22A6B3"/>
<path d="M158.914 430.614C170.071 419.434 170.071 401.309 158.914 390.129C147.756 378.95 129.666 378.95 118.508 390.129C107.35 401.309 107.35 419.434 118.508 430.614C129.666 441.793 147.756 441.793 158.914 430.614Z" fill="#130F40"/>
<path d="M144.734 422.872C151.628 419.538 154.52 411.236 151.193 404.329C147.866 397.421 139.58 394.524 132.686 397.857C125.792 401.191 122.9 409.493 126.227 416.4C129.554 423.308 137.84 426.205 144.734 422.872Z" fill="#22A6B3"/>
<path d="M143.75 411.8C142.961 414.585 140.067 416.212 137.279 415.422C134.499 414.631 132.876 411.731 133.665 408.938C134.453 406.153 137.348 404.526 140.135 405.324C142.923 406.115 144.539 409.015 143.75 411.8Z" fill="#7ED6DF"/>
<path d="M74.929 419.013C92.0672 419.013 88.7591 405.002 91.4546 395.012C95.4061 380.35 107.459 362.434 137.164 362.434C166.869 362.434 172.153 392.864 172.153 408.332H105.369V421.583C105.377 421.583 57.7908 419.013 74.929 419.013Z" fill="#7ED6DF"/>
<path d="M23.7517 331.582C23.7517 331.582 28.7982 338.104 23.4224 350.012C18.0466 361.92 9.71485 360.769 7.71615 368.848C5.71746 376.928 5.5643 378.669 5.5643 378.669C5.5643 378.669 23.79 380.066 30.2379 396.102C36.6858 412.138 34.3654 421.583 34.3654 421.583H54.9191C54.9191 421.583 40.2237 409.506 33.837 394.475C27.4427 379.444 30.0541 351.462 35.7974 340.091C41.5408 328.72 33.3776 309.438 23.43 309.438L23.7517 331.582Z" fill="#7ED6DF"/>
<path d="M23.4147 309.431C23.4147 309.431 25.781 307.651 33.1402 311.341C40.507 315.032 55.9605 323.395 55.9605 323.395C55.9605 323.395 60.9994 327.653 55.2331 331.582C49.4667 335.51 26.4932 345.216 32.9181 384.439C35.315 399.063 54.9038 415.905 54.9038 415.905L105.369 416.243V421.583L46.6103 421.598C46.6103 421.598 26.1256 394.345 26.1256 373.598C26.1256 352.858 46.1049 321.968 23.4147 309.431Z" fill="#22A6B3"/>
<path d="M21.2169 329.717C19.0345 329.717 17.2655 327.945 17.2655 325.758V315.047C17.2655 312.86 19.0345 311.088 21.2169 311.088V329.717Z" fill="#F9CA24"/>
<path d="M22.3962 332.456C21.0867 332.456 20.03 331.398 20.03 330.086V311.364C20.03 310.052 21.0867 308.993 22.3962 308.993C23.7057 308.993 24.7625 310.052 24.7625 311.364V330.086C24.7625 331.398 23.7057 332.456 22.3962 332.456Z" fill="#7ED6DF"/>
<path d="M56.4506 323.786L34.1051 311.725C35.5447 309.047 38.8759 308.05 41.5408 309.492L54.2146 316.336C56.8871 317.779 57.8903 321.109 56.4506 323.786Z" fill="#7ED6DF"/>
<path d="M105.162 426.716H35.1925C33.6303 426.716 32.3668 425.45 32.3668 423.885C32.3668 422.319 33.6303 421.053 35.1925 421.053H105.155C106.717 421.053 107.98 422.319 107.98 423.885C107.98 425.45 106.717 426.716 105.162 426.716Z" fill="#F6E58D"/>
<path d="M173.822 412.583H103.608C102.352 412.583 101.333 411.562 101.333 410.304C101.333 409.046 102.352 408.025 103.608 408.025H173.822C175.078 408.025 176.097 409.046 176.097 410.304C176.089 411.57 175.078 412.583 173.822 412.583Z" fill="#22A6B3"/>
<path d="M135.755 358.26H91.983C91.8528 358.26 91.7456 358.152 91.7456 358.022C91.7456 354.493 94.602 351.638 98.1169 351.638H141.889C142.019 351.638 142.127 351.746 142.127 351.876C142.127 355.398 139.278 358.26 135.755 358.26Z" fill="#F9CA24"/>
<path d="M189.13 364.667H144.271C142.969 364.667 141.92 363.608 141.92 362.311C141.92 361.007 142.977 359.956 144.271 359.956H189.13C190.432 359.956 191.481 361.014 191.481 362.311C191.481 363.608 190.432 364.667 189.13 364.667Z" fill="#22A6B3"/>
<path d="M45.0788 327.285C47.7009 327.285 49.8266 325.155 49.8266 322.528C49.8266 319.901 47.7009 317.771 45.0788 317.771C42.4566 317.771 40.3309 319.901 40.3309 322.528C40.3309 325.155 42.4566 327.285 45.0788 327.285Z" fill="#30336B"/>
<path d="M47.2153 322.528C47.2153 323.71 46.2581 324.669 45.0788 324.669C43.8995 324.669 42.9422 323.71 42.9422 322.528C42.9422 321.346 43.8995 320.387 45.0788 320.387C46.2581 320.387 47.2153 321.346 47.2153 322.528Z" fill="#22A6B3"/>
<path d="M198.389 359.948H144.73C143.291 359.948 142.119 358.782 142.119 357.331V314.848C142.119 313.405 143.283 312.231 144.73 312.231H198.389C199.828 312.231 201 313.397 201 314.848V357.331C201 358.782 199.828 359.948 198.389 359.948Z" fill="#FFC89E"/>
<path d="M171.563 346.03C177.04 346.03 181.48 341.581 181.48 336.093C181.48 330.606 177.04 326.157 171.563 326.157C166.086 326.157 161.646 330.606 161.646 336.093C161.646 341.581 166.086 346.03 171.563 346.03Z" stroke="#1C1C22" stroke-width="1.7796" stroke-miterlimit="10"/>
<path d="M171.855 330.777C174.729 330.777 177.059 333.106 177.059 335.98V339.622C177.059 340.036 176.895 340.433 176.602 340.726C176.309 341.018 175.912 341.183 175.498 341.183H172.115V338.9C172.115 338.379 172.147 337.84 172.42 337.397C172.615 337.079 172.877 336.807 173.187 336.599C173.497 336.392 173.848 336.253 174.216 336.193L174.316 336.177C174.357 336.163 174.393 336.136 174.418 336.101C174.443 336.065 174.457 336.023 174.457 335.98C174.457 335.936 174.443 335.894 174.418 335.859C174.393 335.823 174.357 335.797 174.316 335.783L174.216 335.767C173.678 335.679 173.181 335.424 172.796 335.039C172.41 334.653 172.156 334.157 172.068 333.619L172.052 333.519C172.037 333.478 172.011 333.442 171.976 333.417C171.94 333.392 171.898 333.378 171.855 333.378C171.811 333.378 171.769 333.392 171.733 333.417C171.698 333.442 171.672 333.478 171.658 333.519L171.641 333.619C171.581 333.987 171.443 334.338 171.235 334.648C171.027 334.958 170.755 335.219 170.437 335.415C169.994 335.688 169.454 335.72 168.933 335.72H166.656C166.792 332.967 169.068 330.777 171.855 330.777Z" fill="#1C1C22"/>
<path d="M166.65 336.24H168.933C169.454 336.24 169.994 336.272 170.437 336.545C170.784 336.758 171.076 337.05 171.289 337.397C171.563 337.84 171.594 338.379 171.594 338.9V341.183H168.211C167.797 341.183 167.4 341.018 167.107 340.726C166.814 340.433 166.65 340.036 166.65 339.622V336.24ZM177.059 331.297C177.059 331.435 177.004 331.567 176.907 331.665C176.809 331.762 176.677 331.817 176.539 331.817C176.401 331.817 176.268 331.762 176.171 331.665C176.073 331.567 176.018 331.435 176.018 331.297C176.018 331.159 176.073 331.027 176.171 330.929C176.268 330.831 176.401 330.777 176.539 330.777C176.677 330.777 176.809 330.831 176.907 330.929C177.004 331.027 177.059 331.159 177.059 331.297Z" fill="#1C1C22"/>
<path d="M123.013 403.682H103.546C102.75 403.682 102.114 403.038 102.114 402.248C102.114 401.45 102.758 400.813 103.546 400.813H123.013C123.809 400.813 124.445 401.457 124.445 402.248C124.445 403.038 123.801 403.682 123.013 403.682Z" fill="#22A6B3"/>
<path d="M123.013 397.905H103.546C102.75 397.905 102.114 397.26 102.114 396.47C102.114 395.672 102.758 395.035 103.546 395.035H123.013C123.809 395.035 124.445 395.68 124.445 396.47C124.445 397.26 123.801 397.905 123.013 397.905Z" fill="#22A6B3"/>
<path d="M123.013 392.127H103.546C102.75 392.127 102.114 391.483 102.114 390.692C102.114 389.895 102.758 389.258 103.546 389.258H123.013C123.809 389.258 124.445 389.902 124.445 390.692C124.445 391.483 123.801 392.127 123.013 392.127Z" fill="#22A6B3"/>
<path d="M100.583 428.642C100.583 428.642 100.414 429.532 104.082 431.58C107.758 433.629 114.742 437.189 114.742 437.795C114.742 438.402 114.62 439 113.777 439C112.935 439 91.378 439 91.378 439C91.378 439 90.4744 437.972 90.9569 435.378C91.4393 432.785 93.6065 427.115 93.6065 427.115L100.583 428.642Z" fill="#30336B"/>
<path d="M141.399 428.642C141.399 428.642 141.231 429.532 144.899 431.58C148.574 433.629 155.558 437.189 155.558 437.795C155.558 438.402 155.436 439 154.594 439C153.751 439 132.194 439 132.194 439C132.194 439 131.291 437.972 131.773 435.378C132.256 432.785 134.423 427.115 134.423 427.115L141.399 428.642Z" fill="#30336B"/>
<path d="M118.257 244.811L112.215 260.617L110.951 260.256C110.951 260.256 104.871 255.008 106.403 245.118L118.257 244.811Z" fill="#130F40"/>
<path d="M126.482 244.45C126.482 244.45 127.087 256.934 125.823 258.929C124.559 260.916 124.077 261.944 120.884 262.427C120.884 262.427 120.164 264.177 120.884 266.225C120.884 266.225 119.138 267.614 116.189 267.614C113.241 267.614 111.61 266.586 111.61 266.586C111.61 266.586 111.794 261.76 110.951 260.248L112.881 257.233C112.881 257.233 108.302 253.55 110.477 249.691C112.644 245.831 115.477 248.847 115.477 248.847L117.438 244.443H126.482V244.45Z" fill="#FFC2BD"/>
<path d="M105.767 244.45C105.767 238.68 110.438 234 116.197 234C121.956 234 126.627 238.68 126.627 244.45H105.767Z" fill="#EB4D4B"/>
<mask id="mask0_918_5844" style="mask-type:luminance" maskUnits="userSpaceOnUse" x="105" y="234" width="22" height="11">
<path d="M105.767 244.45C105.767 238.68 110.438 234 116.197 234C121.956 234 126.627 238.68 126.627 244.45H105.767Z" fill="white"/>
</mask>
<g mask="url(#mask0_918_5844)">
<path d="M115.807 244.45C115.807 238.68 120.47 234 126.229 234C131.988 234 136.659 238.68 136.659 244.45H115.807Z" fill="#F9CA24"/>
</g>
<path d="M136.567 243.844H106.403C106.05 243.844 105.767 244.128 105.767 244.481C105.767 244.834 106.05 245.118 106.403 245.118H136.567C136.919 245.118 137.203 244.834 137.203 244.481C137.203 244.128 136.919 243.844 136.567 243.844Z" fill="#FF790F"/>
<path d="M110.101 269.563C110.101 269.563 99.4417 275.694 82.763 292.405L55.4245 309.415L59.1539 315.208L87.4496 303.147L103.347 290.602C103.363 290.602 110.569 280.32 110.101 269.563Z" fill="#4A4AF2"/>
<mask id="mask1_918_5844" style="mask-type:luminance" maskUnits="userSpaceOnUse" x="109" y="244" width="18" height="24">
<path d="M126.482 244.45C126.482 244.45 127.087 256.934 125.823 258.929C124.559 260.916 124.077 261.944 120.884 262.427C120.884 262.427 120.164 264.177 120.884 266.225C120.884 266.225 119.138 267.614 116.189 267.614C113.241 267.614 111.61 266.586 111.61 266.586C111.61 266.586 111.794 261.76 110.951 260.248L112.881 257.233C112.881 257.233 108.302 253.55 110.477 249.691C112.644 245.831 115.477 248.847 115.477 248.847L117.438 244.443H126.482V244.45Z" fill="white"/>
</mask>
<g mask="url(#mask1_918_5844)">
<path opacity="0.1" d="M120.884 262.427C120.884 262.427 118.135 261.346 116.327 259.535C116.327 259.535 116.733 264.154 118.755 266.179C120.777 268.205 122.469 266.778 122.469 266.778L120.884 262.427Z" fill="black"/>
</g>
<path d="M124.552 269.164C124.552 269.164 125.394 266.954 123.947 266.509C122.5 266.064 110.913 265.919 109.879 266.954C108.846 267.99 110.101 269.571 110.101 269.571C110.101 269.571 105.828 270.998 103.661 278.356C101.494 285.714 101.617 303.753 101.617 303.753C101.617 303.753 100.889 326.855 101.617 328.367C102.344 329.878 103.24 330.722 103.24 330.722H135.449C135.449 330.722 136.651 329.157 136.651 326.802C136.651 324.446 133.397 290.609 133.397 290.609C133.397 290.609 130.747 282.047 132.432 273.353C132.439 273.346 127.201 269.87 124.552 269.164Z" fill="#FF790F"/>
<path d="M114.084 290.106C116.719 290.106 118.855 292.241 118.855 294.876V298.214C118.855 298.594 118.704 298.958 118.436 299.226C118.167 299.494 117.803 299.645 117.424 299.645H114.323V297.553C114.323 297.075 114.352 296.581 114.602 296.174C114.781 295.883 115.021 295.634 115.306 295.444C115.59 295.253 115.911 295.126 116.249 295.071L116.34 295.056C116.378 295.043 116.411 295.019 116.434 294.987C116.457 294.954 116.47 294.915 116.47 294.876C116.47 294.836 116.457 294.797 116.434 294.765C116.411 294.732 116.378 294.708 116.34 294.695L116.249 294.68C115.756 294.6 115.3 294.366 114.947 294.013C114.593 293.66 114.36 293.204 114.279 292.711L114.265 292.62C114.252 292.582 114.227 292.55 114.195 292.526C114.163 292.503 114.124 292.491 114.084 292.491C114.044 292.491 114.005 292.503 113.973 292.526C113.941 292.55 113.916 292.582 113.903 292.62L113.889 292.711C113.834 293.049 113.706 293.37 113.516 293.655C113.326 293.939 113.076 294.178 112.785 294.358C112.378 294.608 111.884 294.637 111.406 294.637H109.319C109.444 292.114 111.529 290.106 114.084 290.106Z" fill="white"/>
<path d="M109.313 295.114H111.406C111.884 295.114 112.378 295.143 112.785 295.394C113.103 295.589 113.37 295.857 113.566 296.174C113.816 296.581 113.846 297.075 113.846 297.553V299.645H110.744C110.365 299.645 110.001 299.494 109.732 299.226C109.464 298.958 109.313 298.594 109.313 298.214V295.114ZM118.855 290.583C118.855 290.71 118.805 290.831 118.715 290.92C118.626 291.01 118.504 291.06 118.378 291.06C118.251 291.06 118.13 291.01 118.04 290.92C117.951 290.831 117.901 290.71 117.901 290.583C117.901 290.457 117.951 290.335 118.04 290.246C118.13 290.156 118.251 290.106 118.378 290.106C118.504 290.106 118.626 290.156 118.715 290.246C118.805 290.335 118.855 290.457 118.855 290.583Z" fill="white"/>
<path d="M132.439 273.346C132.439 273.346 139.768 278.249 151.484 292.811L163.523 272.218L169.863 275.356L158.683 299.694C156.401 304.658 149.938 305.924 145.963 302.18L133.297 290.264C133.305 290.264 128.81 278.41 132.439 273.346Z" fill="#4A4AF2"/>
<path d="M135.457 330.715L141.774 382.897V428.742H133.649L128.044 385.79L120.34 359.733L116.006 384.831L101.295 428.742L92.8867 427.537L101.295 378.316L103.24 330.715H135.457Z" fill="#130F40"/>
<path d="M164.074 272.486C164.074 272.486 164.656 270.415 164.357 269.394C164.059 268.374 161.646 263.087 161.256 262.243C160.865 261.399 161.286 260.494 162.006 260.494C162.726 260.494 164.441 262.573 164.441 262.573C164.441 262.573 164.87 259.343 165.138 258.407C165.406 257.471 166.884 254.854 167.305 254.693C168.087 254.402 168.538 254.755 168.538 255.599C168.538 255.599 169.986 254.218 170.644 254.425C171.303 254.632 171.249 256.297 170.882 257.624C170.882 257.624 172.268 256.09 172.926 256.09C173.585 256.09 173.707 257.624 173.317 259.074C173.317 259.074 174.251 258.046 174.91 258.046C175.568 258.046 175.568 259.642 175.3 260.67C175.032 261.699 171.808 271.228 171.265 272.617C170.721 274.006 169.488 275.509 169.488 275.509L164.074 272.486Z" fill="#FFC2BD"/>
<path d="M55.7002 309.83C55.7002 309.83 50.5388 312.914 49.3365 313.397C48.1342 313.881 44.7571 314.963 42.3909 316.858C40.0246 318.745 38.8529 320.387 39.7336 323.249C40.5606 325.935 41.3494 327.024 42.0309 325.981C42.7125 324.937 41.6251 323.057 41.6251 323.057C41.6251 323.057 41.426 319.988 45.0788 318.584C46.595 318.001 48.877 319.49 49.0455 320.126C49.5816 322.167 48.8694 323.894 48.5095 324.661C48.1496 325.428 47.8815 326.832 49.1298 326.387C50.378 325.942 51.8023 322.382 52.8668 321.316C53.579 320.602 53.5866 319.704 54.429 318.86C55.2713 318.016 59.039 315.001 59.039 315.001L55.7002 309.83Z" fill="#FFC2BD"/>
<path d="M126.826 251.655L126.359 251.026C126.359 251.026 123.051 251.632 120.417 251.31C117.79 250.987 117.545 250.627 117.545 250.627C117.545 250.627 117.039 257.302 115.094 258.445C115.094 258.445 117.966 261.261 120.876 262.427C120.876 262.427 123.916 262.543 125.272 260.256C126.987 257.363 126.826 251.655 126.826 251.655Z" fill="#DFF9FB"/>
<path d="M118.027 251.693L118.479 251.256C118.479 251.256 116.251 248.686 115.431 248.187C114.673 247.727 114.244 247.995 114.244 247.995L114.926 248.394L118.027 251.693Z" fill="#DFF9FB"/>
<path d="M115.807 258.737L116.036 258.154C116.036 258.154 113.279 257.225 112.889 257.049C112.498 256.872 112.2 256.619 112.2 256.619C112.2 256.619 112.108 257.141 112.72 257.479C113.333 257.808 115.807 258.737 115.807 258.737Z" fill="#DFF9FB"/>
<path d="M117.191 302.406C121.378 300.708 123.399 295.931 121.704 291.736C120.01 287.541 115.242 285.516 111.055 287.213C106.868 288.911 104.847 293.688 106.541 297.883C108.236 302.079 113.003 304.103 117.191 302.406Z" stroke="white" stroke-width="1.4671" stroke-miterlimit="10"/>
</g>
<g clip-path="url(#clip2_918_5844)">
<path opacity="0.3" d="M276 -4H-4V229H276V-4Z" fill="#B3F6FF"/>
<path d="M278.993 229.174H-0.455261V230H278.993V229.174Z" fill="#98E4ED"/>
<path d="M100.161 -26V228.981" stroke="#98E4ED" stroke-miterlimit="10"/>
<path opacity="0.3" d="M168.162 13.3657H111.653V93.7015H168.162V13.3657Z" fill="#B3F6FF"/>
<path d="M161.911 22.2867H117.904V87.5766H161.911V22.2867Z" stroke="#98E4ED" stroke-miterlimit="10"/>
<path d="M139.904 22.3932V87.4701" stroke="#98E4ED" stroke-miterlimit="10"/>
<path d="M117.904 54.935H161.911" stroke="#98E4ED" stroke-miterlimit="10"/>
<path opacity="0.3" d="M168.162 110.212H111.653V190.548H168.162V110.212Z" fill="#B3F6FF"/>
<path d="M161.911 116.743H117.904V182.033H161.911V116.743Z" stroke="#98E4ED" stroke-miterlimit="10"/>
<path d="M139.904 116.85V181.926" stroke="#98E4ED" stroke-miterlimit="10"/>
<path d="M117.904 149.391H161.911" stroke="#98E4ED" stroke-miterlimit="10"/>
<path opacity="0.3" d="M244.091 13.3657H187.582V93.7015H244.091V13.3657Z" fill="#B3F6FF"/>
<path d="M237.833 22.2867H193.827V87.5766H237.833V22.2867Z" stroke="#98E4ED" stroke-miterlimit="10"/>
<path d="M215.833 22.3932V87.4701" stroke="#98E4ED" stroke-miterlimit="10"/>
<path d="M193.827 54.935H237.84" stroke="#98E4ED" stroke-miterlimit="10"/>
<path opacity="0.3" d="M244.091 110.212H187.582V190.548H244.091V110.212Z" fill="#B3F6FF"/>
<path d="M237.833 116.743H193.827V182.033H237.833V116.743Z" stroke="#98E4ED" stroke-miterlimit="10"/>
<path d="M215.833 116.85V181.926" stroke="#98E4ED" stroke-miterlimit="10"/>
<path d="M193.827 149.391H237.84" stroke="#98E4ED" stroke-miterlimit="10"/>
<path opacity="0.3" d="M86.108 13.3657H29.5985V93.7015H86.108V13.3657Z" fill="#B3F6FF"/>
<path d="M79.8565 22.2867H35.85V87.5766H79.8565V22.2867Z" stroke="#98E4ED" stroke-miterlimit="10"/>
<path d="M57.8566 22.3932V87.4701" stroke="#98E4ED" stroke-miterlimit="10"/>
<path d="M35.85 54.935H79.8565" stroke="#98E4ED" stroke-miterlimit="10"/>
<path opacity="0.3" d="M86.108 110.212H29.5985V190.548H86.108V110.212Z" fill="#B3F6FF"/>
<path d="M79.8565 116.743H35.85V182.033H79.8565V116.743Z" stroke="#98E4ED" stroke-miterlimit="10"/>
<path d="M57.8566 116.85V181.926" stroke="#98E4ED" stroke-miterlimit="10"/>
<path d="M35.85 149.391H79.8565" stroke="#98E4ED" stroke-miterlimit="10"/>
</g>
<path d="M195.685 218.769H273.57V63H195.685V218.769Z" fill="#7ED6DF"/>
<path d="M190.497 218.769H268.382V63H190.497V218.769Z" fill="#DFF9FB"/>
<path d="M196.248 218.768H254.869L254.869 71.1956H196.248L196.248 218.768Z" fill="#7ED6DF"/>
<path d="M201.236 218.768H259.857V71.1956H201.236L201.236 218.768Z" fill="#95AFC0"/>
<path d="M249.832 218.769H259.86V71.1966H201.239L249.832 218.769Z" fill="#22A6B3"/>
<path d="M179.882 228.998H277.109V218.767H179.882V228.998Z" fill="#7ED6DF"/>
<path d="M175.827 228.998H268.384V218.767H175.827V228.998Z" fill="#C7ECEE"/>
<path d="M137.116 218.768H195.737L195.737 71.1956H137.116L137.116 218.768Z" fill="#22A6B3"/>
<path d="M133.018 218.768H191.639L191.639 71.1956H133.018L133.018 218.768Z" fill="#7ED6DF"/>
<path d="M193.731 106.544H198.566V91.8912H193.731V106.544Z" fill="#C7ECEE"/>
<path d="M193.731 198.073H198.566V183.42H193.731V198.073Z" fill="#C7ECEE"/>
<path d="M139.64 166.106C141.254 166.106 142.566 164.798 142.566 163.178V136.156C142.566 134.542 141.259 133.229 139.64 133.229C138.027 133.229 136.714 134.537 136.714 136.156V163.178C136.714 164.793 138.027 166.106 139.64 166.106Z" fill="#22A6B3"/>
<path d="M138.494 143.693H140.081C140.776 143.693 141.342 143.127 141.342 142.432C141.342 141.736 140.776 141.171 140.081 141.171H138.494C137.798 141.171 137.233 141.736 137.233 142.432C137.238 143.127 137.798 143.693 138.494 143.693Z" fill="#7ED6DF"/>
<path d="M138.518 145.134C140.01 143.642 140.01 141.223 138.518 139.731C137.027 138.24 134.61 138.24 133.118 139.731C131.627 141.223 131.627 143.642 133.118 145.134C134.61 146.626 137.027 146.626 138.518 145.134Z" fill="#95AFC0"/>
<path d="M204.16 146.449L200.171 177.536L199.465 210.433L204.16 210.963L209.452 178.709L214.23 164.092L216.529 180.453L226.957 210.963L232.436 210.169L226.604 178.709L227.232 145.396L204.16 146.449Z" fill="#30336B"/>
<path d="M219.974 94.9019C219.974 94.9019 224.451 91.8965 224.041 87.0018C223.626 82.1071 220.181 82.3719 220.181 82.3719C220.181 82.3719 218.386 79.4548 211.429 80.4877C204.477 81.5206 201.587 88.7718 209.099 88.3877C216.617 88.0036 219.974 94.9019 219.974 94.9019Z" fill="#130F40"/>
<path d="M212.783 103.01L205.359 105.101L193.571 117.896L197.696 124.441L205.302 119.137L201.94 148.967L228.415 149.751L226.708 119.728L234.412 125.09L239.481 118.488L227.875 105.454L219.974 102.594L212.783 103.01Z" fill="#F9CA24"/>
<path d="M209.099 88.3877C209.099 88.3877 208.363 96.023 209.452 97.3778C210.542 98.7325 211.455 99.4696 213.432 99.2048C213.432 99.2048 213.504 102.288 212.783 103.01C212.783 103.01 213.784 104.603 216.202 104.603C218.62 104.603 219.974 102.599 219.974 102.599C219.974 102.599 219.621 96.4383 219.974 94.9071L220.181 93.3447C220.181 93.3447 223.04 91.8135 222.511 89.2753C221.982 86.7423 219.533 89.5971 219.533 89.5971C219.533 89.5971 218.765 88.4759 218.765 86.1454C218.765 86.1454 214.905 88.7095 209.099 88.3877Z" fill="#FFC2BD"/>
<path d="M199.719 210.464C199.719 210.464 199.921 211.767 199.719 211.97C199.517 212.172 189.182 217.57 189.182 217.57H204.591C204.591 217.57 203.138 214.363 203.792 210.926L199.719 210.464Z" fill="#FFC2BD"/>
<path d="M227.45 210.895C227.45 210.895 227.839 212.271 227.637 212.473C227.434 212.676 218.915 217.57 218.915 217.57H234.495C234.495 217.57 232.757 213.719 232.233 210.2L227.45 210.895Z" fill="#FFC2BD"/>
<path d="M192.793 215.235L194.536 217.975" stroke="#30336B" stroke-width="1.7796" stroke-miterlimit="10"/>
<path d="M222.096 215.235L223.839 217.975" stroke="#30336B" stroke-width="1.7796" stroke-miterlimit="10"/>
<path d="M204.679 218.775H189.094C188.762 218.775 188.492 218.505 188.492 218.172C188.492 217.84 188.762 217.57 189.094 217.57H204.679C205.011 217.57 205.281 217.84 205.281 218.172C205.286 218.505 205.016 218.775 204.679 218.775Z" fill="#30336B"/>
<path d="M234.366 218.775H218.775C218.443 218.775 218.173 218.505 218.173 218.172C218.173 217.84 218.443 217.57 218.775 217.57H234.361C234.693 217.57 234.962 217.84 234.962 218.172C234.968 218.505 234.698 218.775 234.366 218.775Z" fill="#30336B"/>
<path d="M234.802 124.587L235.886 125.49L227.621 143.356C227.621 143.356 226.604 145.671 229.022 148.09C231.44 150.508 232.327 150.456 233.027 149.756C233.027 149.756 233.707 149.797 234.086 149.18C234.086 149.18 234.853 149.211 235.175 148.442C235.175 148.442 235.881 148.354 235.881 147.384C235.881 146.413 235.912 143.522 235.263 143.522C234.615 143.522 234.293 144.581 234.293 144.581C234.293 144.581 234.044 143.709 233.676 144.077C233.307 144.446 233.204 144.934 233.204 144.934L232.939 144.7C232.939 144.7 233.556 143.968 232.794 142.847L242.356 127.504C243.544 125.599 243.191 123.118 241.525 121.618L238.9 119.256L234.802 124.587Z" fill="#FFC2BD"/>
<path d="M193.882 118.394L193.052 119.168L189.426 104.042C189.426 104.042 190.484 101.478 190.484 100.861C190.484 100.861 192.129 97.2999 191.652 96.5473C191.169 95.7946 189.69 98.3588 189.69 98.3588C189.69 98.3588 189.81 92.4986 188.959 92.4986C188.362 92.4986 188.072 96.2306 188.072 96.2306C188.072 96.2306 187.989 91.772 187.127 91.772C186.422 91.772 186.396 96.7601 186.396 96.7601C186.396 96.7601 186.329 92.3014 185.623 92.4104C184.917 92.5194 184.959 95.9711 184.959 96.9625C184.959 96.9625 184.471 93.2045 183.812 93.3343C183.148 93.4693 183.304 98.0681 183.812 100.3C184.321 102.532 184.897 104.655 184.897 104.655L188.02 124.374C188.393 126.746 191.065 127.971 193.109 126.704L197.436 124.021L193.882 118.394Z" fill="#FFC2BD"/>
<mask id="mask2_918_5844" style="mask-type:luminance" maskUnits="userSpaceOnUse" x="208" y="86" width="15" height="19">
<path d="M209.099 88.3877C209.099 88.3877 208.363 96.023 209.452 97.3778C210.542 98.7325 211.455 99.4696 213.432 99.2048C213.432 99.2048 213.504 102.288 212.783 103.01C212.783 103.01 213.784 104.603 216.202 104.603C218.62 104.603 219.974 102.599 219.974 102.599C219.974 102.599 219.621 96.4383 219.974 94.9071L220.181 93.3447C220.181 93.3447 223.04 91.8135 222.511 89.2753C221.982 86.7423 219.533 89.5971 219.533 89.5971C219.533 89.5971 218.765 88.4759 218.765 86.1454C218.765 86.1454 214.905 88.7095 209.099 88.3877Z" fill="white"/>
</mask>
<g mask="url(#mask2_918_5844)">
<path opacity="0.1" d="M217.92 96C217.92 96 219.025 102.724 213 103V99.2944L217.92 96Z" fill="black"/>
</g>
<path d="M137.259 229C136.522 229 135.926 228.403 135.926 227.666V200.8H138.592V227.666C138.592 228.403 137.996 229 137.259 229Z" fill="#FFBE76"/>
<path d="M107.188 229C106.452 229 105.855 228.403 105.855 227.666V200.8H108.522V227.666C108.522 228.403 107.925 229 107.188 229Z" fill="#FFBE76"/>
<g opacity="0.1">
<path d="M138.592 200.8H135.926V207.641H138.592V200.8Z" fill="black"/>
<path d="M108.522 200.8H105.855V207.641H108.522V200.8Z" fill="black"/>
</g>
<path d="M143.417 202.897H101.025C99.3541 202.897 98 201.542 98 199.871C98 198.199 99.3541 196.844 101.025 196.844H143.417C145.088 196.844 146.442 198.199 146.442 199.871C146.442 201.542 145.088 202.897 143.417 202.897Z" fill="#F6E58D"/>
<path d="M141.238 169.433C141.238 169.433 146.328 166.246 146.027 163.879C145.726 161.507 142.743 162.519 142.743 162.519C142.743 162.519 145.902 157.412 143.09 156.649C140.278 155.886 139.671 160.448 139.671 160.448C139.671 160.448 140.232 153.861 137.207 153.815C134.182 153.763 135.531 160.578 135.531 160.578C135.531 160.578 134.11 157.427 131.578 157.542C129.046 157.651 131.054 162.094 131.054 162.094C131.054 162.094 130.239 160.671 128.74 161.294C127.241 161.917 129.01 165.094 129.01 165.094L141.238 169.433Z" fill="#BADC58"/>
<path d="M129.876 171.047C129.876 171.047 126.395 166.158 127.578 164.082C128.761 162.005 131.132 164.082 131.132 164.082C131.132 164.082 130.167 158.154 133.056 158.523C135.946 158.891 134.758 163.339 134.758 163.339C134.758 163.339 136.756 157.038 139.573 158.154C142.39 159.265 138.535 165.047 138.535 165.047C138.535 165.047 141.051 162.68 143.35 163.755C145.648 164.824 142.089 168.161 142.089 168.161C142.089 168.161 143.386 167.16 144.533 168.312C145.679 169.459 142.831 171.722 142.831 171.722L129.876 171.047Z" fill="#6AB04C"/>
<path d="M125.191 159.997H117.264V170.643H125.191V159.997Z" fill="#EB4D4B"/>
<path d="M122.857 159.997H114.929V170.643H122.857V159.997Z" fill="#FF7979"/>
<path d="M121.668 161.092H116.112V163.687H121.668V161.092Z" fill="#DFF9FB"/>
<path d="M121.668 165.047H116.112V167.642H121.668V165.047Z" fill="#DFF9FB"/>
<path d="M125.339 161.455L120.732 166.064L127.698 173.034L132.306 168.424L125.339 161.455Z" fill="#22A6B3"/>
<path d="M123.507 163.287L118.899 167.897L125.865 174.867L130.473 170.257L123.507 163.287Z" fill="#7ED6DF"/>
<path d="M123.547 164.507L120.117 167.939L122.16 169.983L125.59 166.551L123.547 164.507Z" fill="#DFF9FB"/>
<path d="M141.243 196.844H118.166L114.296 168.312H145.109L141.243 196.844Z" fill="#22A6B3"/>
<path d="M137.373 196.844H118.166L114.296 168.312H141.243L137.373 196.844Z" fill="#C7ECEE"/>
<path d="M118.654 178.947C118.659 178.947 117.616 176.466 118.203 174.494C118.789 172.522 118.462 171.068 117.357 171.374C116.252 171.681 115.982 171.141 115.147 170.305C114.312 169.469 114.042 170.902 112.807 170.902C111.572 170.902 111.702 170.092 110.467 170.357C109.232 170.622 108.366 171.873 107.868 171.374C107.37 170.876 106 169.651 104.75 170.902C103.499 172.153 104.682 172.366 105.139 173.996C105.595 175.62 104.75 178.947 104.75 178.947H104.755C101.647 184.398 99.6135 187.117 99.6135 191.208C99.6135 197.888 105.03 198.21 111.707 198.21C118.384 198.21 123.801 197.888 123.801 191.208C123.796 187.117 121.762 184.392 118.654 178.947Z" fill="#95AFC0"/>
<path d="M116.086 174.504L115.137 174.131C116.434 170.829 117.445 166.106 116.034 163.672C115.531 162.8 114.763 162.296 113.684 162.135C113.092 162.047 112.568 162.203 112.081 162.613C109.238 164.995 108.947 174.291 108.942 174.385L107.925 174.359C107.935 173.959 108.231 164.507 111.427 161.834C112.143 161.237 112.952 160.998 113.834 161.128C115.22 161.336 116.252 162.021 116.916 163.163C118.504 165.914 117.528 170.824 116.086 174.504Z" fill="#95AFC0"/>
<path d="M106.649 176.238C106.524 175.859 103.64 166.853 105.751 163.262C106.223 162.457 106.908 161.959 107.785 161.787C109.16 161.523 110.363 161.813 111.37 162.67C113.788 164.725 114.514 169.682 114.384 173.637L113.367 173.606C113.481 170.061 112.854 165.276 110.711 163.448C109.943 162.794 109.051 162.582 107.982 162.789C107.396 162.903 106.955 163.225 106.633 163.775C104.75 166.973 107.593 175.828 107.619 175.916L106.649 176.238Z" fill="#95AFC0"/>
<path d="M267.046 197.457C269.676 197.971 274.149 197.437 274.953 196.731C276.125 195.703 271.238 195.303 271.378 193.102C271.523 190.902 274.143 195.573 276.125 195.703C278.107 195.833 281.547 193.834 281.625 192.63C281.703 191.426 275.871 190.274 275.97 188.758C276.068 187.242 281.142 191.608 282.46 191.691C283.778 191.779 286.668 188.099 286.766 186.557C286.865 185.016 281.817 186.661 281.967 184.393C282.061 182.934 286.725 185.561 287.425 184.943C288.125 184.325 289.277 180.204 288.66 179.498C288.042 178.797 285.272 178.948 285.381 177.297C285.49 175.647 288.94 178.854 288.997 177.972C289.054 177.09 288.255 173.243 287.124 171.951C285.993 170.664 281.889 169.885 281.822 170.877C281.76 171.868 283.01 173.617 282.662 173.923C282.31 174.23 280.639 170.825 279.212 170.731C277.78 170.638 274.117 171.37 274.05 172.47C273.977 173.57 275.778 176.924 275.254 177.385C274.724 177.847 273.993 173.378 272.675 173.29C271.357 173.202 268.924 174.718 267.871 175.641C266.818 176.565 270.595 181.107 270.008 181.621C269.422 182.135 267.357 177.775 266.257 177.702C265.157 177.629 262.683 180.012 263.134 181.585C263.585 183.163 265.209 185.363 265.137 186.464C265.064 187.564 262.672 181.886 261.853 182.607C261.033 183.329 258.211 186.568 260.083 191.774C261.401 195.475 263.912 196.845 267.046 197.457Z" fill="#6AB04C"/>
<path d="M281.267 176.861C281.267 176.861 271.658 183.256 262.33 194.488C252.996 205.716 251.404 220 251.404 220" stroke="#130F40" stroke-miterlimit="10" stroke-linecap="round"/>
<path d="M232.171 193.492C229.53 193.025 225.551 190.912 225.053 189.962C224.332 188.582 229.038 189.967 229.696 187.865C230.355 185.763 226.226 189.173 224.332 188.582C222.438 187.99 219.948 184.886 220.306 183.734C220.669 182.581 226.521 183.609 226.978 182.161C227.429 180.713 221.126 182.955 219.865 182.56C218.604 182.166 217.234 177.692 217.696 176.218C218.158 174.743 222.277 178.097 222.952 175.932C223.388 174.541 218.096 175.304 217.665 174.474C217.234 173.643 217.644 169.382 218.474 168.951C219.305 168.52 221.831 169.657 222.329 168.079C222.822 166.501 218.448 168.25 218.713 167.409C218.978 166.568 221.11 163.267 222.63 162.468C224.15 161.674 228.259 162.426 227.964 163.376C227.668 164.321 225.868 165.504 226.085 165.92C226.303 166.335 229.089 163.76 230.454 164.186C231.818 164.617 234.978 166.615 234.646 167.669C234.314 168.722 231.429 171.198 231.756 171.821C232.083 172.444 234.376 168.536 235.637 168.935C236.898 169.33 238.62 171.619 239.269 172.865C239.917 174.11 234.76 176.981 235.118 177.671C235.481 178.361 238.973 175.039 240.026 175.366C241.079 175.699 242.527 178.808 241.541 180.116C240.555 181.424 238.247 182.893 237.914 183.946C237.582 185 241.863 180.562 242.366 181.533C242.869 182.498 244.337 186.542 240.716 190.72C238.153 193.679 235.32 194.052 232.171 193.492Z" fill="#6AB04C"/>
<path d="M246.693 177.095C245.157 174.894 243.834 170.586 244.156 169.563C244.623 168.074 246.968 172.387 248.919 171.364C250.874 170.342 245.541 169.833 244.623 168.074C243.704 166.314 244.135 162.359 245.204 161.798C246.273 161.238 249.686 166.112 251.03 165.406C252.374 164.705 246.335 161.829 245.723 160.656C245.11 159.483 247.305 155.352 248.67 154.635C250.039 153.919 251.404 158.471 252.592 158.154C254.003 157.77 249.603 154.277 249.884 153.384C250.164 152.492 253.469 149.772 254.361 150.047C255.253 150.327 256.234 152.922 257.702 152.154C259.165 151.386 254.838 149.528 255.622 149.123C256.405 148.713 260.244 147.888 261.879 148.401C263.513 148.915 265.889 152.357 265.007 152.813C264.13 153.275 262.024 152.834 261.884 153.281C261.744 153.727 265.531 153.877 266.195 155.149C266.859 156.421 267.674 160.065 266.698 160.578C265.723 161.087 261.93 160.802 261.718 161.471C261.51 162.141 265.889 161.004 266.501 162.177C267.113 163.35 266.714 166.184 266.294 167.523C265.873 168.863 260.198 167.243 259.964 167.991C259.731 168.733 264.55 168.857 265.064 169.833C265.573 170.809 264.4 174.038 262.776 174.261C261.152 174.489 258.48 173.892 257.505 174.406C256.53 174.92 262.688 174.806 262.361 175.849C262.034 176.892 260.213 180.785 254.703 181.18C250.791 181.455 248.519 179.716 246.693 177.095Z" fill="#6AB04C"/>
<path d="M226.168 170.435C226.168 170.435 231.149 183.261 240.477 194.488C249.811 205.716 251.404 220 251.404 220C251.404 220 248.867 178.932 257.795 157.765" stroke="#130F40" stroke-miterlimit="10" stroke-linecap="round"/>
</g>
<defs>
<clipPath id="clip0_918_5844">
<rect width="276" height="456" rx="138" fill="white"/>
</clipPath>
<clipPath id="clip1_918_5844">
<rect width="229" height="205" fill="white" transform="translate(-28 234)"/>
</clipPath>
<clipPath id="clip2_918_5844">
<rect width="283" height="256" fill="white" transform="translate(-4 -26)"/>
</clipPath>
</defs>
</svg>
