<svg width="277" height="456" viewBox="0 0 277 456" fill="none" xmlns="http://www.w3.org/2000/svg">
<g clip-path="url(#clip0_1543_22295)">
<rect x="0.470703" width="276" height="456" rx="138" fill="#00171A"/>
<g clip-path="url(#clip1_1543_22295)">
<path d="M168.718 382.222C172.207 382.222 175.036 379.388 175.036 375.892C175.036 372.396 172.207 369.562 168.718 369.562C165.229 369.562 162.4 372.396 162.4 375.892C162.4 379.388 165.229 382.222 168.718 382.222Z" fill="#F9CA24"/>
<path d="M157.132 371.887C157.132 371.887 160.976 365.672 168.465 365.672V385.728L157.132 371.887Z" fill="#22A6B3"/>
<path d="M169.438 387.209C168.611 387.209 167.938 386.534 167.938 385.705V365.91C167.938 365.081 168.611 364.406 169.438 364.406C170.265 364.406 170.939 365.081 170.939 365.91V385.705C170.939 386.534 170.265 387.209 169.438 387.209Z" fill="#7ED6DF"/>
<path d="M96.2213 384.347C96.2213 384.347 102.279 372.692 100.448 363.731C98.6181 354.769 93.3955 353.372 93.3955 353.372C93.3955 353.372 129.939 353.372 134.196 353.372C138.454 353.372 147.33 372.247 147.33 372.247L96.2213 384.347Z" fill="#7ED6DF"/>
<path d="M20.3083 432.911C32.7284 423.157 34.9055 405.163 25.1711 392.719C15.4367 380.274 -2.52302 378.093 -14.9431 387.846C-27.3632 397.6 -29.5404 415.594 -19.8059 428.038C-10.0715 440.483 7.8882 442.664 20.3083 432.911Z" fill="#130F40"/>
<path d="M16.013 414.156C13.9224 421.537 6.26459 425.826 -1.10225 423.731C-8.46909 421.637 -12.7422 413.964 -10.6592 406.583C-8.56864 399.202 -0.910804 394.913 6.45604 397.007C13.8229 399.102 18.0959 406.775 16.013 414.156Z" fill="#22A6B3"/>
<path d="M7.71241 411.8C6.92366 414.585 4.02899 416.212 1.24154 415.422C-1.53826 414.631 -3.16172 411.731 -2.37296 408.938C-1.5842 406.153 1.31046 404.526 4.09791 405.324C6.88537 406.115 8.50117 409.015 7.71241 411.8Z" fill="#7ED6DF"/>
<path d="M10.8366 381.516C-5.06872 376.997 -21.6173 386.258 -26.1201 402.186L31.4745 418.545C35.9773 402.616 26.7419 386.035 10.8366 381.516Z" fill="#7ED6DF"/>
<path d="M-25.7144 399.34L31.9032 415.706C32.6613 415.92 33.0978 416.711 32.8834 417.47C32.6689 418.23 31.8802 418.667 31.122 418.452L-26.4955 402.086C-27.2537 401.872 -27.6901 401.081 -27.4757 400.322C-27.2613 399.562 -26.4726 399.125 -25.7144 399.34Z" fill="#22A6B3"/>
<path d="M159.385 430.614C170.543 419.434 170.543 401.309 159.385 390.129C148.227 378.95 130.137 378.95 118.979 390.129C107.821 401.309 107.821 419.434 118.979 430.614C130.137 441.793 148.227 441.793 159.385 430.614Z" fill="#130F40"/>
<path d="M145.205 422.872C152.1 419.538 154.991 411.236 151.665 404.329C148.338 397.421 140.052 394.524 133.158 397.857C126.264 401.191 123.372 409.493 126.699 416.4C130.026 423.308 138.311 426.205 145.205 422.872Z" fill="#22A6B3"/>
<path d="M144.221 411.8C143.432 414.585 140.538 416.212 137.75 415.422C134.971 414.631 133.347 411.731 134.136 408.938C134.925 406.153 137.819 404.526 140.607 405.324C143.394 406.115 145.01 409.015 144.221 411.8Z" fill="#7ED6DF"/>
<path d="M75.4001 419.013C92.5384 419.013 89.2302 405.002 91.9257 395.012C95.8772 380.35 107.931 362.434 137.635 362.434C167.34 362.434 172.624 392.864 172.624 408.332H105.84V421.583C105.848 421.583 58.2619 419.013 75.4001 419.013Z" fill="#7ED6DF"/>
<path d="M24.2225 331.582C24.2225 331.582 29.269 338.104 23.8932 350.012C18.5174 361.92 10.1857 360.769 8.18701 368.848C6.18831 376.928 6.03516 378.669 6.03516 378.669C6.03516 378.669 24.2608 380.066 30.7087 396.102C37.1566 412.138 34.8363 421.583 34.8363 421.583H55.3899C55.3899 421.583 40.6945 409.506 34.3079 394.475C27.9136 379.444 30.5249 351.462 36.2683 340.091C42.0117 328.72 33.8484 309.438 23.9009 309.438L24.2225 331.582Z" fill="#7ED6DF"/>
<path d="M23.8857 309.431C23.8857 309.431 26.252 307.651 33.6112 311.341C40.978 315.032 56.4316 323.395 56.4316 323.395C56.4316 323.395 61.4704 327.653 55.7041 331.582C49.9377 335.51 26.9642 345.216 33.3891 384.439C35.786 399.063 55.3748 415.905 55.3748 415.905L105.84 416.243V421.583L47.0813 421.598C47.0813 421.598 26.5966 394.345 26.5966 373.598C26.5966 352.858 46.5759 321.968 23.8857 309.431Z" fill="#22A6B3"/>
<path d="M21.6878 329.717C19.5053 329.717 17.7363 327.945 17.7363 325.758V315.047C17.7363 312.86 19.5053 311.088 21.6878 311.088V329.717Z" fill="#F9CA24"/>
<path d="M22.8672 332.456C21.5578 332.456 20.501 331.398 20.501 330.086V311.364C20.501 310.052 21.5578 308.993 22.8672 308.993C24.1767 308.993 25.2335 310.052 25.2335 311.364V330.086C25.2335 331.398 24.1767 332.456 22.8672 332.456Z" fill="#7ED6DF"/>
<path d="M56.9217 323.786L34.5762 311.725C36.0158 309.047 39.347 308.05 42.0119 309.492L54.6857 316.336C57.3582 317.779 58.3614 321.109 56.9217 323.786Z" fill="#7ED6DF"/>
<path d="M105.633 426.716H35.6636C34.1014 426.716 32.8379 425.45 32.8379 423.885C32.8379 422.319 34.1014 421.053 35.6636 421.053H105.626C107.188 421.053 108.451 422.319 108.451 423.885C108.451 425.45 107.188 426.716 105.633 426.716Z" fill="#F6E58D"/>
<path d="M174.293 412.583H104.078C102.822 412.583 101.804 411.562 101.804 410.304C101.804 409.046 102.822 408.025 104.078 408.025H174.293C175.549 408.025 176.567 409.046 176.567 410.304C176.56 411.57 175.549 412.583 174.293 412.583Z" fill="#22A6B3"/>
<path d="M136.226 358.26H92.4542C92.324 358.26 92.2168 358.152 92.2168 358.022C92.2168 354.493 95.0732 351.638 98.5881 351.638H142.36C142.491 351.638 142.598 351.746 142.598 351.876C142.598 355.398 139.749 358.26 136.226 358.26Z" fill="#F9CA24"/>
<path d="M189.601 364.667H144.742C143.44 364.667 142.391 363.608 142.391 362.311C142.391 361.007 143.447 359.956 144.742 359.956H189.601C190.903 359.956 191.952 361.014 191.952 362.311C191.952 363.608 190.903 364.667 189.601 364.667Z" fill="#22A6B3"/>
<path d="M45.5496 327.285C48.1718 327.285 50.2975 325.155 50.2975 322.528C50.2975 319.901 48.1718 317.771 45.5496 317.771C42.9274 317.771 40.8018 319.901 40.8018 322.528C40.8018 325.155 42.9274 327.285 45.5496 327.285Z" fill="#30336B"/>
<path d="M47.6862 322.528C47.6862 323.71 46.7289 324.669 45.5496 324.669C44.3703 324.669 43.4131 323.71 43.4131 322.528C43.4131 321.346 44.3703 320.387 45.5496 320.387C46.7289 320.387 47.6862 321.346 47.6862 322.528Z" fill="#22A6B3"/>
<path d="M198.86 359.948H145.201C143.761 359.948 142.59 358.782 142.59 357.331V314.848C142.59 313.405 143.754 312.231 145.201 312.231H198.86C200.299 312.231 201.471 313.397 201.471 314.848V357.331C201.471 358.782 200.299 359.948 198.86 359.948Z" fill="#662F05"/>
<path d="M172.034 346.03C177.511 346.03 181.951 341.581 181.951 336.093C181.951 330.606 177.511 326.157 172.034 326.157C166.557 326.157 162.117 330.606 162.117 336.093C162.117 341.581 166.557 346.03 172.034 346.03Z" stroke="white" stroke-width="1.7796" stroke-miterlimit="10"/>
<path d="M172.326 330.777C175.2 330.777 177.53 333.106 177.53 335.98V339.622C177.53 340.036 177.366 340.433 177.073 340.726C176.78 341.018 176.383 341.183 175.969 341.183H172.586V338.9C172.586 338.379 172.618 337.84 172.891 337.397C173.086 337.079 173.348 336.807 173.658 336.599C173.968 336.392 174.319 336.253 174.687 336.193L174.787 336.177C174.828 336.163 174.864 336.136 174.889 336.101C174.914 336.065 174.928 336.023 174.928 335.98C174.928 335.936 174.914 335.894 174.889 335.859C174.864 335.823 174.828 335.797 174.787 335.783L174.687 335.767C174.149 335.679 173.652 335.424 173.267 335.039C172.881 334.653 172.627 334.157 172.539 333.619L172.523 333.519C172.509 333.478 172.482 333.442 172.447 333.417C172.411 333.392 172.369 333.378 172.326 333.378C172.282 333.378 172.24 333.392 172.205 333.417C172.169 333.442 172.143 333.478 172.129 333.519L172.113 333.619C172.052 333.987 171.914 334.338 171.706 334.648C171.498 334.958 171.226 335.219 170.908 335.415C170.465 335.688 169.925 335.72 169.404 335.72H167.127C167.263 332.967 169.539 330.777 172.326 330.777Z" fill="white"/>
<path d="M167.121 336.24H169.404C169.925 336.24 170.465 336.272 170.908 336.545C171.255 336.758 171.547 337.05 171.76 337.397C172.034 337.84 172.065 338.379 172.065 338.9V341.183H168.682C168.268 341.183 167.871 341.018 167.578 340.726C167.286 340.433 167.121 340.036 167.121 339.622V336.24ZM177.53 331.297C177.53 331.435 177.475 331.567 177.378 331.665C177.28 331.762 177.148 331.817 177.01 331.817C176.872 331.817 176.739 331.762 176.642 331.665C176.544 331.567 176.489 331.435 176.489 331.297C176.489 331.159 176.544 331.027 176.642 330.929C176.739 330.831 176.872 330.777 177.01 330.777C177.148 330.777 177.28 330.831 177.378 330.929C177.475 331.027 177.53 331.159 177.53 331.297Z" fill="white"/>
<path d="M123.483 403.682H104.017C103.221 403.682 102.585 403.038 102.585 402.248C102.585 401.45 103.228 400.813 104.017 400.813H123.483C124.28 400.813 124.915 401.457 124.915 402.248C124.915 403.038 124.272 403.682 123.483 403.682Z" fill="#22A6B3"/>
<path d="M123.483 397.905H104.017C103.221 397.905 102.585 397.26 102.585 396.47C102.585 395.672 103.228 395.035 104.017 395.035H123.483C124.28 395.035 124.915 395.68 124.915 396.47C124.915 397.26 124.272 397.905 123.483 397.905Z" fill="#22A6B3"/>
<path d="M123.483 392.127H104.017C103.221 392.127 102.585 391.483 102.585 390.692C102.585 389.895 103.228 389.258 104.017 389.258H123.483C124.28 389.258 124.915 389.902 124.915 390.692C124.915 391.483 124.272 392.127 123.483 392.127Z" fill="#22A6B3"/>
<path d="M101.054 428.642C101.054 428.642 100.885 429.532 104.553 431.58C108.229 433.629 115.213 437.189 115.213 437.795C115.213 438.402 115.091 439 114.248 439C113.406 439 91.8491 439 91.8491 439C91.8491 439 90.9455 437.972 91.4279 435.378C91.9103 432.785 94.0775 427.115 94.0775 427.115L101.054 428.642Z" fill="#30336B"/>
<path d="M141.87 428.642C141.87 428.642 141.702 429.532 145.37 431.58C149.046 433.629 156.03 437.189 156.03 437.795C156.03 438.402 155.907 439 155.065 439C154.222 439 132.665 439 132.665 439C132.665 439 131.762 437.972 132.244 435.378C132.727 432.785 134.894 427.115 134.894 427.115L141.87 428.642Z" fill="#30336B"/>
<path d="M118.728 244.811L112.686 260.617L111.422 260.256C111.422 260.256 105.342 255.008 106.873 245.118L118.728 244.811Z" fill="#130F40"/>
<path d="M126.952 244.45C126.952 244.45 127.557 256.934 126.294 258.929C125.03 260.916 124.548 261.944 121.354 262.427C121.354 262.427 120.634 264.177 121.354 266.225C121.354 266.225 119.608 267.614 116.66 267.614C113.712 267.614 112.081 266.586 112.081 266.586C112.081 266.586 112.264 261.76 111.422 260.248L113.352 257.233C113.352 257.233 108.772 253.55 110.947 249.691C113.114 245.831 115.948 248.847 115.948 248.847L117.908 244.443H126.952V244.45Z" fill="#FFC2BD"/>
<path d="M106.238 244.45C106.238 238.68 110.91 234 116.668 234C122.427 234 127.098 238.68 127.098 244.45H106.238Z" fill="#EB4D4B"/>
<mask id="mask0_1543_22295" style="mask-type:luminance" maskUnits="userSpaceOnUse" x="106" y="234" width="22" height="11">
<path d="M106.238 244.45C106.238 238.68 110.91 234 116.668 234C122.427 234 127.098 238.68 127.098 244.45H106.238Z" fill="white"/>
</mask>
<g mask="url(#mask0_1543_22295)">
<path d="M116.277 244.45C116.277 238.68 120.941 234 126.7 234C132.458 234 137.13 238.68 137.13 244.45H116.277Z" fill="#F9CA24"/>
</g>
<path d="M137.038 243.844H106.874C106.522 243.844 106.238 244.128 106.238 244.481C106.238 244.834 106.522 245.118 106.874 245.118H137.038C137.39 245.118 137.674 244.834 137.674 244.481C137.674 244.128 137.39 243.844 137.038 243.844Z" fill="#FF780E"/>
<path d="M110.572 269.563C110.572 269.563 99.9128 275.694 83.234 292.405L55.8955 309.415L59.6249 315.208L87.9206 303.147L103.818 290.602C103.834 290.602 111.04 280.32 110.572 269.563Z" fill="#4A4AF2"/>
<mask id="mask1_1543_22295" style="mask-type:luminance" maskUnits="userSpaceOnUse" x="110" y="244" width="18" height="24">
<path d="M126.952 244.45C126.952 244.45 127.557 256.934 126.294 258.929C125.03 260.916 124.548 261.944 121.354 262.427C121.354 262.427 120.634 264.177 121.354 266.225C121.354 266.225 119.608 267.614 116.66 267.614C113.712 267.614 112.081 266.586 112.081 266.586C112.081 266.586 112.264 261.76 111.422 260.248L113.352 257.233C113.352 257.233 108.772 253.55 110.947 249.691C113.114 245.831 115.948 248.847 115.948 248.847L117.908 244.443H126.952V244.45Z" fill="white"/>
</mask>
<g mask="url(#mask1_1543_22295)">
<path opacity="0.1" d="M121.354 262.427C121.354 262.427 118.605 261.346 116.798 259.535C116.798 259.535 117.204 264.154 119.225 266.179C121.247 268.205 122.939 266.778 122.939 266.778L121.354 262.427Z" fill="black"/>
</g>
<path d="M125.023 269.164C125.023 269.164 125.866 266.954 124.418 266.509C122.971 266.064 111.385 265.919 110.351 266.954C109.317 267.99 110.573 269.571 110.573 269.571C110.573 269.571 106.3 270.998 104.133 278.356C101.965 285.714 102.088 303.753 102.088 303.753C102.088 303.753 101.36 326.855 102.088 328.367C102.815 329.878 103.711 330.722 103.711 330.722H135.92C135.92 330.722 137.123 329.157 137.123 326.802C137.123 324.446 133.868 290.609 133.868 290.609C133.868 290.609 131.218 282.047 132.903 273.353C132.911 273.346 127.673 269.87 125.023 269.164Z" fill="#FF780E"/>
<path d="M114.555 290.106C117.19 290.106 119.326 292.241 119.326 294.876V298.214C119.326 298.594 119.175 298.958 118.907 299.226C118.638 299.494 118.274 299.645 117.895 299.645H114.794V297.553C114.794 297.075 114.823 296.581 115.073 296.174C115.252 295.883 115.492 295.634 115.776 295.444C116.061 295.253 116.382 295.126 116.72 295.071L116.811 295.056C116.849 295.043 116.882 295.019 116.905 294.987C116.928 294.954 116.94 294.915 116.94 294.876C116.94 294.836 116.928 294.797 116.905 294.765C116.882 294.732 116.849 294.708 116.811 294.695L116.72 294.68C116.227 294.6 115.771 294.366 115.418 294.013C115.064 293.66 114.831 293.204 114.75 292.711L114.736 292.62C114.723 292.582 114.698 292.55 114.666 292.526C114.634 292.503 114.595 292.491 114.555 292.491C114.515 292.491 114.476 292.503 114.444 292.526C114.412 292.55 114.387 292.582 114.374 292.62L114.36 292.711C114.305 293.049 114.177 293.37 113.987 293.655C113.797 293.939 113.547 294.178 113.256 294.358C112.849 294.608 112.355 294.637 111.877 294.637H109.79C109.915 292.114 112 290.106 114.555 290.106Z" fill="#1C1C22"/>
<path d="M109.784 295.114H111.877C112.355 295.114 112.849 295.143 113.256 295.394C113.574 295.589 113.841 295.857 114.037 296.174C114.287 296.581 114.316 297.075 114.316 297.553V299.645H111.215C110.836 299.645 110.472 299.494 110.203 299.226C109.935 298.958 109.784 298.594 109.784 298.214V295.114ZM119.326 290.583C119.326 290.71 119.276 290.831 119.186 290.92C119.097 291.01 118.975 291.06 118.849 291.06C118.722 291.06 118.601 291.01 118.511 290.92C118.422 290.831 118.372 290.71 118.372 290.583C118.372 290.457 118.422 290.335 118.511 290.246C118.601 290.156 118.722 290.106 118.849 290.106C118.975 290.106 119.097 290.156 119.186 290.246C119.276 290.335 119.326 290.457 119.326 290.583Z" fill="#1C1C22"/>
<path d="M132.91 273.346C132.91 273.346 140.239 278.249 151.955 292.811L163.993 272.218L170.334 275.356L159.154 299.694C156.872 304.658 150.408 305.924 146.434 302.18L133.768 290.264C133.776 290.264 129.28 278.41 132.91 273.346Z" fill="#4A4AF2"/>
<path d="M135.927 330.715L142.245 382.897V428.742H134.12L128.515 385.79L120.811 359.733L116.476 384.831L101.766 428.742L93.3574 427.537L101.766 378.316L103.711 330.715H135.927Z" fill="#130F40"/>
<path d="M164.545 272.486C164.545 272.486 165.127 270.415 164.829 269.394C164.53 268.374 162.118 263.087 161.727 262.243C161.337 261.399 161.758 260.494 162.478 260.494C163.197 260.494 164.913 262.573 164.913 262.573C164.913 262.573 165.342 259.343 165.61 258.407C165.878 257.471 167.356 254.854 167.777 254.693C168.558 254.402 169.01 254.755 169.01 255.599C169.01 255.599 170.457 254.218 171.116 254.425C171.774 254.632 171.721 256.297 171.353 257.624C171.353 257.624 172.739 256.09 173.398 256.09C174.056 256.09 174.179 257.624 173.788 259.074C173.788 259.074 174.723 258.046 175.381 258.046C176.04 258.046 176.04 259.642 175.772 260.67C175.504 261.699 172.28 271.228 171.736 272.617C171.192 274.006 169.959 275.509 169.959 275.509L164.545 272.486Z" fill="#FFC2BD"/>
<path d="M56.1712 309.83C56.1712 309.83 51.0098 312.914 49.8076 313.397C48.6053 313.881 45.2282 314.963 42.8619 316.858C40.4956 318.745 39.324 320.387 40.2046 323.249C41.0317 325.935 41.8204 327.024 42.502 325.981C43.1835 324.937 42.0961 323.057 42.0961 323.057C42.0961 323.057 41.897 319.988 45.5498 318.584C47.0661 318.001 49.3481 319.49 49.5166 320.126C50.0526 322.167 49.3404 323.894 48.9805 324.661C48.6206 325.428 48.3526 326.832 49.6008 326.387C50.849 325.942 52.2734 322.382 53.3378 321.316C54.05 320.602 54.0577 319.704 54.9 318.86C55.7424 318.016 59.51 315.001 59.51 315.001L56.1712 309.83Z" fill="#FFC2BD"/>
<path d="M127.297 251.655L126.83 251.026C126.83 251.026 123.522 251.632 120.888 251.31C118.261 250.987 118.016 250.627 118.016 250.627C118.016 250.627 117.511 257.302 115.565 258.445C115.565 258.445 118.437 261.261 121.347 262.427C121.347 262.427 124.387 262.543 125.743 260.256C127.458 257.363 127.297 251.655 127.297 251.655Z" fill="#DFF9FB"/>
<path d="M118.499 251.693L118.951 251.256C118.951 251.256 116.722 248.686 115.903 248.187C115.145 247.727 114.716 247.995 114.716 247.995L115.397 248.394L118.499 251.693Z" fill="#DFF9FB"/>
<path d="M116.278 258.737L116.507 258.154C116.507 258.154 113.751 257.225 113.36 257.049C112.97 256.872 112.671 256.619 112.671 256.619C112.671 256.619 112.579 257.141 113.192 257.479C113.804 257.808 116.278 258.737 116.278 258.737Z" fill="#DFF9FB"/>
<path d="M117.661 302.406C121.849 300.708 123.869 295.931 122.175 291.736C120.481 287.541 115.713 285.516 111.526 287.213C107.339 288.911 105.318 293.688 107.012 297.883C108.706 302.079 113.474 304.103 117.661 302.406Z" stroke="#1C1C22" stroke-width="1.4671" stroke-miterlimit="10"/>
</g>
<g clip-path="url(#clip2_1543_22295)">
<path opacity="0.3" d="M276.471 -4H-3.5293V229H276.471V-4Z" fill="#B3F6FF"/>
<path d="M279.464 229.174H0.015625V230H279.464V229.174Z" fill="#004B55"/>
<path d="M100.631 -26V228.981" stroke="#004B55" stroke-miterlimit="10"/>
<path opacity="0.3" d="M168.634 13.3657H112.124V93.7015H168.634V13.3657Z" fill="#B3F6FF"/>
<path d="M162.383 22.2867H118.376V87.5766H162.383V22.2867Z" stroke="#004B55" stroke-miterlimit="10"/>
<path d="M140.376 22.3932V87.4701" stroke="#004B55" stroke-miterlimit="10"/>
<path d="M118.376 54.935H162.383" stroke="#004B55" stroke-miterlimit="10"/>
<path opacity="0.3" d="M168.634 110.212H112.124V190.548H168.634V110.212Z" fill="#B3F6FF"/>
<path d="M162.383 116.743H118.376V182.033H162.383V116.743Z" stroke="#004B55" stroke-miterlimit="10"/>
<path d="M140.376 116.85V181.926" stroke="#004B55" stroke-miterlimit="10"/>
<path d="M118.376 149.391H162.383" stroke="#004B55" stroke-miterlimit="10"/>
<path opacity="0.3" d="M244.562 13.3657H188.053V93.7015H244.562V13.3657Z" fill="#B3F6FF"/>
<path d="M238.304 22.2867H194.298V87.5766H238.304V22.2867Z" stroke="#004B55" stroke-miterlimit="10"/>
<path d="M216.305 22.3932V87.4701" stroke="#004B55" stroke-miterlimit="10"/>
<path d="M194.298 54.935H238.311" stroke="#004B55" stroke-miterlimit="10"/>
<path opacity="0.3" d="M244.562 110.212H188.053V190.548H244.562V110.212Z" fill="#B3F6FF"/>
<path d="M238.304 116.743H194.298V182.033H238.304V116.743Z" stroke="#004B55" stroke-miterlimit="10"/>
<path d="M216.305 116.85V181.926" stroke="#004B55" stroke-miterlimit="10"/>
<path d="M194.298 149.391H238.311" stroke="#004B55" stroke-miterlimit="10"/>
<path opacity="0.3" d="M86.5789 13.3657H30.0693V93.7015H86.5789V13.3657Z" fill="#B3F6FF"/>
<path d="M80.3278 22.2867H36.3213V87.5766H80.3278V22.2867Z" stroke="#004B55" stroke-miterlimit="10"/>
<path d="M58.3281 22.3932V87.4701" stroke="#004B55" stroke-miterlimit="10"/>
<path d="M36.3213 54.935H80.3278" stroke="#004B55" stroke-miterlimit="10"/>
<path opacity="0.3" d="M86.5789 110.212H30.0693V190.548H86.5789V110.212Z" fill="#B3F6FF"/>
<path d="M80.3278 116.743H36.3213V182.033H80.3278V116.743Z" stroke="#004B55" stroke-miterlimit="10"/>
<path d="M58.3281 116.85V181.926" stroke="#004B55" stroke-miterlimit="10"/>
<path d="M36.3213 149.391H80.3278" stroke="#004B55" stroke-miterlimit="10"/>
</g>
<path d="M196.156 218.769H274.041V63H196.156V218.769Z" fill="#7ED6DF"/>
<path d="M190.968 218.769H268.853V63H190.968V218.769Z" fill="#DFF9FB"/>
<path d="M196.718 218.768H255.339L255.339 71.1956H196.718L196.718 218.768Z" fill="#7ED6DF"/>
<path d="M201.707 218.768H260.328V71.1956H201.707L201.707 218.768Z" fill="#95AFC0"/>
<path d="M250.302 218.769H260.331V71.1966H201.71L250.302 218.769Z" fill="#22A6B3"/>
<path d="M180.353 228.998H277.579V218.767H180.353V228.998Z" fill="#7ED6DF"/>
<path d="M176.298 228.998H268.854V218.767H176.298V228.998Z" fill="#C7ECEE"/>
<path d="M137.586 218.768H196.207L196.207 71.1956H137.586L137.586 218.768Z" fill="#22A6B3"/>
<path d="M133.489 218.768H192.11L192.11 71.1956H133.489L133.489 218.768Z" fill="#7ED6DF"/>
<path d="M194.201 106.544H199.036V91.8912H194.201V106.544Z" fill="#C7ECEE"/>
<path d="M194.201 198.073H199.036V183.42H194.201V198.073Z" fill="#C7ECEE"/>
<path d="M140.111 166.106C141.724 166.106 143.037 164.798 143.037 163.178V136.156C143.037 134.542 141.729 133.229 140.111 133.229C138.497 133.229 137.185 134.537 137.185 136.156V163.178C137.185 164.793 138.497 166.106 140.111 166.106Z" fill="#22A6B3"/>
<path d="M138.964 143.693H140.551C141.247 143.693 141.812 143.127 141.812 142.432C141.812 141.736 141.247 141.171 140.551 141.171H138.964C138.269 141.171 137.703 141.736 137.703 142.432C137.708 143.127 138.269 143.693 138.964 143.693Z" fill="#7ED6DF"/>
<path d="M138.989 145.134C140.48 143.642 140.48 141.223 138.989 139.731C137.498 138.24 135.08 138.24 133.589 139.731C132.098 141.223 132.098 143.642 133.589 145.134C135.08 146.626 137.498 146.626 138.989 145.134Z" fill="#95AFC0"/>
<path d="M204.631 146.449L200.641 177.536L199.936 210.433L204.631 210.963L209.923 178.709L214.701 164.092L216.999 180.453L227.428 210.963L232.906 210.169L227.075 178.709L227.703 145.396L204.631 146.449Z" fill="#30336B"/>
<path d="M220.444 94.9019C220.444 94.9019 224.921 91.8965 224.511 87.0018C224.096 82.1071 220.651 82.3719 220.651 82.3719C220.651 82.3719 218.856 79.4548 211.899 80.4877C204.947 81.5206 202.057 88.7718 209.569 88.3877C217.087 88.0036 220.444 94.9019 220.444 94.9019Z" fill="#130F40"/>
<path d="M213.253 103.01L205.829 105.101L194.041 117.896L198.166 124.441L205.771 119.137L202.41 148.967L228.885 149.751L227.178 119.728L234.882 125.09L239.951 118.488L228.345 105.454L220.444 102.594L213.253 103.01Z" fill="#F9CA24"/>
<path d="M209.57 88.3877C209.57 88.3877 208.833 96.023 209.922 97.3778C211.012 98.7325 211.925 99.4696 213.902 99.2048C213.902 99.2048 213.974 102.288 213.253 103.01C213.253 103.01 214.255 104.603 216.672 104.603C219.09 104.603 220.444 102.599 220.444 102.599C220.444 102.599 220.091 96.4383 220.444 94.9071L220.652 93.3447C220.652 93.3447 223.51 91.8135 222.981 89.2753C222.452 86.7423 220.003 89.5971 220.003 89.5971C220.003 89.5971 219.235 88.4759 219.235 86.1454C219.235 86.1454 215.375 88.7095 209.57 88.3877Z" fill="#FFC2BD"/>
<path d="M200.19 210.464C200.19 210.464 200.392 211.767 200.19 211.97C199.987 212.172 189.652 217.57 189.652 217.57H205.061C205.061 217.57 203.609 214.363 204.262 210.926L200.19 210.464Z" fill="#FFC2BD"/>
<path d="M227.92 210.895C227.92 210.895 228.309 212.271 228.107 212.473C227.905 212.676 219.386 217.57 219.386 217.57H234.966C234.966 217.57 233.228 213.719 232.704 210.2L227.92 210.895Z" fill="#FFC2BD"/>
<path d="M193.263 215.235L195.006 217.975" stroke="#30336B" stroke-width="1.7796" stroke-miterlimit="10"/>
<path d="M222.565 215.235L224.309 217.975" stroke="#30336B" stroke-width="1.7796" stroke-miterlimit="10"/>
<path d="M205.149 218.775H189.564C189.232 218.775 188.962 218.505 188.962 218.172C188.962 217.84 189.232 217.57 189.564 217.57H205.149C205.481 217.57 205.751 217.84 205.751 218.172C205.756 218.505 205.486 218.775 205.149 218.775Z" fill="#30336B"/>
<path d="M234.836 218.775H219.245C218.913 218.775 218.644 218.505 218.644 218.172C218.644 217.84 218.913 217.57 219.245 217.57H234.831C235.163 217.57 235.432 217.84 235.432 218.172C235.438 218.505 235.168 218.775 234.836 218.775Z" fill="#30336B"/>
<path d="M235.272 124.587L236.356 125.49L228.091 143.356C228.091 143.356 227.074 145.671 229.492 148.09C231.91 150.508 232.797 150.456 233.497 149.756C233.497 149.756 234.177 149.797 234.556 149.18C234.556 149.18 235.323 149.211 235.645 148.442C235.645 148.442 236.351 148.354 236.351 147.384C236.351 146.413 236.382 143.522 235.733 143.522C235.085 143.522 234.763 144.581 234.763 144.581C234.763 144.581 234.514 143.709 234.146 144.077C233.777 144.446 233.674 144.934 233.674 144.934L233.409 144.7C233.409 144.7 234.026 143.968 233.264 142.847L242.826 127.504C244.014 125.599 243.661 123.118 241.995 121.618L239.37 119.256L235.272 124.587Z" fill="#FFC2BD"/>
<path d="M194.353 118.394L193.523 119.168L189.896 104.042C189.896 104.042 190.954 101.478 190.954 100.861C190.954 100.861 192.599 97.2999 192.122 96.5473C191.639 95.7946 190.161 98.3588 190.161 98.3588C190.161 98.3588 190.28 92.4986 189.429 92.4986C188.832 92.4986 188.542 96.2306 188.542 96.2306C188.542 96.2306 188.459 91.772 187.598 91.772C186.892 91.772 186.866 96.7601 186.866 96.7601C186.866 96.7601 186.799 92.3014 186.093 92.4104C185.388 92.5194 185.429 95.9711 185.429 96.9625C185.429 96.9625 184.941 93.2045 184.282 93.3343C183.618 93.4693 183.774 98.0681 184.282 100.3C184.791 102.532 185.367 104.655 185.367 104.655L188.49 124.374C188.864 126.746 191.535 127.971 193.58 126.704L197.907 124.021L194.353 118.394Z" fill="#FFC2BD"/>
<mask id="mask2_1543_22295" style="mask-type:luminance" maskUnits="userSpaceOnUse" x="209" y="86" width="15" height="19">
<path d="M209.57 88.3877C209.57 88.3877 208.833 96.023 209.922 97.3778C211.012 98.7325 211.925 99.4696 213.902 99.2048C213.902 99.2048 213.974 102.288 213.253 103.01C213.253 103.01 214.255 104.603 216.672 104.603C219.09 104.603 220.444 102.599 220.444 102.599C220.444 102.599 220.091 96.4383 220.444 94.9071L220.652 93.3447C220.652 93.3447 223.51 91.8135 222.981 89.2753C222.452 86.7423 220.003 89.5971 220.003 89.5971C220.003 89.5971 219.235 88.4759 219.235 86.1454C219.235 86.1454 215.375 88.7095 209.57 88.3877Z" fill="white"/>
</mask>
<g mask="url(#mask2_1543_22295)">
<path opacity="0.1" d="M218.391 96C218.391 96 219.496 102.724 213.471 103V99.2944L218.391 96Z" fill="black"/>
</g>
<path d="M137.729 229C136.992 229 136.396 228.403 136.396 227.666V200.8H139.062V227.666C139.062 228.403 138.466 229 137.729 229Z" fill="#FFBE76"/>
<path d="M107.659 229C106.922 229 106.325 228.403 106.325 227.666V200.8H108.992V227.666C108.992 228.403 108.395 229 107.659 229Z" fill="#FFBE76"/>
<g opacity="0.1">
<path d="M139.062 200.8H136.396V207.641H139.062V200.8Z" fill="black"/>
<path d="M108.992 200.8H106.325V207.641H108.992V200.8Z" fill="black"/>
</g>
<path d="M143.888 202.897H101.495C99.8248 202.897 98.4707 201.542 98.4707 199.871C98.4707 198.199 99.8248 196.844 101.495 196.844H143.888C145.559 196.844 146.913 198.199 146.913 199.871C146.913 201.542 145.559 202.897 143.888 202.897Z" fill="#F6E58D"/>
<path d="M141.709 169.433C141.709 169.433 146.798 166.246 146.497 163.879C146.196 161.507 143.213 162.519 143.213 162.519C143.213 162.519 146.373 157.412 143.561 156.649C140.749 155.886 140.142 160.448 140.142 160.448C140.142 160.448 140.702 153.861 137.677 153.815C134.653 153.763 136.002 160.578 136.002 160.578C136.002 160.578 134.58 157.427 132.048 157.542C129.517 157.651 131.524 162.094 131.524 162.094C131.524 162.094 130.71 160.671 129.21 161.294C127.711 161.917 129.48 165.094 129.48 165.094L141.709 169.433Z" fill="#BADC58"/>
<path d="M130.346 171.047C130.346 171.047 126.865 166.158 128.048 164.082C129.231 162.005 131.602 164.082 131.602 164.082C131.602 164.082 130.637 158.154 133.527 158.523C136.416 158.891 135.228 163.339 135.228 163.339C135.228 163.339 137.226 157.038 140.043 158.154C142.86 159.265 139.005 165.047 139.005 165.047C139.005 165.047 141.522 162.68 143.82 163.755C146.118 164.824 142.559 168.161 142.559 168.161C142.559 168.161 143.856 167.16 145.003 168.312C146.149 169.459 143.301 171.722 143.301 171.722L130.346 171.047Z" fill="#6AB04C"/>
<path d="M125.662 159.997H117.734V170.643H125.662V159.997Z" fill="#EB4D4B"/>
<path d="M123.327 159.997H115.399V170.643H123.327V159.997Z" fill="#FF7979"/>
<path d="M122.139 161.092H116.582V163.687H122.139V161.092Z" fill="#DFF9FB"/>
<path d="M122.139 165.047H116.582V167.642H122.139V165.047Z" fill="#DFF9FB"/>
<path d="M125.81 161.455L121.202 166.064L128.169 173.034L132.776 168.424L125.81 161.455Z" fill="#22A6B3"/>
<path d="M123.977 163.287L119.369 167.897L126.336 174.867L130.943 170.257L123.977 163.287Z" fill="#7ED6DF"/>
<path d="M124.017 164.507L120.587 167.939L122.63 169.983L126.06 166.551L124.017 164.507Z" fill="#DFF9FB"/>
<path d="M141.714 196.844H118.637L114.767 168.312H145.579L141.714 196.844Z" fill="#22A6B3"/>
<path d="M137.844 196.844H118.637L114.767 168.312H141.714L137.844 196.844Z" fill="#C7ECEE"/>
<path d="M119.125 178.947C119.13 178.947 118.087 176.466 118.673 174.494C119.259 172.522 118.933 171.068 117.828 171.374C116.722 171.681 116.453 171.141 115.617 170.305C114.782 169.469 114.512 170.902 113.278 170.902C112.043 170.902 112.172 170.092 110.938 170.357C109.703 170.622 108.836 171.873 108.338 171.374C107.84 170.876 106.471 169.651 105.22 170.902C103.97 172.153 105.153 172.366 105.609 173.996C106.066 175.62 105.22 178.947 105.22 178.947H105.225C102.118 184.398 100.084 187.117 100.084 191.208C100.084 197.888 105.5 198.21 112.178 198.21C118.855 198.21 124.271 197.888 124.271 191.208C124.266 187.117 122.232 184.392 119.125 178.947Z" fill="#95AFC0"/>
<path d="M116.556 174.504L115.607 174.131C116.904 170.829 117.916 166.106 116.505 163.672C116.001 162.8 115.234 162.296 114.154 162.135C113.563 162.047 113.039 162.203 112.551 162.613C109.708 164.995 109.418 174.291 109.412 174.385L108.396 174.359C108.406 173.959 108.702 164.507 111.898 161.834C112.613 161.237 113.423 160.998 114.305 161.128C115.69 161.336 116.723 162.021 117.387 163.163C118.974 165.914 117.999 170.824 116.556 174.504Z" fill="#95AFC0"/>
<path d="M107.119 176.238C106.995 175.859 104.11 166.853 106.222 163.262C106.694 162.457 107.379 161.959 108.255 161.787C109.63 161.523 110.834 161.813 111.84 162.67C114.258 164.725 114.984 169.682 114.855 173.637L113.838 173.606C113.952 170.061 113.324 165.276 111.182 163.448C110.414 162.794 109.521 162.582 108.453 162.789C107.866 162.903 107.425 163.225 107.104 163.775C105.22 166.973 108.063 175.828 108.089 175.916L107.119 176.238Z" fill="#95AFC0"/>
<path d="M267.517 197.457C270.147 197.971 274.62 197.437 275.424 196.731C276.596 195.703 271.709 195.303 271.849 193.102C271.994 190.902 274.614 195.573 276.596 195.703C278.578 195.833 282.018 193.834 282.096 192.63C282.174 191.426 276.342 190.274 276.441 188.758C276.539 187.242 281.613 191.608 282.931 191.691C284.249 191.779 287.139 188.099 287.237 186.557C287.336 185.016 282.288 186.661 282.438 184.393C282.532 182.934 287.196 185.561 287.896 184.943C288.597 184.325 289.748 180.204 289.131 179.498C288.514 178.797 285.743 178.948 285.852 177.297C285.961 175.647 289.411 178.854 289.468 177.972C289.525 177.09 288.726 173.243 287.595 171.951C286.464 170.664 282.36 169.885 282.293 170.877C282.231 171.868 283.481 173.617 283.133 173.923C282.781 174.23 281.11 170.825 279.683 170.731C278.251 170.638 274.589 171.37 274.521 172.47C274.448 173.57 276.249 176.924 275.725 177.385C275.196 177.847 274.464 173.378 273.146 173.29C271.828 173.202 269.395 174.718 268.342 175.641C267.289 176.565 271.066 181.107 270.48 181.621C269.893 182.135 267.828 177.775 266.728 177.702C265.629 177.629 263.154 180.012 263.605 181.585C264.057 183.163 265.68 185.363 265.608 186.464C265.535 187.564 263.143 181.886 262.324 182.607C261.504 183.329 258.682 186.568 260.555 191.774C261.872 195.475 264.383 196.845 267.517 197.457Z" fill="#6AB04C"/>
<path d="M281.738 176.861C281.738 176.861 272.13 183.256 262.801 194.488C253.468 205.716 251.875 220 251.875 220" stroke="#130F40" stroke-miterlimit="10" stroke-linecap="round"/>
<path d="M232.642 193.492C230.002 193.025 226.022 190.912 225.524 189.962C224.803 188.582 229.509 189.967 230.168 187.865C230.826 185.763 226.697 189.173 224.803 188.582C222.909 187.99 220.419 184.886 220.777 183.734C221.14 182.581 226.992 183.609 227.449 182.161C227.9 180.713 221.597 182.955 220.336 182.56C219.075 182.166 217.706 177.692 218.167 176.218C218.629 174.743 222.748 178.097 223.423 175.932C223.859 174.541 218.567 175.304 218.136 174.474C217.706 173.643 218.115 169.382 218.946 168.951C219.776 168.52 222.302 169.657 222.8 168.079C223.293 166.501 218.92 168.25 219.184 167.409C219.449 166.568 221.581 163.267 223.101 162.468C224.621 161.674 228.73 162.426 228.435 163.376C228.139 164.321 226.339 165.504 226.557 165.92C226.774 166.335 229.561 163.76 230.925 164.186C232.29 164.617 235.449 166.615 235.117 167.669C234.785 168.722 231.9 171.198 232.227 171.821C232.554 172.444 234.847 168.536 236.108 168.935C237.369 169.33 239.091 171.619 239.74 172.865C240.388 174.11 235.231 176.981 235.589 177.671C235.952 178.361 239.444 175.039 240.497 175.366C241.55 175.699 242.998 178.808 242.012 180.116C241.026 181.424 238.718 182.893 238.386 183.946C238.054 185 242.334 180.562 242.837 181.533C243.34 182.498 244.809 186.542 241.187 190.72C238.624 193.679 235.792 194.052 232.642 193.492Z" fill="#6AB04C"/>
<path d="M247.164 177.095C245.628 174.894 244.305 170.586 244.627 169.563C245.094 168.074 247.439 172.387 249.389 171.364C251.345 170.342 246.012 169.833 245.094 168.074C244.175 166.314 244.606 162.359 245.675 161.798C246.744 161.238 250.157 166.112 251.501 165.406C252.845 164.705 246.806 161.829 246.194 160.656C245.581 159.483 247.776 155.352 249.14 154.635C250.51 153.919 251.875 158.471 253.063 158.154C254.474 157.77 250.074 154.277 250.354 153.384C250.635 152.492 253.939 149.772 254.832 150.047C255.724 150.327 256.705 152.922 258.173 152.154C259.636 151.386 255.309 149.528 256.093 149.123C256.876 148.713 260.715 147.888 262.35 148.401C263.984 148.915 266.36 152.357 265.478 152.813C264.601 153.275 262.495 152.834 262.355 153.281C262.215 153.727 266.002 153.877 266.666 155.149C267.33 156.421 268.145 160.065 267.169 160.578C266.194 161.087 262.401 160.802 262.189 161.471C261.981 162.141 266.36 161.004 266.972 162.177C267.584 163.35 267.185 166.184 266.765 167.523C266.344 168.863 260.669 167.243 260.435 167.991C260.202 168.733 265.021 168.857 265.535 169.833C266.043 170.809 264.871 174.038 263.247 174.261C261.623 174.489 258.951 173.892 257.976 174.406C257.001 174.92 263.159 174.806 262.832 175.849C262.505 176.892 260.684 180.785 255.174 181.18C251.262 181.455 248.99 179.716 247.164 177.095Z" fill="#6AB04C"/>
<path d="M226.64 170.435C226.64 170.435 231.62 183.261 240.949 194.488C250.282 205.716 251.875 220 251.875 220C251.875 220 249.338 178.932 258.267 157.765" stroke="#130F40" stroke-miterlimit="10" stroke-linecap="round"/>
</g>
<defs>
<clipPath id="clip0_1543_22295">
<rect x="0.470703" width="276" height="456" rx="138" fill="white"/>
</clipPath>
<clipPath id="clip1_1543_22295">
<rect width="229" height="205" fill="white" transform="translate(-27.5293 234)"/>
</clipPath>
<clipPath id="clip2_1543_22295">
<rect width="283" height="256" fill="white" transform="translate(-3.5293 -26)"/>
</clipPath>
</defs>
</svg>
