<svg width="276" height="456" viewBox="0 0 276 456" fill="none" xmlns="http://www.w3.org/2000/svg">
<g clip-path="url(#clip0_918_5435)">
<rect width="276" height="456" rx="138" fill="#EAFBF3"/>
<g filter="url(#filter0_d_918_5435)">
<g clip-path="url(#clip1_918_5435)">
<rect x="291" y="-25" width="506" height="306.263" rx="20.24" transform="rotate(90 291 -25)" fill="#EAFBF3"/>
<path d="M78.5587 -33.4333L15.426 20.2161C15.2302 20.3824 15.0541 20.5706 14.9011 20.7769L6.12998 32.6011C5.07885 34.0181 5.29717 36.0057 6.63083 37.1608L68.8684 91.0634L142.573 154.63" stroke="#E4E4E7" stroke-width="2.53" stroke-linecap="round"/>
<path d="M294.373 385.736L254.628 439.025M221.434 483.53L254.628 439.025M254.628 439.025L119.786 341.23L-2.43638 243.321C-2.58437 243.203 -2.72211 243.072 -2.84811 242.93L-25.2407 217.75C-25.7899 217.132 -26.0933 216.335 -26.0933 215.508L-26.0933 206.016C-26.0933 205.222 -25.8131 204.453 -25.3021 203.845L69.4023 91.181L177.201 -37.65" stroke="#E4E4E7" stroke-width="4.21667" stroke-linecap="round"/>
<path d="M291 -30.06L42.2166 278.6" stroke="#E4E4E7" stroke-width="2.53" stroke-linecap="round"/>
<path d="M156.067 139.45L272.447 234.747" stroke="#E4E4E7" stroke-width="2.53" stroke-linecap="round"/>
<path d="M298.59 187.52L221.066 321.714L176.307 381.487" stroke="#E4E4E7" stroke-width="4.21667" stroke-linecap="round"/>
<path d="M98.72 209.447L188.113 281.13" stroke="#E4E4E7" stroke-width="2.53" stroke-linecap="round"/>
<path d="M293.53 107.218L280.49 103.867C278.946 103.471 277.335 104.209 276.628 105.637L275.316 108.286C274.623 109.686 274.981 111.379 276.182 112.377L293.53 126.8" stroke="#E4E4E7" stroke-width="2.53" stroke-linecap="round"/>
<path d="M99.937 340.553L114.731 352.153C116.152 353.267 116.444 355.304 115.391 356.772L111.205 362.614C110.09 364.17 107.907 364.488 106.395 363.314L91.2845 351.587C89.805 350.439 89.5441 348.305 90.7032 346.834L95.206 341.12C96.3571 339.659 98.4734 339.406 99.937 340.553Z" fill="#E4E4E7"/>
<path d="M272.836 440.989L284.436 426.196C285.551 424.774 287.587 424.483 289.056 425.535L294.898 429.721C296.453 430.836 296.771 433.02 295.598 434.532L283.87 449.642C282.722 451.121 280.588 451.382 279.118 450.223L273.403 445.721C271.942 444.569 271.689 442.453 272.836 440.989Z" fill="#E4E4E7"/>
<path d="M216.402 441.13L223.075 432.877C224.199 431.487 226.213 431.215 227.665 432.258L233.304 436.306C234.871 437.431 235.177 439.638 233.976 441.147L227.17 449.698C226.013 451.151 223.899 451.396 222.44 450.245L216.935 445.898C215.461 444.735 215.221 442.591 216.402 441.13Z" fill="#E4E4E7"/>
<path d="M246.762 53.1966L253.435 44.9439C254.559 43.5534 256.573 43.2817 258.025 44.3245L263.664 48.3726C265.23 49.4974 265.537 51.7045 264.336 53.2136L257.53 61.7644C256.373 63.218 254.258 63.4625 252.8 62.3113L247.295 57.9652C245.821 56.8013 245.581 54.6573 246.762 53.1966Z" fill="#E4E4E7"/>
<path d="M261.099 35.4866L267.772 27.2339C268.896 25.8434 270.91 25.5717 272.362 26.6145L278.001 30.6626C279.567 31.7874 279.874 33.9945 278.673 35.5036L271.867 44.0544C270.71 45.508 268.595 45.7525 267.137 44.6013L261.632 40.2552C260.158 39.0913 259.918 36.9473 261.099 35.4866Z" fill="#E4E4E7"/>
<path d="M275.436 19.4633L282.108 11.2105C283.232 9.82007 285.246 9.54837 286.699 10.5912L292.337 14.6393C293.904 15.7641 294.21 17.9712 293.009 19.4803L286.203 28.0311C285.046 29.4847 282.932 29.7292 281.474 28.578L275.969 24.2318C274.494 23.0679 274.255 20.924 275.436 19.4633Z" fill="#E4E4E7"/>
<path d="M204.596 458.84L211.268 450.587C212.392 449.197 214.406 448.925 215.859 449.968L221.497 454.016C223.064 455.141 223.37 457.348 222.169 458.857L215.363 467.408C214.206 468.861 212.092 469.106 210.634 467.955L205.129 463.608C203.654 462.445 203.415 460.301 204.596 458.84Z" fill="#E4E4E7"/>
<path d="M230.739 72.3085L239.909 60.9672C241.033 59.5767 243.047 59.305 244.499 60.3479L252.7 66.236C254.267 67.3608 254.573 69.5679 253.372 71.0769L244.004 82.8477C242.847 84.3013 240.732 84.5459 239.274 83.3947L231.272 77.0771C229.798 75.9132 229.558 73.7692 230.739 72.3085Z" fill="#E4E4E7"/>
<path d="M163.272 2.31185L172.442 -9.02947C173.566 -10.4199 175.58 -10.6916 177.032 -9.64882L185.234 -3.76072C186.8 -2.63589 187.107 -0.4288 185.906 1.08025L176.537 12.851C175.38 14.3047 173.266 14.5492 171.807 13.398L163.805 7.08041C162.331 5.91649 162.091 3.77252 163.272 2.31185Z" fill="#E4E4E7"/>
<path d="M212.186 95.3633L218.858 87.1105C219.982 85.7201 221.996 85.4484 223.449 86.4912L229.087 90.5393C230.654 91.6641 230.96 93.8712 229.759 95.3802L222.954 103.931C221.797 105.385 219.682 105.629 218.224 104.478L212.719 100.132C211.244 98.9679 211.005 96.8239 212.186 95.3633Z" fill="#E4E4E7"/>
<path d="M152.309 87.7733L158.982 79.5205C160.106 78.1301 162.12 77.8584 163.572 78.9012L169.211 82.9493C170.777 84.0741 171.084 86.2812 169.883 87.7903L163.077 96.3411C161.92 97.7947 159.805 98.0392 158.347 96.888L152.842 92.5418C151.368 91.3779 151.128 89.234 152.309 87.7733Z" fill="#E4E4E7"/>
<path d="M269.447 452.716L284.241 464.316C285.663 465.431 285.954 467.467 284.902 468.936L280.715 474.778C279.601 476.333 277.417 476.651 275.905 475.478L260.795 463.75C259.315 462.602 259.054 460.469 260.213 458.998L264.716 453.283C265.867 451.822 267.984 451.569 269.447 452.716Z" fill="#E4E4E7"/>
<path d="M57.0026 272.792L77.0838 249.496C78.4232 247.942 80.8279 247.934 82.1783 249.478L93.4854 262.409C94.5622 263.64 94.6004 265.466 93.5761 266.742L75.4691 289.285C74.2481 290.805 71.9963 290.977 70.5592 289.659L57.2778 277.481C55.9344 276.249 55.8125 274.172 57.0026 272.792Z" fill="#E4E4E7"/>
<path d="M77.9319 291.883L94.0256 270.658C95.2452 269.05 97.5951 268.865 99.0507 270.264L109.361 280.17C110.527 281.29 110.734 283.08 109.854 284.437L95.9868 305.827C94.8997 307.503 92.6016 307.873 91.0437 306.621L78.5073 296.551C77.0835 295.407 76.8285 293.338 77.9319 291.883Z" fill="#E4E4E7"/>
<path d="M159.436 324.912L115.975 288.819C114.338 287.459 111.865 287.937 110.853 289.809L100.874 308.262C100.111 309.672 100.447 311.425 101.678 312.454L142.238 346.373C143.694 347.591 145.869 347.368 147.047 345.878L159.926 329.6C161.063 328.164 160.845 326.082 159.436 324.912Z" fill="#E4E4E7"/>
<path d="M168.818 335.058L185.803 350.48C187.107 351.664 187.28 353.652 186.201 355.044L176.263 367.86C175.123 369.331 173.006 369.6 171.533 368.461L153.641 354.616C152.181 353.486 151.9 351.393 153.011 349.918L163.856 335.526C165.051 333.941 167.349 333.724 168.818 335.058Z" fill="#E4E4E7"/>
<path d="M290.055 284.548L273.071 269.127C271.766 267.943 271.593 265.954 272.672 264.562L282.61 251.746C283.751 250.275 285.868 250.006 287.34 251.146L305.233 264.991C306.693 266.12 306.973 268.214 305.862 269.689L295.017 284.081C293.822 285.666 291.524 285.882 290.055 284.548Z" fill="#E4E4E7"/>
<path d="M186.528 311.445L203.513 326.867C204.817 328.051 204.99 330.039 203.911 331.431L193.973 344.247C192.833 345.718 190.716 345.987 189.243 344.848L171.351 331.003C169.891 329.873 169.61 327.779 170.721 326.305L181.566 311.912C182.761 310.327 185.059 310.111 186.528 311.445Z" fill="#E4E4E7"/>
<path d="M272.345 308.162L255.361 292.74C254.056 291.556 253.883 289.568 254.962 288.175L264.9 275.36C266.041 273.888 268.158 273.62 269.63 274.759L287.523 288.604C288.983 289.734 289.263 291.827 288.152 293.302L277.307 307.694C276.112 309.279 273.814 309.496 272.345 308.162Z" fill="#E4E4E7"/>
<path d="M201.708 286.988L218.693 302.41C219.997 303.594 220.17 305.582 219.091 306.974L209.153 319.79C208.012 321.261 205.895 321.53 204.423 320.391L186.531 306.546C185.07 305.416 184.79 303.323 185.901 301.848L196.746 287.456C197.941 285.871 200.239 285.654 201.708 286.988Z" fill="#E4E4E7"/>
<path d="M257.165 331.775L240.181 316.353C238.876 315.169 238.703 313.181 239.782 311.789L249.72 298.973C250.861 297.502 252.978 297.233 254.45 298.372L272.343 312.217C273.803 313.347 274.083 315.441 272.972 316.915L262.127 331.308C260.932 332.893 258.634 333.109 257.165 331.775Z" fill="#E4E4E7"/>
<path d="M215.202 262.532L232.186 277.953C233.49 279.137 233.664 281.126 232.584 282.518L222.647 295.334C221.506 296.805 219.389 297.074 217.917 295.934L200.024 282.089C198.564 280.96 198.283 278.866 199.394 277.391L210.24 262.999C211.434 261.414 213.732 261.198 215.202 262.532Z" fill="#E4E4E7"/>
<path d="M244.515 356.232L227.531 340.81C226.227 339.626 226.053 337.638 227.133 336.245L237.07 323.43C238.211 321.958 240.328 321.69 241.8 322.829L259.693 336.674C261.153 337.804 261.434 339.897 260.322 341.372L249.477 355.764C248.283 357.349 245.985 357.566 244.515 356.232Z" fill="#E4E4E7"/>
<path d="M232.068 237.232L249.053 252.653C250.357 253.837 250.53 255.826 249.451 257.218L239.513 270.034C238.373 271.505 236.256 271.774 234.783 270.634L216.891 256.789C215.431 255.66 215.15 253.566 216.261 252.091L227.107 237.699C228.301 236.114 230.599 235.898 232.068 237.232Z" fill="#E4E4E7"/>
<path d="M226.805 381.532L209.821 366.11C208.517 364.926 208.343 362.938 209.423 361.545L219.36 348.73C220.501 347.258 222.618 346.99 224.09 348.129L241.983 361.974C243.443 363.104 243.724 365.197 242.612 366.672L231.767 381.064C230.573 382.649 228.275 382.866 226.805 381.532Z" fill="#E4E4E7"/>
<path d="M241.165 220.843L257.409 234.132C258.761 235.238 259.045 237.193 258.064 238.638L253.64 245.153C252.518 246.805 250.214 247.126 248.683 245.843L232.012 231.877C230.588 230.684 230.397 228.564 231.584 227.136L236.435 221.298C237.619 219.873 239.731 219.67 241.165 220.843Z" fill="#E4E4E7"/>
<path d="M217.708 397.92L201.465 384.631C200.113 383.525 199.829 381.57 200.81 380.125L205.234 373.611C206.356 371.958 208.66 371.637 210.191 372.92L226.861 386.886C228.285 388.079 228.477 390.199 227.289 391.628L222.439 397.465C221.255 398.89 219.142 399.094 217.708 397.92Z" fill="#E4E4E7"/>
<path d="M156.948 292.445L166.972 282.194C168.065 281.076 169.783 280.856 171.123 281.662L181.767 288.065C183.395 289.044 183.894 291.175 182.869 292.775L168.849 314.665C167.873 316.189 165.868 316.672 164.306 315.758L159.647 313.033C158.023 312.083 157.49 309.987 158.464 308.376L160.967 304.234C161.834 302.801 161.518 300.95 160.225 299.885L157.216 297.407C155.69 296.151 155.567 293.858 156.948 292.445Z" fill="#E4E4E7"/>
<path d="M125.745 114.501L135.769 104.251C136.862 103.133 138.58 102.912 139.92 103.718L150.564 110.122C152.192 111.101 152.69 113.231 151.666 114.831L137.646 136.722C136.67 138.246 134.665 138.728 133.102 137.814L128.444 135.09C126.82 134.14 126.287 132.044 127.26 130.433L129.764 126.291C130.63 124.858 130.314 123.006 129.022 121.942L126.013 119.464C124.487 118.207 124.363 115.914 125.745 114.501Z" fill="#E4E4E7"/>
<path d="M254.634 394.85L265.396 404.323C266.569 405.356 266.879 407.06 266.144 408.44L260.307 419.405C259.414 421.082 257.313 421.691 255.661 420.752L233.067 407.897C231.494 407.002 230.907 405.025 231.738 403.417L234.215 398.622C235.079 396.95 237.144 396.308 238.804 397.196L243.071 399.48C244.547 400.27 246.38 399.858 247.375 398.511L249.693 395.376C250.868 393.787 253.151 393.544 254.634 394.85Z" fill="#E4E4E7"/>
<path d="M152.377 268.735L163.093 276.321C164.74 277.487 165.002 279.829 163.653 281.33L153.784 292.308C152.608 293.615 150.625 293.801 149.228 292.733L140.108 285.766C138.661 284.661 138.352 282.608 139.409 281.126L147.681 269.53C148.76 268.017 150.86 267.662 152.377 268.735Z" fill="#E4E4E7"/>
<path d="M277.374 388.037L270.36 399.136C269.282 400.842 266.957 401.226 265.387 399.957L253.908 390.676C252.541 389.571 252.252 387.6 253.245 386.148L259.725 376.676C260.753 375.174 262.787 374.758 264.322 375.736L276.335 383.39C277.903 384.388 278.367 386.466 277.374 388.037Z" fill="#E4E4E7"/>
<path d="M134.959 256.1L144.264 263.462C145.678 264.58 145.962 266.612 144.911 268.076L141.638 272.63C140.501 274.212 138.231 274.433 136.811 273.099C135.428 271.802 133.231 271.97 132.062 273.463L128.368 278.184C127.136 279.76 124.811 279.922 123.371 278.534L118.786 274.115C117.474 272.85 117.404 270.771 118.629 269.42L130.367 256.479C131.56 255.164 133.567 254.999 134.959 256.1Z" fill="#E4E4E7"/>
<path d="M289.27 370.617L282.405 380.295C281.363 381.765 279.348 382.156 277.831 381.182L273.112 378.153C271.473 377.1 271.133 374.845 272.391 373.356C273.614 371.908 273.331 369.722 271.779 368.634L266.871 365.192C265.233 364.043 264.949 361.73 266.26 360.219L270.433 355.41C271.628 354.033 273.701 353.854 275.113 355.007L288.651 366.052C290.027 367.174 290.297 369.17 289.27 370.617Z" fill="#E4E4E7"/>
<path d="M119.189 243.003L126.836 249.896C128.113 251.048 128.32 252.976 127.315 254.372L119.877 264.709C118.736 266.293 116.494 266.582 114.989 265.338L106.385 258.224C104.947 257.036 104.747 254.906 105.939 253.47L114.335 243.354C115.559 241.879 117.765 241.719 119.189 243.003Z" fill="#E4E4E7"/>
<path d="M100.141 227.944L111.457 238.181C112.815 239.41 112.945 241.499 111.748 242.887L103.954 251.919C102.854 253.194 100.983 253.463 99.5689 252.549L87.4294 244.701C85.784 243.638 85.3878 241.401 86.5677 239.837L95.1844 228.414C96.3778 226.832 98.6711 226.615 100.141 227.944Z" fill="#E4E4E7"/>
<path d="M194.767 239.187L206.304 247.184C207.881 248.278 208.23 250.465 207.07 251.995L194.074 269.133C192.938 270.63 190.799 270.912 189.316 269.759L178.844 261.621C177.423 260.517 177.119 258.493 178.153 257.02L190.084 240.022C191.15 238.503 193.242 238.13 194.767 239.187Z" fill="#E4E4E7"/>
<path d="M176.214 224.851L187.75 232.847C189.328 233.941 189.676 236.129 188.516 237.658L175.52 254.797C174.385 256.294 172.246 256.575 170.762 255.422L160.291 247.285C158.87 246.181 158.566 244.156 159.6 242.683L171.531 225.685C172.597 224.166 174.689 223.794 176.214 224.851Z" fill="#E4E4E7"/>
<path d="M192.237 186.901L203.773 194.897C205.351 195.991 205.699 198.179 204.54 199.708L191.543 216.847C190.408 218.344 188.269 218.625 186.786 217.472L176.314 209.335C174.893 208.231 174.589 206.206 175.623 204.733L187.554 187.735C188.62 186.216 190.712 185.844 192.237 186.901Z" fill="#E4E4E7"/>
<path d="M236.934 153.167L248.47 161.164C250.048 162.258 250.396 164.445 249.236 165.975L236.24 183.113C235.105 184.61 232.966 184.892 231.482 183.739L221.011 175.601C219.59 174.497 219.286 172.473 220.32 171L232.251 154.002C233.317 152.483 235.409 152.11 236.934 153.167Z" fill="#E4E4E7"/>
<path d="M154.166 208.813L167.891 219.747C169.298 220.867 169.578 222.895 168.528 224.355L158.922 237.712C157.78 239.3 155.531 239.587 154.027 238.336L138.641 225.542C137.125 224.282 137.009 221.995 138.389 220.587L149.655 209.091C150.865 207.856 152.813 207.736 154.166 208.813Z" fill="#E4E4E7"/>
<path d="M211.8 202.067L226.593 211.506C228.109 212.473 228.6 214.46 227.708 216.022L219.55 230.31C218.581 232.009 216.374 232.529 214.747 231.443L198.109 220.327C196.469 219.232 196.114 216.97 197.34 215.426L207.342 202.814C208.417 201.459 210.342 201.137 211.8 202.067Z" fill="#E4E4E7"/>
<path d="M98.506 143.033L112.232 153.967C113.638 155.087 113.919 157.115 112.868 158.575L103.262 171.932C102.12 173.52 99.8708 173.807 98.3667 172.556L82.9812 159.762C81.4654 158.502 81.3489 156.215 82.7287 154.807L93.9949 143.311C95.2052 142.076 97.1535 141.956 98.506 143.033Z" fill="#E4E4E7"/>
<path d="M0.679254 45.2065L14.4048 56.1401C15.8116 57.2607 16.0918 59.288 15.0416 60.7482L5.4354 74.1053C4.29322 75.6935 2.04403 75.9802 0.539914 74.7295L-14.8456 61.9354C-16.3614 60.6749 -16.4779 58.3887 -15.098 56.9807L-3.8319 45.484C-2.62158 44.2489 -0.673315 44.129 0.679254 45.2065Z" fill="#E4E4E7"/>
<path d="M134.842 217.121L146.279 204.56C147.504 203.215 147.441 201.14 146.137 199.871L132.517 186.623C131.133 185.277 128.902 185.365 127.629 186.818L124.352 190.554C123.207 191.86 123.241 193.822 124.43 195.088L127.971 198.857C129.119 200.079 129.195 201.959 128.15 203.27L124.341 208.047C123.218 209.457 123.401 211.501 124.757 212.688L130.126 217.388C131.508 218.598 133.605 218.479 134.842 217.121Z" fill="#E4E4E7"/>
<path d="M156.023 156.717L170.257 167.405L171.369 168.343C172.724 169.487 172.962 171.486 171.913 172.916L168.322 177.812C167.154 179.405 164.872 179.657 163.384 178.358L160.135 175.522C158.751 174.313 156.655 174.435 155.419 175.794L152.873 178.598C151.74 179.845 149.861 180.065 148.471 179.113L142.867 175.278C141.314 174.216 140.931 172.088 142.015 170.55L151.24 157.47C152.337 155.915 154.501 155.574 156.023 156.717Z" fill="#E4E4E7"/>
<path d="M177.428 175.73L183.397 179.659C185.034 180.737 185.412 182.976 184.219 184.531L173.608 198.36C172.481 199.829 170.38 200.115 168.902 199.001L163.036 194.581C161.525 193.443 161.246 191.285 162.416 189.799L172.923 176.46C174.007 175.084 175.965 174.767 177.428 175.73Z" fill="#E4E4E7"/>
<path d="M222.968 142.84L228.938 146.769C230.574 147.847 230.952 150.086 229.759 151.641L219.148 165.47C218.021 166.939 215.921 167.225 214.442 166.111L208.576 161.691C207.065 160.553 206.786 158.395 207.956 156.909L218.463 143.57C219.548 142.194 221.505 141.877 222.968 142.84Z" fill="#E4E4E7"/>
<path d="M70.3248 113.323L76.2943 117.253C77.9306 118.33 78.3084 120.57 77.1159 122.124L66.5049 135.954C65.3778 137.423 63.2772 137.708 61.7985 136.594L55.9326 132.174C54.4221 131.036 54.1424 128.878 55.3128 127.393L65.8201 114.054C66.9043 112.677 68.8614 112.36 70.3248 113.323Z" fill="#E4E4E7"/>
<path d="M82.5509 128.779L91.1624 135.736C91.2792 135.83 91.3867 135.935 91.4835 136.05C92.2453 136.956 92.2147 138.286 91.4121 139.156L85.4465 145.617C84.2617 146.9 82.2934 147.067 80.9097 146.001L72.9764 139.891C71.4037 138.68 71.2118 136.379 72.5621 134.924L77.9585 129.109C79.1647 127.809 81.1715 127.665 82.5509 128.779Z" fill="#E4E4E7"/>
<path d="M184.594 46.9759L193.206 53.9323C193.323 54.0267 193.43 54.1321 193.527 54.247C194.289 55.1523 194.258 56.483 193.455 57.3524L187.49 63.8135C186.305 65.0966 184.337 65.2633 182.953 64.1976L175.02 58.0876C173.447 56.8764 173.255 54.5756 174.605 53.1205L180.002 47.3053C181.208 46.0055 183.215 45.8615 184.594 46.9759Z" fill="#E4E4E7"/>
<path d="M47.3035 224.674L55.2004 231.308L57.9105 233.178C59.476 234.258 59.8399 236.418 58.7145 237.951L50.9349 248.549C50.2994 249.415 49.2895 249.927 48.2155 249.927L27.9924 249.927C27.2002 249.927 26.4333 249.648 25.8261 249.139L8.21589 234.386C6.92048 233.301 6.62799 231.424 7.53162 229.996L14.8256 218.469C15.8858 216.794 18.1554 216.39 19.7288 217.596L34.9794 229.29C36.4405 230.41 38.53 230.152 39.6745 228.71L42.4912 225.16C43.6722 223.672 45.8488 223.452 47.3035 224.674Z" fill="#E4E4E7"/>
<path d="M61.5853 229.962L49.7652 220.223C48.373 219.076 48.1296 217.037 49.2126 215.594L66.9273 192C68.0735 190.473 70.2571 190.201 71.743 191.4L83.5466 200.922C84.9561 202.06 85.2162 204.107 84.1359 205.56L66.4377 229.371C65.2869 230.919 63.0742 231.188 61.5853 229.962Z" fill="#E4E4E7"/>
<path d="M84.5481 169.483L97.1497 180.01C98.5092 181.146 98.7586 183.139 97.7209 184.575L90.4234 194.671C89.2679 196.27 86.9933 196.54 85.4951 195.257L72.5312 184.154C71.1468 182.969 70.9546 180.898 72.0973 179.477L79.7572 169.957C80.9403 168.487 83.0996 168.273 84.5481 169.483Z" fill="#E4E4E7"/>
<path d="M39.1072 152.393L50.2979 136.707C51.4886 135.038 53.8804 134.808 55.367 136.22L61.326 141.879C62.4779 142.973 62.7106 144.722 61.8846 146.079L52.4141 161.637C51.392 163.316 49.1564 163.769 47.5613 162.62L39.8819 157.089C38.3749 156.004 38.0286 153.905 39.1072 152.393Z" fill="#E4E4E7"/>
<path d="M24.3141 170.154L32.3646 160.43C33.4957 159.064 35.4918 158.807 36.932 159.842L42.8467 164.094C44.3611 165.183 44.7047 167.294 43.6136 168.807L36.3153 178.925C35.238 180.419 33.1617 180.772 31.6508 179.719L24.9839 175.073C23.365 173.945 23.0558 171.674 24.3141 170.154Z" fill="#E4E4E7"/>
<path d="M72.9606 -9.47441L83.7383 -16.0478C85.2527 -16.9714 87.2236 -16.5645 88.2483 -15.1166L92.4564 -9.17076C93.5339 -7.64833 93.1715 -5.54045 91.6473 -4.46539L81.4526 2.72549C79.9476 3.78701 77.8694 3.44531 76.7836 1.95782L71.9924 -4.60554C70.829 -6.19929 71.276 -8.44697 72.9606 -9.47441Z" fill="#E4E4E7"/>
<path d="M9.97726 187.864L18.0277 178.14C19.1589 176.774 21.1549 176.517 22.5952 177.552L28.5098 181.804C30.0243 182.893 30.3678 185.004 29.2767 186.517L21.9785 196.635C20.9011 198.129 18.8249 198.482 17.3139 197.429L10.647 192.783C9.02813 191.655 8.71894 189.384 9.97726 187.864Z" fill="#E4E4E7"/>
<path d="M7.82648 195.301L15.7108 200.752C17.2885 201.843 17.6404 204.028 16.4851 205.559L12.6863 210.593C11.5755 212.065 9.48848 212.372 8.00066 211.282L7.63088 211.012C6.2085 209.97 4.22395 210.199 3.07662 211.538L0.399766 214.661C-0.748811 216.001 -2.73613 216.229 -4.15851 215.184L-5.68473 214.063C-7.17834 212.966 -7.50714 210.869 -6.42108 209.368L3.17472 196.099C4.25014 194.612 6.31698 194.258 7.82648 195.301Z" fill="#E4E4E7"/>
<path d="M36.1535 79.0053L47.7004 87.5187C49.2884 88.6895 49.5371 90.9673 48.2391 92.4531L42.0116 99.582C40.7131 101.068 38.4215 101.127 37.0482 99.7098L27.3775 89.727C26.213 88.5249 26.106 86.6507 27.1261 85.3238L31.4774 79.6643C32.5968 78.2083 34.6753 77.9154 36.1535 79.0053Z" fill="#E4E4E7"/>
<path d="M12.9755 112.394L24.2154 102.14C25.6142 100.864 27.7891 100.989 29.0327 102.416L32.6795 106.603C33.7931 107.882 33.7846 109.789 32.6596 111.057L23.1531 121.777C21.9278 123.159 19.8193 123.299 18.4226 122.091L13.0423 117.437C11.5139 116.115 11.4826 113.756 12.9755 112.394Z" fill="#E4E4E7"/>
<path d="M85.5023 21.3138L96.7423 11.0598C98.1411 9.78366 100.316 9.90852 101.56 11.3363L105.206 15.5234C106.32 16.802 106.311 18.7085 105.186 19.9771L95.68 30.6972C94.4547 32.0789 92.3462 32.2186 90.9494 31.0105L85.5691 26.3573C84.0408 25.0355 84.0095 22.6756 85.5023 21.3138Z" fill="#E4E4E7"/>
<path d="M132.16 41.0713L141.864 29.3528C143.071 27.8944 145.243 27.7154 146.673 28.9562L150.867 32.595C152.147 33.7062 152.404 35.5953 151.467 37.0081L143.545 48.947C142.524 50.4857 140.455 50.9175 138.904 49.9156L132.928 46.0565C131.231 44.9602 130.872 42.6277 132.16 41.0713Z" fill="#E4E4E7"/>
<path d="M102.369 3.60377L113.609 -6.65023C115.008 -7.92633 117.183 -7.80147 118.426 -6.37366L122.073 -2.18658C123.187 -0.907993 123.178 0.998523 122.053 2.26712L112.547 12.9872C111.321 14.3689 109.213 14.5086 107.816 13.3005L102.436 8.64734C100.907 7.3255 100.876 4.96564 102.369 3.60377Z" fill="#E4E4E7"/>
<path d="M147.401 21.4663L157.704 10.2717C158.987 8.87849 161.164 8.81333 162.527 10.1273L166.525 13.9806C167.746 15.1573 167.904 17.0573 166.894 18.4191L158.358 29.927C157.257 31.4102 155.169 31.7331 153.672 30.6514L147.907 26.4848C146.269 25.3012 146.032 22.9531 147.401 21.4663Z" fill="#E4E4E7"/>
<path d="M10.7809 76.2829L21.0844 65.0883C22.3667 63.6952 24.5442 63.63 25.9075 64.944L29.9053 68.7973C31.1262 69.9739 31.2838 71.874 30.2737 73.2358L21.7377 84.7436C20.6375 86.2269 18.5492 86.5497 17.0524 85.4681L11.2871 81.3015C9.64931 80.1179 9.41249 77.7697 10.7809 76.2829Z" fill="#E4E4E7"/>
<path d="M-3.17155 131.658L4.37706 121.664C5.42742 120.274 7.36416 119.912 8.84557 120.83L14.8607 124.557C16.4568 125.546 16.9382 127.648 15.9317 129.233L8.40159 141.092C7.27207 142.87 4.80634 143.19 3.26087 141.757L-2.77276 136.166C-4.04308 134.988 -4.21543 133.04 -3.17155 131.658Z" fill="#E4E4E7"/>
<path d="M68.5119 39.735L76.0605 29.7411C77.1108 28.3505 79.0476 27.9888 80.529 28.9067L86.5441 32.6337C88.1402 33.6227 88.6216 35.7245 87.6151 37.3095L80.085 49.1682C78.9555 50.947 76.4898 51.2664 74.9443 49.8341L68.9107 44.2424C67.6404 43.0651 67.468 41.1171 68.5119 39.735Z" fill="#E4E4E7"/>
<path d="M118.268 59.975L125.817 49.9811C126.867 48.5904 128.804 48.2288 130.286 49.1467L136.301 52.8737C137.897 53.8627 138.378 55.9645 137.372 57.5495L129.842 69.4082C128.712 71.187 126.246 71.5064 124.701 70.0741L118.667 64.4824C117.397 63.3051 117.225 61.3571 118.268 59.975Z" fill="#E4E4E7"/>
<path d="M-21.6495 153.097L-9.93466 139.657C-8.64647 138.179 -6.37411 138.107 -4.99469 139.5L1.315 145.872C2.51764 147.087 2.62178 149.009 1.55739 150.346L-10.0446 164.924C-11.3648 166.583 -13.8699 166.627 -15.2478 165.016L-21.6704 157.505C-22.7577 156.234 -22.7488 154.358 -21.6495 153.097Z" fill="#E4E4E7"/>
<path d="M45.5315 10.9101L59.7846 0.199652C61.3519 -0.978096 63.5897 -0.576271 64.6493 1.0732L69.4962 8.61815C70.42 10.0562 70.1223 11.958 68.8031 13.0449L54.4237 24.8921C52.7874 26.2402 50.3279 25.7626 49.3151 23.9001L44.5944 15.2184C43.7952 13.7486 44.194 11.9152 45.5315 10.9101Z" fill="#E4E4E7"/>
<path d="M50.0336 62.0166L61.7485 48.5768C63.0367 47.0989 65.309 47.0267 66.6884 48.4198L72.9981 54.7922C74.2008 56.0067 74.3049 57.9289 73.2405 59.2663L61.6385 73.8443C60.3183 75.5031 57.8132 75.5473 56.4353 73.936L50.0127 66.4255C48.9254 65.154 48.9343 63.2777 50.0336 62.0166Z" fill="#E4E4E7"/>
<path d="M-6.03881 25.1644L-6.09579 25.0923C-6.93419 24.0316 -8.43971 23.7784 -9.57899 24.5064C-10.7489 25.254 -12.2984 24.9646 -13.1196 23.8451L-20.1595 14.2481C-21.1466 12.9024 -21.0013 11.037 -19.8176 9.86041L-12.5145 2.60091C-11.2239 1.31804 -9.14843 1.29 -7.82368 2.53754L-1.78136 8.22765C-0.395258 9.53295 -0.544532 11.7787 -2.0912 12.8891C-3.3731 13.8093 -3.73266 15.5602 -2.91718 16.9112L-0.659991 20.6507C0.225322 22.1174 -0.129351 24.0148 -1.48471 25.0627L-2.22109 25.632C-3.40678 26.5487 -5.10943 26.3401 -6.03881 25.1644Z" fill="#E4E4E7"/>
<path d="M10.4126 -9.66116L12.8951 -6.55102C13.9015 -5.29017 13.8743 -3.49324 12.8302 -2.26342L12.6305 -2.02821C11.6025 -0.817295 11.5585 0.946763 12.525 2.20739L14.1227 4.29143C15.2156 5.7171 14.9996 7.74922 13.6313 8.91322L13.4654 9.05435C12.0358 10.2705 9.88833 10.0859 8.6873 8.64347L6.9151 6.51509C6.35833 5.84642 5.40271 5.67225 4.64583 6.1015C3.89459 6.52755 2.94658 6.35944 2.38763 5.70107L-1.96023 0.579786C-3.17503 -0.851105 -2.98819 -2.99841 -1.54451 -4.19798L5.62034 -10.1513C7.07325 -11.3586 9.23423 -11.1375 10.4126 -9.66116Z" fill="#E4E4E7"/>
<path d="M36.2056 23.5811L38.4781 25.4574C39.3479 26.1755 40.5943 26.2111 41.5037 25.5437C42.4647 24.8384 43.7929 24.9225 44.6573 25.7435L46.3261 27.3285C47.3343 28.286 47.4237 29.8624 46.5304 30.9278L46.3492 31.1438C45.546 32.1019 45.6389 33.5224 46.5602 34.3676C47.4454 35.1797 47.5708 36.5307 46.85 37.4918L42.1643 43.7402C40.9775 45.3228 38.69 45.5493 37.216 44.2301L26.8672 34.9691C25.5401 33.7815 25.3648 31.767 26.4667 30.368L31.4078 24.095C32.5794 22.6076 34.7455 22.3755 36.2056 23.5811Z" fill="#E4E4E7"/>
<path d="M266.973 173.475L281.586 183.069C283.083 184.051 283.551 186.031 282.654 187.58L277.747 196.047C276.735 197.793 274.427 198.266 272.81 197.058L258.804 186.597C257.443 185.581 257.05 183.712 257.886 182.234L262.186 174.633C263.147 172.936 265.343 172.404 266.973 173.475Z" fill="#E4E4E7"/>
<path d="M254.323 190.341L268.936 199.935C270.433 200.918 270.901 202.898 270.004 204.447L265.097 212.914C264.085 214.66 261.776 215.133 260.159 213.925L246.154 203.464C244.793 202.448 244.4 200.578 245.236 199.1L249.536 191.5C250.496 189.802 252.693 189.271 254.323 190.341Z" fill="#E4E4E7"/>
<path d="M214.687 -2.78202L229.3 6.81193C230.796 7.79434 231.265 9.77446 230.367 11.3232L225.46 19.7905C224.448 21.5366 222.14 22.0095 220.523 20.8018L206.517 10.3407C205.156 9.32447 204.763 7.45515 205.6 5.97702L209.899 -1.62316C210.86 -3.32102 213.056 -3.85263 214.687 -2.78202Z" fill="#E4E4E7"/>
<path d="M280.194 159.81L287.37 164.213C288.923 165.166 289.438 167.18 288.534 168.762L284.798 175.3C283.871 176.923 281.8 177.483 280.182 176.548L272.845 172.309C271.229 171.375 270.679 169.306 271.617 167.692L275.514 160.99C276.466 159.352 278.58 158.819 280.194 159.81Z" fill="#E4E4E7"/>
<path d="M271.189 123.068L279.663 139.546C279.909 140.023 280.037 140.552 280.037 141.088L280.037 141.729C280.037 142.993 279.33 144.151 278.205 144.729L262.063 153.027C260.36 153.902 258.271 153.186 257.463 151.451L255.19 146.572C254.455 144.994 255.041 143.116 256.543 142.236L260.995 139.629C262.391 138.812 263.01 137.118 262.471 135.593L259.921 128.384C259.36 126.799 260.052 125.044 261.544 124.267L266.632 121.619C268.29 120.755 270.334 121.406 271.189 123.068Z" fill="#E4E4E7"/>
<path d="M212.886 105.247L217.681 109.084C219.055 110.184 219.288 112.184 218.204 113.57L217.802 114.085C216.955 115.169 217.124 116.73 218.184 117.607C219.272 118.507 219.416 120.123 218.505 121.203L216.647 123.402C215.453 124.817 213.342 125.004 211.916 123.822L203.374 116.737C201.934 115.543 201.741 113.406 202.943 111.973L208.194 105.713C209.372 104.308 211.455 104.101 212.886 105.247Z" fill="#E4E4E7"/>
<path d="M181.313 67.683L176.773 63.5478C175.472 62.363 173.46 62.4454 172.26 63.7326L171.815 64.2104C170.877 65.2165 169.309 65.2937 168.277 64.3844C167.217 63.4504 165.598 63.5607 164.675 64.6298L162.793 66.8084C161.583 68.2094 161.728 70.3241 163.118 71.5467L171.452 78.8756C172.857 80.1107 174.998 79.9673 176.225 78.556L181.587 72.3906C182.79 71.0076 182.668 68.9172 181.313 67.683Z" fill="#E4E4E7"/>
<path d="M182.582 134.104L194.883 119.887C196.037 118.554 198.024 118.334 199.441 119.384L205.768 124.068C207.215 125.139 207.565 127.159 206.563 128.655L205.248 130.619C204.362 131.944 204.668 133.73 205.945 134.684C207.273 135.676 207.542 137.559 206.545 138.884L195.58 153.44C194.407 154.997 192.162 155.239 190.684 153.967L184.75 148.857C183.496 147.777 183.21 145.946 184.076 144.536L184.401 144.006C185.219 142.674 185.014 140.954 183.906 139.851L182.752 138.702C181.497 137.452 181.422 135.444 182.582 134.104Z" fill="#E4E4E7"/>
<path d="M223.905 -16.8527L236.206 -31.0692C237.36 -32.403 239.347 -32.6226 240.764 -31.5731L247.091 -26.8891C248.538 -25.8174 248.889 -23.7977 247.887 -22.3012L246.572 -20.3372C245.685 -19.013 245.991 -17.2264 247.268 -16.2729C248.597 -15.2807 248.866 -13.3975 247.868 -12.073L236.903 2.48352C235.73 4.04084 233.485 4.28233 232.008 3.01009L226.073 -2.10011C224.819 -3.18007 224.534 -5.01035 225.399 -6.42089L225.725 -6.95079C226.542 -8.28316 226.338 -10.0028 225.23 -11.1059L224.076 -12.2549C222.82 -13.5049 222.746 -15.513 223.905 -16.8527Z" fill="#E4E4E7"/>
<path d="M143.591 93.8805L144.261 94.4338C145.287 95.28 145.719 96.6496 145.366 97.9315L145.325 98.0807C144.734 100.227 142.264 101.222 140.35 100.085L139.576 99.6251C137.972 98.6722 137.446 96.5983 138.402 94.9963L138.547 94.7537C139.606 92.9793 141.997 92.5653 143.591 93.8805Z" fill="#E4E4E7"/>
<path d="M182.384 30.6305L183.054 31.1838C184.08 32.03 184.513 33.3996 184.16 34.6815L184.118 34.8307C183.527 36.9766 181.057 37.9719 179.143 36.8351L178.369 36.3751C176.765 35.4222 176.239 33.3484 177.195 31.7463L177.34 31.5037C178.399 29.7293 180.79 29.3153 182.384 30.6305Z" fill="#E4E4E7"/>
<path d="M272.388 90.0233L279.793 95.5647C281.313 96.7019 281.596 98.8686 280.418 100.358L268.235 115.77C267.095 117.212 265.01 117.476 263.547 116.364L256.564 111.056C255.087 109.932 254.794 107.827 255.909 106.343L267.67 90.6973C268.788 89.2103 270.899 88.9088 272.388 90.0233Z" fill="#E4E4E7"/>
<path d="M112.975 68.4382L120.229 74.7652C121.429 75.8113 121.675 77.5809 120.806 78.9144C119.853 80.3771 120.252 82.3339 121.701 83.3075L126 86.1962C127.651 87.3061 127.988 89.5971 126.726 91.1356L118.283 101.429C117.103 102.866 114.983 103.079 113.542 101.903L110.256 99.2221C108.954 98.1592 107.043 98.3211 105.938 99.5879C104.892 100.787 103.111 101.005 101.806 100.095L93.1858 94.0831C91.607 92.982 91.2681 90.7852 92.4417 89.2595L108.084 68.9237C109.269 67.3823 111.509 67.1599 112.975 68.4382Z" fill="#E4E4E7"/>
<path d="M200.243 32.5822L204.55 35.5728C206.152 36.6852 206.48 38.9205 205.265 40.4459L200.965 45.8413C199.839 47.2549 197.798 47.5295 196.338 46.464L192.464 43.6365C190.983 42.5558 190.636 40.4902 191.683 38.9853L195.55 33.4268C196.613 31.8983 198.714 31.5203 200.243 32.5822Z" fill="#E4E4E7"/>
<path d="M213.736 17.4022L218.043 20.3928C219.646 21.5052 219.973 23.7405 218.758 25.266L214.458 30.6613C213.332 32.0749 211.292 32.3495 209.832 31.284L205.957 28.4565C204.476 27.3758 204.13 25.3102 205.176 23.8053L209.043 18.2468C210.106 16.7183 212.207 16.3403 213.736 17.4022Z" fill="#E4E4E7"/>
<path d="M192.14 15.3183L196.573 18.3048C197.972 19.2476 198.379 21.1263 197.495 22.5634C196.503 24.1757 194.322 24.5537 192.846 23.3693L188.676 20.0251C187.429 19.0246 187.216 17.2076 188.199 15.9462C189.144 14.7339 190.866 14.4596 192.14 15.3183Z" fill="#E4E4E7"/>
<path d="M-32.447 238.173L85.0055 330.145C85.9289 330.868 86.4104 332.018 86.2773 333.184L83.3752 358.577C83.2198 359.937 83.9016 361.256 85.1011 361.916L106.107 373.469C107.465 374.216 109.157 373.941 110.209 372.804L121.924 360.139C123.111 358.856 125.08 358.692 126.462 359.76L209.206 423.656C210.621 424.748 210.938 426.754 209.929 428.23L157.541 504.831C156.912 505.75 155.87 506.3 154.756 506.3L-34.5267 506.3C-36.3898 506.3 -37.9001 504.79 -37.9001 502.927L-37.9001 240.829C-37.9001 238.017 -34.6612 236.44 -32.447 238.173Z" fill="#AAEFCF"/>
<rect width="306.263" height="506" transform="translate(-15.2632 -25)" fill="url(#paint0_linear_918_5435)"/>
<path d="M108.283 117.467C112.736 95.9802 98.9328 74.9507 77.4525 70.4962C55.9721 66.0417 34.9489 79.8491 30.4957 101.336C26.0426 122.823 39.8459 143.852 61.3262 148.307C82.8066 152.761 103.83 138.954 108.283 117.467Z" fill="#2AD587"/>
<path d="M59.9674 141.983L66.4839 158.698L73.2005 141.115L59.9674 141.983Z" fill="#2AD587"/>
<path fill-rule="evenodd" clip-rule="evenodd" d="M55.2693 96.5707H81.7122V101.057H55.2693V96.5707Z" fill="#FFE5C2"/>
<path fill-rule="evenodd" clip-rule="evenodd" d="M55.2693 96.5707H81.7122V98.2341H55.2693V96.5707Z" fill="#F0CEA1"/>
<path fill-rule="evenodd" clip-rule="evenodd" d="M49.0449 104.92H88.0439V132.425H49.0449V104.92Z" fill="#FFE5C2"/>
<path fill-rule="evenodd" clip-rule="evenodd" d="M49.0449 104.92H88.0439V109.513C87.8507 109.535 87.6576 109.545 87.4644 109.545H87.2176C85.8654 109.545 84.5668 109.02 83.5795 108.097C82.6029 109.03 81.3044 109.545 79.9415 109.545H79.6946C78.3424 109.545 77.0439 109.02 76.0566 108.097C75.08 109.03 73.7815 109.545 72.4185 109.545H72.1717C70.8195 109.545 69.521 109.02 68.5337 108.097C67.5571 109.03 66.2585 109.545 64.8956 109.545H64.6488C63.2966 109.545 61.9981 109.02 61.0107 108.097C60.0342 109.03 58.7356 109.545 57.3727 109.545H57.1366C55.7737 109.545 54.4859 109.02 53.4985 108.097C52.5112 109.03 51.2234 109.545 49.8605 109.545H49.6137C49.4205 109.545 49.2273 109.535 49.0341 109.513L49.0449 104.92Z" fill="#F0CEA1"/>
<path d="M86.8849 97.1395H50.0966C49.7961 97.1395 49.5385 96.8927 49.5385 96.5815V87.0624C49.5385 86.7619 49.7854 86.5151 50.0966 86.5151H86.8849C87.1854 86.5151 87.4322 86.7619 87.4322 87.0624V96.5815C87.4429 96.8927 87.1854 97.1395 86.8849 97.1395Z" fill="#6C3429"/>
<path d="M50.6439 87.6098H86.3268V96.0234H50.6439V87.6098Z" fill="#A44F3E"/>
<path d="M83.4293 129.463C83.4293 129.764 83.1824 130.011 82.882 130.011H72.762C72.4615 130.011 72.2146 129.764 72.2146 129.463V117.133C72.2146 114.042 74.7366 111.52 77.8273 111.52C80.918 111.52 83.44 114.042 83.44 117.133L83.4293 129.463ZM54.6576 111.016H68.04C68.4156 111.016 68.7483 111.166 68.9951 111.413C69.242 111.66 69.3922 111.992 69.3922 112.368V125.546C69.3922 125.922 69.242 126.255 68.9951 126.501C68.9844 126.512 68.9737 126.523 68.9522 126.534C68.7054 126.759 68.3834 126.899 68.0293 126.899H54.6576C54.282 126.899 53.9493 126.748 53.7024 126.501C53.4556 126.255 53.3054 125.922 53.3054 125.546V112.368C53.3054 111.992 53.4556 111.66 53.7024 111.413C53.9493 111.166 54.282 111.016 54.6576 111.016Z" fill="#A44F3E"/>
<path fill-rule="evenodd" clip-rule="evenodd" d="M54.4966 112.175L54.4751 112.196C54.4322 112.239 54.4 112.303 54.4 112.368V125.546C54.4 125.6 54.4215 125.654 54.4537 125.707C54.4644 125.707 54.4644 125.718 54.4751 125.729C54.518 125.772 54.5824 125.804 54.6468 125.804H68.0293C68.0937 125.804 68.1473 125.782 68.201 125.74L68.2224 125.718C68.2654 125.675 68.2868 125.611 68.2868 125.557V112.368C68.2868 112.303 68.2546 112.239 68.2117 112.196C68.1688 112.153 68.1044 112.121 68.04 112.121H54.6576C54.5932 112.121 54.5395 112.142 54.4966 112.175ZM82.3239 128.905V117.133C82.3239 114.654 80.2956 112.625 77.8166 112.625C75.3376 112.625 73.3093 114.654 73.3093 117.133V128.916C76.3034 128.905 79.319 128.905 82.3239 128.905Z" fill="#C8EFFE"/>
<path fill-rule="evenodd" clip-rule="evenodd" d="M64.0156 115.426C64.2624 115.18 64.6595 115.18 64.9063 115.426C65.1532 115.673 65.1532 116.07 64.9063 116.317L58.6712 122.584C58.4244 122.831 58.0273 122.831 57.7805 122.584C57.5337 122.338 57.5337 121.94 57.7805 121.694L64.0156 115.426ZM59.798 115.33C60.0556 115.094 60.4527 115.104 60.6888 115.351C60.9249 115.598 60.9141 116.006 60.6673 116.242L58.8107 118.013C58.5532 118.249 58.1561 118.238 57.92 117.991C57.6839 117.744 57.6946 117.337 57.9415 117.1L59.798 115.33Z" fill="white"/>
<path d="M47.5854 100.069H53.4985C53.799 100.069 54.0566 100.316 54.0566 100.617V104.255C54.0566 105.403 53.5844 106.455 52.8332 107.217C52.0712 107.979 51.0302 108.44 49.882 108.44H49.6244C48.4761 108.44 47.4244 107.968 46.6732 107.217C45.9112 106.455 45.439 105.414 45.439 104.255V102.226C45.439 101.636 45.6859 101.089 46.0722 100.702C46.4585 100.305 46.9951 100.069 47.5854 100.069Z" fill="#F6A96C"/>
<path d="M53.5093 100.069H61.0322C61.3327 100.069 61.5795 100.316 61.5795 100.617V104.255C61.5795 105.403 61.1073 106.455 60.3561 107.217C59.5941 107.979 58.5532 108.44 57.3941 108.44H57.1366C55.9883 108.44 54.9366 107.968 54.1746 107.217C53.4127 106.455 52.9512 105.414 52.9512 104.255V100.617C52.9512 100.316 53.198 100.069 53.5093 100.069Z" fill="#A44F3E"/>
<path d="M61.0215 100.069H68.5444C68.8449 100.069 69.0917 100.316 69.0917 100.617V104.255C69.0917 105.403 68.6195 106.455 67.8683 107.217C67.1063 107.979 66.0654 108.44 64.9063 108.44H64.6595C63.5112 108.44 62.4595 107.968 61.6976 107.217C60.9356 106.455 60.4741 105.414 60.4741 104.255V100.617C60.4741 100.316 60.721 100.069 61.0215 100.069Z" fill="#F6A96C"/>
<path d="M68.5444 100.069H76.0673C76.3678 100.069 76.6146 100.316 76.6146 100.617V104.255C76.6146 105.403 76.1424 106.455 75.3805 107.217C74.6185 107.979 73.5776 108.44 72.4293 108.44H72.1824C71.0341 108.44 69.9824 107.968 69.2205 107.217C68.4585 106.455 67.9971 105.414 67.9971 104.255V100.617C67.9863 100.316 68.2332 100.069 68.5444 100.069Z" fill="#A44F3E"/>
<path d="M76.0566 100.069H83.5795C83.88 100.069 84.1268 100.316 84.1268 100.617V104.255C84.1268 105.403 83.6546 106.455 82.8927 107.217C82.1307 107.979 81.0897 108.44 79.9415 108.44H79.6946C78.5463 108.44 77.4946 107.968 76.7434 107.217C75.9815 106.455 75.5093 105.414 75.5093 104.255V100.617C75.5093 100.316 75.7561 100.069 76.0566 100.069Z" fill="#F6A96C"/>
<path d="M83.5795 100.069H89.4927C90.0829 100.069 90.6302 100.316 91.0166 100.702C91.4029 101.089 91.6498 101.636 91.6498 102.226V104.255C91.6498 105.403 91.1776 106.455 90.4156 107.217C89.6537 107.979 88.6127 108.44 87.4644 108.44H87.2176C86.0693 108.44 85.0176 107.968 84.2663 107.217C83.5044 106.455 83.0322 105.414 83.0322 104.255V100.617C83.0215 100.316 83.2683 100.069 83.5795 100.069Z" fill="#A44F3E"/>
<path d="M79.7912 118.882C79.7912 118.581 80.038 118.335 80.3385 118.335C80.639 118.335 80.8858 118.581 80.8858 118.882V122.638C80.8858 122.939 80.639 123.185 80.3385 123.185C80.038 123.185 79.7912 122.939 79.7912 122.638V118.882Z" fill="#783A2D"/>
<path fill-rule="evenodd" clip-rule="evenodd" d="M63.1678 92.9649C63.3717 92.7395 63.7151 92.718 63.9405 92.9219C64.1658 93.1259 64.1873 93.4693 63.9834 93.6946C63.6937 94.0166 63.3502 94.2634 62.9639 94.4351C62.5776 94.6068 62.159 94.7034 61.7298 94.7034C60.8927 94.7034 60.1307 94.36 59.5727 93.8127C59.0254 93.2654 58.6819 92.5034 58.6819 91.6556C58.6819 90.8078 59.0254 90.0566 59.5727 89.4985C60.12 88.9512 60.8819 88.6078 61.7298 88.6078C62.1054 88.6078 62.4702 88.6722 62.8137 88.8117C63.1571 88.9405 63.479 89.1337 63.758 89.3805C63.9834 89.5844 64.0049 89.9278 63.801 90.1639C63.5971 90.3893 63.2537 90.4107 63.0176 90.2068C62.8351 90.0459 62.6312 89.9278 62.4166 89.8419C62.2019 89.7561 61.9658 89.7132 61.7298 89.7132C61.1932 89.7132 60.7102 89.9278 60.3561 90.2819C60.0019 90.6361 59.7873 91.119 59.7873 91.6556C59.7873 92.1922 60.0019 92.6751 60.3561 93.0293C60.7102 93.3834 61.1932 93.598 61.7298 93.598C62.0088 93.598 62.2771 93.5444 62.5239 93.4371C62.76 93.3298 62.9854 93.1688 63.1678 92.9649ZM66.0332 94.521C65.9258 94.8107 65.6146 94.9502 65.3249 94.8537C65.0351 94.7463 64.8956 94.4351 64.9922 94.1454L66.9024 89.0049C67.0098 88.7151 67.321 88.5756 67.6107 88.6722C67.7717 88.7259 67.8898 88.8546 67.9434 89.0049L69.8429 94.1454C69.9502 94.4351 69.8 94.7463 69.5102 94.8537C69.2205 94.961 68.9093 94.8107 68.8019 94.521L67.4176 90.7756L66.0332 94.521Z" fill="#FFE5C2"/>
<path fill-rule="evenodd" clip-rule="evenodd" d="M66.2156 92.9863C65.9151 92.9863 65.6683 92.7395 65.6683 92.4283C65.6683 92.1278 65.9151 91.8702 66.2156 91.8702H68.6088C68.9093 91.8702 69.1561 92.1171 69.1561 92.4283C69.1561 92.7288 68.9093 92.9863 68.6088 92.9863H66.2156ZM70.7015 89.1873C70.7015 88.8868 70.9483 88.6293 71.2488 88.6293C71.5493 88.6293 71.7961 88.8761 71.7961 89.1873V94.478C71.7961 94.7785 71.5493 95.0361 71.2488 95.0361C70.9483 95.0361 70.7015 94.7893 70.7015 94.478V89.1873Z" fill="#FFE5C2"/>
<path fill-rule="evenodd" clip-rule="evenodd" d="M71.2488 89.7454C70.9483 89.7454 70.7015 89.4985 70.7015 89.1873C70.7015 88.8868 70.9483 88.6293 71.2488 88.6293H73.5346C73.8351 88.6293 74.0819 88.8761 74.0819 89.1873C74.0819 89.4878 73.8351 89.7454 73.5346 89.7454H71.2488ZM71.2488 92.1278C70.9483 92.1278 70.7015 91.881 70.7015 91.5698C70.7015 91.2693 70.9483 91.0117 71.2488 91.0117H73.5346C73.8351 91.0117 74.0819 91.2585 74.0819 91.5698C74.0819 91.8702 73.8351 92.1278 73.5346 92.1278H71.2488ZM74.9083 89.1873C74.9083 88.8868 75.1551 88.6293 75.4556 88.6293C75.7561 88.6293 76.0029 88.8761 76.0029 89.1873V94.478C76.0029 94.7785 75.7561 95.0361 75.4556 95.0361C75.1551 95.0361 74.9083 94.7893 74.9083 94.478V89.1873Z" fill="#FFE5C2"/>
<path fill-rule="evenodd" clip-rule="evenodd" d="M75.4663 89.7454C75.1658 89.7454 74.919 89.4985 74.919 89.1873C74.919 88.8868 75.1658 88.6293 75.4663 88.6293H77.7415C78.0419 88.6293 78.2888 88.8761 78.2888 89.1873C78.2888 89.4878 78.0419 89.7454 77.7415 89.7454H75.4663ZM75.4663 95.0361C75.1658 95.0361 74.919 94.7893 74.919 94.478C74.919 94.1776 75.1658 93.92 75.4663 93.92H77.7415C78.0419 93.92 78.2888 94.1668 78.2888 94.478C78.2888 94.7785 78.0419 95.0361 77.7415 95.0361H75.4663ZM75.4663 92.3854C75.1658 92.3854 74.919 92.1385 74.919 91.8273C74.919 91.5268 75.1658 91.2693 75.4663 91.2693H77.7415C78.0419 91.2693 78.2888 91.5161 78.2888 91.8273C78.2888 92.1278 78.0419 92.3854 77.7415 92.3854H75.4663Z" fill="#FFE5C2"/>
<path d="M88.9454 132.865C89.5356 132.865 90.0829 132.629 90.5015 132.221C90.92 131.803 91.1454 131.256 91.1454 130.665C91.1454 130.075 90.9093 129.528 90.5015 129.109C90.0829 128.691 89.5356 128.465 88.9454 128.465H48.1434C47.5532 128.465 47.0059 128.701 46.5873 129.109C46.1688 129.528 45.9434 130.075 45.9434 130.665C45.9434 131.256 46.1795 131.803 46.5873 132.221C46.9951 132.64 47.5532 132.865 48.1434 132.865H88.9454Z" fill="#F6A96C"/>
<path d="M255.218 214.774C258.769 197.584 247.763 180.761 230.635 177.197C213.507 173.633 196.743 184.679 193.193 201.869C189.642 219.058 200.648 235.882 217.776 239.445C234.904 243.009 251.668 231.963 255.218 214.774Z" fill="#4A4AF2"/>
<path d="M216.693 234.387L221.889 247.758L227.244 233.692L216.693 234.387Z" fill="#4A4AF2"/>
<g clip-path="url(#clip2_918_5435)">
<path d="M237.209 199.338H211.692V190.283C211.692 189.676 212.185 189.183 212.792 189.183H236.109C236.717 189.183 237.209 189.676 237.209 190.283V199.338Z" fill="#FCE270"/>
<path d="M236.109 189.183H232.786C233.394 189.183 233.886 189.676 233.886 190.283V199.338H237.209V190.283C237.209 189.676 236.716 189.183 236.109 189.183Z" fill="#FFBE7C"/>
<path d="M210.219 224.626V201.635H238.683V224.626H210.219Z" fill="#FEEBCA"/>
<path d="M210.219 201.635V205.12H222.83C229.643 205.12 235.167 210.643 235.167 217.457V224.626H238.683V201.635L210.219 201.635Z" fill="#F9D9AF"/>
<path d="M236.109 189.183H212.792C212.185 189.183 211.692 189.676 211.692 190.283V191.721H237.209V190.283C237.209 189.676 236.716 189.183 236.109 189.183Z" fill="#FF5876"/>
<path d="M236.109 189.183H232.786C233.394 189.183 233.886 189.676 233.886 190.283V191.721H237.209V190.283C237.209 189.676 236.716 189.183 236.109 189.183Z" fill="#ED4A79"/>
<path d="M221.648 222.533H212.392C212.349 222.532 212.306 222.541 212.266 222.558C212.226 222.574 212.19 222.598 212.159 222.629C212.129 222.659 212.105 222.696 212.088 222.736C212.071 222.776 212.063 222.818 212.063 222.862V224.626H221.977V222.862C221.977 222.818 221.969 222.776 221.952 222.736C221.936 222.696 221.912 222.659 221.881 222.629C221.85 222.598 221.814 222.574 221.774 222.558C221.734 222.541 221.691 222.532 221.648 222.533Z" fill="#D5E0F2"/>
<path d="M220.267 208.742H213.774C213.405 208.742 213.106 209.041 213.106 209.41V222.532H220.935V209.41C220.935 209.233 220.864 209.063 220.739 208.938C220.614 208.812 220.444 208.742 220.267 208.742Z" fill="#DD3A71"/>
<path d="M219.936 209.42H214.048C213.949 209.42 213.855 209.459 213.785 209.529C213.716 209.599 213.677 209.693 213.676 209.792V222.532H220.325V209.81C220.325 209.595 220.151 209.42 219.936 209.42ZM242.17 199.744H206.731L209.531 195.605C209.743 195.292 210.028 195.035 210.362 194.858C210.696 194.681 211.069 194.588 211.447 194.588H237.455C237.833 194.588 238.205 194.681 238.539 194.858C238.873 195.035 239.159 195.292 239.371 195.605L242.17 199.744Z" fill="#FF5876"/>
<path d="M238.241 199.744H210.661L212.839 195.605C213.174 194.969 213.733 194.588 214.331 194.588H234.571C235.168 194.588 235.727 194.969 236.062 195.605L238.241 199.744Z" fill="#E4EEF9"/>
<path d="M234.29 199.744H214.621L216.175 195.605C216.414 194.969 216.812 194.588 217.239 194.588H231.672C232.099 194.588 232.497 194.969 232.736 195.605L234.29 199.744Z" fill="#FF5876"/>
<path d="M230.371 199.744H218.54L219.474 195.605C219.618 194.969 219.858 194.588 220.114 194.588H228.797C229.053 194.588 229.293 194.969 229.437 195.605L230.371 199.744Z" fill="#E4EEF9"/>
<path d="M226.42 199.744H222.491L222.801 195.605C222.849 194.969 222.929 194.588 223.013 194.588H225.897C225.982 194.588 226.062 194.969 226.11 195.605L226.42 199.744Z" fill="#FF5876"/>
<path d="M206.733 199.739V202.057C206.733 203.145 207.614 204.026 208.702 204.026C209.789 204.026 210.671 203.145 210.671 202.057V199.739H206.733Z" fill="#E4EEF9"/>
<path d="M210.671 199.739V202.057C210.671 203.145 211.553 204.026 212.64 204.026C213.728 204.026 214.609 203.145 214.609 202.057V199.739H210.671Z" fill="#FF5876"/>
<path d="M214.609 199.739V202.057C214.609 203.145 215.491 204.026 216.579 204.026C217.667 204.026 218.548 203.145 218.548 202.057V199.739H214.609Z" fill="#E4EEF9"/>
<path d="M218.548 199.739V202.057C218.548 203.145 219.43 204.026 220.518 204.026C221.605 204.026 222.487 203.145 222.487 202.057V199.739H218.548Z" fill="#FF5876"/>
<path d="M222.487 199.739V202.057C222.487 203.145 223.368 204.026 224.456 204.026C225.544 204.026 226.425 203.145 226.425 202.057V199.739H222.487Z" fill="#E4EEF9"/>
<path d="M226.425 199.739V202.057C226.425 203.145 227.307 204.026 228.395 204.026C229.482 204.026 230.364 203.145 230.364 202.057V199.739H226.425Z" fill="#FF5876"/>
<path d="M230.364 199.739V202.057C230.364 203.145 231.246 204.026 232.333 204.026C233.421 204.026 234.302 203.145 234.302 202.057V199.739H230.364Z" fill="#E4EEF9"/>
<path d="M234.302 199.739V202.057C234.302 203.145 235.184 204.026 236.272 204.026C237.36 204.026 238.241 203.145 238.241 202.057V199.739H234.302Z" fill="#FF5876"/>
<path d="M238.241 199.739V202.057C238.241 203.145 239.123 204.026 240.21 204.026C241.298 204.026 242.18 203.145 242.18 202.057V199.739H238.241Z" fill="#E4EEF9"/>
<path d="M225.133 225.109C224.838 225.109 224.598 224.87 224.598 224.574V213.131C224.597 213.06 224.61 212.989 224.636 212.923C224.663 212.857 224.702 212.797 224.752 212.747C224.801 212.696 224.861 212.656 224.926 212.628C224.992 212.601 225.062 212.587 225.133 212.587C225.204 212.587 225.274 212.601 225.34 212.628C225.405 212.656 225.465 212.696 225.514 212.747C225.564 212.797 225.603 212.857 225.63 212.923C225.656 212.989 225.669 213.06 225.668 213.131V224.574C225.668 224.716 225.611 224.852 225.511 224.953C225.411 225.053 225.275 225.109 225.133 225.109Z" fill="white"/>
<path d="M229.024 225.161C228.954 225.161 228.885 225.147 228.82 225.12C228.755 225.093 228.696 225.054 228.646 225.004C228.596 224.954 228.557 224.895 228.53 224.831C228.503 224.766 228.489 224.696 228.489 224.626V221.099H225.668V224.626C225.668 224.696 225.654 224.766 225.627 224.831C225.6 224.896 225.561 224.955 225.511 225.004C225.461 225.054 225.402 225.093 225.338 225.12C225.273 225.147 225.203 225.161 225.133 225.161C225.063 225.161 224.993 225.147 224.928 225.12C224.863 225.093 224.804 225.054 224.755 225.004C224.705 224.955 224.665 224.896 224.639 224.831C224.612 224.766 224.598 224.696 224.598 224.626V220.564C224.598 220.422 224.654 220.286 224.754 220.185C224.855 220.085 224.991 220.029 225.133 220.029H228.629C229.142 220.029 229.559 220.429 229.559 220.921V224.626C229.559 224.921 229.32 225.161 229.024 225.161Z" fill="white"/>
<path d="M240.843 225.109C240.701 225.109 240.565 225.053 240.464 224.953C240.364 224.852 240.308 224.716 240.308 224.574V213.131C240.306 213.06 240.319 212.989 240.346 212.923C240.372 212.857 240.411 212.797 240.461 212.747C240.511 212.696 240.57 212.656 240.636 212.628C240.701 212.601 240.771 212.587 240.842 212.587C240.913 212.587 240.984 212.601 241.049 212.628C241.115 212.656 241.174 212.696 241.224 212.747C241.274 212.797 241.313 212.857 241.339 212.923C241.366 212.989 241.379 213.06 241.377 213.131V224.574C241.377 224.716 241.321 224.852 241.221 224.953C241.12 225.053 240.984 225.109 240.843 225.109Z" fill="#E4EEF9"/>
<path d="M240.843 225.161C240.772 225.161 240.703 225.147 240.638 225.12C240.573 225.093 240.514 225.054 240.464 225.004C240.415 224.954 240.375 224.895 240.348 224.831C240.321 224.766 240.308 224.696 240.308 224.626V221.099H237.486V224.626C237.486 224.921 237.247 225.161 236.951 225.161C236.656 225.161 236.416 224.921 236.416 224.626V220.921C236.416 220.429 236.833 220.028 237.346 220.028H240.842C240.913 220.028 240.982 220.042 241.047 220.069C241.112 220.096 241.171 220.136 241.221 220.185C241.27 220.235 241.31 220.294 241.337 220.359C241.364 220.424 241.377 220.493 241.377 220.564V224.626C241.377 224.921 241.138 225.161 240.843 225.161Z" fill="#E4EEF9"/>
<path d="M232.923 225.161C232.853 225.161 232.783 225.147 232.718 225.12C232.654 225.093 232.595 225.054 232.545 225.004C232.495 224.954 232.456 224.895 232.429 224.831C232.402 224.766 232.388 224.696 232.388 224.626V218.357C232.388 218.215 232.445 218.079 232.545 217.979C232.645 217.879 232.781 217.822 232.923 217.822C233.065 217.822 233.201 217.879 233.302 217.979C233.402 218.079 233.458 218.215 233.458 218.357V224.626C233.458 224.921 233.219 225.161 232.923 225.161Z" fill="white"/>
<path d="M232.006 225.161C231.206 225.161 230.554 224.509 230.554 223.709C230.554 223.567 230.611 223.431 230.711 223.331C230.811 223.23 230.947 223.174 231.089 223.174C231.159 223.174 231.229 223.188 231.294 223.215C231.359 223.241 231.418 223.281 231.467 223.33C231.517 223.38 231.557 223.439 231.583 223.504C231.61 223.569 231.624 223.638 231.624 223.709C231.624 223.92 231.796 224.091 232.006 224.091C232.217 224.091 232.388 223.919 232.388 223.709C232.388 223.413 232.628 223.174 232.923 223.174C233.219 223.174 233.458 223.413 233.458 223.709C233.458 224.509 232.807 225.161 232.006 225.161Z" fill="white"/>
<path d="M233.84 225.161C233.04 225.161 232.388 224.509 232.388 223.709C232.388 223.413 232.628 223.174 232.923 223.174C233.219 223.174 233.458 223.413 233.458 223.709C233.458 223.81 233.499 223.907 233.57 223.979C233.642 224.051 233.739 224.091 233.84 224.091C233.942 224.091 234.039 224.05 234.11 223.979C234.182 223.907 234.222 223.81 234.222 223.709C234.222 223.413 234.462 223.174 234.757 223.174C235.053 223.174 235.292 223.413 235.292 223.709C235.292 224.509 234.641 225.161 233.84 225.161Z" fill="white"/>
<path d="M237.276 218.357H228.57C227.963 218.357 227.471 217.865 227.471 217.258V216.725C227.471 216.664 227.52 216.615 227.581 216.615H238.265C238.326 216.615 238.376 216.664 238.376 216.725V217.258C238.376 217.865 237.884 218.357 237.276 218.357Z" fill="#10C6FF"/>
<path d="M242.169 225.161H206.732C206.437 225.161 206.197 224.921 206.197 224.626C206.197 224.33 206.437 224.091 206.732 224.091H242.169C242.24 224.09 242.311 224.103 242.377 224.129C242.442 224.155 242.503 224.195 242.553 224.244C242.604 224.294 242.644 224.354 242.671 224.419C242.699 224.484 242.713 224.555 242.713 224.626C242.713 224.697 242.699 224.767 242.671 224.832C242.644 224.898 242.604 224.957 242.553 225.007C242.503 225.057 242.442 225.096 242.377 225.122C242.311 225.149 242.24 225.162 242.169 225.161Z" fill="#60768C"/>
<path d="M232.988 214.876C232.846 214.876 232.71 214.82 232.61 214.719C232.509 214.619 232.453 214.483 232.453 214.341V213.973C232.456 213.833 232.513 213.699 232.613 213.601C232.713 213.503 232.848 213.448 232.988 213.448C233.128 213.448 233.262 213.503 233.362 213.601C233.462 213.699 233.52 213.833 233.523 213.973V214.341C233.523 214.637 233.283 214.876 232.988 214.876Z" fill="#7C8FA5"/>
<path d="M231.147 216.615C231.147 215.359 231.971 214.341 232.988 214.341C234.004 214.341 234.828 215.359 234.828 216.615" fill="#91A0B5"/>
<path d="M219.469 215.79C219.469 215.932 219.413 216.068 219.312 216.169C219.212 216.269 219.076 216.326 218.934 216.326C218.792 216.326 218.656 216.269 218.556 216.169C218.455 216.068 218.399 215.932 218.399 215.79C218.399 215.649 218.455 215.512 218.556 215.412C218.656 215.312 218.792 215.255 218.934 215.255C219.076 215.255 219.212 215.312 219.312 215.412C219.413 215.512 219.469 215.649 219.469 215.79Z" fill="#EA9D57"/>
</g>
<path d="M147.61 293.851C151.239 276.184 139.991 258.893 122.486 255.23C104.98 251.568 87.8479 262.92 84.2189 280.587C80.5899 298.254 91.8387 315.545 109.344 319.208C126.849 322.87 143.981 311.518 147.61 293.851Z" fill="#FFD622"/>
<path d="M108.236 314.009L113.547 327.752L119.021 313.295L108.236 314.009Z" fill="#FFD622"/>
<g clip-path="url(#clip3_918_5435)">
<path d="M97.2806 280.646H134.014V303.003H97.2806V280.646Z" fill="#F6A96C"/>
<path d="M97.2806 299.26H99.5922V283.809C99.5922 283.758 99.6024 283.706 99.6222 283.659C99.642 283.611 99.671 283.567 99.7076 283.531C99.7442 283.494 99.7877 283.465 99.8355 283.445C99.8833 283.425 99.9346 283.415 99.9863 283.415H100.67V280.723H97.2806V299.26Z" fill="#EA9B58"/>
<path d="M99.6687 299.26H96.453C96.4012 299.26 96.3499 299.27 96.3021 299.29C96.2543 299.31 96.2108 299.339 96.1742 299.376C96.1376 299.412 96.1086 299.456 96.0888 299.503C96.069 299.551 96.0588 299.603 96.0588 299.654V302.609C96.0588 302.661 96.069 302.712 96.0888 302.76C96.1086 302.808 96.1376 302.851 96.1742 302.888C96.2108 302.925 96.2543 302.954 96.3021 302.973C96.3499 302.993 96.4012 303.003 96.453 303.003H99.5922L99.6687 302.658V299.26ZM135.194 280.154L132.094 273.868C132.062 273.802 132.011 273.746 131.949 273.708C131.886 273.669 131.814 273.648 131.741 273.648H126.33V276.282C126.33 276.366 126.297 276.446 126.237 276.506C126.178 276.566 126.097 276.599 126.013 276.599H105.281C105.197 276.599 105.117 276.566 105.057 276.506C104.997 276.446 104.964 276.366 104.964 276.282V273.648H99.5534C99.4799 273.648 99.4078 273.669 99.3453 273.708C99.2829 273.746 99.2325 273.802 99.2 273.868L96.1 280.154C95.9708 280.416 96.1614 280.723 96.4534 280.723H134.841C135.133 280.723 135.323 280.416 135.194 280.154Z" fill="#FD5426"/>
<path d="M134.266 278.272H100.434C100.142 278.272 99.9515 277.965 100.081 277.703L102.08 273.648H99.5534C99.4799 273.648 99.4078 273.669 99.3453 273.708C99.2829 273.746 99.2325 273.802 99.2 273.868L96.1 280.154C95.9708 280.416 96.1614 280.723 96.4534 280.723H134.841C135.133 280.723 135.323 280.416 135.194 280.154L134.266 278.272Z" fill="#EF4424"/>
<path d="M113.035 283.306H129.039V293.589H113.035V283.306Z" fill="#C8EFFE"/>
<path d="M113.614 288.096H115.111V293.512H113.614V288.096Z" fill="#99E6FC"/>
<path d="M129.039 293.589V290.391H126.753C126.722 290.391 126.691 290.397 126.663 290.409C126.634 290.421 126.608 290.439 126.586 290.461C126.564 290.483 126.546 290.509 126.535 290.537C126.523 290.566 126.517 290.597 126.517 290.628V293.589H129.039Z" fill="white"/>
<path d="M127.629 293.512V290.628C127.629 290.597 127.635 290.566 127.647 290.537C127.658 290.509 127.676 290.482 127.698 290.461C127.72 290.439 127.746 290.421 127.775 290.409C127.803 290.397 127.834 290.391 127.865 290.391H126.753C126.69 290.391 126.63 290.416 126.586 290.461C126.541 290.505 126.517 290.565 126.517 290.628V293.512H127.629Z" fill="#F3F0FF"/>
<path d="M112.466 287.987H113.614V293.589H112.466V287.987ZM128.47 287.987H129.618V293.589H128.47V287.987Z" fill="#6D3326"/>
<path d="M116.923 293.589H118.665C119.55 293.263 120.202 292.456 120.303 291.485C120.317 291.344 120.208 291.222 120.067 291.222H115.521C115.379 291.222 115.27 291.344 115.285 291.485C115.386 292.456 116.038 293.263 116.923 293.589Z" fill="white"/>
<path d="M116.738 293.512H118.39C117.599 293.148 117.028 292.388 116.934 291.485C116.92 291.344 117.029 291.222 117.17 291.222H115.521C115.38 291.222 115.271 291.344 115.285 291.485C115.379 292.387 115.948 293.148 116.738 293.512Z" fill="#F3F0FF"/>
<path d="M130.151 293.512H111.923C111.871 293.512 111.82 293.522 111.772 293.542C111.724 293.562 111.681 293.591 111.644 293.628C111.608 293.664 111.579 293.708 111.559 293.756C111.539 293.803 111.529 293.855 111.529 293.906V295.089C111.529 295.141 111.539 295.192 111.559 295.24C111.579 295.287 111.608 295.331 111.644 295.368C111.681 295.404 111.724 295.433 111.772 295.453C111.82 295.473 111.871 295.483 111.923 295.483H130.151C130.203 295.483 130.254 295.473 130.302 295.453C130.35 295.433 130.393 295.404 130.43 295.368C130.466 295.331 130.495 295.287 130.515 295.24C130.535 295.192 130.545 295.141 130.545 295.089V293.906C130.545 293.802 130.504 293.702 130.43 293.628C130.356 293.554 130.256 293.512 130.151 293.512Z" fill="#A44F3E"/>
<path d="M114.839 295.089V293.906C114.839 293.855 114.85 293.803 114.869 293.756C114.889 293.708 114.918 293.664 114.955 293.628C114.991 293.591 115.035 293.562 115.083 293.542C115.131 293.522 115.182 293.512 115.234 293.512H111.923C111.871 293.512 111.82 293.522 111.772 293.542C111.724 293.562 111.681 293.591 111.644 293.628C111.608 293.664 111.579 293.708 111.559 293.756C111.539 293.803 111.529 293.855 111.529 293.906V295.089C111.529 295.141 111.539 295.192 111.559 295.24C111.579 295.287 111.608 295.331 111.644 295.368C111.681 295.404 111.724 295.433 111.772 295.453C111.82 295.473 111.871 295.483 111.923 295.483H115.234C115.129 295.483 115.029 295.441 114.955 295.368C114.881 295.294 114.839 295.193 114.839 295.089Z" fill="#883F2E"/>
<path d="M113.824 299.459H115.795V303.003H113.824V299.459ZM126.279 299.459H128.25V303.003H126.279V299.459Z" fill="#6D3326"/>
<path d="M129.031 299.535H113.043C112.991 299.535 112.94 299.525 112.892 299.505C112.844 299.485 112.801 299.456 112.764 299.42C112.728 299.383 112.699 299.34 112.679 299.292C112.659 299.244 112.649 299.193 112.649 299.141V297.959C112.649 297.907 112.659 297.856 112.679 297.808C112.699 297.76 112.728 297.716 112.764 297.68C112.801 297.643 112.844 297.614 112.892 297.594C112.94 297.575 112.991 297.564 113.043 297.564H129.031C129.083 297.564 129.134 297.575 129.182 297.594C129.23 297.614 129.273 297.643 129.31 297.68C129.346 297.716 129.375 297.76 129.395 297.808C129.415 297.856 129.425 297.907 129.425 297.959V299.141C129.425 299.246 129.383 299.346 129.31 299.42C129.236 299.494 129.135 299.535 129.031 299.535Z" fill="#A44F3E"/>
<path d="M115.095 299.141V297.959C115.095 297.907 115.105 297.856 115.125 297.808C115.145 297.76 115.174 297.716 115.211 297.68C115.247 297.643 115.291 297.614 115.339 297.594C115.386 297.575 115.438 297.564 115.489 297.564H113.043C112.991 297.564 112.94 297.575 112.892 297.594C112.844 297.614 112.801 297.643 112.764 297.68C112.728 297.716 112.699 297.76 112.679 297.808C112.659 297.856 112.649 297.907 112.649 297.959V299.141C112.649 299.193 112.659 299.244 112.679 299.292C112.699 299.34 112.728 299.383 112.764 299.42C112.801 299.456 112.844 299.485 112.892 299.505C112.94 299.525 112.991 299.535 113.043 299.535H115.489C115.438 299.535 115.386 299.525 115.339 299.505C115.291 299.485 115.247 299.456 115.211 299.42C115.174 299.383 115.145 299.34 115.125 299.292C115.105 299.244 115.095 299.193 115.095 299.141Z" fill="#883F2E"/>
<path d="M115.461 288.096H112.046V283.707C112.046 283.601 112.089 283.499 112.164 283.423C112.239 283.348 112.341 283.306 112.447 283.306H116.542L115.705 287.893C115.695 287.95 115.664 288.002 115.62 288.039C115.575 288.076 115.519 288.096 115.461 288.096Z" fill="#FD5426"/>
<path d="M121.037 288.096H117.654C117.597 288.096 117.541 288.076 117.496 288.039C117.452 288.003 117.422 287.951 117.411 287.895L116.542 283.306H121.037V288.096H121.037Z" fill="#FD5426"/>
<path d="M125.285 288.096H121.037V283.306H125.532V287.849C125.532 287.914 125.506 287.977 125.46 288.024C125.413 288.07 125.35 288.096 125.285 288.096Z" fill="#EF4424"/>
<path d="M130.028 288.096H127.461C127.41 288.096 127.361 288.081 127.319 288.052C127.277 288.023 127.246 287.981 127.228 287.934L125.532 283.306H129.627C129.733 283.306 129.835 283.348 129.91 283.423C129.986 283.499 130.028 283.601 130.028 283.707L130.028 288.096Z" fill="#FD5426"/>
<path d="M109.42 303.003H99.5922V283.809C99.5922 283.758 99.6024 283.706 99.6222 283.658C99.642 283.611 99.671 283.567 99.7076 283.531C99.7442 283.494 99.7877 283.465 99.8355 283.445C99.8833 283.425 99.9346 283.415 99.9863 283.415H109.026C109.077 283.415 109.129 283.425 109.177 283.445C109.224 283.465 109.268 283.494 109.304 283.531C109.341 283.567 109.37 283.611 109.39 283.658C109.41 283.706 109.42 283.758 109.42 283.809V303.003Z" fill="#883F2E"/>
<path d="M99.5922 292.645H109.42V300.083H99.5922V292.645Z" fill="#A44F3E"/>
<path d="M107.312 290.202V285.834C107.312 285.782 107.302 285.731 107.282 285.683C107.262 285.635 107.233 285.592 107.197 285.555C107.16 285.519 107.116 285.49 107.069 285.47C107.021 285.45 106.97 285.44 106.918 285.44H102.094C102.042 285.44 101.991 285.45 101.943 285.47C101.896 285.49 101.852 285.519 101.816 285.555C101.779 285.592 101.75 285.635 101.73 285.683C101.71 285.731 101.7 285.782 101.7 285.834V290.202C101.7 290.253 101.71 290.305 101.73 290.353C101.75 290.4 101.779 290.444 101.816 290.48C101.852 290.517 101.896 290.546 101.943 290.566C101.991 290.586 102.042 290.596 102.094 290.596H106.918C107.022 290.596 107.123 290.554 107.197 290.48C107.27 290.406 107.312 290.306 107.312 290.202Z" fill="white"/>
<path d="M103.35 290.202V285.834C103.35 285.782 103.36 285.731 103.38 285.683C103.4 285.635 103.429 285.592 103.466 285.555C103.502 285.519 103.546 285.49 103.594 285.47C103.641 285.45 103.693 285.44 103.744 285.44H102.094C102.042 285.44 101.991 285.45 101.943 285.47C101.896 285.49 101.852 285.519 101.816 285.555C101.779 285.592 101.75 285.635 101.73 285.683C101.71 285.731 101.7 285.782 101.7 285.834V290.202C101.7 290.253 101.71 290.305 101.73 290.353C101.75 290.4 101.779 290.444 101.816 290.48C101.852 290.517 101.896 290.546 101.943 290.566C101.991 290.586 102.042 290.596 102.094 290.596H103.744C103.693 290.596 103.641 290.586 103.594 290.566C103.546 290.546 103.502 290.517 103.466 290.48C103.429 290.444 103.4 290.4 103.38 290.352C103.36 290.305 103.35 290.253 103.35 290.202Z" fill="#F3F0FF"/>
<path d="M106.918 291.17H102.094C101.56 291.17 101.126 290.735 101.126 290.202V285.834C101.126 285.3 101.56 284.866 102.094 284.866H106.918C107.452 284.866 107.886 285.3 107.886 285.834V290.202C107.886 290.735 107.452 291.17 106.918 291.17ZM102.274 290.022H106.738V286.014H102.274V290.022Z" fill="#6D3326"/>
<path d="M106.507 292.645H107.655V300.083H106.507V292.645ZM101.358 292.645H102.505V300.083H101.358V292.645ZM103.932 292.645H105.08V300.083H103.932V292.645Z" fill="#6D3326"/>
<path d="M126.013 276.676H105.281C105.23 276.676 105.178 276.665 105.131 276.646C105.083 276.626 105.039 276.597 105.003 276.56C104.966 276.524 104.937 276.48 104.917 276.432C104.897 276.384 104.887 276.333 104.887 276.281V270.685C104.887 270.633 104.897 270.582 104.917 270.534C104.937 270.486 104.966 270.443 105.003 270.406C105.039 270.369 105.083 270.34 105.131 270.321C105.178 270.301 105.23 270.291 105.281 270.291H126.013C126.064 270.291 126.116 270.301 126.164 270.321C126.211 270.34 126.255 270.369 126.291 270.406C126.328 270.443 126.357 270.486 126.377 270.534C126.397 270.582 126.407 270.633 126.407 270.685V276.281C126.407 276.333 126.397 276.384 126.377 276.432C126.357 276.48 126.328 276.524 126.291 276.56C126.255 276.597 126.211 276.626 126.164 276.646C126.116 276.665 126.064 276.676 126.013 276.676Z" fill="#FFE5C2"/>
<path d="M107.471 275.28C107.42 275.28 107.368 275.27 107.321 275.25C107.273 275.23 107.229 275.201 107.193 275.165C107.156 275.128 107.127 275.085 107.107 275.037C107.087 274.989 107.077 274.938 107.077 274.886V270.291H105.281C105.23 270.291 105.178 270.301 105.131 270.321C105.083 270.34 105.039 270.369 105.003 270.406C104.966 270.443 104.937 270.486 104.917 270.534C104.897 270.582 104.887 270.633 104.887 270.685V276.281C104.887 276.333 104.897 276.384 104.917 276.432C104.937 276.48 104.966 276.524 105.003 276.56C105.039 276.597 105.083 276.626 105.131 276.646C105.178 276.665 105.23 276.676 105.281 276.676H126.013C126.064 276.676 126.116 276.665 126.164 276.646C126.211 276.626 126.255 276.597 126.291 276.56C126.328 276.524 126.357 276.48 126.377 276.432C126.397 276.384 126.407 276.333 126.407 276.281V275.28L107.471 275.28Z" fill="#FED2A4"/>
<path d="M121.165 273.111H110.129C109.812 273.111 109.555 272.854 109.555 272.537C109.555 272.22 109.812 271.963 110.129 271.963H121.165C121.482 271.963 121.739 272.22 121.739 272.537C121.739 272.854 121.482 273.111 121.165 273.111ZM119.037 275.003H112.258C111.941 275.003 111.684 274.746 111.684 274.429C111.684 274.112 111.941 273.855 112.258 273.855H119.037C119.354 273.855 119.61 274.112 119.61 274.429C119.61 274.746 119.354 275.003 119.037 275.003Z" fill="#F6A96C"/>
<path d="M134.841 303.003H131.846V299.654C131.846 299.603 131.856 299.551 131.876 299.503C131.896 299.456 131.925 299.412 131.961 299.376C131.998 299.339 132.041 299.31 132.089 299.29C132.137 299.27 132.188 299.26 132.24 299.26H134.841C134.893 299.26 134.944 299.27 134.992 299.29C135.04 299.31 135.083 299.339 135.12 299.376C135.156 299.412 135.186 299.456 135.205 299.503C135.225 299.551 135.235 299.603 135.235 299.654V302.609C135.235 302.714 135.194 302.814 135.12 302.888C135.046 302.962 134.946 303.003 134.841 303.003Z" fill="#FD5426"/>
<path d="M134.526 285.437V283.825C134.526 283.716 134.483 283.612 134.406 283.535C134.329 283.458 134.225 283.415 134.116 283.415H132.965C132.911 283.415 132.858 283.426 132.808 283.446C132.758 283.467 132.713 283.497 132.675 283.535C132.637 283.573 132.607 283.618 132.586 283.668C132.566 283.718 132.555 283.771 132.555 283.825V285.437H134.526ZM132.555 291.798V293.41C132.555 293.519 132.598 293.623 132.675 293.7C132.752 293.777 132.856 293.82 132.965 293.82H134.116C134.225 293.82 134.329 293.777 134.406 293.7C134.483 293.623 134.526 293.519 134.526 293.41V291.798H132.555Z" fill="#554E6F"/>
<path d="M133.322 285.361V283.825C133.322 283.716 133.366 283.612 133.442 283.535C133.519 283.458 133.623 283.415 133.732 283.415H132.965C132.856 283.415 132.752 283.458 132.675 283.535C132.598 283.612 132.555 283.716 132.555 283.825V285.361H133.322ZM133.322 293.41V291.875H132.555V293.41C132.555 293.519 132.598 293.623 132.675 293.7C132.752 293.777 132.856 293.82 132.965 293.82H133.732C133.623 293.82 133.519 293.777 133.442 293.7C133.366 293.623 133.322 293.519 133.322 293.41Z" fill="#433F5C"/>
<path d="M134.81 291.875H132.271C132.158 291.875 132.05 291.83 131.97 291.75C131.891 291.67 131.846 291.562 131.846 291.45V285.786C131.846 285.673 131.891 285.565 131.97 285.485C132.05 285.405 132.158 285.361 132.271 285.361H134.81C134.923 285.361 135.031 285.405 135.111 285.485C135.191 285.565 135.235 285.673 135.235 285.786V291.45C135.235 291.562 135.191 291.67 135.111 291.75C135.031 291.83 134.923 291.875 134.81 291.875Z" fill="#FD5426"/>
<path d="M133.453 291.45V285.786C133.453 285.673 133.497 285.565 133.577 285.485C133.657 285.405 133.765 285.361 133.878 285.361H132.271C132.158 285.361 132.05 285.405 131.97 285.485C131.891 285.565 131.846 285.673 131.846 285.786V291.45C131.846 291.562 131.891 291.67 131.97 291.75C132.05 291.83 132.158 291.875 132.271 291.875H133.878C133.765 291.875 133.657 291.83 133.577 291.75C133.497 291.67 133.453 291.562 133.453 291.45Z" fill="#EF4424"/>
</g>
</g>
</g>
</g>
<defs>
<filter id="filter0_d_918_5435" x="-18.6365" y="-25" width="313.01" height="512.747" filterUnits="userSpaceOnUse" color-interpolation-filters="sRGB">
<feFlood flood-opacity="0" result="BackgroundImageFix"/>
<feColorMatrix in="SourceAlpha" type="matrix" values="0 0 0 0 0 0 0 0 0 0 0 0 0 0 0 0 0 0 127 0" result="hardAlpha"/>
<feOffset dy="3.37333"/>
<feGaussianBlur stdDeviation="1.68667"/>
<feComposite in2="hardAlpha" operator="out"/>
<feColorMatrix type="matrix" values="0 0 0 0 0 0 0 0 0 0 0 0 0 0 0 0 0 0 0.25 0"/>
<feBlend mode="normal" in2="BackgroundImageFix" result="effect1_dropShadow_918_5435"/>
<feBlend mode="normal" in="SourceGraphic" in2="effect1_dropShadow_918_5435" result="shape"/>
</filter>
<linearGradient id="paint0_linear_918_5435" x1="153.131" y1="-8.44272" x2="153.131" y2="404.125" gradientUnits="userSpaceOnUse">
<stop stop-color="white"/>
<stop offset="1" stop-color="white" stop-opacity="0"/>
</linearGradient>
<clipPath id="clip0_918_5435">
<rect width="276" height="456" rx="138" fill="white"/>
</clipPath>
<clipPath id="clip1_918_5435">
<rect x="291" y="-25" width="506" height="306.263" rx="20.24" transform="rotate(90 291 -25)" fill="white"/>
</clipPath>
<clipPath id="clip2_918_5435">
<rect width="36.507" height="36.507" fill="white" transform="translate(206.197 189.183)"/>
</clipPath>
<clipPath id="clip3_918_5435">
<rect width="39.1765" height="39.1765" fill="white" transform="translate(96.0588 267.059)"/>
</clipPath>
</defs>
</svg>
