<svg width="324" height="324" viewBox="0 0 324 324" fill="none" xmlns="http://www.w3.org/2000/svg">
<g clip-path="url(#clip0_783_2554)">
<path d="M162 324C251.47 324 324 251.47 324 162C324 72.5299 251.47 0 162 0C72.5299 0 0 72.5299 0 162C0 251.47 72.5299 324 162 324Z" fill="#311602"/>
<path d="M282.624 211.184H21.6708C21.4583 211.184 21.2812 211.007 21.2812 210.795V25.7606C21.2812 25.5482 21.4583 25.3711 21.6708 25.3711H282.624C282.836 25.3711 283.013 25.5482 283.013 25.7606V210.812C283.013 211.007 282.836 211.184 282.624 211.184ZM22.0603 210.405H282.234V26.1501H22.0603V210.405Z" fill="#D3BBA3"/>
<path d="M274.44 186.755V33.9439L29.8642 33.9439L29.8642 186.755L274.44 186.755Z" fill="#F7F1EB"/>
<path d="M162.85 114.445V110.833L162.035 110.125V107.274L160.141 105.628V108.637L158.99 109.629L157.166 108.035L158.813 106.601L155.892 104.052L149.606 109.558H147.659L144.862 112.001C144.826 114.887 144.773 119.313 144.897 119.313C145.092 119.313 149.766 119.313 149.766 119.313V117.844H153.395V119.986H155.148V122.306L157.45 124.306L164.001 118.605V114.462H162.85V114.445Z" fill="#E6D0BE"/>
<path d="M52.3355 92.0832C52.3355 91.5698 51.946 84.6295 52.3355 84.6295C52.725 84.6295 47.4666 84.6295 47.4666 84.6295V80.7344H54.0705L56.4961 82.859V78.716L61.5066 74.3606H66.5171V71.2623H73.121V62.1088L70.5892 59.9134L65.3309 64.4813L63.0292 62.4275L68.2876 57.8596L69.5446 58.9573L72.466 56.4078L76.1663 59.6301L78.2024 57.8596V53.9646H68.6771L71.0142 51.9285H57.3991L53.5571 48.5823H48.2633L36.7197 58.6387H41.4646L44.6338 55.8767L47.8738 58.7095L44.4745 61.6662V66.659L40.4732 70.1469V83.7796L52.3355 92.0832Z" fill="#E6D0BE"/>
<path d="M55.2744 92.0833H61.9845L71.3504 100.245H75.2632V105.734L72.4127 108.212V114.179C72.4127 114.179 70.1465 115.649 70.1465 116.144C70.1465 116.658 70.1465 129.742 70.1465 129.742L72.696 131.972V134.203L61.294 124.271V116.41L57.8593 113.418V109.169L52.7603 104.725V96.2262L55.2744 92.0833Z" fill="#E6D0BE"/>
<path d="M83.7085 85.019V95.5711C83.7085 95.5711 92.4547 94.5619 92.4547 95.5711C92.4547 96.5803 97.7131 100.139 97.7131 100.139V105.096C97.7131 105.096 97.7131 109.93 97.7131 110.426C97.7131 110.939 101.396 113.63 101.396 113.63V118.552H106.318L111.027 114.445V107.487L114.161 104.76V98.3331L118.853 94.2433L116.587 92.2603H113.187L110.319 89.7639V82.3101L114.674 86.099L112.019 88.4006L114.427 90.4898L118.941 86.5416V84.8242H123.102L126.891 88.1351V90.8085L130.025 93.5351L136.664 87.7455L138.629 89.4629V94.5442H142.206L140.453 93.0216V90.8616L142.4 92.5613L143.888 93.8537L147.676 90.5429L144.383 87.6747L150.067 82.7174L144.826 78.1495L153.537 70.5541L147.482 65.278L153.324 60.179V63.4013L158.476 67.8806V63.7731L155.484 61.1705L161.557 55.8767H158.229V53.6105H132.556L127.882 49.5383L122.199 54.4957L123.651 55.7705L118.215 60.5508L116.02 58.6387L112.815 61.436L107.929 57.1869L99.8377 64.2334L102.033 66.1455V67.8629L103.52 66.5528V63.9147H106.335V64.8531L101.714 68.8721L99.8731 67.261L94.5262 71.9174V73.3514L93.4108 74.3252H90.8082V75.5646L89.4095 76.7862L91.4987 78.5921H93.8534V76.4852L95.7656 74.8033L97.4121 76.2374C97.4121 76.2374 98.2619 74.6439 98.7577 75.0688C99.2357 75.4937 100.847 76.68 100.847 76.8924C100.847 77.1049 101.095 78.2026 100.847 78.2026C100.599 78.2026 101.821 77.3528 101.821 77.3528V75.9541L100.316 74.6439L100.918 74.1128L102.564 75.5469V77.2996L103.857 78.4328V77.4236L104.99 76.4321L107.716 74.0596V72.6432H109.487V74.2544C109.487 74.2544 110.585 74.1482 110.708 74.2544C110.832 74.3606 111.948 75.3344 111.948 75.3344V76.4144H109.204V75.6H107.309L105.539 77.1403V78.0964L106.743 79.141H109.505V81.0531H104.406L102.971 79.796L100.9 81.6196L99.0764 80.0262V78.6098H95.4469L93.7649 80.0793H90.1354L85.6029 84.0275V84.9836L83.7085 85.019Z" fill="#E6D0BE"/>
<path d="M110.313 166.089H163.499V155.43H110.313V166.089Z" fill="#D3BBA3"/>
<path d="M111.505 168.232V153.271L102.016 160.531L111.505 168.232Z" fill="#D3BBA3"/>
<path d="M166.869 169.277C159.716 169.277 152.599 167.719 145.924 164.603C133.92 159.008 124.802 149.058 120.269 136.593C115.737 124.147 116.339 110.673 121.934 98.6518C127.528 86.6479 137.479 77.5298 149.943 72.9974C162.389 68.4649 175.863 69.0669 187.885 74.6616C199.888 80.2564 209.006 90.2066 213.539 102.671C218.071 115.117 217.469 128.591 211.875 140.612C206.28 152.616 196.33 161.734 183.866 166.267C178.324 168.285 172.587 169.277 166.869 169.277ZM166.922 70.7843C161.292 70.7843 155.644 71.7757 150.208 73.7587C137.957 78.2203 128.166 87.179 122.642 99.0059C117.136 110.833 116.551 124.094 120.995 136.346C125.457 148.597 134.416 158.388 146.243 163.912C158.069 169.418 171.33 170.003 183.582 165.559C195.834 161.097 205.625 152.138 211.149 140.311C216.655 128.485 217.239 115.224 212.795 102.972C208.334 90.72 199.375 80.9292 187.548 75.4052C180.98 72.3246 173.968 70.7843 166.922 70.7843ZM166.922 153.714C153.006 153.714 139.904 145.11 134.876 131.282C128.449 113.63 137.585 94.0485 155.254 87.6216C172.906 81.1948 192.488 90.3305 198.915 108C205.342 125.652 196.206 145.233 178.536 151.66C174.712 153.059 170.782 153.714 166.922 153.714ZM166.869 86.3469C163.098 86.3469 159.273 86.9843 155.52 88.3475C138.275 94.6151 129.334 113.754 135.62 131.016C140.524 144.525 153.325 152.935 166.94 152.935C170.711 152.935 174.535 152.298 178.288 150.934C195.533 144.667 204.474 125.528 198.189 108.266C193.267 94.7567 180.466 86.3469 166.869 86.3469Z" fill="#F7F1EB"/>
<path d="M183.051 164.071C171.189 168.391 158.353 167.825 146.898 162.478C135.46 157.131 126.767 147.659 122.465 135.797C118.145 123.934 118.711 111.098 124.058 99.6433C129.405 88.2059 138.877 79.5128 150.74 75.2105C162.602 70.8905 175.438 71.457 186.893 76.8039C198.33 82.1508 207.024 91.6229 211.326 103.485C215.646 115.348 215.079 128.184 209.732 139.639C204.403 151.076 194.931 159.751 183.051 164.071ZM154.723 86.1698C136.257 92.88 126.714 113.365 133.424 131.831C140.134 150.297 160.619 159.84 179.085 153.13C197.551 146.42 207.094 125.935 200.384 107.469C193.656 89.0026 173.172 79.4597 154.723 86.1698Z" fill="#0D0D0D"/>
<path d="M133.424 131.813C132.327 128.803 131.672 125.723 131.406 122.677L119.703 122.748C120.004 127.157 120.925 131.53 122.465 135.797C126.024 145.605 132.575 153.767 141.179 159.327L146.951 149.146C140.931 145.074 136.08 139.161 133.424 131.813Z" fill="#D87355"/>
<path d="M170.021 84.1692C183.37 85.3731 195.498 94.0663 200.367 107.469C204.085 117.702 202.81 128.573 197.782 137.355L207.449 143.959C208.281 142.56 209.06 141.126 209.75 139.621C215.097 128.184 215.646 115.33 211.344 103.468C207.024 91.6053 198.348 82.1154 186.911 76.7863C181.546 74.2899 175.881 72.8381 170.144 72.4308L170.021 84.1692Z" fill="#8B865C"/>
<path d="M131.371 117.047C132.38 103.485 141.144 91.1095 154.723 86.1698C157.91 85.0013 161.168 84.3285 164.39 84.1161L164.479 72.4131C159.84 72.661 155.219 73.5816 150.722 75.2282C138.86 79.5482 129.37 88.2236 124.041 99.661C121.438 105.238 119.969 111.151 119.65 117.136L131.371 117.047Z" fill="#EFBC73"/>
<path d="M194.613 142.011C190.682 146.898 185.406 150.811 179.085 153.112C169.861 156.458 160.141 155.768 151.873 151.908L146.101 162.089C146.367 162.212 146.632 162.354 146.915 162.478C158.353 167.825 171.207 168.374 183.069 164.072C191.585 160.973 198.879 155.626 204.279 148.615L194.613 142.011Z" fill="#EFBC73"/>
<path d="M215.203 168.533V153.572L224.693 160.831L215.203 168.533Z" fill="#EFBC73"/>
<path d="M194.612 142.011C190.682 146.898 185.406 150.81 179.085 153.112C177.261 153.785 174.11 154.971 165.771 155.254C165.877 159.185 173.844 162.443 174.145 166.373C177.155 165.895 180.147 165.134 183.069 164.071C191.585 160.973 198.879 155.626 204.279 148.615L194.612 142.011Z" fill="#D3BBA3"/>
<path d="M216.389 166.373L164.726 166.904L163.274 155.308L216.389 155.715V166.373Z" fill="#EFBC73"/>
<path d="M156.281 127.228C156.104 127.228 155.945 127.104 155.91 126.927L150.651 103.928L144.242 103.981C144.03 103.981 143.853 103.804 143.853 103.591C143.853 103.379 144.03 103.202 144.242 103.202L150.97 103.131C151.147 103.131 151.306 103.255 151.342 103.432L156.6 126.413L180.148 124.43L180.13 109.629H173.101C172.889 109.629 172.712 109.452 172.712 109.239C172.712 109.027 172.889 108.85 173.101 108.85H180.519C180.626 108.85 180.714 108.885 180.803 108.956C180.874 109.027 180.909 109.133 180.909 109.239L180.927 124.784C180.927 124.979 180.767 125.156 180.573 125.174L156.335 127.21C156.317 127.228 156.299 127.228 156.281 127.228Z" fill="#363E44"/>
<path d="M174.234 125.723C174.039 125.723 173.862 125.563 173.845 125.369L172.729 109.664H152.28C152.068 109.664 151.891 109.487 151.891 109.275C151.891 109.062 152.068 108.885 152.28 108.885H173.101C173.314 108.885 173.473 109.045 173.491 109.239L174.624 125.298C174.641 125.51 174.482 125.705 174.27 125.723C174.252 125.723 174.234 125.723 174.234 125.723Z" fill="#363E44"/>
<path d="M154.21 137.921C151.838 137.921 149.908 135.992 149.908 133.619C149.908 131.247 151.838 129.317 154.21 129.317C155.361 129.317 156.441 129.759 157.255 130.574C158.07 131.388 158.512 132.468 158.512 133.619C158.512 135.974 156.582 137.921 154.21 137.921ZM154.21 130.096C152.262 130.096 150.687 131.672 150.687 133.619C150.687 135.567 152.262 137.142 154.21 137.142C155.148 137.142 156.034 136.771 156.706 136.115C157.379 135.443 157.733 134.557 157.733 133.619C157.733 132.681 157.361 131.795 156.706 131.123C156.034 130.45 155.148 130.096 154.21 130.096Z" fill="#363E44"/>
<path d="M182.484 137.886C181.334 137.886 180.254 137.443 179.439 136.629C178.625 135.814 178.182 134.734 178.182 133.584C178.182 131.211 180.112 129.281 182.484 129.281C184.857 129.281 186.787 131.211 186.787 133.584C186.787 134.734 186.344 135.814 185.53 136.629C184.715 137.443 183.635 137.886 182.484 137.886ZM182.484 130.06C181.546 130.06 180.661 130.432 179.988 131.087C179.315 131.76 178.961 132.645 178.961 133.584C178.961 134.522 179.333 135.407 179.988 136.08C180.661 136.753 181.546 137.107 182.484 137.107C183.423 137.107 184.308 136.735 184.981 136.08C185.654 135.407 186.008 134.522 186.008 133.584C186.008 131.636 184.414 130.06 182.484 130.06Z" fill="#363E44"/>
<path d="M158.123 133.973C157.91 133.973 157.733 133.796 157.733 133.584C157.733 133.371 157.91 133.194 158.123 133.194L178.537 133.176C178.749 133.176 178.926 133.353 178.926 133.566C178.926 133.778 178.749 133.955 178.537 133.955L158.123 133.973Z" fill="#363E44"/>
<path d="M155.361 130.255C155.325 130.255 155.29 130.255 155.237 130.237C155.024 130.167 154.918 129.954 154.971 129.742L155.909 126.714C155.98 126.502 156.193 126.395 156.405 126.449C156.618 126.519 156.724 126.732 156.671 126.944L155.732 129.972C155.679 130.149 155.52 130.255 155.361 130.255Z" fill="#363E44"/>
<path d="M168.321 126.218C168.126 126.218 167.967 126.077 167.931 125.882L165.612 109.416C165.576 109.204 165.736 109.009 165.948 108.974C166.161 108.938 166.355 109.098 166.391 109.31L168.71 125.776C168.746 125.988 168.586 126.183 168.374 126.218C168.356 126.218 168.338 126.218 168.321 126.218Z" fill="#363E44"/>
<path d="M162 126.75C161.823 126.75 161.646 126.626 161.61 126.431L158.477 109.346C158.441 109.133 158.583 108.938 158.795 108.885C159.008 108.85 159.203 108.992 159.256 109.204L162.389 126.289C162.425 126.502 162.283 126.696 162.071 126.75C162.053 126.75 162.035 126.75 162 126.75Z" fill="#363E44"/>
<path d="M154.387 118.906C154.174 118.906 154.015 118.747 153.997 118.534C153.98 118.322 154.157 118.145 154.369 118.127L180.502 116.906C180.732 116.906 180.909 117.065 180.909 117.277C180.926 117.49 180.749 117.667 180.537 117.685L154.405 118.906H154.387Z" fill="#363E44"/>
<path d="M108.726 72.7317C108.035 72.7317 107.345 72.7317 106.654 72.714C106.442 72.714 106.265 72.537 106.265 72.3245C106.265 72.1121 106.442 71.935 106.654 71.935C107.327 71.9527 108.017 71.9527 108.708 71.9527C109.31 71.9527 109.93 71.9527 110.549 71.935C110.762 71.935 110.939 72.1121 110.939 72.3245C110.939 72.537 110.762 72.714 110.549 72.714C109.947 72.7317 109.345 72.7317 108.726 72.7317ZM114.462 72.6078C114.25 72.6078 114.09 72.4485 114.073 72.236C114.055 72.0235 114.232 71.8465 114.444 71.8288C115.719 71.7757 117.029 71.7049 118.322 71.6163C118.534 71.5986 118.729 71.758 118.747 71.9704C118.764 72.1829 118.605 72.3776 118.393 72.3953C117.082 72.4839 115.772 72.5547 114.462 72.6078C114.48 72.6078 114.48 72.6078 114.462 72.6078ZM102.759 72.5901H102.741C101.431 72.5193 100.121 72.4308 98.8286 72.3245C98.6162 72.3068 98.4568 72.1121 98.4745 71.8996C98.4922 71.6872 98.6693 71.5278 98.8994 71.5455C100.174 71.6517 101.484 71.7403 102.777 71.7934C102.989 71.8111 103.166 71.9881 103.149 72.2006C103.149 72.4308 102.972 72.5901 102.759 72.5901ZM122.252 72.059C122.057 72.059 121.88 71.8996 121.863 71.7049C121.845 71.4924 122.004 71.2976 122.217 71.2799C123.492 71.156 124.784 71.0144 126.094 70.855C126.307 70.8373 126.501 70.979 126.537 71.1914C126.555 71.4039 126.413 71.5986 126.2 71.634C124.89 71.7934 123.598 71.935 122.305 72.059C122.27 72.059 122.27 72.059 122.252 72.059ZM95.0221 71.6872C94.9867 71.6872 94.969 71.6872 94.9335 71.6694C93.6765 71.3862 92.384 71.0675 91.127 70.7311C90.9145 70.678 90.7906 70.4655 90.8437 70.2531C90.8968 70.0406 91.1093 69.9167 91.3217 69.9698C92.5788 70.3062 93.8358 70.6249 95.0929 70.9081C95.3053 70.9613 95.4293 71.156 95.3939 71.3685C95.3585 71.5632 95.1991 71.6872 95.0221 71.6872ZM130.007 71.1383C129.812 71.1383 129.653 70.9967 129.617 70.8019C129.582 70.5894 129.741 70.3947 129.954 70.3593C130.981 70.2176 132.025 70.0583 133.052 69.8813C133.265 69.8458 133.459 69.9875 133.495 70.1999C133.53 70.4124 133.389 70.6072 133.176 70.6426C132.132 70.8019 131.087 70.979 130.06 71.1206C130.042 71.1383 130.025 71.1383 130.007 71.1383ZM87.4798 69.6511C87.4444 69.6511 87.409 69.6511 87.3558 69.6334C86.1342 69.2439 84.8772 68.819 83.6378 68.3586C83.4431 68.2878 83.3368 68.0576 83.4076 67.8629C83.4785 67.6681 83.7086 67.5619 83.9034 67.6327C85.125 68.0753 86.3644 68.5003 87.586 68.8898C87.7985 68.9606 87.9047 69.1731 87.8339 69.3855C87.7985 69.5449 87.6568 69.6511 87.4798 69.6511ZM80.1499 66.9776C80.0968 66.9776 80.0437 66.9599 80.0083 66.9422C78.8221 66.4642 77.6004 65.9331 76.4142 65.3842C76.2194 65.2957 76.1309 65.0655 76.2194 64.8708C76.308 64.676 76.5381 64.5875 76.7329 64.676C77.9191 65.2072 79.1231 65.7383 80.3093 66.2163C80.504 66.3049 80.6103 66.5173 80.5217 66.7298C80.4509 66.8891 80.3093 66.9776 80.1499 66.9776ZM73.0326 63.7554C72.9794 63.7554 72.9086 63.7376 72.8555 63.7199C71.7047 63.1534 70.5362 62.5514 69.3676 61.9317C69.1729 61.8255 69.1021 61.5953 69.2083 61.4006C69.3145 61.2058 69.5447 61.135 69.7394 61.2413C70.8903 61.8609 72.0588 62.4629 73.2096 63.0294C73.4044 63.118 73.4752 63.3658 73.3867 63.5606C73.3158 63.6845 73.1742 63.7554 73.0326 63.7554ZM66.1454 60.0904C66.0745 60.0904 66.0214 60.0727 65.9506 60.0373C64.8352 59.3999 63.7021 58.7272 62.5867 58.0367C62.4096 57.9304 62.3388 57.6826 62.4627 57.5055C62.569 57.3285 62.8168 57.2576 62.9939 57.3816C64.1093 58.0544 65.2424 58.7272 66.3401 59.3645C66.5349 59.4708 66.588 59.7186 66.4817 59.8957C66.4109 60.0196 66.2693 60.0904 66.1454 60.0904ZM59.4706 56.0183C59.3998 56.0183 59.329 56.0006 59.2581 55.9475C58.1781 55.257 57.0804 54.5311 56.0004 53.7875C55.8234 53.6635 55.7703 53.4157 55.8942 53.2386C56.0181 53.0616 56.266 53.0085 56.4431 53.1324C57.5231 53.876 58.6208 54.5842 59.7008 55.2747C59.8778 55.3986 59.9309 55.6288 59.8247 55.8058C59.7185 55.9652 59.5945 56.0183 59.4706 56.0183Z" fill="#8B865C"/>
<path d="M53.3449 22.3259C47.2367 22.3259 42.2793 27.2832 42.2793 33.3914C42.2793 39.4996 53.3449 52.9908 53.3449 52.9908C53.3449 52.9908 64.4104 39.4996 64.4104 33.3914C64.4104 27.2832 59.4531 22.3259 53.3449 22.3259ZM53.3449 40.9691C49.1665 40.9691 45.7672 37.5698 45.7672 33.3914C45.7672 29.2131 49.1665 25.8137 53.3449 25.8137C57.5232 25.8137 60.9226 29.2131 60.9226 33.3914C60.9226 37.5698 57.5232 40.9691 53.3449 40.9691Z" fill="#D87355"/>
<path d="M97.5717 54.8852C94.1547 54.8852 91.375 57.6649 91.375 61.0819C91.375 64.499 97.5717 72.0413 97.5717 72.0413C97.5717 72.0413 103.768 64.499 103.768 61.0819C103.751 57.6649 100.989 54.8852 97.5717 54.8852ZM97.5717 65.3134C95.2347 65.3134 93.3403 63.419 93.3403 61.0819C93.3403 58.7449 95.2347 56.8504 97.5717 56.8504C99.9088 56.8504 101.803 58.7449 101.803 61.0819C101.803 63.419 99.9088 65.3134 97.5717 65.3134Z" fill="#D87355"/>
<path d="M137.974 44.5632C132.946 44.5632 128.856 48.653 128.856 53.6812C128.856 58.7094 137.974 69.8281 137.974 69.8281C137.974 69.8281 147.093 58.7094 147.093 53.6812C147.093 48.653 143.003 44.5632 137.974 44.5632ZM137.974 59.9134C134.522 59.9134 131.742 57.116 131.742 53.6812C131.742 50.2288 134.54 47.4491 137.974 47.4491C141.427 47.4491 144.207 50.2465 144.207 53.6812C144.207 57.1337 141.409 59.9134 137.974 59.9134Z" fill="#D87355"/>
<path d="M248.878 270.974L245.249 269.717C245.55 267.84 245.674 265.963 245.674 264.087L249.445 263.378L247.019 250.613L243.248 251.321C242.575 249.569 241.743 247.869 240.805 246.24L243.708 243.726L235.228 233.882L232.324 236.378C230.872 235.21 229.314 234.148 227.668 233.209L228.925 229.58L216.673 225.295L215.416 228.925C213.539 228.624 211.662 228.5 209.786 228.5L209.078 224.729L196.312 227.154L197.021 230.925C195.268 231.598 193.568 232.43 191.939 233.369L189.425 230.465L179.581 238.946L182.078 241.849C180.909 243.301 179.847 244.859 178.908 246.506L175.279 245.249L170.994 257.5L174.624 258.757C174.323 260.634 174.199 262.511 174.199 264.388L170.428 265.096L172.853 277.861L176.624 277.153C177.297 278.906 178.129 280.605 179.068 282.234L176.164 284.748L184.645 294.592L187.548 292.096C189 293.264 190.558 294.327 192.205 295.265L190.948 298.894L203.2 303.179L204.474 299.55C206.351 299.85 208.228 299.974 210.104 299.974L210.813 303.746L223.578 301.32L222.87 297.549C224.623 296.876 226.322 296.044 227.951 295.106L230.465 298.009L240.309 289.529L237.813 286.625C238.981 285.173 240.043 283.615 240.982 281.969L244.611 283.226L248.878 270.974ZM230.607 272.231C226.428 283.049 214.407 288.856 203.341 285.368C191.125 281.526 184.698 268.212 189.301 256.261C193.48 245.443 205.501 239.636 216.567 243.124C228.783 246.966 235.21 260.28 230.607 272.231Z" fill="#0D0D0D"/>
<path d="M209.963 293.052C206.794 293.052 203.589 292.521 200.455 291.441C193.196 288.909 187.354 283.686 184.007 276.763C180.661 269.841 180.219 262.015 182.768 254.756C185.052 248.205 189.638 242.699 195.639 239.264C201.588 235.865 208.564 234.679 215.274 235.953C215.487 235.989 215.628 236.201 215.593 236.414C215.558 236.626 215.345 236.768 215.133 236.732C201.641 234.183 188.044 242.044 183.512 255.022C181.051 262.086 181.476 269.699 184.716 276.427C187.973 283.172 193.639 288.236 200.703 290.715C212.76 294.929 226.127 290.467 233.227 279.879C233.351 279.702 233.581 279.649 233.776 279.773C233.953 279.897 234.006 280.127 233.882 280.322C228.429 288.449 219.364 293.052 209.963 293.052Z" fill="#311602"/>
<path d="M300.736 135.62C300.559 135.62 300.399 135.496 300.364 135.319L300.116 134.274C299.638 134.292 299.142 134.274 298.664 134.239L298.363 135.266C298.328 135.372 298.275 135.443 298.168 135.496C298.08 135.549 297.974 135.549 297.867 135.531L293.353 134.221C293.14 134.168 293.034 133.938 293.087 133.743L293.388 132.716C292.963 132.486 292.538 132.238 292.149 131.972L291.388 132.716C291.317 132.787 291.21 132.822 291.104 132.822C290.998 132.822 290.909 132.769 290.839 132.698L287.581 129.317C287.439 129.157 287.439 128.91 287.599 128.768L288.36 128.024C288.112 127.617 287.864 127.192 287.652 126.75L286.625 126.997C286.519 127.015 286.412 126.997 286.324 126.944C286.235 126.891 286.165 126.803 286.147 126.696L285.014 122.129C284.961 121.916 285.085 121.704 285.297 121.65L286.342 121.403C286.324 120.925 286.342 120.429 286.377 119.951L285.35 119.65C285.138 119.597 285.031 119.367 285.085 119.172L286.395 114.657C286.43 114.551 286.483 114.48 286.589 114.427C286.678 114.374 286.784 114.374 286.89 114.391L287.917 114.692C288.147 114.268 288.395 113.843 288.661 113.453L287.917 112.692C287.847 112.621 287.811 112.515 287.811 112.409C287.811 112.302 287.864 112.214 287.935 112.143L291.317 108.885C291.387 108.814 291.511 108.779 291.6 108.779C291.706 108.779 291.795 108.832 291.866 108.903L292.609 109.664C293.016 109.416 293.441 109.169 293.884 108.956L293.636 107.929C293.583 107.717 293.707 107.504 293.919 107.451L298.487 106.318C298.7 106.265 298.912 106.389 298.965 106.601L299.213 107.646C299.691 107.628 300.187 107.646 300.665 107.681L300.966 106.654C301.019 106.442 301.231 106.336 301.444 106.389L305.959 107.699C306.171 107.752 306.277 107.982 306.224 108.177L305.923 109.204C306.348 109.434 306.773 109.682 307.163 109.948L307.924 109.204C307.995 109.133 308.101 109.098 308.207 109.098C308.313 109.098 308.402 109.151 308.473 109.222L311.73 112.603C311.872 112.763 311.872 113.01 311.713 113.152L310.951 113.896C311.199 114.303 311.447 114.728 311.66 115.17L312.687 114.923C312.793 114.905 312.899 114.905 312.988 114.976C313.076 115.029 313.147 115.117 313.165 115.224L314.298 119.791C314.351 120.004 314.227 120.216 314.014 120.27L312.97 120.517C312.987 120.995 312.97 121.491 312.934 121.969L313.961 122.27C314.174 122.323 314.28 122.553 314.227 122.748L312.917 127.263C312.881 127.369 312.828 127.44 312.722 127.493C312.633 127.546 312.527 127.546 312.421 127.529L311.394 127.228C311.164 127.652 310.916 128.077 310.65 128.467L311.394 129.228C311.465 129.299 311.5 129.405 311.5 129.511C311.5 129.618 311.447 129.706 311.376 129.777L307.995 133.035C307.924 133.106 307.818 133.141 307.711 133.141C307.605 133.141 307.517 133.088 307.446 133.017L306.702 132.256C306.295 132.504 305.87 132.751 305.427 132.964L305.675 133.991C305.693 134.097 305.675 134.203 305.622 134.292C305.569 134.38 305.481 134.451 305.374 134.469L300.807 135.602C300.807 135.62 300.771 135.62 300.736 135.62ZM300.417 133.495C300.594 133.495 300.753 133.619 300.789 133.796L301.037 134.77L304.843 133.831L304.613 132.858C304.56 132.681 304.666 132.486 304.826 132.415C305.427 132.15 306.012 131.813 306.561 131.459C306.72 131.353 306.932 131.37 307.056 131.512L307.747 132.238L310.562 129.529L309.871 128.803C309.747 128.662 309.73 128.449 309.836 128.308C310.226 127.776 310.562 127.21 310.863 126.608C310.951 126.449 311.146 126.36 311.323 126.413L312.279 126.696L313.359 122.943L312.403 122.66C312.226 122.607 312.102 122.43 312.12 122.252C312.191 121.597 312.191 120.942 312.155 120.27C312.138 120.075 312.262 119.915 312.456 119.862L313.43 119.614L312.492 115.808L311.518 116.038C311.341 116.091 311.146 115.985 311.075 115.826C310.81 115.224 310.473 114.639 310.119 114.091C310.013 113.931 310.031 113.719 310.172 113.595L310.898 112.904L308.189 110.089L307.464 110.78C307.322 110.904 307.109 110.921 306.968 110.815C306.437 110.426 305.87 110.089 305.268 109.788C305.109 109.7 305.02 109.505 305.073 109.328L305.357 108.372L301.603 107.292L301.32 108.248C301.267 108.425 301.09 108.549 300.913 108.531C300.258 108.46 299.585 108.46 298.93 108.496C298.753 108.513 298.576 108.39 298.523 108.195L298.275 107.221L294.468 108.159L294.698 109.133C294.751 109.31 294.645 109.505 294.486 109.576C293.884 109.841 293.3 110.16 292.751 110.532C292.591 110.638 292.379 110.62 292.255 110.479L291.565 109.753L288.749 112.462L289.44 113.188C289.564 113.329 289.582 113.542 289.475 113.683C289.086 114.214 288.749 114.781 288.448 115.383C288.36 115.542 288.165 115.631 287.988 115.578L287.032 115.294L285.952 119.048L286.908 119.331C287.085 119.384 287.209 119.561 287.191 119.738C287.121 120.393 287.121 121.049 287.156 121.721C287.174 121.916 287.05 122.075 286.855 122.129L285.881 122.376L286.82 126.183L287.793 125.953C287.97 125.9 288.165 126.006 288.236 126.165C288.502 126.767 288.838 127.351 289.192 127.9C289.298 128.06 289.281 128.272 289.139 128.396L288.413 129.087L291.122 131.902L291.848 131.211C291.989 131.087 292.202 131.07 292.344 131.176C292.875 131.565 293.441 131.902 294.043 132.203C294.203 132.291 294.291 132.486 294.238 132.663L293.955 133.619L297.708 134.699L297.991 133.743C298.045 133.566 298.222 133.442 298.399 133.46C299.054 133.53 299.709 133.53 300.382 133.495C300.399 133.495 300.399 133.495 300.417 133.495ZM299.656 129.635C299.603 129.635 299.532 129.635 299.479 129.635C297.071 129.582 294.84 128.573 293.229 126.767C290.184 123.386 290.29 118.198 293.459 114.94C295.141 113.205 297.407 112.285 299.833 112.32C302.241 112.373 304.471 113.382 306.083 115.188C309.128 118.57 309.022 123.757 305.852 127.015C304.188 128.715 301.993 129.635 299.656 129.635ZM299.638 113.117C297.496 113.117 295.513 113.949 294.008 115.489C291.122 118.446 291.033 123.173 293.795 126.254C295.265 127.883 297.283 128.821 299.496 128.856C301.692 128.91 303.746 128.06 305.286 126.484C308.172 123.527 308.26 118.8 305.498 115.719C304.029 114.09 302.01 113.152 299.797 113.117C299.744 113.117 299.691 113.117 299.638 113.117Z" fill="#F7F1EB"/>
<path d="M83.9215 118.676H26.1504V147.482H83.9215V118.676Z" fill="#EFBC73"/>
<path d="M82.1335 120.995H27.9564C27.7439 120.995 27.5669 120.818 27.5669 120.606C27.5669 120.393 27.7439 120.216 27.9564 120.216H82.1335C82.3459 120.216 82.523 120.393 82.523 120.606C82.523 120.818 82.3459 120.995 82.1335 120.995Z" fill="#D87355"/>
<path d="M82.1335 145.924H27.9564C27.7439 145.924 27.5669 145.747 27.5669 145.534C27.5669 145.322 27.7439 145.145 27.9564 145.145H82.1335C82.3459 145.145 82.523 145.322 82.523 145.534C82.523 145.747 82.3459 145.924 82.1335 145.924Z" fill="#D87355"/>
<path d="M27.9564 145.074C27.7439 145.074 27.5669 144.897 27.5669 144.685V121.19C27.5669 120.978 27.7439 120.801 27.9564 120.801C28.1689 120.801 28.3459 120.978 28.3459 121.19V144.685C28.3459 144.897 28.1689 145.074 27.9564 145.074Z" fill="#D87355"/>
<path d="M31.8158 145.074C31.6033 145.074 31.4263 144.897 31.4263 144.685V121.19C31.4263 120.978 31.6033 120.801 31.8158 120.801C32.0282 120.801 32.2053 120.978 32.2053 121.19V144.685C32.2053 144.897 32.0282 145.074 31.8158 145.074Z" fill="#D87355"/>
<path d="M35.6932 145.074C35.4808 145.074 35.3037 144.897 35.3037 144.685V121.19C35.3037 120.978 35.4808 120.801 35.6932 120.801C35.9057 120.801 36.0827 120.978 36.0827 121.19V144.685C36.0827 144.897 35.9057 145.074 35.6932 145.074Z" fill="#D87355"/>
<path d="M39.5531 145.074C39.3406 145.074 39.1636 144.897 39.1636 144.685V121.19C39.1636 120.978 39.3406 120.801 39.5531 120.801C39.7655 120.801 39.9426 120.978 39.9426 121.19V144.685C39.9426 144.897 39.7832 145.074 39.5531 145.074Z" fill="#D87355"/>
<path d="M43.4305 145.074C43.2181 145.074 43.041 144.897 43.041 144.685V121.19C43.041 120.978 43.2181 120.801 43.4305 120.801C43.643 120.801 43.82 120.978 43.82 121.19V144.685C43.82 144.897 43.643 145.074 43.4305 145.074Z" fill="#D87355"/>
<path d="M47.308 145.074C47.0955 145.074 46.9185 144.897 46.9185 144.685V121.19C46.9185 120.978 47.0955 120.801 47.308 120.801C47.5204 120.801 47.6975 120.978 47.6975 121.19V144.685C47.6975 144.897 47.5204 145.074 47.308 145.074Z" fill="#D87355"/>
<path d="M51.1673 145.074C50.9549 145.074 50.7778 144.897 50.7778 144.685V121.19C50.7778 120.978 50.9549 120.801 51.1673 120.801C51.3798 120.801 51.5569 120.978 51.5569 121.19V144.685C51.5569 144.897 51.3798 145.074 51.1673 145.074Z" fill="#D87355"/>
<path d="M55.0448 145.074C54.8323 145.074 54.6553 144.897 54.6553 144.685V121.19C54.6553 120.978 54.8323 120.801 55.0448 120.801C55.2572 120.801 55.4343 120.978 55.4343 121.19V144.685C55.4343 144.897 55.2572 145.074 55.0448 145.074Z" fill="#D87355"/>
<path d="M58.9046 145.074C58.6922 145.074 58.5151 144.897 58.5151 144.685V121.19C58.5151 120.978 58.6922 120.801 58.9046 120.801C59.1171 120.801 59.2942 120.978 59.2942 121.19V144.685C59.2942 144.897 59.1171 145.074 58.9046 145.074Z" fill="#D87355"/>
<path d="M62.7821 145.074C62.5696 145.074 62.3926 144.897 62.3926 144.685V121.19C62.3926 120.978 62.5696 120.801 62.7821 120.801C62.9945 120.801 63.1716 120.978 63.1716 121.19V144.685C63.1716 144.897 62.9945 145.074 62.7821 145.074Z" fill="#D87355"/>
<path d="M66.6415 145.074C66.429 145.074 66.252 144.897 66.252 144.685V121.19C66.252 120.978 66.429 120.801 66.6415 120.801C66.8539 120.801 67.031 120.978 67.031 121.19V144.685C67.031 144.897 66.8716 145.074 66.6415 145.074Z" fill="#D87355"/>
<path d="M70.5189 145.074C70.3064 145.074 70.1294 144.897 70.1294 144.685V121.19C70.1294 120.978 70.3064 120.801 70.5189 120.801C70.7314 120.801 70.9084 120.978 70.9084 121.19V144.685C70.9084 144.897 70.7314 145.074 70.5189 145.074Z" fill="#D87355"/>
<path d="M74.3963 145.074C74.1839 145.074 74.0068 144.897 74.0068 144.685V121.19C74.0068 120.978 74.1839 120.801 74.3963 120.801C74.6088 120.801 74.7859 120.978 74.7859 121.19V144.685C74.7859 144.897 74.6088 145.074 74.3963 145.074Z" fill="#D87355"/>
<path d="M78.2562 145.074C78.0438 145.074 77.8667 144.897 77.8667 144.685V121.19C77.8667 120.978 78.0438 120.801 78.2562 120.801C78.4687 120.801 78.6457 120.978 78.6457 121.19V144.685C78.6457 144.897 78.4687 145.074 78.2562 145.074Z" fill="#D87355"/>
<path d="M82.1332 145.074C81.9207 145.074 81.7437 144.897 81.7437 144.685V121.19C81.7437 120.978 81.9207 120.801 82.1332 120.801C82.3456 120.801 82.5227 120.978 82.5227 121.19V144.685C82.5227 144.897 82.3456 145.074 82.1332 145.074Z" fill="#D87355"/>
<path d="M38.5477 154.072C39.3234 152.213 38.4452 150.077 36.5862 149.301C34.7272 148.526 32.5914 149.404 31.8157 151.263C31.04 153.122 31.9181 155.258 33.7771 156.033C35.6361 156.809 37.772 155.931 38.5477 154.072Z" fill="#363E44"/>
<path d="M35.1797 154.989C33.9049 154.989 32.8604 153.944 32.8604 152.669C32.8604 151.395 33.9049 150.35 35.1797 150.35C36.4544 150.35 37.499 151.395 37.499 152.669C37.499 153.944 36.4544 154.989 35.1797 154.989ZM35.1797 151.129C34.3299 151.129 33.6394 151.82 33.6394 152.669C33.6394 153.519 34.3299 154.21 35.1797 154.21C36.0295 154.21 36.72 153.519 36.72 152.669C36.72 151.82 36.0295 151.129 35.1797 151.129Z" fill="#EFBC73"/>
<path d="M46.7328 154.08C47.5085 152.221 46.6303 150.085 44.7713 149.309C42.9123 148.534 40.7764 149.412 40.0007 151.271C39.225 153.13 40.1032 155.266 41.9622 156.041C43.8212 156.817 45.9571 155.939 46.7328 154.08Z" fill="#363E44"/>
<path d="M43.3594 154.989C42.0846 154.989 41.04 153.944 41.04 152.669C41.04 151.395 42.0846 150.35 43.3594 150.35C44.6341 150.35 45.6787 151.395 45.6787 152.669C45.6787 153.944 44.6518 154.989 43.3594 154.989ZM43.3594 151.129C42.5095 151.129 41.8191 151.82 41.8191 152.669C41.8191 153.519 42.5095 154.21 43.3594 154.21C44.2092 154.21 44.8997 153.519 44.8997 152.669C44.8997 151.82 44.2092 151.129 43.3594 151.129Z" fill="#EFBC73"/>
<path d="M55.0388 153.728C55.6256 151.801 54.5392 149.764 52.6123 149.177C50.6854 148.59 48.6477 149.676 48.061 151.603C47.4742 153.53 48.5606 155.568 50.4875 156.155C52.4143 156.741 54.4521 155.655 55.0388 153.728Z" fill="#363E44"/>
<path d="M51.5566 154.989C50.2819 154.989 49.2373 153.944 49.2373 152.669C49.2373 151.395 50.2819 150.35 51.5566 150.35C52.8314 150.35 53.876 151.395 53.876 152.669C53.876 153.944 52.8314 154.989 51.5566 154.989ZM51.5566 151.129C50.7068 151.129 50.0163 151.82 50.0163 152.669C50.0163 153.519 50.7068 154.21 51.5566 154.21C52.4065 154.21 53.097 153.519 53.097 152.669C53.097 151.82 52.4065 151.129 51.5566 151.129Z" fill="#EFBC73"/>
<path d="M78.5317 154.612C79.5978 152.903 79.0768 150.653 77.3678 149.587C75.6589 148.521 73.4092 149.042 72.3431 150.751C71.2769 152.46 71.798 154.709 73.5069 155.776C75.2158 156.842 77.4655 156.321 78.5317 154.612Z" fill="#363E44"/>
<path d="M75.4404 154.989C74.1657 154.989 73.1211 153.944 73.1211 152.669C73.1211 151.395 74.1657 150.35 75.4404 150.35C76.7152 150.35 77.7598 151.395 77.7598 152.669C77.7598 153.944 76.7329 154.989 75.4404 154.989ZM75.4404 151.129C74.5906 151.129 73.9001 151.82 73.9001 152.669C73.9001 153.519 74.5906 154.21 75.4404 154.21C76.2903 154.21 76.9808 153.519 76.9808 152.669C76.9808 151.82 76.2903 151.129 75.4404 151.129Z" fill="#EFBC73"/>
<path d="M96.3931 155.776C98.1109 154.724 98.6508 152.479 97.5989 150.761C96.547 149.044 94.3018 148.504 92.584 149.556C90.8662 150.608 90.3263 152.853 91.3782 154.571C92.4301 156.288 94.6753 156.828 96.3931 155.776Z" fill="#363E44"/>
<path d="M94.4912 154.989C93.2165 154.989 92.1719 153.944 92.1719 152.669C92.1719 151.395 93.2165 150.35 94.4912 150.35C95.766 150.35 96.8106 151.395 96.8106 152.669C96.8106 153.944 95.766 154.989 94.4912 154.989ZM94.4912 151.129C93.6414 151.129 92.9509 151.82 92.9509 152.669C92.9509 153.519 93.6414 154.21 94.4912 154.21C95.3411 154.21 96.0316 153.519 96.0316 152.669C96.0316 151.82 95.3411 151.129 94.4912 151.129Z" fill="#EFBC73"/>
<path d="M70.8019 149.713H56.6025V152.669H70.8019V149.713Z" fill="#363E44"/>
<path d="M85.0191 148.951H30.2401C30.0276 148.951 29.8506 148.774 29.8506 148.562C29.8506 148.349 30.0276 148.172 30.2401 148.172H84.6296V136.204C84.6296 135.991 84.8067 135.814 85.0191 135.814C85.2316 135.814 85.4086 135.991 85.4086 136.204V148.562C85.4086 148.774 85.2316 148.951 85.0191 148.951Z" fill="#D87355"/>
<path d="M98.4041 138.275V131.016L86.1523 127.989V148.562H97.3418H98.4041H104.689V139.833L98.4041 138.275Z" fill="#363E44"/>
<path d="M98.4039 130.202C98.3685 130.202 98.3331 130.202 98.3154 130.184L86.0636 127.157C85.8512 127.104 85.7272 126.891 85.7803 126.679C85.8334 126.466 86.0459 126.342 86.2584 126.395L98.5102 129.423C98.7226 129.476 98.8466 129.688 98.7934 129.901C98.7403 130.096 98.581 130.202 98.4039 130.202Z" fill="#363E44"/>
<path d="M103.485 143.852C103.273 143.852 103.096 143.675 103.096 143.463V140.719C103.096 140.506 103.273 140.329 103.485 140.329C103.698 140.329 103.875 140.506 103.875 140.719V143.463C103.892 143.675 103.715 143.852 103.485 143.852Z" fill="#E6D0BE"/>
<path d="M97.8372 132.911H90.8438V138.275H97.8372V132.911Z" fill="#EFBC73"/>
<path d="M311.624 211.485H210.44V286.519H311.624V211.485Z" fill="#EFBC73"/>
<path d="M235.475 282.553C235.262 282.553 235.085 282.376 235.085 282.163V215.858C235.085 215.646 235.262 215.469 235.475 215.469C235.687 215.469 235.864 215.646 235.864 215.858V282.163C235.864 282.376 235.705 282.553 235.475 282.553Z" fill="#E0AA63"/>
<path d="M280.658 282.553C280.446 282.553 280.269 282.376 280.269 282.163V238.043C280.269 237.83 280.446 237.653 280.658 237.653C280.871 237.653 281.048 237.83 281.048 238.043V282.163C281.048 282.376 280.871 282.553 280.658 282.553Z" fill="#E0AA63"/>
<path d="M290.254 235.759C290.148 235.759 290.059 235.723 289.971 235.652L285.049 230.73L280.977 234.82C280.835 234.962 280.569 234.962 280.428 234.82L276.214 230.607L271.345 235.475C271.239 235.582 271.062 235.617 270.92 235.564C270.779 235.511 270.672 235.369 270.672 235.21V212.512C270.672 212.3 270.849 212.123 271.062 212.123C271.274 212.123 271.451 212.3 271.451 212.512V234.236L275.913 229.757C276.055 229.615 276.32 229.615 276.462 229.757L280.676 233.971L284.748 229.881C284.889 229.739 285.155 229.739 285.297 229.881L289.829 234.413V212.459C289.829 212.247 290.006 212.07 290.219 212.07C290.431 212.07 290.608 212.247 290.608 212.459V235.352C290.608 235.511 290.52 235.652 290.36 235.706C290.343 235.759 290.289 235.759 290.254 235.759Z" fill="#F7F1EB"/>
<path d="M303.356 162.991H237.989V211.468H303.356V162.991Z" fill="#E0AA63"/>
<path d="M254.154 209.042C253.941 209.042 253.764 208.865 253.764 208.652V165.807C253.764 165.594 253.941 165.417 254.154 165.417C254.366 165.417 254.543 165.594 254.543 165.807V208.652C254.543 208.865 254.366 209.042 254.154 209.042Z" fill="#EFBC73"/>
<path d="M283.349 209.042C283.137 209.042 282.959 208.865 282.959 208.652V180.148C282.959 179.935 283.137 179.758 283.349 179.758C283.561 179.758 283.738 179.935 283.738 180.148V208.652C283.738 208.865 283.561 209.042 283.349 209.042Z" fill="#EFBC73"/>
<path d="M289.546 178.82C289.439 178.82 289.351 178.784 289.262 178.713L286.182 175.633L283.65 178.182C283.508 178.324 283.243 178.324 283.101 178.182L280.481 175.544L277.435 178.59C277.329 178.696 277.152 178.731 277.011 178.678C276.869 178.625 276.763 178.483 276.763 178.324V163.664C276.763 163.452 276.94 163.275 277.152 163.275C277.365 163.275 277.542 163.452 277.542 163.664V177.386L280.197 174.73C280.339 174.588 280.605 174.588 280.746 174.73L283.367 177.368L285.898 174.818C285.969 174.748 286.075 174.712 286.182 174.712C286.288 174.712 286.376 174.748 286.465 174.818L289.156 177.509V163.664C289.156 163.452 289.333 163.275 289.546 163.275C289.758 163.275 289.935 163.452 289.935 163.664V178.448C289.935 178.607 289.847 178.749 289.687 178.802C289.634 178.802 289.599 178.82 289.546 178.82Z" fill="#F7F1EB"/>
<path d="M250.4 154.706C242.504 154.706 236.095 161.115 236.095 169.029C236.095 176.943 250.4 194.4 250.4 194.4C250.4 194.4 264.706 176.943 264.706 169.029C264.706 161.132 258.314 154.706 250.4 154.706ZM250.4 178.837C245 178.837 240.609 174.447 240.609 169.029C240.609 163.611 244.983 159.22 250.4 159.22C255.8 159.22 260.191 163.611 260.191 169.029C260.191 174.447 255.818 178.837 250.4 178.837Z" fill="#D87355"/>
<path d="M224.711 62.4629H229.562C230.005 64.8177 230.607 67.1016 231.403 69.297L227.207 71.7049L235.405 85.8334L239.601 83.4256C241.141 85.2137 242.823 86.8957 244.629 88.436L242.203 92.6144L256.403 100.776L258.828 96.598C261.041 97.377 263.343 97.9967 265.716 98.4216V103.237H282.128V98.4216C284.483 97.9967 286.784 97.377 289.015 96.598L291.441 100.776L305.64 92.6144L303.215 88.436C305.02 86.8957 306.702 85.2315 308.243 83.4256L312.439 85.8334L320.636 71.7049L316.44 69.297C317.219 67.0839 317.839 64.8 318.281 62.4629H323.133V46.1567H318.281C317.839 43.8019 317.237 41.518 316.44 39.3226L320.636 36.9147L312.439 22.7862L308.243 25.1941C306.702 23.4059 305.02 21.7239 303.215 20.1836L305.64 16.0052L291.423 7.86096L288.998 12.0393C286.784 11.2603 284.483 10.6406 282.11 10.2157V5.38227H265.698V10.198C263.343 10.6229 261.041 11.2426 258.811 12.0216L256.385 7.84326L242.203 16.0052L244.629 20.1836C242.823 21.7239 241.141 23.3882 239.601 25.1941L235.405 22.7862L227.207 36.9147L231.403 39.3226C230.624 41.5357 230.005 43.8197 229.562 46.1567H224.711V62.4629ZM289.883 16.2354C300.152 20.0951 308.314 28.2216 312.209 38.4374C325.399 73.139 292.857 105.504 257.961 92.3842C247.692 88.5246 239.53 80.398 235.635 70.2C222.445 35.4806 254.986 3.11604 289.883 16.2354Z" fill="#D3BBA3"/>
<path d="M323.133 62.8524H318.282C318.069 62.8524 317.892 62.6754 317.892 62.4629C317.892 62.2505 318.069 62.0734 318.282 62.0734H322.743V46.5462H318.282C318.087 46.5462 317.927 46.4046 317.892 46.2275C317.467 43.9259 316.847 41.642 316.068 39.4465C315.998 39.2695 316.086 39.0747 316.246 38.9685L320.105 36.7554L312.297 23.2997L308.438 25.5128C308.278 25.6013 308.066 25.5659 307.942 25.4242C306.419 23.6538 304.737 21.9895 302.949 20.4669C302.807 20.3429 302.772 20.1305 302.861 19.9711L305.091 16.1292L291.565 8.35671L289.334 12.2164C289.246 12.3757 289.051 12.4465 288.874 12.3934C286.661 11.6144 284.359 10.9947 282.057 10.5875C281.88 10.5521 281.739 10.3928 281.739 10.198V5.77179H266.105V10.198C266.105 10.4105 265.928 10.5875 265.716 10.5875C265.503 10.5875 265.326 10.4105 265.326 10.198V5.38228C265.326 5.16982 265.503 4.99277 265.716 4.99277H282.11C282.323 4.99277 282.5 5.16982 282.5 5.38228V9.87933C284.642 10.2865 286.749 10.8531 288.821 11.5613L291.087 7.66622C291.193 7.47146 291.441 7.41835 291.618 7.52458L305.817 15.6865C305.906 15.7397 305.977 15.8282 305.994 15.9167C306.03 16.0229 306.012 16.1292 305.959 16.2177L303.693 20.1128C305.339 21.5292 306.88 23.0695 308.314 24.6983L312.244 22.4498C312.439 22.3436 312.669 22.4144 312.775 22.5915L320.973 36.72C321.026 36.8085 321.044 36.9147 321.008 37.021C320.973 37.1272 320.92 37.198 320.831 37.2511L316.918 39.482C317.627 41.518 318.193 43.6249 318.6 45.7495H323.115C323.327 45.7495 323.505 45.9265 323.505 46.139V62.4452C323.522 62.6754 323.345 62.8524 323.133 62.8524ZM315.201 54.7082C314.988 54.7082 314.811 54.5311 314.811 54.3187C314.811 49.0603 313.802 43.7665 311.837 38.579C307.977 28.4518 299.939 20.4492 289.741 16.6072C284.076 14.4826 278.286 13.4911 272.567 13.6682C272.355 13.6682 272.178 13.5088 272.16 13.2964C272.16 13.0839 272.32 12.9069 272.532 12.8892C278.357 12.6944 284.235 13.7036 290.007 15.8813C300.4 19.7941 308.615 27.9561 312.563 38.2957C314.564 43.5718 315.59 48.9718 315.59 54.3187C315.59 54.5311 315.413 54.7082 315.201 54.7082Z" fill="#D3BBA3"/>
<path d="M236.98 54.3187C236.98 65.4374 241.956 75.4052 249.817 82.1508C255.535 87.0551 262.794 90.2419 270.761 90.9147C271.806 91.0033 272.851 91.0564 273.931 91.0564C274.993 91.0564 276.055 91.021 277.1 90.9147C283.987 90.3305 290.343 87.8695 295.619 84.0452C304.861 77.3705 310.863 66.5351 310.863 54.3187C310.863 34.0288 294.327 17.581 273.931 17.581C253.517 17.581 236.98 34.0288 236.98 54.3187Z" fill="#776E42"/>
<path d="M249.816 82.5757C255.535 87.5154 262.794 90.72 270.761 91.3928H277.1C283.987 90.8085 290.343 88.3298 295.619 84.4879V63.4013H256.403L249.816 82.5757Z" fill="#776E42"/>
<path d="M260.244 47.0066C253.658 50.5653 235.263 62.0026 230.536 54.2302C226.641 47.8033 245.036 37.4636 251.357 33.4977C254.331 38.0125 257.288 42.5095 260.244 47.0066Z" fill="#E2A18D"/>
<path d="M238.538 41.9253C234.201 37.2866 224.374 26.7875 223.401 25.7075C221.542 23.6892 212.459 14.0046 211.043 15.3148C210.14 16.1469 214.584 21.0689 215.292 21.9895C214.194 21.1397 209.272 15.8813 208.369 16.5541C207.395 17.28 213.079 24.5213 213.096 24.5921C212.388 23.8839 207.325 18.6433 206.581 19.4046C205.713 20.2898 210.511 26.2033 211.344 27.1239C211.167 27.1594 207.696 23.1049 206.74 23.8662C205.89 24.539 209.679 29.3016 210.104 30.0453C211.273 31.922 213.858 35.0557 216.602 38.7384C223.064 47.3961 226.304 50.9902 230.182 54.602C231.687 56.0007 235.121 57.9482 239.353 56.2131C239.016 51.7161 238.839 46.4046 238.538 41.9253Z" fill="#E2A18D"/>
<path d="M218.107 28.204C218.001 28.204 217.912 28.1686 217.841 28.0977C212.955 23.3528 213.504 22.6092 213.751 22.2551C213.999 21.9187 214.495 21.2459 219.736 23.9194C219.93 24.0256 220.001 24.2558 219.913 24.4505C219.806 24.6453 219.576 24.7161 219.382 24.6276C215.504 22.6446 214.566 22.6977 214.406 22.7331C214.424 22.9279 214.69 23.9371 218.39 27.5489C218.549 27.6905 218.549 27.9384 218.39 28.0977C218.302 28.1686 218.213 28.204 218.107 28.204Z" fill="#363E44"/>
<path d="M302.418 38.1718C308.26 42.8636 325.912 55.381 320.583 62.7463C316.157 68.8367 299.496 55.8767 293.406 51.5922C296.416 47.1128 299.408 42.6512 302.418 38.1718Z" fill="#E2A18D"/>
<path d="M306.915 38.5968C306.915 38.5968 285.315 25.7253 271.7 27.3718C257.235 29.1069 256.899 30.4525 241.548 38.4728L249.746 54.7436L252.26 52.8492C252.26 53.9823 249.215 72.8027 249.215 72.8027H304.436L297.443 54.2479L300.594 57.3994L306.915 38.5968Z" fill="#FFBF23"/>
<path d="M237.742 84.3994H289.21L281.101 49.1843H229.633L237.742 84.3994Z" fill="#363E44"/>
<path d="M259.23 70.4237C260.669 70.1433 261.591 68.6555 261.288 67.1005C260.985 65.5456 259.572 64.5125 258.133 64.7929C256.693 65.0733 255.771 66.5612 256.074 68.1161C256.377 69.671 257.79 70.7042 259.23 70.4237Z" fill="#F2E6DC"/>
<path d="M305.923 57.0807C300.293 61.5777 286.501 71.5102 285.191 72.5371C282.747 74.4492 277.418 78.3797 278.357 80.2918C278.675 80.9292 279.401 81.3364 280.251 81.3718C279.985 82.2394 280.269 83.1777 280.942 83.7266C281.827 84.4525 282.925 84.1161 282.995 84.0984C282.712 84.7357 282.747 85.4617 283.137 85.9751C283.668 86.6833 284.801 86.878 285.704 86.3115C285.722 86.5062 285.81 87.2144 286.395 87.7279C287.032 88.2944 288.024 88.4007 288.891 87.9757C291.069 86.2761 294.875 84.1869 299.302 81.4072C309.677 74.8741 314.014 71.5279 318.458 67.4557C320.176 65.88 322.672 62.162 321.079 57.2223C315.997 57.1515 311.022 57.1338 305.923 57.0807Z" fill="#E2A18D"/>
<path d="M303.781 59.1521C303.657 59.1521 303.551 59.099 303.48 58.9928C303.356 58.8158 303.374 58.5856 303.551 58.4439C304.79 57.4702 305.817 56.6735 306.366 56.2308C306.543 56.0892 306.773 56.1246 306.915 56.3016C307.056 56.4787 307.021 56.7089 306.844 56.8505C306.277 57.2931 305.25 58.0898 304.011 59.0636C303.958 59.1167 303.869 59.1521 303.781 59.1521Z" fill="#363E44"/>
<path d="M282.411 78.7515C282.305 78.7515 282.199 78.7161 282.128 78.6276L281.225 77.6184C281.083 77.459 281.101 77.2112 281.26 77.0695C281.42 76.9279 281.668 76.9456 281.809 77.1049L282.712 78.1141C282.854 78.2735 282.836 78.5213 282.677 78.663C282.606 78.7161 282.517 78.7515 282.411 78.7515Z" fill="#363E44"/>
<path d="M284.731 81.3364C284.624 81.3364 284.518 81.301 284.447 81.2124L283.544 80.2033C283.403 80.0439 283.42 79.796 283.58 79.6544C283.739 79.5128 283.987 79.5305 284.129 79.6898L285.032 80.699C285.173 80.8583 285.155 81.1062 284.996 81.2478C284.908 81.301 284.819 81.3364 284.731 81.3364Z" fill="#363E44"/>
<path d="M287.05 83.9921C286.944 83.9921 286.837 83.9567 286.767 83.8682L285.864 82.859C285.722 82.6996 285.74 82.4518 285.899 82.3101C286.058 82.1685 286.306 82.1862 286.448 82.3455L287.351 83.3547C287.492 83.5141 287.475 83.7619 287.315 83.9036C287.227 83.9567 287.138 83.9921 287.05 83.9921Z" fill="#363E44"/>
<path d="M289.21 86.3646C289.104 86.3646 288.998 86.3291 288.927 86.2406L288.024 85.2314C287.882 85.0721 287.9 84.8242 288.059 84.6826C288.219 84.5409 288.466 84.5587 288.608 84.718L289.511 85.7272C289.653 85.8865 289.635 86.1344 289.476 86.276C289.387 86.3291 289.299 86.3646 289.21 86.3646Z" fill="#363E44"/>
<path d="M275.789 35.9941C272.974 36.1889 270.531 34.0643 270.336 31.2492L269.522 19.9358C269.327 17.1207 271.451 14.6597 274.267 14.4649C277.082 14.2702 279.543 16.3948 279.737 19.2099L280.552 30.5233C280.764 33.3384 278.622 35.7994 275.789 35.9941Z" fill="#E2A18D"/>
<path d="M295.355 25.64C297.162 21.2765 295.09 16.274 290.727 14.4666C286.363 12.6592 281.361 14.7312 279.553 19.0947C277.746 23.4581 279.818 28.4606 284.181 30.268C288.545 32.0755 293.547 30.0034 295.355 25.64Z" fill="#B77250"/>
<path d="M287.457 28.4164C282.517 28.4164 278.516 24.3974 278.516 19.4754C278.516 14.5535 282.535 10.5345 287.457 10.5345C292.379 10.5345 296.398 14.5535 296.398 19.4754C296.398 24.3974 292.379 28.4164 287.457 28.4164ZM287.457 11.2958C282.96 11.2958 279.295 14.9607 279.295 19.4577C279.295 23.9548 282.96 27.6197 287.457 27.6197C291.954 27.6197 295.619 23.9548 295.619 19.4577C295.619 14.9607 291.954 11.2958 287.457 11.2958Z" fill="#B77250"/>
<path d="M290.077 30.1692C285.138 30.1692 281.136 26.1502 281.136 21.2282C281.136 16.3062 285.155 12.2872 290.077 12.2872C294.999 12.2872 299.018 16.3062 299.018 21.2282C299.018 26.1502 294.999 30.1692 290.077 30.1692ZM290.077 13.0485C285.58 13.0485 281.915 16.7135 281.915 21.2105C281.915 25.7076 285.58 29.3725 290.077 29.3725C294.574 29.3725 298.239 25.7076 298.239 21.2105C298.239 16.7135 294.574 13.0485 290.077 13.0485Z" fill="#B77250"/>
<path d="M280.8 3.15151C280.393 2.93905 276.427 0.920685 272.797 2.70888C270.106 4.03675 268.778 6.63937 267.22 11.3135C265.379 16.8197 265.06 20.3784 266.158 22.0781C267.911 24.7515 276.763 24.0079 281.42 20.4492C284.783 17.882 286.359 13.4381 285.633 9.22429C284.907 5.02823 281.048 3.27544 280.8 3.15151Z" fill="#E2A18D"/>
<path d="M270.46 24.4151C270.354 24.4151 270.248 24.4151 270.159 24.4151C269.947 24.4151 269.77 24.2381 269.787 24.0079C269.787 23.7954 269.964 23.6184 270.195 23.6361C273.682 23.7246 278.498 22.1843 281.207 20.1305C281.384 20.0066 281.632 20.0243 281.756 20.2013C281.88 20.3784 281.844 20.6263 281.685 20.7502C278.905 22.8394 274.054 24.4151 270.46 24.4151Z" fill="#BC8271"/>
<path d="M277.135 12.96C277.135 12.96 275.86 11.9154 274.125 11.5967C273.753 11.5259 273.895 14.5888 274.267 14.4826C275.931 14.0577 277.135 12.96 277.135 12.96Z" fill="white"/>
<path d="M272.974 11.5082C273.364 11.4905 273.753 11.5436 274.125 11.5967C274.692 12.4997 274.727 13.5974 274.284 14.4826C273.913 14.5889 273.505 14.642 273.081 14.6597C270.814 14.7305 268.92 13.1902 268.92 13.1902C268.92 13.1902 270.708 11.579 272.974 11.5082Z" fill="#373E44"/>
<path d="M269.292 18.7495C268.849 18.7495 268.389 18.5371 268.088 18.1653C267.946 18.0059 267.982 17.758 268.141 17.6164C268.3 17.4748 268.548 17.5102 268.69 17.6695C268.902 17.9351 269.256 18.0413 269.557 17.9174C269.911 17.758 269.982 17.3331 269.982 17.3154C270.018 17.103 270.212 16.9613 270.425 16.979C270.637 17.0144 270.779 17.2092 270.761 17.4216C270.744 17.5102 270.62 18.3069 269.876 18.6256C269.681 18.7141 269.486 18.7495 269.292 18.7495Z" fill="#B77250"/>
<path d="M266.671 15.6158C266.565 15.6158 266.459 15.5626 266.371 15.4741C265.857 14.8722 265.698 14.3941 265.857 13.9692C265.963 13.6859 266.193 13.5443 266.388 13.4204C266.512 13.3495 266.654 13.261 266.795 13.1371C267.008 12.9423 267.167 12.6767 267.273 12.3758C267.344 12.1633 267.557 12.0571 267.769 12.1279C267.982 12.1987 268.088 12.4112 268.017 12.6236C267.875 13.0486 267.645 13.4204 267.344 13.7036C267.132 13.8984 266.937 14.0046 266.795 14.0931C266.689 14.1463 266.601 14.1994 266.583 14.2348C266.548 14.3056 266.601 14.5358 266.972 14.9607C267.114 15.12 267.096 15.3679 266.937 15.5095C266.849 15.5804 266.76 15.6158 266.671 15.6158Z" fill="#363E44"/>
<path d="M275.913 5.15215L272.602 8.46297C270.779 7.64854 268.937 6.85182 267.114 6.03739C267.574 5.22297 268.389 3.98362 269.77 2.86821C272.301 0.832148 275.01 0.584279 275.789 0.531165C280.18 0.177066 284.907 2.47871 286.872 6.35608C286.979 6.55084 287.421 7.43608 287.705 8.76395C288.926 14.4826 284.571 21.7948 282.375 21.6885C281.685 21.6531 281.065 20.1482 279.454 11.4905C277.577 10.6584 275.718 9.84395 273.842 9.01182L275.913 5.15215Z" fill="#B77250"/>
<path d="M281.702 18.291C283.198 16.9284 283.478 14.798 282.326 13.5325C281.174 12.2671 279.027 12.3459 277.53 13.7085C276.033 15.0711 275.754 17.2016 276.906 18.467C278.058 19.7324 280.205 19.6536 281.702 18.291Z" fill="#E2A18D"/>
<path d="M280.357 17.7934C280.233 17.7934 280.109 17.7226 280.021 17.6164C279.897 17.4393 279.95 17.1915 280.145 17.0852C280.233 17.0321 280.304 16.9613 280.393 16.8905C280.694 16.6249 280.888 16.2708 280.924 15.899C280.977 15.5626 280.888 15.2439 280.676 15.0315C280.57 14.9252 280.446 14.8367 280.304 14.7836C280.109 14.7128 280.003 14.4826 280.074 14.2702C280.145 14.0754 280.375 13.9692 280.57 14.04C280.835 14.1462 281.048 14.2879 281.242 14.5003C281.597 14.8898 281.756 15.4387 281.685 16.0052C281.614 16.5541 281.331 17.0675 280.906 17.4748C280.8 17.581 280.676 17.6695 280.552 17.7403C280.517 17.7757 280.446 17.7934 280.357 17.7934Z" fill="#363E44"/>
<path d="M271.753 22.025C270.195 22.025 268.814 21.4407 267.61 20.2722C267.45 20.1306 267.45 19.8827 267.61 19.7233C267.769 19.564 267.999 19.564 268.159 19.7233C269.274 20.8033 270.584 21.3168 272.054 21.246C276.391 21.0158 280.8 15.7929 280.835 15.7397C280.977 15.5804 281.225 15.545 281.384 15.6866C281.544 15.8283 281.579 16.0761 281.437 16.2355C281.243 16.4656 276.781 21.7771 272.089 22.025C271.983 22.025 271.877 22.025 271.753 22.025Z" fill="#363E44"/>
<path d="M268.235 20.7314C268.817 20.5005 269.101 19.8418 268.87 19.2601C268.639 18.6785 267.981 18.3941 267.399 18.6249C266.817 18.8558 266.533 19.5145 266.764 20.0962C266.995 20.6778 267.653 20.9622 268.235 20.7314Z" fill="#363E44"/>
<path d="M285.825 15.8398C286.457 13.3369 285.256 10.8751 283.142 10.3413C281.027 9.80749 278.801 11.4038 278.169 13.9068C277.537 16.4097 278.739 18.8715 280.853 19.4053C282.967 19.9391 285.194 18.3428 285.825 15.8398Z" fill="#363E44"/>
<path d="M282.004 13.7036C281.791 13.7036 281.614 13.5266 281.614 13.3141V9.11807C281.614 5.2761 280.729 2.42561 279.206 1.34561C278.41 0.77905 277.418 0.67282 276.303 1.06233C276.108 1.13315 275.878 1.02692 275.807 0.81446C275.736 0.602001 275.842 0.389542 276.055 0.318722C277.418 -0.141606 278.657 -0.0176714 279.667 0.70823C281.437 1.96528 282.393 4.95741 282.393 9.11807V13.3141C282.393 13.5266 282.234 13.7036 282.004 13.7036Z" fill="#363E44"/>
<path d="M282.482 18.0767C282.322 18.0767 282.163 17.9705 282.11 17.8112C282.039 17.5987 282.163 17.3863 282.358 17.3154C283.154 17.0499 283.774 16.324 284.022 15.3856C284.358 14.0223 283.739 12.6767 282.606 12.3935C281.986 12.2341 281.331 12.4289 280.8 12.9069C280.64 13.0485 280.392 13.0308 280.251 12.8715C280.109 12.7122 280.127 12.4643 280.286 12.3226C281.012 11.6676 281.933 11.4197 282.8 11.6322C284.341 12.0217 285.226 13.7922 284.783 15.5804C284.482 16.7666 283.65 17.7226 282.606 18.059C282.57 18.0767 282.535 18.0767 282.482 18.0767Z" fill="#363E44"/>
<path d="M51.9288 322.831H144.065L153.396 310.951C162 299.762 154.033 283.42 139.922 283.42H31.8868L29.6029 288.927C22.8042 304.932 34.5426 322.831 51.9288 322.831Z" fill="#FCCCA8"/>
<path d="M150.439 299.992H98.3862C94.8452 299.992 91.9771 297.23 91.9771 293.689H150.456V299.992H150.439Z" fill="#363E44"/>
<path d="M151.023 299.833L166.851 250.047C167.931 246.665 166.054 243.053 162.673 241.991L144.897 297.903L151.023 299.833Z" fill="#363E44"/>
<path d="M145.074 291.299C145.039 291.299 145.004 291.299 144.95 291.281C144.738 291.21 144.632 290.998 144.703 290.786L160.247 241.849C160.318 241.637 160.531 241.53 160.743 241.601C160.956 241.672 161.062 241.885 160.991 242.097L145.446 291.033C145.393 291.193 145.251 291.299 145.074 291.299Z" fill="#363E44"/>
<path d="M129.352 242.593C129.352 242.593 117.295 249.321 92.8978 252.171C65.8623 255.323 92.225 227.225 92.225 227.225C92.225 227.225 111.771 219.594 121.651 215.699C130.096 212.388 129.352 242.593 129.352 242.593Z" fill="#E2A18D"/>
<path d="M111.223 230.713C111.223 230.713 119.721 205.625 123.811 195.728C128.095 185.335 135.939 170.622 137.992 171.755C139.161 172.393 138.506 174.624 136.364 180.466C136.771 180.272 138.134 180.024 139.108 180.785C140.56 181.918 139.958 183.352 139.975 183.512C140.099 183.441 141.657 182.662 142.755 183.264C143.994 183.936 144.295 185.105 144.207 186.203C144.543 186.026 146.066 185.53 147.11 186.15C148.456 186.964 148.421 188.699 147.907 189.885C146.969 192.063 144.26 197.959 143.215 201.27C141.179 207.767 138.417 232.891 131.601 240.433C119.367 253.942 109.063 237.281 111.223 230.713Z" fill="#E2A18D"/>
<path d="M135.213 200.508H135.195C134.982 200.491 134.823 200.313 134.823 200.101C134.947 197.729 134.168 195.94 133.531 194.506C132.876 193.019 132.309 191.727 133.389 190.664C134.009 190.045 134.469 188.965 134.681 187.548C134.752 187.159 134.451 186.964 134.363 186.911C134.168 186.805 133.885 186.769 133.637 186.982L128.06 191.709C127.9 191.851 127.653 191.833 127.511 191.656C127.369 191.496 127.387 191.249 127.564 191.107L133.141 186.38C133.601 185.99 134.239 185.937 134.752 186.22C135.266 186.504 135.549 187.07 135.46 187.672C135.213 189.283 134.699 190.47 133.938 191.213C133.265 191.868 133.566 192.647 134.239 194.188C134.876 195.622 135.726 197.569 135.584 200.136C135.602 200.331 135.425 200.508 135.213 200.508Z" fill="#363E44"/>
<path d="M144.968 193.462C144.915 193.462 144.862 193.444 144.809 193.426C143.268 192.771 142.33 191.249 142.348 189.655L142.259 189.797C141.569 190.93 140.188 191.408 138.948 190.93C138.258 190.664 137.709 190.151 137.426 189.46C137.125 188.788 137.125 188.026 137.408 187.336L137.656 186.734C137.036 187.017 136.31 187.035 135.655 186.698C134.628 186.167 134.168 184.963 134.575 183.883L135.531 181.387C135.602 181.192 135.832 181.086 136.027 181.157C136.222 181.228 136.328 181.458 136.257 181.652L135.301 184.149C135.036 184.857 135.337 185.636 136.009 185.99C136.718 186.362 137.603 186.079 137.992 185.388L138.878 183.759C138.984 183.582 139.196 183.512 139.391 183.6C139.586 183.689 139.657 183.901 139.586 184.096L138.134 187.619C137.939 188.115 137.939 188.646 138.152 189.124C138.364 189.602 138.754 189.974 139.249 190.169C140.135 190.505 141.126 190.169 141.604 189.354L143.091 186.911C143.198 186.734 143.41 186.681 143.587 186.752C143.764 186.84 143.853 187.052 143.782 187.23L143.304 188.611C142.737 190.222 143.534 192.01 145.11 192.683C145.304 192.771 145.393 193.001 145.322 193.196C145.269 193.373 145.127 193.462 144.968 193.462Z" fill="#363E44"/>
<path d="M117.384 217.381C117.384 217.381 86.0636 221.081 63.4367 219.293C52.796 218.461 32.8072 218.372 26.0616 222.781C10.9947 232.66 6.95801 248.772 6.95801 248.772L33.1259 253.552L23.4944 285.988C20.1482 297.248 22.3613 306.95 29.0537 316.493V316.529H45.36L42.4033 300.824L51.0787 316.493L95.7482 283.633L96.2616 255.11L125.599 245.585L117.384 217.381Z" fill="#FA822A"/>
<path d="M95.6776 253.481C95.4651 253.481 95.2881 253.304 95.2881 253.092V245.603C95.2881 245.39 95.4651 245.213 95.6776 245.213C95.8901 245.213 96.0671 245.39 96.0671 245.603V253.092C96.0671 253.304 95.8901 253.481 95.6776 253.481Z" fill="#363E44"/>
<path d="M112.869 220.727C113.152 219.647 120.624 200.101 120.624 200.101L143.038 208.635C143.038 208.635 141.923 241.902 125.617 245.567C109.275 249.25 112.869 220.727 112.869 220.727Z" fill="#FA822A"/>
<path d="M75.0335 260.156C72.7673 260.953 62.8348 262.741 61.4538 267.238C60.0729 271.771 62.0735 276.586 65.1896 280.127C65.2073 280.127 65.225 280.127 65.2427 280.127C66.4466 280.658 68.3056 281.26 70.4479 280.906C72.8912 280.517 73.3516 279.26 75.8656 278.445C80.1148 277.064 83.0361 279.384 83.7089 277.95C84.1693 276.958 82.5227 275.542 80.6814 274.621C78.787 273.683 77.1758 273.877 77.1581 273.541C77.1404 273.169 78.8224 273.169 80.8938 273.01C81.8676 272.939 84.6473 274.338 85.4617 273.098C86.1168 272.107 83.6027 269.912 80.7168 269.434C78.6807 269.097 76.9634 270.142 76.8394 269.788C76.7509 269.522 77.7778 268.92 78.8401 268.672C80.5752 268.265 83.4256 269.681 84.1693 268.513C84.8952 267.362 82.6466 265.485 80.0263 264.883C77.8132 264.388 75.9542 265.627 75.7948 265.202C75.6886 264.901 76.3968 264.157 78.2912 263.131C79.867 262.281 83.4788 261.626 82.8414 259.837C82.2571 258.368 78.4506 258.952 75.0335 260.156Z" fill="#E2A18D"/>
<path d="M26.3983 272.355C21.4232 274.161 18.1124 278.994 18.4488 284.253C18.6789 287.705 20.4671 291.211 25.9379 293.193C39.2343 298.027 68.0579 278.392 68.0579 278.392L70.9793 261.307C54.0533 264.848 40.0842 267.38 26.3983 272.355Z" fill="#E2A18D"/>
<path d="M43.5187 267.238L47.042 292.414L24.7869 296.823C10.4814 299.656 -2.14224 287.103 0.619725 272.797C3.0453 260.28 6.6571 246.594 11.8446 237.812L39.305 243.726L32.1168 268.176L43.5187 267.238Z" fill="#FA822A"/>
<path d="M32.0992 268.566C32.0638 268.566 32.0284 268.566 31.993 268.548C31.7805 268.495 31.6743 268.265 31.7274 268.07L34.9851 257.022C35.0382 256.81 35.2684 256.704 35.4631 256.757C35.6756 256.81 35.7818 257.04 35.7287 257.235L32.471 268.283C32.4179 268.46 32.2586 268.566 32.0992 268.566Z" fill="#363E44"/>
<path d="M20.697 297.62C19.617 297.62 18.5547 297.531 17.5101 297.372C17.2977 297.336 17.156 297.142 17.1915 296.929C17.2269 296.717 17.4216 296.575 17.6341 296.611C19.9711 296.982 22.3436 296.929 24.6983 296.451L46.5993 292.113L45.8026 286.448C45.7672 286.235 45.9265 286.041 46.139 286.005C46.3515 285.97 46.5462 286.129 46.5816 286.342L47.4846 292.733L24.8577 297.23C23.459 297.478 22.078 297.62 20.697 297.62Z" fill="#363E44"/>
<path d="M28.7175 268.849C28.5228 268.849 28.3457 268.69 28.328 268.495C28.3103 268.283 28.4696 268.088 28.6821 268.07L43.4834 266.849C43.6959 266.831 43.8906 266.99 43.9083 267.203C43.926 267.415 43.7667 267.61 43.5542 267.628L28.7529 268.849C28.7352 268.849 28.7175 268.849 28.7175 268.849Z" fill="#363E44"/>
<path d="M67.6861 253.481C67.4737 253.481 67.2966 253.304 67.2966 253.092V231.386C54.8678 231.492 52.7609 223.135 52.7432 223.064C52.6901 222.852 52.8317 222.639 53.0265 222.586C53.2389 222.533 53.4514 222.675 53.5045 222.87C53.593 223.206 55.5583 230.854 67.6861 230.589H68.0934V253.092C68.0756 253.304 67.9163 253.481 67.6861 253.481Z" fill="#363E44"/>
<path d="M65.9154 226.393L62.8347 225.543C59.9665 224.764 58.3023 221.807 59.0813 218.939L65.5613 195.391C66.3403 192.523 69.297 190.859 72.1652 191.638L75.2459 192.488C78.1141 193.267 79.7783 196.224 78.9993 199.092L72.5193 222.639C71.7226 225.49 68.7659 227.172 65.9154 226.393Z" fill="#E2A18D"/>
<path d="M86.1347 209.538C84.1872 213.521 71.8822 210.972 71.8822 210.972L60.9583 204.368C57.9839 198.897 60.0022 192.063 65.4554 189.071C70.9262 186.096 77.7603 188.115 80.7524 193.568C80.7524 193.568 88.1 205.483 86.1347 209.538Z" fill="#E2A18D"/>
<path d="M81.0356 196.79C81.0356 196.79 85.3911 198.189 85.6743 199.039C85.993 200.048 83.2133 202.296 83.2133 202.296C83.2133 202.296 81.1065 196.772 81.0356 196.79Z" fill="#E2A18D"/>
<path d="M71.4395 199.003C71.4395 199.003 72.7496 197.658 74.644 197.056C75.0513 196.932 75.2991 200.402 74.8565 200.331C72.9267 200.066 71.4395 199.003 71.4395 199.003Z" fill="white"/>
<mask id="mask0_783_2554" style="mask-type:luminance" maskUnits="userSpaceOnUse" x="71" y="196" width="10" height="5">
<path d="M71.4395 199.003C71.4395 199.003 73.3693 197.038 75.9188 196.808C78.486 196.578 80.7168 198.189 80.7168 198.189C80.7168 198.189 78.787 200.154 76.2375 200.384C73.6703 200.597 71.4395 199.003 71.4395 199.003Z" fill="white"/>
</mask>
<g mask="url(#mask0_783_2554)">
<path d="M74.697 196.95C75.5646 195.303 77.5829 194.666 79.2472 195.515C80.8937 196.383 81.5311 198.401 80.6813 200.066C79.8137 201.712 77.7954 202.35 76.1311 201.5C74.4846 200.632 73.8295 198.596 74.697 196.95Z" fill="#363E44"/>
</g>
<path d="M53.6816 194.258C53.6816 194.258 54.6554 207.289 63.8443 207.643L65.0128 205.094L70.4305 204.899L66.0751 200.313C64.6233 198.437 65.2607 195.71 67.3852 194.648L76.6626 190.062L73.9184 185.247C65.8449 184.68 58.9046 187.176 53.6816 194.258Z" fill="#363E44"/>
<path d="M63.1715 187.601C62.2686 188.38 60.9053 188.256 60.144 187.371C59.365 186.468 59.0817 184.645 59.9846 183.866C60.8876 183.087 62.6404 183.671 63.4194 184.574C64.1807 185.477 64.0745 186.84 63.1715 187.601Z" fill="#363E44"/>
<path d="M64.8708 187.407C63.7023 187.637 62.5692 186.893 62.339 185.725C62.1089 184.556 62.7285 182.821 63.8971 182.591C65.0656 182.361 66.3226 183.724 66.5528 184.875C66.8007 186.026 66.0394 187.176 64.8708 187.407Z" fill="#363E44"/>
<path d="M68.5538 187.017C66.9426 187.052 65.6148 185.778 65.5793 184.184C65.5439 182.573 66.801 180.395 68.3944 180.36C70.0056 180.325 71.3511 182.431 71.4043 184.043C71.4397 185.636 70.1649 186.964 68.5538 187.017Z" fill="#363E44"/>
<path d="M60.2501 189.372C59.3648 190.169 58.0193 190.115 57.2226 189.23C56.4258 188.345 56.0717 186.539 56.9393 185.742C57.8245 184.946 59.595 185.459 60.3917 186.344C61.1885 187.212 61.1353 188.575 60.2501 189.372Z" fill="#363E44"/>
<path d="M71.1916 186.273C70.0762 185.388 69.8814 183.742 70.7844 182.626C71.6696 181.511 73.7765 180.732 74.8919 181.635C76.0073 182.52 75.7241 184.751 74.8388 185.866C73.9359 186.982 72.307 187.159 71.1916 186.273Z" fill="#363E44"/>
<path d="M58.2142 191.319C57.3289 192.506 55.647 192.736 54.4607 191.851C53.2745 190.965 52.4247 188.823 53.3276 187.637C54.2129 186.451 56.5145 186.681 57.7007 187.584C58.8692 188.451 59.0994 190.133 58.2142 191.319Z" fill="#363E44"/>
<path d="M56.0185 192.877C55.8061 194.01 54.7084 194.754 53.5753 194.542C52.4422 194.329 51.0966 193.125 51.3267 191.992C51.5392 190.859 53.2212 190.222 54.3543 190.434C55.4874 190.647 56.231 191.744 56.0185 192.877Z" fill="#363E44"/>
<path d="M73.2457 188.841C72.2896 187.371 72.6968 185.424 74.1663 184.468C75.6358 183.511 78.3447 183.423 79.3007 184.892C80.2568 186.362 79.0706 188.805 77.6188 189.761C76.1493 190.717 74.2017 190.292 73.2457 188.841Z" fill="#363E44"/>
<path d="M59.0462 205.448C59.2587 207.59 61.1531 209.148 63.2954 208.936C65.4377 208.723 66.9957 206.829 66.7833 204.687C66.5708 202.544 64.6764 200.986 62.5341 201.199C60.4095 201.411 58.8515 203.306 59.0462 205.448Z" fill="#E2A18D"/>
<path d="M84.5942 200.986L88.0289 209.803C88.507 211.025 87.8696 212.406 86.6126 212.831C86.2939 212.937 85.9575 213.043 85.5857 213.167C79.2827 215.15 72.4132 213.734 67.4027 209.431C65.7208 207.98 65.1188 205.66 65.8624 203.589L66.1103 202.898L68.2171 202.934C68.2171 202.934 71.8289 206.811 73.7234 206.262C75.6355 205.696 78.0611 202.65 84.5942 200.986Z" fill="#363E44"/>
<path d="M80.9294 205.926C80.8763 205.926 80.8232 205.926 80.7877 205.926C80.0441 205.873 79.3891 205.377 79.1058 204.687C79.0173 204.492 79.1235 204.262 79.3182 204.173C79.513 204.085 79.7432 204.191 79.8317 204.386C79.991 204.811 80.3982 205.094 80.8409 205.129C81.3012 205.165 81.7438 204.917 81.974 204.51C82.0802 204.315 82.3104 204.244 82.5051 204.35C82.6999 204.456 82.7707 204.687 82.6645 204.881C82.3104 205.536 81.6376 205.926 80.9294 205.926Z" fill="#E2A18D"/>
<path d="M65.0481 196.613C65.0304 196.613 64.995 196.613 64.9772 196.613L59.3825 195.533C59.17 195.498 59.0284 195.285 59.0815 195.073C59.1169 194.86 59.3294 194.719 59.5418 194.772L65.1366 195.852C65.3491 195.887 65.4907 196.1 65.4376 196.312C65.4022 196.489 65.2428 196.613 65.0481 196.613Z" fill="#E2A18D"/>
</g>
<defs>
<clipPath id="clip0_783_2554">
<rect width="324" height="324" fill="white"/>
</clipPath>
</defs>
</svg>
