<svg width="324" height="324" viewBox="0 0 324 324" fill="none" xmlns="http://www.w3.org/2000/svg">
<g clip-path="url(#clip0_758_2435)">
<path d="M161.911 324C251.333 324 323.823 251.51 323.823 162.089C323.823 72.6673 251.333 0.17705 161.911 0.17705C72.4902 0.17705 0 72.6673 0 162.089C0 251.51 72.4902 324 161.911 324Z" fill="#FEF0E6"/>
<path d="M319.627 155.254H314.563C314.103 152.776 313.466 150.386 312.633 148.066L317.024 145.534L308.437 130.68L304.047 133.212C302.435 131.317 300.665 129.565 298.788 127.953L301.32 123.563L286.466 114.976L283.934 119.367C281.614 118.552 279.207 117.897 276.746 117.437V112.373H259.589V117.437C257.111 117.897 254.721 118.534 252.401 119.367L249.87 114.976L235.015 123.563L237.547 127.953C235.652 129.565 233.9 131.335 232.289 133.212L227.898 130.68L219.311 145.534L223.702 148.066C222.887 150.386 222.232 152.793 221.772 155.254H216.708V172.41H221.772C222.232 174.889 222.87 177.279 223.702 179.599L219.311 182.13L227.898 196.985L232.289 194.453C233.9 196.348 235.67 198.1 237.547 199.711L235.015 204.102L249.87 212.689L252.401 208.298C254.721 209.113 257.129 209.768 259.589 210.228V215.292H276.746V210.228C279.224 209.768 281.614 209.13 283.934 208.298L286.466 212.689L301.32 204.102L298.788 199.711C300.683 198.1 302.435 196.33 304.047 194.453L308.437 196.985L317.024 182.13L312.633 179.599C313.448 177.279 314.103 174.871 314.563 172.41H319.627V155.254ZM298.629 176.553C295.53 184.733 289.033 191.231 280.853 194.329C253.056 204.828 227.154 178.908 237.653 151.129C240.751 142.95 247.249 136.452 255.429 133.353C283.226 122.837 309.146 148.757 298.629 176.553Z" fill="white"/>
<path d="M268.141 201.765C247.231 201.765 230.217 184.751 230.217 163.841C230.217 154.706 233.51 145.871 239.494 138.984C245.426 132.167 253.57 127.67 262.458 126.342C262.67 126.307 262.865 126.449 262.9 126.679C262.936 126.891 262.794 127.086 262.564 127.121C244.558 129.83 230.978 145.605 230.978 163.841C230.978 184.326 247.639 200.986 268.123 200.986C285.049 200.986 299.833 189.567 304.082 173.207C304.135 172.995 304.348 172.871 304.56 172.924C304.772 172.977 304.896 173.19 304.843 173.402C300.523 190.098 285.421 201.765 268.141 201.765Z" fill="#F2E6DC"/>
<path d="M271.275 269.54H131.601C125.9 269.54 121.261 264.901 121.261 259.2V10.3397C121.261 4.63869 125.9 0 131.601 0H271.275C276.976 0 281.614 4.63869 281.614 10.3397V259.2C281.614 264.901 276.976 269.54 271.275 269.54ZM131.601 0.779016C126.325 0.779016 122.04 5.06361 122.04 10.3397V259.2C122.04 264.476 126.325 268.761 131.601 268.761H271.275C276.551 268.761 280.835 264.476 280.835 259.2V10.3397C280.835 5.06361 276.551 0.779016 271.275 0.779016H131.601Z" fill="#363E44"/>
<path d="M230.553 9.47213V13.4911C230.553 15.598 228.854 17.2977 226.747 17.2977H176.129C174.022 17.2977 172.322 15.598 172.322 13.4911V9.47213H133.584C131.123 9.47213 129.14 11.4551 129.14 13.9161V253.924C129.14 255.553 130.45 256.863 132.079 256.863H269.292C271.753 256.863 273.736 254.88 273.736 252.419V13.9161C273.736 11.4551 271.753 9.47213 269.292 9.47213H230.553Z" fill="#E6D0BE"/>
<path d="M245.249 44.1384C245.249 51.1495 239.565 56.8151 232.572 56.8151H170.304C163.292 56.8151 157.627 51.1318 157.627 44.1384V43.1646C157.627 36.1534 163.31 30.4879 170.304 30.4879H232.572C239.583 30.4879 245.249 36.1711 245.249 43.1646V44.1384Z" fill="white"/>
<path opacity="0.4" d="M247.922 179.262H154.953V189.23H247.922V179.262Z" fill="white"/>
<path opacity="0.4" d="M247.922 193.497H154.953V217.7H247.922V193.497Z" fill="white"/>
<path d="M307.517 63.0472H233.068V82.2748H307.517V63.0472Z" fill="#EFBC73"/>
<path d="M243.212 77.1049C245.667 77.1049 247.656 75.1153 247.656 72.661C247.656 70.2067 245.667 68.217 243.212 68.217C240.758 68.217 238.769 70.2067 238.769 72.661C238.769 75.1153 240.758 77.1049 243.212 77.1049Z" fill="white"/>
<path d="M261.044 73.6812C261.655 71.3042 260.223 68.882 257.846 68.2712C255.469 67.6603 253.047 69.092 252.436 71.469C251.825 73.846 253.257 76.2682 255.634 76.8791C258.011 77.49 260.433 76.0582 261.044 73.6812Z" fill="white"/>
<path d="M270.283 76.9279C272.738 76.9279 274.727 74.9382 274.727 72.4839C274.727 70.0296 272.738 68.04 270.283 68.04C267.829 68.04 265.839 70.0296 265.839 72.4839C265.839 74.9382 267.829 76.9279 270.283 76.9279Z" fill="white"/>
<path d="M284.676 76.7497C287.086 76.2834 288.661 73.952 288.195 71.5423C287.728 69.1327 285.397 67.5573 282.987 68.0236C280.578 68.4899 279.002 70.8214 279.468 73.231C279.935 75.6407 282.266 77.2161 284.676 76.7497Z" fill="white"/>
<path d="M297.89 76.7321C300.326 76.4342 302.06 74.2177 301.762 71.7816C301.464 69.3454 299.247 67.6121 296.811 67.91C294.375 68.208 292.642 70.4244 292.94 72.8606C293.238 75.2967 295.454 77.0301 297.89 76.7321Z" fill="white"/>
<path d="M312.138 85.2315H244.098V92.7029H312.138V85.2315Z" fill="#8B865C"/>
<path d="M241.973 159.716H163.593L175.828 92.0302H226.711L241.973 159.716Z" fill="#363E44"/>
<path d="M213.999 96.2971C213.504 96.2971 213.114 95.8898 213.114 95.4118V82.5226C213.114 79.5128 210.671 77.0695 207.661 77.0695H196.861C193.851 77.0695 191.408 79.5128 191.408 82.5226V95.4118C191.408 95.9075 191.001 96.2971 190.523 96.2971C190.027 96.2971 189.637 95.8898 189.637 95.4118V82.5226C189.637 78.5213 192.895 75.2813 196.879 75.2813H207.679C211.68 75.2813 214.92 78.539 214.92 82.5226V95.4118C214.902 95.9075 214.495 96.2971 213.999 96.2971Z" fill="#8B865C"/>
<path d="M209.007 154.281C208.971 154.281 208.953 154.281 208.918 154.263C208.706 154.21 208.582 153.997 208.635 153.785C213.415 133.743 222.445 95.5357 222.533 94.0308C222.515 93.8361 222.657 93.659 222.852 93.6236C223.064 93.5882 223.259 93.7298 223.312 93.9423C223.471 94.8275 212.707 140.117 209.396 153.98C209.343 154.157 209.166 154.281 209.007 154.281Z" fill="#E6D0BE"/>
<path d="M238.397 157.255C238.326 157.255 238.273 157.237 238.202 157.202L224.817 149.607V95.5889C224.817 95.3764 224.994 95.1993 225.207 95.1993C225.419 95.1993 225.596 95.3764 225.596 95.5889V149.146L238.574 156.511C238.769 156.618 238.822 156.848 238.715 157.043C238.68 157.184 238.538 157.255 238.397 157.255Z" fill="#E6D0BE"/>
<path d="M167.418 228.358C167.418 228.358 170.215 196.985 197.516 205.412C224.799 213.822 247.763 210.264 247.763 210.264C247.763 210.264 243.425 231.934 225.065 226.835L230.164 230.908C230.164 230.908 221.489 240.096 204.155 234.732C186.805 229.385 173.544 222.746 167.418 228.358Z" fill="#8B865C"/>
<path d="M160.017 221.471C159.61 221.984 159.875 183.441 159.982 169.666C159.999 166.568 161.15 163.576 163.204 161.256L179.156 143.18C179.156 143.18 184.503 159.504 172.269 166.904C160.017 174.287 183.742 191.372 160.017 221.471Z" fill="#8B865C"/>
<path d="M156.582 229.084L155.98 228.694C155.467 228.358 143.374 220.409 141.993 213.805C141.692 212.406 141.905 211.131 142.613 210.051C145.375 205.837 145.127 201.004 143.304 198.791C142.082 197.304 140.188 196.967 137.992 197.87C134.433 199.322 128.679 197.923 123.669 194.382C118.428 190.664 115.542 185.76 115.772 180.927C116.268 170.534 110.089 164.195 110.018 164.142L108.23 162.354L151.342 184.839C154.582 186.521 156.582 189.832 156.582 193.479V229.084ZM140.294 196.578C141.728 196.578 142.967 197.144 143.888 198.277C146.172 201.057 145.906 206.404 143.25 210.458C142.649 211.379 142.489 212.406 142.737 213.628C143.888 219.116 153.307 225.897 155.786 227.614V193.479C155.786 190.133 153.944 187.07 150.97 185.53L111.807 165.063C113.666 167.595 116.906 173.172 116.551 180.927C116.339 185.494 119.083 190.151 124.111 193.71C128.839 197.056 134.416 198.454 137.691 197.127C138.612 196.755 139.497 196.578 140.294 196.578Z" fill="#8B865C"/>
<path d="M166.444 275.046C166.231 275.046 166.054 274.869 166.054 274.656V232.395V232.359C166.462 229.562 167.577 227.19 169.294 225.472C177.846 216.921 190.469 213.38 202.226 216.266C211.397 218.514 221.099 218.514 230.27 216.266L234.094 215.327C234.307 215.274 234.519 215.398 234.572 215.611C234.626 215.823 234.502 216.035 234.289 216.089L230.465 217.027C221.17 219.311 211.344 219.311 202.049 217.027C190.558 214.212 178.218 217.664 169.861 226.039C168.285 227.614 167.241 229.845 166.851 232.466V274.674C166.833 274.869 166.674 275.046 166.444 275.046Z" fill="#363E44"/>
<path d="M159.805 275.046C159.592 275.046 159.415 274.869 159.415 274.656V169.542C159.415 169.33 159.592 169.153 159.805 169.153C160.017 169.153 160.194 169.33 160.194 169.542V274.639C160.194 274.869 160.017 275.046 159.805 275.046Z" fill="#363E44"/>
<path d="M156.193 275.046C155.98 275.046 155.803 274.869 155.803 274.656V228.517C155.803 228.305 155.98 228.128 156.193 228.128C156.405 228.128 156.582 228.305 156.582 228.517V274.656C156.582 274.869 156.405 275.046 156.193 275.046Z" fill="#8B865C"/>
<path d="M142.666 273.187V297.531C142.666 310.969 153.555 321.875 167.01 321.875C180.449 321.875 191.355 310.987 191.355 297.531V273.187H142.666Z" fill="white"/>
<path d="M38.4905 271.593L43.9967 296.54H61.4184V270L38.4905 271.593Z" fill="#E2A18D"/>
<path d="M99.838 268.477L106.052 294.716L126.006 294.698L121.172 268.477H99.838Z" fill="#E2A18D"/>
<path d="M106.035 293.831L108.248 323.487L163.452 323.469C155.98 311.996 143.817 298.735 125.953 293.831H106.035Z" fill="#E6D0BE"/>
<path d="M43.7666 295.513C43.7666 296.593 36.7731 324 36.7731 324H76.8393L61.082 295.513H43.7666Z" fill="#F2E6DC"/>
<path d="M57.3108 136.062C57.3108 136.062 51.8577 171.419 95.1816 277.365H123.439C123.439 277.365 101.095 148.013 98.7049 131.689L57.3108 136.062Z" fill="#8B865C"/>
<path d="M33.3207 141.232C33.3207 141.232 22.3613 196.967 37.0918 277.348H63.3659C63.3659 277.348 68.0754 160.725 74.8387 143.215L33.3207 141.232Z" fill="#8B865C"/>
<path d="M69.0138 192.877H68.9961C68.7836 192.86 68.6066 192.683 68.6243 192.47L69.8636 167.931L78.7515 164.868C78.9639 164.797 79.1764 164.904 79.2472 165.116C79.318 165.329 79.2118 165.541 78.9994 165.612L70.6072 168.498L69.3856 192.523C69.4033 192.718 69.2262 192.877 69.0138 192.877Z" fill="#363E44"/>
<path d="M21.9364 123.651L22.9987 124.058L42.2439 97.4833L22.3967 79.7607L12.659 101.13C8.67541 109.894 12.9246 120.216 21.9364 123.651Z" fill="#E2A18D"/>
<path d="M101.803 76.0957C101.803 76.0957 112.09 85.5502 117.755 79.4243C123.633 73.0682 130.503 65.7384 134.062 62.2859C141.391 55.1862 153.271 45.7672 154.564 47.4492C155.308 48.4052 153.944 50.0164 150.049 54.1062C150.456 54.0885 151.678 54.3718 152.227 55.3633C153.024 56.8328 152.014 57.8066 151.961 57.9482C152.103 57.9305 153.661 57.8597 154.369 58.7449C155.166 59.7541 154.989 60.8341 154.511 61.7193C154.847 61.7016 156.317 61.8256 156.936 62.7285C157.751 63.897 157.096 65.3311 156.246 66.1456C154.67 67.6151 150.279 71.5633 148.208 73.9357C145.641 76.8925 135.602 89.1797 128.555 97.8197C124.147 103.22 117.065 105.681 110.249 104.176L102.122 102.37L101.803 76.0957Z" fill="#E2A18D"/>
<path d="M141.976 70.4656C141.923 70.4656 141.852 70.4479 141.799 70.4302C141.604 70.3416 141.533 70.0938 141.622 69.899C142.595 67.9692 142.578 66.2164 142.578 64.8C142.578 63.3128 142.56 62.0203 143.87 61.5069C144.614 61.2236 145.357 60.4977 146.066 59.4C146.243 59.1167 146.083 58.8688 146.03 58.798C145.924 58.6564 145.711 58.5325 145.446 58.6033L139.09 60.5154C138.877 60.5862 138.665 60.4623 138.612 60.2498C138.541 60.0374 138.665 59.8249 138.877 59.7718L145.233 57.8597C145.765 57.7003 146.331 57.8774 146.668 58.32C147.004 58.7626 147.022 59.3469 146.738 59.8249C145.942 61.082 145.074 61.8964 144.171 62.2505C143.392 62.5515 143.374 63.2951 143.374 64.8C143.374 66.2164 143.392 68.1639 142.348 70.2531C142.259 70.3947 142.117 70.4656 141.976 70.4656Z" fill="#363E44"/>
<path d="M152.652 68.1462C152.546 68.1462 152.439 68.1108 152.369 68.0223C151.342 66.9423 151.094 65.3666 151.643 64.0564L151.625 64.0741C150.633 64.7823 149.288 64.6584 148.42 63.8262C147.925 63.3482 147.659 62.7108 147.659 62.0203C147.659 61.3298 147.925 60.6925 148.42 60.2144L148.792 59.8603C148.19 59.8426 147.606 59.5948 147.199 59.099C146.526 58.2669 146.579 57.0807 147.323 56.3193L149.022 54.5843C149.182 54.4249 149.412 54.4249 149.571 54.5843C149.73 54.7436 149.73 54.9738 149.571 55.1331L147.871 56.8682C147.411 57.3462 147.376 58.0898 147.801 58.6033C148.243 59.1521 149.058 59.2407 149.624 58.798L150.952 57.7711C151.111 57.6472 151.342 57.6649 151.483 57.8243C151.625 57.9836 151.607 58.2138 151.466 58.3554L148.969 60.7633C148.633 61.0997 148.438 61.5246 148.438 62.0026C148.438 62.4807 148.615 62.9233 148.951 63.242C149.553 63.8262 150.474 63.8971 151.165 63.419L153.289 61.9141C153.449 61.7902 153.679 61.8256 153.803 61.9672C153.927 62.1089 153.927 62.339 153.803 62.4807L152.9 63.4544C151.855 64.5875 151.873 66.3403 152.935 67.4557C153.077 67.6151 153.077 67.863 152.917 68.0046C152.847 68.1108 152.758 68.1462 152.652 68.1462Z" fill="#363E44"/>
<path d="M32.1698 103.591L12.6236 95.341C12.6236 95.341 17.0675 83.1246 21.6531 75.9364C26.522 68.3233 33.2675 65.101 42.2439 64.1272C55.0092 62.7462 78.0433 64.6584 94.4734 69.9875C115.241 76.7154 116.162 77.3174 116.162 77.3174L105.468 105.716L98.4393 103.892L107.009 158.955L23.158 162.053C23.1757 162.053 29.7266 113.365 32.1698 103.591Z" fill="#FA8A38"/>
<path d="M93.4111 123.439H68.819L81.7613 87.1259H106.052C108.035 87.1259 109.416 89.0911 108.744 90.9502L98.4393 119.898C97.678 122.022 95.6597 123.439 93.4111 123.439Z" fill="white"/>
<path d="M101.839 89.9056H85.7803L87.2498 85.4439H103.627L101.839 89.9056Z" fill="#8B865C"/>
<path d="M85.922 90.2243C85.8865 90.2243 85.8511 90.2243 85.8157 90.2066C85.6033 90.1534 85.497 89.9233 85.5502 89.7285L86.8603 85.1607H103.645C103.857 85.1607 104.034 85.3377 104.034 85.5502C104.034 85.7626 103.857 85.9397 103.645 85.9397H87.4446L86.3115 89.941C86.2406 90.118 86.099 90.2243 85.922 90.2243Z" fill="#363E44"/>
<path d="M99.9797 85.3377C99.9443 85.3377 99.9088 85.3377 99.8734 85.32C99.661 85.2669 99.5547 85.0367 99.6079 84.842L100.688 81.0708H92.9508L91.8177 85.0721C91.7646 85.2846 91.5521 85.4085 91.3397 85.3377C91.1272 85.2846 91.021 85.0544 91.0741 84.8597L92.3843 80.2918H101.75L100.387 85.0721C100.298 85.2315 100.139 85.3377 99.9797 85.3377Z" fill="#363E44"/>
<path d="M96.1554 84.7357C95.3587 84.7357 94.7036 84.0807 94.7036 83.2839C94.7036 82.4872 95.3587 81.8321 96.1554 81.8321C96.9521 81.8321 97.6072 82.4872 97.6072 83.2839C97.6072 84.0807 96.9521 84.7357 96.1554 84.7357ZM96.1554 82.5934C95.7836 82.5934 95.4826 82.8944 95.4826 83.2662C95.4826 83.638 95.7836 83.939 96.1554 83.939C96.5272 83.939 96.8282 83.638 96.8282 83.2662C96.8282 82.8944 96.5272 82.5934 96.1554 82.5934Z" fill="#363E44"/>
<path d="M26.8407 103.591C36.5429 104.247 59.4708 104.636 61.7016 104.76C65.88 105.008 88.2767 106.867 88.3652 110.125C88.4007 111.683 84.0806 111.523 82.6111 111.417C83.762 112.072 88.4184 114.144 88.0111 115.843C87.5331 117.844 81.602 116.233 81.4957 116.268C82.7174 116.817 87.7102 118.835 87.4446 120.11C87.1082 121.774 81.9206 121.296 80.3626 121.084C80.5043 121.314 85.497 122.536 85.1784 124.554C84.9482 126.024 80.1856 125.581 78.1141 125.386C74.3961 125.174 31.0721 125.085 23.0164 124.023C19.8649 123.633 22.5915 106.619 26.8407 103.591Z" fill="#E2A18D"/>
<path d="M47.7502 104.671C47.7325 104.671 47.7325 104.671 47.7502 104.671C42.7928 104.512 29.9213 103.928 26.8052 103.769C26.5928 103.751 26.4334 103.574 26.4334 103.361C26.4511 103.149 26.6282 102.99 26.8407 102.99C29.9567 103.167 42.8282 103.733 47.7502 103.892C47.9626 103.892 48.1397 104.087 48.122 104.3C48.122 104.512 47.9449 104.671 47.7502 104.671Z" fill="#363E44"/>
<path d="M82.6643 111.665C82.6111 111.665 82.558 111.647 82.5049 111.63C81.7082 111.293 80.8938 111.01 80.0793 110.78C78.5921 110.372 77.0518 110.142 75.5115 110.107C75.299 110.107 75.122 109.93 75.122 109.7C75.122 109.487 75.3167 109.31 75.5292 109.31C77.1403 109.346 78.7515 109.576 80.2918 110.001C81.1593 110.231 82.0092 110.532 82.8236 110.886C83.0184 110.974 83.1069 111.205 83.0361 111.399C82.9652 111.576 82.8236 111.665 82.6643 111.665Z" fill="#363E44"/>
<path d="M81.5666 116.551C81.5311 116.551 81.4957 116.551 81.4603 116.534C81.2833 116.481 81.1062 116.428 80.9292 116.374C79.442 115.967 77.9016 115.737 76.3613 115.702C76.1488 115.702 75.9718 115.525 75.9718 115.294C75.9718 115.082 76.1666 114.905 76.379 114.905C77.9902 114.94 79.6013 115.17 81.1416 115.595C81.3364 115.649 81.5134 115.702 81.6905 115.755C81.9029 115.826 82.0092 116.038 81.9561 116.25C81.8852 116.445 81.7436 116.551 81.5666 116.551Z" fill="#363E44"/>
<path d="M80.2564 121.438C80.2387 121.438 80.2033 121.438 80.1856 121.438C79.1941 121.261 78.1849 121.155 77.1757 121.137C76.9633 121.137 76.7862 120.96 76.7862 120.73C76.7862 120.517 76.9633 120.34 77.1934 120.34C78.2557 120.358 79.3003 120.464 80.3272 120.659C80.5397 120.694 80.6813 120.907 80.6459 121.119C80.6105 121.296 80.4334 121.438 80.2564 121.438Z" fill="#363E44"/>
<path d="M76.7862 61.1528C74.1659 63.0118 66.7829 57.9659 66.7829 57.9659L62.5515 49.1311C62.5515 44.6164 66.2164 40.9515 70.7311 40.9515C75.2459 40.9515 78.9108 44.6164 78.9108 49.1311C78.8931 49.1311 79.442 59.2761 76.7862 61.1528Z" fill="#E2A18D"/>
<path d="M67.8984 71.3154H68.5357C71.4925 71.3154 73.8826 68.9252 73.8826 65.9685V45.8557H62.5692V65.9862C62.5515 68.9252 64.9416 71.3154 67.8984 71.3154Z" fill="#E2A18D"/>
<path d="M77.9548 51.2734C77.9548 51.2734 80.2387 53.6813 80.1325 54.301C79.9908 55.0623 77.4413 55.5226 77.4413 55.5226C77.4413 55.5226 78.0079 51.2911 77.9548 51.2734Z" fill="#E2A18D"/>
<path d="M70.5718 50.9371C70.5718 50.9371 71.9351 50.1934 73.5816 50.1934C73.9357 50.1934 73.263 53.0085 72.9443 52.8492C71.4925 52.141 70.5718 50.9371 70.5718 50.9371Z" fill="white"/>
<mask id="mask0_758_2435" style="mask-type:luminance" maskUnits="userSpaceOnUse" x="70" y="50" width="9" height="4">
<path d="M70.5718 50.937C70.5718 50.937 72.5902 49.857 74.6616 50.3174C76.7508 50.7777 78.1141 52.6013 78.1141 52.6013C78.1141 52.6013 76.0957 53.6813 74.0243 53.221C71.9528 52.7607 70.5718 50.937 70.5718 50.937Z" fill="white"/>
</mask>
<g mask="url(#mask0_758_2435)">
<path d="M73.6702 50.1226C74.7679 49.0249 76.5207 49.0249 77.6184 50.1226C78.7161 51.2203 78.7161 52.9731 77.6184 54.0708C76.5207 55.1685 74.7679 55.1685 73.6702 54.0708C72.5725 52.9908 72.5725 51.2203 73.6702 50.1226Z" fill="#363E44"/>
</g>
<path d="M67.5974 50.6538C67.5974 50.6538 69.2085 54.8144 73.5993 55.0446C77.9902 55.2748 78.7869 55.2039 78.7869 55.2039L79.3534 59.3823C79.6013 61.2236 78.1318 62.8348 76.2728 62.7639L73.139 62.64C69.9698 62.5161 67.3672 60.0728 67.0308 56.9213L66.6767 53.4334L62.5515 51.9462C62.5515 51.9462 55.8059 48.7062 58.3554 43.9613C59.9666 40.9692 62.7462 42.12 62.7462 42.12L73.2452 34.0289C75.2813 32.4531 78.1849 32.6479 80.0085 34.4715C81.7436 36.2066 81.5666 39.0748 79.619 40.5797L78.2026 41.6774L79.6013 41.3941C80.7344 41.1639 81.8498 41.9075 82.0623 43.0407C82.5049 45.2538 80.7698 47.3252 78.5213 47.2544C77.5121 47.219 76.379 47.0774 75.1928 46.741C71.0498 45.5725 66.8892 46.9534 67.5974 50.6538Z" fill="#363E44"/>
<path d="M67.5797 52.2118C68.0754 53.6282 67.4911 55.1331 66.2695 55.5757C65.0479 56.0007 63.6492 55.2039 63.1534 53.7698C62.6577 52.3534 63.242 50.8485 64.4636 50.4059C65.6852 49.981 67.0662 50.7954 67.5797 52.2118Z" fill="#E2A18D"/>
<path d="M75.4052 57.3462C75.122 57.3462 74.821 57.2577 74.5731 57.0984C74.0951 56.7797 73.8118 56.2131 73.8826 55.6289C73.9003 55.4164 74.0951 55.257 74.3075 55.2925C74.52 55.3102 74.6793 55.5049 74.6439 55.7174C74.6085 56.0007 74.7502 56.2839 74.9803 56.4433C75.2282 56.6026 75.5469 56.6026 75.7947 56.4433C75.9718 56.3193 76.2197 56.3725 76.3259 56.5672C76.4498 56.7443 76.3967 56.9921 76.202 57.0984C75.9895 57.2577 75.6885 57.3462 75.4052 57.3462Z" fill="#E2A18D"/>
<path d="M66.1987 54.7436C66.1102 54.7436 66.0216 54.7082 65.9508 54.6551L64.8 53.7344C64.623 53.5928 64.6053 53.3626 64.7469 53.1856C64.8885 53.0085 65.1187 52.9908 65.2957 53.1325L66.4466 54.0531C66.6236 54.1948 66.6413 54.4249 66.4997 54.602C66.4289 54.6905 66.3226 54.7436 66.1987 54.7436Z" fill="#363E44"/>
<path d="M282.925 280.924H279.472C279.171 279.242 278.729 277.595 278.162 276.02L281.154 274.285L275.311 264.157L272.319 265.892C271.222 264.6 270.018 263.414 268.725 262.298L270.46 259.306L260.333 253.464L258.598 256.456C257.022 255.889 255.376 255.447 253.694 255.146V251.693H241.991V255.146C240.309 255.447 238.662 255.889 237.087 256.456L235.351 253.464L225.224 259.306L226.959 262.298C225.667 263.396 224.481 264.6 223.365 265.892L220.373 264.157L214.53 274.285L217.523 276.02C216.956 277.595 216.513 279.242 216.212 280.924H212.76V292.627H216.212C216.513 294.309 216.956 295.955 217.523 297.531L214.53 299.266L220.373 309.393L223.365 307.658C224.463 308.951 225.667 310.137 226.959 311.252L225.224 314.245L235.351 320.087L237.087 317.095C238.662 317.662 240.309 318.104 241.991 318.405V321.858H253.694V318.405C255.376 318.104 257.022 317.662 258.598 317.095L260.333 320.087L270.46 314.245L268.725 311.252C270.018 310.155 271.204 308.951 272.319 307.658L275.311 309.393L281.154 299.266L278.162 297.531C278.729 295.955 279.171 294.309 279.472 292.627H282.925V280.924ZM271.558 295.902C269.168 302.701 263.786 308.083 256.969 310.491C236.06 317.839 216.779 298.576 224.144 277.666C226.534 270.868 231.917 265.485 238.733 263.077C259.643 255.712 278.906 274.993 271.558 295.902Z" fill="white"/>
</g>
<defs>
<clipPath id="clip0_758_2435">
<rect width="323.823" height="324" fill="white"/>
</clipPath>
</defs>
</svg>
