<svg width="324" height="324" viewBox="0 0 324 324" fill="none" xmlns="http://www.w3.org/2000/svg">
<g clip-path="url(#clip0_783_2782)">
<path d="M161.77 323.54C251.113 323.54 323.54 251.113 323.54 161.77C323.54 72.4268 251.113 0 161.77 0C72.4268 0 0 72.4268 0 161.77C0 251.113 72.4268 323.54 161.77 323.54Z" fill="#311602"/>
<path d="M39.8894 118.198C35.3215 109.416 30.0809 101.839 24.9111 96.1554L22.9989 110.319L20.3255 91.5875C14.2704 86.2407 8.67565 83.9213 4.86909 85.9043C-3.04501 90.0295 -0.21222 111.151 11.2075 133.123C22.6271 155.077 38.296 169.542 46.2101 165.417C54.1419 161.292 51.3091 140.17 39.8894 118.198Z" fill="#0D0D0D"/>
<path d="M69.7225 129.246L59.9848 134.947L69.1382 124.66C66.27 105.999 58.4444 92.2072 50.6012 92.9331C41.9435 93.7298 36.5258 111.895 38.5087 133.495C40.4917 155.113 49.114 171.986 57.7717 171.189C66.4294 170.392 71.8471 152.227 69.8641 130.627C69.811 130.149 69.7756 129.706 69.7225 129.246Z" fill="#E6D0BE"/>
<path d="M12.7478 155.077L20.9275 153.714L10.9419 152.209C3.77141 140.329 1.69994 128.874 6.46256 125.599C11.7209 121.969 23.3176 129.671 32.3649 142.79C41.4121 155.91 44.475 169.489 39.2167 173.101C33.9583 176.73 22.3616 169.029 13.3144 155.91C13.1196 155.626 12.9426 155.361 12.7478 155.077Z" fill="#E6D0BE"/>
<path d="M62.6399 217.576C62.4629 217.576 62.3035 217.452 62.2681 217.275C51.6275 175.544 37.5875 144.366 27.6904 125.546C16.9435 105.185 8.60451 94.5266 8.53369 94.4203C8.39205 94.2433 8.42746 94.0131 8.60451 93.8715C8.78156 93.7298 9.01172 93.7652 9.15336 93.9423C9.24188 94.0485 17.5986 104.742 28.3632 125.174C38.2957 144.03 52.3711 175.279 63.0294 217.098C63.0825 217.31 62.9586 217.523 62.7461 217.576C62.693 217.576 62.6576 217.576 62.6399 217.576Z" fill="#311602"/>
<path d="M65.6148 216.814C65.4377 216.814 65.2784 216.69 65.243 216.513C51.0259 156.157 49.8574 107.894 49.8574 107.416C49.8574 107.203 50.0168 107.026 50.2469 107.026C50.4771 107.026 50.6364 107.186 50.6364 107.416C50.6541 107.894 51.805 156.069 66.0043 216.354C66.0574 216.567 65.9158 216.779 65.721 216.814C65.6856 216.814 65.6502 216.814 65.6148 216.814Z" fill="#F2E6DC"/>
<path d="M58.7456 218.071C58.5686 218.071 58.4092 217.965 58.3738 217.788C51.3273 192.045 39.7128 170.888 31.2145 157.662C21.8309 143.073 13.9345 134.451 13.1909 133.938C13.0138 133.849 12.9253 133.654 12.9961 133.46C13.0669 133.247 13.2794 133.141 13.4919 133.212C14.7666 133.637 45.5378 167.913 59.1351 217.593C59.1883 217.806 59.0643 218.018 58.8696 218.071C58.7988 218.071 58.7633 218.071 58.7456 218.071Z" fill="#F2E6DC"/>
<path d="M136.805 66.4997L132.255 64.9062C132.627 62.5515 132.786 60.1967 132.786 57.8597L135.655 57.3108C136.681 57.1161 137.354 56.1246 137.16 55.0977L134.822 42.8105C134.628 41.7836 133.636 41.1108 132.609 41.3056L129.723 41.8544C128.874 39.659 127.847 37.5344 126.66 35.4984L130.308 32.3469L119.685 20.0066L116.038 23.1403C114.214 21.6708 112.266 20.343 110.195 19.1567L111.788 14.6066L96.4205 9.24197L94.827 13.7921C92.4723 13.4203 90.1175 13.261 87.7805 13.261L86.8775 8.53377L70.8723 11.5613L71.7752 16.2885C69.5798 17.1384 67.4552 18.1652 65.4192 19.3515L63.5248 17.1738C62.852 16.377 61.648 16.2885 60.8513 16.979L51.3792 25.141C50.5825 25.8138 50.4939 27.0177 51.1844 27.8144L53.0966 30.0275C51.6271 31.8511 50.2992 33.7987 49.113 35.8702L44.5628 34.2767L39.1982 49.6446L43.7484 51.238C43.3766 53.5928 43.2172 55.9475 43.2172 58.2846L40.349 58.8334C39.3221 59.0282 38.6493 60.0197 38.8441 61.0466L41.1812 73.3338C41.3759 74.3607 42.3674 75.0334 43.3943 74.8387L46.2802 74.2898C47.13 76.4852 48.1569 78.6098 49.3431 80.6459L45.6782 83.7797L56.3012 96.12L59.9484 92.9862C61.772 94.4557 63.7195 95.7836 65.791 96.9698L64.1975 101.52L79.5654 106.885L81.1589 102.334C83.5136 102.706 85.8684 102.866 88.2054 102.866L89.1084 107.593L105.114 104.565L104.211 99.838C106.406 98.9882 108.531 97.9613 110.567 96.7751L112.479 98.9882C113.152 99.7849 114.356 99.8734 115.152 99.1829L124.624 91.021C125.421 90.3482 125.51 89.1443 124.819 88.3475L122.907 86.1344C124.377 84.3108 125.704 82.3633 126.891 80.2918L131.441 81.8852L136.805 66.4997ZM117.118 69.3148C111.24 84.5587 94.2782 92.7384 78.6802 87.8341C61.4533 82.4341 52.4061 63.6492 58.9038 46.8118C64.7818 31.5679 81.7431 23.3882 97.3411 28.2925C114.55 33.6925 123.615 52.4774 117.118 69.3148Z" fill="#0D0D0D"/>
<path d="M88.0107 94.0839C84.0448 94.0839 80.0258 93.4288 76.1307 92.0656C67.0481 88.8964 59.7537 82.381 55.5753 73.7056C51.397 65.0479 50.8481 55.2748 54.0173 46.1921C56.8855 37.9948 62.6042 31.1252 70.1288 26.823C77.5825 22.5561 86.2934 21.0866 94.6855 22.68C94.8979 22.7154 95.0396 22.9279 95.0042 23.1403C94.9688 23.3528 94.7563 23.4944 94.5438 23.459C77.5825 20.2544 60.4796 30.1338 54.7786 46.4754C51.6802 55.3633 52.2114 64.9239 56.3012 73.4046C60.3911 81.8852 67.5261 88.259 76.414 91.3574C91.5694 96.6511 108.389 91.0564 117.312 77.7246C117.436 77.5475 117.666 77.4944 117.861 77.6184C118.038 77.7423 118.091 77.9725 117.967 78.1672C111.098 88.3121 99.7668 94.0839 88.0107 94.0839Z" fill="#311602"/>
<path d="M292.857 226.357L286.979 224.304C287.457 221.258 287.67 218.213 287.67 215.186L293.778 214.035L289.848 193.338L283.722 194.506C282.624 191.656 281.296 188.911 279.756 186.273L284.483 182.201L270.726 166.231L266.017 170.286C263.662 168.391 261.13 166.674 258.457 165.134L260.511 159.256L240.61 152.298L238.556 158.176C235.511 157.698 232.466 157.485 229.438 157.485L228.288 151.377L207.591 155.308L208.759 161.433C205.909 162.531 203.164 163.859 200.526 165.399L196.454 160.672L180.484 174.429L184.539 179.138C182.644 181.493 180.927 184.025 179.387 186.698L173.509 184.645L166.551 204.527L172.429 206.581C171.951 209.626 171.738 212.671 171.738 215.699L165.63 216.85L169.56 237.547L175.686 236.378C176.784 239.229 178.112 241.973 179.652 244.611L174.925 248.683L188.682 264.653L193.391 260.599C195.746 262.493 198.278 264.21 200.951 265.751L198.897 271.629L218.78 278.587L220.834 272.709C223.879 273.187 226.924 273.399 229.952 273.399L231.103 279.508L251.8 275.577L250.631 269.451C253.482 268.353 256.226 267.026 258.864 265.485L262.936 270.212L278.906 256.456L274.852 251.746C276.746 249.391 278.463 246.86 280.004 244.186L285.882 246.24L292.857 226.357ZM267.362 230.005C259.749 249.746 237.813 260.315 217.647 253.977C195.356 246.984 183.653 222.675 192.046 200.88C199.659 181.139 221.595 170.569 241.761 176.908C264.052 183.919 275.772 208.21 267.362 230.005Z" fill="#0D0D0D"/>
<path d="M229.722 261.927C224.605 261.927 219.418 261.077 214.389 259.324C190.187 250.861 177.386 224.304 185.849 200.119C189.549 189.549 196.932 180.661 206.635 175.119C216.248 169.613 227.491 167.719 238.326 169.772C238.539 169.808 238.681 170.02 238.645 170.233C238.61 170.445 238.397 170.587 238.185 170.551C216.178 166.391 193.993 179.209 186.593 200.402C178.271 224.197 190.877 250.312 214.655 258.616C234.307 265.485 256.12 258.209 267.699 240.946C267.823 240.769 268.053 240.716 268.248 240.84C268.425 240.964 268.478 241.194 268.354 241.389C259.519 254.49 244.895 261.927 229.722 261.927Z" fill="#311602"/>
<path d="M221.152 52.1233H101.449V277.95H221.152V52.1233Z" fill="#EFBC73"/>
<path d="M215.911 291.689H105.857C98.1912 291.689 91.9414 285.456 91.9414 277.79V50.158C91.9414 42.4918 98.1735 36.242 105.857 36.242H215.929C223.595 36.242 229.845 42.4741 229.845 50.158V277.772C229.827 285.439 223.595 291.689 215.911 291.689ZM105.857 37.0387C98.6162 37.0387 92.7381 42.9344 92.7381 50.158V277.772C92.7381 285.014 98.6339 290.892 105.857 290.892H215.929C223.17 290.892 229.048 284.996 229.048 277.772V50.158C229.048 42.9167 223.153 37.0387 215.929 37.0387H105.857Z" fill="#363E44"/>
<path d="M315.502 135.124H178.731V46.1921H315.502V135.124ZM179.51 134.345H314.723V46.9711H179.51V134.345Z" fill="#8B865C"/>
<path d="M250.171 65.88H195.445V112.745H250.171V65.88Z" fill="#E6D0BE"/>
<path d="M243.638 59.3469H188.912V106.212H243.638V59.3469Z" fill="#0D0D0D"/>
<path d="M305.322 66.1633H256.35C256.138 66.1633 255.961 65.9862 255.961 65.7738C255.961 65.5613 256.138 65.3843 256.35 65.3843H305.322C305.535 65.3843 305.712 65.5613 305.712 65.7738C305.712 65.9862 305.535 66.1633 305.322 66.1633Z" fill="#8B865C"/>
<path d="M294.912 76.202H256.333C256.12 76.202 255.943 76.0249 255.943 75.8125C255.943 75.6 256.12 75.423 256.333 75.423H294.912C295.124 75.423 295.301 75.6 295.301 75.8125C295.301 76.0249 295.142 76.202 294.912 76.202Z" fill="#8B865C"/>
<path d="M301.427 85.2846H256.35C256.138 85.2846 255.961 85.1075 255.961 84.8951C255.961 84.6826 256.138 84.5056 256.35 84.5056H301.427C301.64 84.5056 301.817 84.6826 301.817 84.8951C301.817 85.1252 301.64 85.2846 301.427 85.2846Z" fill="#8B865C"/>
<path d="M287.352 94.8629H256.35C256.138 94.8629 255.961 94.6859 255.961 94.4734C255.961 94.261 256.138 94.0839 256.35 94.0839H287.352C287.564 94.0839 287.741 94.261 287.741 94.4734C287.741 94.6859 287.564 94.8629 287.352 94.8629Z" fill="#8B865C"/>
<path d="M209.821 73.4931C210.689 73.0682 211.574 72.7672 212.477 72.5902L212.141 67.7213C210.618 67.9515 209.113 68.4295 207.661 69.1554C204.138 70.9082 201.606 73.8649 200.278 77.282L204.97 78.6629C205.891 76.4852 207.555 74.6262 209.821 73.4931Z" fill="#EFBC73"/>
<path d="M204.687 86.2407C204.085 84.541 203.961 82.7882 204.227 81.0885L199.535 79.7075C198.951 82.558 199.163 85.5679 200.297 88.4184L204.687 86.2407Z" fill="#EFBC73"/>
<path d="M228.624 77.1226L224.251 79.3003C225.986 84.1692 223.844 89.6754 219.117 92.0479C214.389 94.4203 208.688 92.8092 205.838 88.5069L201.465 90.6846C205.537 97.377 214.159 99.9443 221.294 96.3856C228.429 92.8446 231.546 84.3993 228.624 77.1226Z" fill="#D87355"/>
<path d="M215.027 72.4131C218.231 72.5902 221.259 74.2367 223.118 77.0341L227.491 74.8564C224.711 70.2885 219.789 67.6328 214.69 67.562L215.027 72.4131Z" fill="#EFBC73"/>
<path d="M208.298 265.804H148.154V226.198H148.933V265.025H208.298V265.804Z" fill="#0D0D0D"/>
<path d="M193.773 234.379L186.675 238.619L187.074 239.288L194.173 235.048L193.773 234.379Z" fill="#0D0D0D"/>
<path d="M173.091 222.981L172.439 223.409L182.053 238.044L182.704 237.616L173.091 222.981Z" fill="#0D0D0D"/>
<path d="M168.338 222.237L160.87 228.006L161.346 228.622L168.815 222.853L168.338 222.237Z" fill="#0D0D0D"/>
<path d="M161.68 230.984C162.071 229.328 161.045 227.668 159.39 227.277C157.734 226.887 156.075 227.912 155.684 229.568C155.293 231.223 156.318 232.883 157.974 233.274C159.629 233.665 161.289 232.639 161.68 230.984Z" fill="#0D0D0D"/>
<path d="M174.195 220.831C174.289 219.132 172.988 217.678 171.289 217.584C169.59 217.49 168.137 218.791 168.042 220.49C167.948 222.189 169.249 223.642 170.948 223.736C172.647 223.83 174.1 222.529 174.195 220.831Z" fill="#0D0D0D"/>
<path d="M187.246 240.433C187.246 242.132 185.865 243.513 184.166 243.513C182.466 243.513 181.085 242.132 181.085 240.433C181.085 238.733 182.466 237.352 184.166 237.352C185.865 237.352 187.246 238.733 187.246 240.433Z" fill="#0D0D0D"/>
<path d="M197.873 236.111C199.445 235.46 200.191 233.658 199.54 232.086C198.889 230.514 197.087 229.768 195.515 230.419C193.943 231.07 193.197 232.872 193.848 234.444C194.499 236.016 196.301 236.762 197.873 236.111Z" fill="#0D0D0D"/>
<path d="M162.708 238.237H155.042V259.235H162.708V238.237Z" fill="#8B865C"/>
<path d="M175.367 234.041H167.701V259.235H175.367V234.041Z" fill="#8B865C"/>
<path d="M188.009 245.656H180.343V259.235H188.009V245.656Z" fill="#8B865C"/>
<path d="M200.65 241.761H192.983V259.235H200.65V241.761Z" fill="#8B865C"/>
<path d="M303.958 220.302H202.049V192.382H303.958V220.302ZM202.828 219.523H303.179V193.161H202.828V219.523Z" fill="#8B865C"/>
<path d="M291.07 184.91C286.75 183.547 286.254 176.872 282.642 176.978C273.736 177.209 269.682 206.28 262.936 205.89C257.359 205.572 256.439 185.548 249.994 184.91C243.107 184.22 238.238 206.422 230.802 205.89C224.269 205.43 224.517 188.044 212.938 182.219C210.99 181.245 208.954 180.714 206.9 180.502V215.433H299.108V182.538C295.62 185.052 293.035 185.53 291.07 184.91Z" fill="#8B865C"/>
<path d="M119.455 184.733C135.797 188.646 182.237 202.845 187.991 183.281C192.736 167.099 146.898 155.272 130.928 150.332C127.104 161.805 123.279 173.26 119.455 184.733Z" fill="#E2A18D"/>
<path d="M157.608 172.092C174.039 146.384 185.193 127.812 188.858 122.217C189.247 121.633 189.92 120.588 191.124 119.526C195.603 115.595 200.242 117.649 206.828 115.666C214.3 113.418 217.239 107.911 218.921 109.009C220.089 109.771 219.558 112.161 216.796 116.233C219.239 113.365 222.745 109.629 224.321 110.992C226.056 112.656 222.479 117.525 220.16 120.376C222.957 116.941 225.471 115.95 226.162 116.923C227.242 118.464 225.702 121.633 221.824 126.041C225.347 123.757 226.551 123.722 226.941 124.731C227.667 126.572 224.409 130.131 221.063 132.84C217.274 135.885 213.29 136.93 210.759 137.532C201.127 156.742 194.081 168.71 187.477 184.769C183.281 195.002 158.972 188.77 157.608 172.092Z" fill="#E2A18D"/>
<path d="M157.308 172.623C157.237 172.623 157.166 172.605 157.095 172.57C156.918 172.446 156.865 172.216 156.971 172.039C159.238 168.498 161.539 164.868 163.806 161.292C163.93 161.115 164.16 161.062 164.337 161.168C164.514 161.274 164.567 161.522 164.461 161.699C162.194 165.293 159.893 168.905 157.627 172.446C157.556 172.552 157.432 172.623 157.308 172.623Z" fill="#363E44"/>
<path d="M201.216 118.906C204.952 112.143 204.864 108.903 203.766 108.354C201.925 107.416 196.383 111.895 189.673 121.084C192.948 120.765 197.941 119.225 201.216 118.906Z" fill="#E2A18D"/>
<path d="M199.747 132.079C199.676 132.079 199.623 132.061 199.552 132.026C199.358 131.919 199.287 131.689 199.393 131.494C200.084 130.237 201.376 128.502 203.607 127.334C206.776 125.67 209.874 126.201 211.061 126.502C211.273 126.555 211.397 126.767 211.344 126.98C211.291 127.192 211.078 127.316 210.866 127.263C209.768 126.98 206.9 126.484 203.961 128.024C201.889 129.122 200.703 130.715 200.066 131.884C200.03 132.008 199.889 132.079 199.747 132.079Z" fill="#363E44"/>
<path d="M194.648 118.18C194.488 118.18 194.329 118.074 194.276 117.915C194.205 117.702 194.329 117.49 194.524 117.419C196.17 116.888 197.905 116.782 199.747 116.658C200.597 116.605 201.464 116.534 202.385 116.445C202.597 116.428 202.792 116.569 202.81 116.782C202.827 116.994 202.686 117.189 202.473 117.207C201.535 117.313 200.65 117.366 199.8 117.419C198.012 117.543 196.33 117.649 194.772 118.145C194.736 118.18 194.683 118.18 194.648 118.18Z" fill="#363E44"/>
<path d="M210.759 120.252C210.6 120.252 210.44 120.146 210.387 119.986C210.316 119.791 210.422 119.561 210.635 119.491C211.502 119.19 212.352 118.818 213.131 118.357C214.282 117.702 215.344 116.888 216.283 115.95C216.442 115.79 216.69 115.79 216.832 115.95C216.991 116.109 216.991 116.357 216.832 116.498C215.84 117.49 214.725 118.34 213.503 119.03C212.671 119.508 211.786 119.898 210.865 120.216C210.847 120.234 210.812 120.252 210.759 120.252Z" fill="#363E44"/>
<path d="M214.478 123.934C214.318 123.934 214.159 123.828 214.106 123.669C214.035 123.474 214.141 123.244 214.354 123.173C215.221 122.872 216.053 122.5 216.85 122.04C218.001 121.385 219.063 120.571 220.002 119.632C220.161 119.473 220.409 119.473 220.55 119.632C220.71 119.791 220.71 120.039 220.55 120.181C219.559 121.172 218.444 122.022 217.222 122.713C216.39 123.191 215.505 123.598 214.584 123.899C214.548 123.917 214.513 123.934 214.478 123.934Z" fill="#363E44"/>
<path d="M215.911 130.113C215.752 130.113 215.593 130.007 215.539 129.848C215.469 129.653 215.575 129.423 215.787 129.352C216.655 129.051 217.505 128.679 218.284 128.219C219.435 127.564 220.497 126.75 221.435 125.811C221.594 125.652 221.842 125.652 221.984 125.811C222.143 125.971 222.143 126.218 221.984 126.36C220.993 127.351 219.877 128.201 218.655 128.892C217.823 129.37 216.938 129.759 216.017 130.078C216 130.113 215.947 130.113 215.911 130.113Z" fill="#363E44"/>
<path d="M120.234 211.043C123.616 219.93 126.768 229.863 129.299 240.751C136.895 273.417 136.063 302.382 133.336 323.858C117.561 323.522 101.768 324.195 85.9931 323.858C84.8246 307.074 83.6384 289.281 82.4699 272.496C79.7787 280.552 77.1053 288.608 74.4141 296.664C71.3866 305.729 68.3767 314.793 65.3492 323.858C49.2377 323.363 33.1085 324.354 16.9971 323.858C17.8646 307.34 20.8567 282.801 30.0987 256.881C38.9158 232.129 50.4417 213.096 59.8076 199.977C79.938 203.66 100.086 207.342 120.234 211.043Z" fill="#363E44"/>
<path d="M33.1437 157.202C21.8656 166.285 -11.5436 187.796 4.81579 209.679C10.9948 217.93 38.7915 191.426 50.583 183.14C44.7758 174.5 38.9686 165.842 33.1437 157.202Z" fill="#E2A18D"/>
<path d="M23.0869 162.018C27.2299 158.193 58.2666 130.432 100.475 137.337C124.819 141.321 140.276 148.314 149.234 153.98C140.311 170.127 137.408 173.703 132.379 179.97C134.947 193.072 137.532 206.156 140.099 219.258C120.96 219.098 59.1872 217.239 39.7118 216.567C43.182 205.483 46.6522 199.552 50.1223 188.487C47.4312 190.717 44.7577 192.966 42.0666 195.197C35.8522 184.857 28.6286 171.755 23.0869 162.018Z" fill="#FA822A"/>
<path d="M69.6154 209.007C69.58 209.007 69.5268 209.007 69.4914 208.989C69.2967 208.918 69.1905 208.688 69.2613 208.493L87.2318 158.034H126.696C126.908 158.034 127.086 158.211 127.086 158.424C127.086 158.636 126.908 158.813 126.696 158.813H87.7629L69.9695 208.759C69.9164 208.918 69.7747 209.007 69.6154 209.007Z" fill="#D66C4D"/>
<path d="M110.691 211.043H71.4922L89.3742 160.849H128.573L110.691 211.043Z" fill="#D66C4D"/>
<path d="M13.4737 183.016C26.8764 183.919 58.5682 184.468 61.6665 184.645C67.4383 184.981 98.4042 187.548 98.5282 192.063C98.5813 194.223 92.597 193.993 90.5787 193.851C92.1544 194.772 98.599 197.622 98.0324 199.977C97.3596 202.739 89.1623 200.508 89.0206 200.561C90.7203 201.323 97.6075 204.102 97.2534 205.891C96.7931 208.21 89.6049 207.537 87.4626 207.236C87.6396 207.555 94.5623 209.237 94.1373 212.016C93.8187 214.052 87.2324 213.433 84.3642 213.185C79.2298 212.902 19.3341 212.76 8.21538 211.308C3.84226 210.724 7.5957 187.212 13.4737 183.016Z" fill="#E2A18D"/>
<path d="M42.3682 184.379C35.5341 184.149 17.7406 183.37 13.4206 183.122C13.2082 183.104 13.0488 182.927 13.0488 182.715C13.0665 182.502 13.2436 182.325 13.456 182.343C17.776 182.591 35.5695 183.37 42.3682 183.6C42.5806 183.6 42.7577 183.795 42.74 184.007C42.7577 184.22 42.5806 184.379 42.3682 184.379Z" fill="#363E44"/>
<path d="M90.6498 194.028C90.5967 194.028 90.5436 194.01 90.4905 193.993C89.3928 193.515 88.2597 193.125 87.1089 192.807C85.0374 192.24 82.9128 191.921 80.7528 191.886C80.5403 191.886 80.3633 191.709 80.3633 191.479C80.3633 191.266 80.5403 191.089 80.7528 191.089C82.9659 191.142 85.179 191.461 87.3036 192.045C88.4898 192.364 89.6584 192.789 90.7915 193.267C90.9862 193.355 91.0748 193.586 91.0039 193.78C90.9508 193.94 90.8092 194.028 90.6498 194.028Z" fill="#363E44"/>
<path d="M89.1275 200.791C89.0921 200.791 89.0567 200.791 89.0213 200.774C88.7734 200.703 88.5432 200.632 88.2954 200.561C86.2416 199.995 84.0993 199.676 81.9393 199.641C81.7269 199.641 81.5498 199.464 81.5498 199.251C81.5498 199.039 81.7269 198.862 81.9393 198.862C84.1524 198.915 86.3655 199.233 88.4901 199.818C88.7557 199.889 89.0036 199.959 89.2514 200.03C89.4639 200.101 89.5701 200.313 89.517 200.526C89.4462 200.685 89.3046 200.791 89.1275 200.791Z" fill="#363E44"/>
<path d="M87.3039 207.537C87.2862 207.537 87.2507 207.537 87.233 207.537C85.8521 207.289 84.4534 207.13 83.037 207.112C82.8245 207.112 82.6475 206.935 82.6475 206.723C82.6475 206.51 82.8068 206.333 83.0547 206.333C84.5065 206.369 85.9583 206.51 87.3747 206.776C87.5871 206.811 87.7288 207.024 87.6934 207.236C87.658 207.413 87.4986 207.537 87.3039 207.537Z" fill="#363E44"/>
<path d="M58.7457 116.339C46.5293 116.339 36.5791 106.407 36.5791 94.1725C36.5791 81.9561 46.5116 72.0059 58.7457 72.0059C70.9621 72.0059 80.9122 81.9384 80.9122 94.1725C80.8945 106.389 70.9621 116.339 58.7457 116.339ZM58.7457 72.8026C46.9542 72.8026 37.3581 82.3987 37.3581 94.1902C37.3581 105.982 46.9542 115.578 58.7457 115.578C70.5371 115.578 80.1332 105.982 80.1332 94.1902C80.1155 82.381 70.5194 72.8026 58.7457 72.8026Z" fill="#363E44"/>
<path d="M62.6405 112.001C77.6207 112.001 89.7645 99.8575 89.7645 84.8774C89.7645 69.8972 77.6207 57.7534 62.6405 57.7534C47.6604 57.7534 35.5166 69.8972 35.5166 84.8774C35.5166 99.8575 47.6604 112.001 62.6405 112.001Z" fill="#363E44"/>
<path d="M91.1985 124.306C101.309 124.306 109.505 116.11 109.505 105.999C109.505 95.8887 101.309 87.6925 91.1985 87.6925C81.0879 87.6925 72.8916 95.8887 72.8916 105.999C72.8916 116.11 81.0879 124.306 91.1985 124.306Z" fill="#363E44"/>
<path d="M106.16 128.414C102.123 131.282 90.6855 123.492 90.6855 123.492L84.1523 109.824C84.1523 102.848 89.8002 97.1823 96.7937 97.1823C103.769 97.1823 109.435 102.83 109.435 109.824C109.417 109.824 110.267 125.492 106.16 128.414Z" fill="#E2A18D"/>
<path d="M92.5266 148.314C100.603 148.314 107.151 145.627 107.151 142.312C107.151 138.997 100.603 136.31 92.5266 136.31C84.4498 136.31 77.9023 138.997 77.9023 142.312C77.9023 145.627 84.4498 148.314 92.5266 148.314Z" fill="#E2A18D"/>
<path d="M99.7681 109.682H84.1523V141.622H99.7681V109.682Z" fill="#E2A18D"/>
<path d="M107.965 113.134C107.965 113.134 111.506 116.852 111.311 117.826C111.081 118.995 107.133 119.703 107.133 119.703C107.133 119.703 108.053 113.152 107.965 113.134Z" fill="#E2A18D"/>
<path d="M102.282 129.511C102.264 129.511 102.229 129.511 102.211 129.511C97.2359 128.626 90.7382 124.218 90.4726 124.041C90.2956 123.917 90.2424 123.669 90.3664 123.492C90.4903 123.315 90.7382 123.262 90.9152 123.386C90.986 123.439 97.5369 127.883 102.353 128.732C102.565 128.768 102.707 128.98 102.671 129.193C102.618 129.37 102.459 129.511 102.282 129.511Z" fill="#363E44"/>
<path d="M95.3057 111.718C95.3057 111.718 97.625 110.479 100.422 110.479C101.024 110.479 99.8912 115.241 99.3247 114.958C96.846 113.772 95.3057 111.718 95.3057 111.718Z" fill="white"/>
<mask id="mask0_783_2782" style="mask-type:luminance" maskUnits="userSpaceOnUse" x="95" y="110" width="14" height="6">
<path d="M95.3057 111.718C95.3057 111.718 98.7227 109.877 102.246 110.673C105.787 111.452 108.106 114.551 108.106 114.551C108.106 114.551 104.689 116.392 101.166 115.595C97.625 114.816 95.3057 111.718 95.3057 111.718Z" fill="white"/>
</mask>
<g mask="url(#mask0_783_2782)">
<path d="M103.892 118.428C106.503 118.428 108.619 116.312 108.619 113.701C108.619 111.09 106.503 108.974 103.892 108.974C101.281 108.974 99.165 111.09 99.165 113.701C99.165 116.312 101.281 118.428 103.892 118.428Z" fill="#363E44"/>
</g>
<path d="M103.485 122.306C103.043 122.306 102.6 122.182 102.228 121.934C101.485 121.456 101.077 120.571 101.184 119.703C101.201 119.491 101.396 119.331 101.609 119.367C101.821 119.384 101.98 119.579 101.945 119.791C101.874 120.376 102.14 120.96 102.635 121.279C103.149 121.615 103.804 121.615 104.317 121.279C104.494 121.155 104.742 121.208 104.849 121.403C104.973 121.58 104.919 121.828 104.725 121.934C104.371 122.182 103.928 122.306 103.485 122.306Z" fill="#363E44"/>
<path d="M81.0716 113.134C81.0716 113.134 85.1084 111.523 89.2513 115.79L91.9425 114.321C91.9425 114.321 90.3844 97.1292 109.222 103.892C109.222 103.892 102.76 89.463 90.1543 94.7567C77.5661 100.05 81.0716 113.134 81.0716 113.134Z" fill="#363E44"/>
<path d="M80.9118 116.162C81.6554 118.623 83.9924 120.11 86.1347 119.473C88.277 118.835 89.4278 116.304 88.6842 113.843C87.9406 111.382 85.6036 109.894 83.4613 110.532C81.319 111.169 80.1859 113.683 80.9118 116.162Z" fill="#E2A18D"/>
<path d="M87.0198 114.657C86.8604 114.657 86.7011 114.551 86.648 114.374C86.2939 113.17 85.1608 112.444 84.1516 112.745C83.5496 112.922 83.0893 113.453 82.9122 114.144C82.8591 114.356 82.6467 114.48 82.4342 114.427C82.2218 114.374 82.0978 114.161 82.1509 113.949C82.3811 112.993 83.0539 112.249 83.9214 112.001C85.3555 111.576 86.9136 112.532 87.3916 114.161C87.4447 114.374 87.3385 114.586 87.126 114.639C87.0906 114.639 87.0552 114.657 87.0198 114.657Z" fill="#363E44"/>
<path d="M84.9839 126.077C82.7 126.077 80.8232 124.218 80.8232 121.916C80.8232 119.632 82.6823 117.755 84.9839 117.755C87.2678 117.755 89.1446 119.614 89.1446 121.916C89.1446 124.2 87.2855 126.077 84.9839 126.077ZM84.9839 118.534C83.1249 118.534 81.6023 120.057 81.6023 121.916C81.6023 123.775 83.1249 125.298 84.9839 125.298C86.8429 125.298 88.3655 123.775 88.3655 121.916C88.3655 120.057 86.8429 118.534 84.9839 118.534Z" fill="#EFBC73"/>
<path opacity="0.5" d="M173.721 98.8466H122.607C118.464 98.8466 115.082 95.4649 115.082 91.322C115.082 87.179 118.464 83.7974 122.607 83.7974H173.721C177.864 83.7974 181.245 87.179 181.245 91.322C181.245 95.4649 177.864 98.8466 173.721 98.8466Z" fill="#0D0D0D"/>
<path d="M175.226 103.29H127.015C122.306 103.29 118.464 99.4485 118.464 94.739C118.464 90.0295 122.306 86.1875 127.015 86.1875H175.226C179.935 86.1875 183.777 90.0295 183.777 94.739C183.777 99.4485 179.935 103.29 175.226 103.29ZM127.015 86.9843C122.731 86.9843 119.243 90.4721 119.243 94.7567C119.243 99.0413 122.731 102.529 127.015 102.529H175.226C179.51 102.529 182.998 99.0413 182.998 94.7567C182.998 90.4721 179.51 86.9843 175.226 86.9843H127.015Z" fill="#0D0D0D"/>
<path d="M129.972 94.562C129.972 96.2085 128.644 97.5364 126.998 97.5364C125.351 97.5364 124.023 96.2085 124.023 94.562C124.023 92.9154 125.351 91.5875 126.998 91.5875C128.644 91.5875 129.972 92.9154 129.972 94.562Z" fill="#D87355"/>
<path d="M139.462 94.562C139.462 96.2085 138.134 97.5364 136.487 97.5364C134.841 97.5364 133.513 96.2085 133.513 94.562C133.513 92.9154 134.841 91.5875 136.487 91.5875C138.134 91.5875 139.462 92.9154 139.462 94.562Z" fill="#D87355"/>
<path d="M148.952 94.562C148.952 96.2085 147.624 97.5364 145.977 97.5364C144.331 97.5364 143.003 96.2085 143.003 94.562C143.003 92.9154 144.331 91.5875 145.977 91.5875C147.624 91.5875 148.952 92.9154 148.952 94.562Z" fill="#D87355"/>
<path d="M158.442 94.562C158.442 96.2085 157.114 97.5364 155.468 97.5364C153.821 97.5364 152.493 96.2085 152.493 94.562C152.493 92.9154 153.821 91.5875 155.468 91.5875C157.114 91.5875 158.442 92.9154 158.442 94.562Z" fill="#D87355"/>
<path d="M295.76 152.491C305.08 143.171 305.08 128.06 295.76 118.739C286.44 109.419 271.329 109.419 262.009 118.739C252.688 128.06 252.688 143.171 262.009 152.491C271.329 161.811 286.44 161.811 295.76 152.491Z" fill="#0D0D0D"/>
<path d="M292.538 122.961L291.388 122.129L287.705 127.157L284.27 124.643L287.953 119.614L286.802 118.765L280.304 121.633L279.543 128.697L285.279 132.875L291.777 130.025L292.538 122.961Z" fill="#D3BBA3"/>
<path d="M265.22 148.279L266.371 149.111L270.071 144.083L273.488 146.579L269.805 151.625L270.956 152.457L277.454 149.589L278.215 142.542L272.479 138.346L265.999 141.214L265.22 148.279Z" fill="#D3BBA3"/>
<path d="M285.459 130.305L281.958 127.744L271.653 141.836L275.155 144.396L285.459 130.305Z" fill="#D3BBA3"/>
</g>
<defs>
<clipPath id="clip0_783_2782">
<rect width="323.54" height="324" fill="white"/>
</clipPath>
</defs>
</svg>
