<svg width="324" height="324" viewBox="0 0 324 324" fill="none" xmlns="http://www.w3.org/2000/svg">
<g clip-path="url(#clip0_758_1774)">
<path d="M162 324C251.47 324 324 251.47 324 162C324 72.5299 251.47 0 162 0C72.5299 0 0 72.5299 0 162C0 251.47 72.5299 324 162 324Z" fill="#FEF0E6"/>
<path d="M282.624 211.184H21.6708C21.4584 211.184 21.2813 211.007 21.2813 210.795V25.7606C21.2813 25.5482 21.4584 25.3711 21.6708 25.3711H282.624C282.836 25.3711 283.013 25.5482 283.013 25.7606V210.812C283.013 211.007 282.836 211.184 282.624 211.184ZM22.0603 210.405H282.234V26.1501H22.0603V210.405Z" fill="#D3BBA3"/>
<path d="M274.44 186.755V33.9439L29.8644 33.9439L29.8644 186.755L274.44 186.755Z" fill="#F7F1EB"/>
<path d="M162.85 114.445V110.833L162.035 110.125V107.274L160.141 105.628V108.637L158.99 109.629L157.167 108.035L158.813 106.601L155.892 104.052L149.607 109.558H147.659L144.862 112.001C144.826 114.887 144.773 119.313 144.897 119.313C145.092 119.313 149.766 119.313 149.766 119.313V117.844H153.395V119.986H155.148V122.306L157.45 124.306L164.001 118.605V114.462H162.85V114.445Z" fill="#E6D0BE"/>
<path d="M52.3357 92.0832C52.3357 91.5698 51.9462 84.6295 52.3357 84.6295C52.7253 84.6295 47.4669 84.6295 47.4669 84.6295V80.7344H54.0708L56.4964 82.859V78.716L61.5069 74.3606H66.5174V71.2623H73.1213V62.1088L70.5895 59.9134L65.3312 64.4813L63.0295 62.4275L68.2879 57.8596L69.5449 58.9573L72.4662 56.4078L76.1666 59.6301L78.2026 57.8596V53.9646H68.6774L71.0144 51.9285H57.3993L53.5574 48.5823H48.2636L36.72 58.6387H41.4649L44.6341 55.8767L47.8741 58.7095L44.4748 61.6662V66.659L40.4734 70.1469V83.7796L52.3357 92.0832Z" fill="#E6D0BE"/>
<path d="M55.2747 92.0833H61.9849L71.3508 100.245H75.2636V105.734L72.4131 108.212V114.179C72.4131 114.179 70.1469 115.649 70.1469 116.144C70.1469 116.658 70.1469 129.742 70.1469 129.742L72.6964 131.972V134.203L61.2944 124.271V116.41L57.8596 113.418V109.169L52.7606 104.725V96.2262L55.2747 92.0833Z" fill="#E6D0BE"/>
<path d="M83.7088 85.019V95.5711C83.7088 95.5711 92.4551 94.5619 92.4551 95.5711C92.4551 96.5803 97.7134 100.139 97.7134 100.139V105.096C97.7134 105.096 97.7134 109.93 97.7134 110.426C97.7134 110.939 101.396 113.63 101.396 113.63V118.552H106.318L111.028 114.445V107.487L114.161 104.76V98.3331L118.853 94.2433L116.587 92.2603H113.188L110.319 89.7639V82.3101L114.675 86.099L112.019 88.4006L114.427 90.4898L118.942 86.5416V84.8242H123.102L126.891 88.1351V90.8085L130.025 93.5351L136.664 87.7456L138.629 89.4629V94.5442H142.206L140.453 93.0216V90.8616L142.401 92.5613L143.888 93.8537L147.677 90.5429L144.384 87.6747L150.067 82.7174L144.826 78.1495L153.537 70.5541L147.482 65.278L153.325 60.179V63.4013L158.477 67.8806V63.7731L155.485 61.1705L161.557 55.8767H158.229V53.6105H132.557L127.883 49.5383L122.199 54.4957L123.651 55.7705L118.216 60.5508L116.02 58.6387L112.816 61.436L107.929 57.1869L99.838 64.2334L102.033 66.1456V67.8629L103.521 66.5528V63.9147H106.336V64.8531L101.715 68.8721L99.8734 67.261L94.5265 71.9174V73.3514L93.4111 74.3252H90.8085V75.5646L89.4098 76.7862L91.499 78.5921H93.8537V76.4852L95.7659 74.8033L97.4124 76.2374C97.4124 76.2374 98.2623 74.6439 98.758 75.0688C99.236 75.4937 100.847 76.68 100.847 76.8924C100.847 77.1049 101.095 78.2026 100.847 78.2026C100.599 78.2026 101.821 77.3528 101.821 77.3528V75.9541L100.316 74.6439L100.918 74.1128L102.565 75.5469V77.2997L103.857 78.4328V77.4236L104.99 76.4321L107.717 74.0596V72.6433H109.487V74.2544C109.487 74.2544 110.585 74.1482 110.709 74.2544C110.833 74.3606 111.948 75.3344 111.948 75.3344V76.4144H109.204V75.6H107.309L105.539 77.1403V78.0964L106.743 79.141H109.505V81.0531H104.406L102.972 79.796L100.9 81.6196L99.0767 80.0262V78.6098H95.4472L93.7652 80.0793H90.1357L85.6033 84.0275V84.9836L83.7088 85.019Z" fill="#E6D0BE"/>
<path d="M110.314 166.089H163.499V155.43H110.314V166.089Z" fill="#D3BBA3"/>
<path d="M111.506 168.232V153.271L102.016 160.531L111.506 168.232Z" fill="#D3BBA3"/>
<path d="M166.869 169.277C159.716 169.277 152.599 167.719 145.924 164.603C133.92 159.008 124.802 149.058 120.269 136.593C115.737 124.147 116.339 110.673 121.934 98.6518C127.529 86.6479 137.479 77.5298 149.943 72.9974C162.39 68.4649 175.863 69.0669 187.885 74.6616C199.889 80.2564 209.007 90.2066 213.539 102.671C218.071 115.117 217.469 128.591 211.875 140.612C206.28 152.616 196.33 161.734 183.866 166.267C178.324 168.285 172.588 169.277 166.869 169.277ZM166.922 70.7843C161.292 70.7843 155.644 71.7757 150.209 73.7587C137.957 78.2203 128.166 87.179 122.642 99.0059C117.136 110.833 116.551 124.094 120.995 136.346C125.457 148.597 134.416 158.388 146.243 163.912C158.07 169.418 171.33 170.003 183.582 165.559C195.834 161.097 205.625 152.138 211.149 140.311C216.655 128.485 217.239 115.224 212.795 102.972C208.334 90.72 199.375 80.9292 187.548 75.4052C180.98 72.3246 173.969 70.7843 166.922 70.7843ZM166.922 153.714C153.006 153.714 139.904 145.11 134.876 131.282C128.449 113.63 137.585 94.0485 155.254 87.6216C172.906 81.1948 192.488 90.3305 198.915 108C205.342 125.652 196.206 145.233 178.536 151.66C174.712 153.059 170.782 153.714 166.922 153.714ZM166.869 86.3469C163.098 86.3469 159.273 86.9843 155.52 88.3475C138.275 94.6151 129.334 113.754 135.62 131.016C140.524 144.525 153.325 152.935 166.94 152.935C170.711 152.935 174.535 152.298 178.289 150.934C195.533 144.667 204.474 125.528 198.189 108.266C193.267 94.7567 180.466 86.3469 166.869 86.3469Z" fill="#F7F1EB"/>
<path d="M183.051 164.071C171.189 168.391 158.353 167.825 146.898 162.478C135.46 157.131 126.767 147.659 122.465 135.797C118.145 123.934 118.711 111.098 124.058 99.6433C129.405 88.2059 138.877 79.5128 150.74 75.2105C162.602 70.8905 175.438 71.457 186.893 76.8039C198.33 82.1508 207.024 91.6229 211.326 103.485C215.646 115.348 215.079 128.184 209.732 139.639C204.403 151.076 194.931 159.751 183.051 164.071ZM154.723 86.1698C136.257 92.88 126.714 113.365 133.424 131.831C140.134 150.297 160.619 159.84 179.085 153.13C197.551 146.42 207.094 125.935 200.384 107.469C193.656 89.0026 173.172 79.4597 154.723 86.1698Z" fill="white"/>
<path d="M133.424 131.813C132.326 128.803 131.671 125.723 131.406 122.677L119.703 122.748C120.004 127.157 120.925 131.53 122.465 135.797C126.024 145.605 132.574 153.767 141.179 159.327L146.951 149.146C140.931 145.074 136.08 139.161 133.424 131.813Z" fill="#D87355"/>
<path d="M170.02 84.1692C183.37 85.3731 195.498 94.0663 200.367 107.469C204.085 117.702 202.81 128.573 197.782 137.355L207.448 143.959C208.281 142.56 209.06 141.126 209.75 139.621C215.097 128.184 215.646 115.33 211.344 103.468C207.024 91.6053 198.348 82.1154 186.911 76.7863C181.546 74.2899 175.881 72.8381 170.144 72.4308L170.02 84.1692Z" fill="#8B865C"/>
<path d="M131.37 117.047C132.38 103.485 141.144 91.1095 154.723 86.1698C157.91 85.0013 161.168 84.3285 164.39 84.1161L164.479 72.4131C159.84 72.661 155.219 73.5816 150.722 75.2282C138.86 79.5482 129.37 88.2236 124.041 99.661C121.438 105.238 119.968 111.151 119.65 117.136L131.37 117.047Z" fill="#EFBC73"/>
<path d="M194.612 142.011C190.682 146.898 185.406 150.811 179.085 153.112C169.861 156.458 160.141 155.768 151.873 151.908L146.101 162.089C146.367 162.212 146.632 162.354 146.915 162.478C158.353 167.825 171.207 168.374 183.069 164.072C191.585 160.973 198.879 155.626 204.279 148.615L194.612 142.011Z" fill="#EFBC73"/>
<path d="M215.203 168.533V153.572L224.693 160.831L215.203 168.533Z" fill="#EFBC73"/>
<path d="M194.612 142.011C190.682 146.898 185.406 150.81 179.085 153.112C177.262 153.785 174.11 154.971 165.771 155.254C165.877 159.185 173.845 162.443 174.146 166.373C177.155 165.895 180.148 165.134 183.069 164.071C191.585 160.973 198.879 155.626 204.279 148.615L194.612 142.011Z" fill="#D3BBA3"/>
<path d="M216.389 166.373L164.727 166.904L163.275 155.308L216.389 155.715V166.373Z" fill="#EFBC73"/>
<path d="M156.281 127.228C156.104 127.228 155.945 127.104 155.909 126.927L150.651 103.928L144.242 103.981C144.029 103.981 143.852 103.804 143.852 103.591C143.852 103.379 144.029 103.202 144.242 103.202L150.97 103.131C151.147 103.131 151.306 103.255 151.342 103.432L156.6 126.413L180.148 124.43L180.13 109.629H173.101C172.889 109.629 172.711 109.452 172.711 109.239C172.711 109.027 172.889 108.85 173.101 108.85H180.519C180.626 108.85 180.714 108.885 180.803 108.956C180.873 109.027 180.909 109.133 180.909 109.239L180.927 124.784C180.927 124.979 180.767 125.156 180.572 125.174L156.334 127.21C156.317 127.228 156.299 127.228 156.281 127.228Z" fill="#363E44"/>
<path d="M174.234 125.723C174.039 125.723 173.862 125.563 173.845 125.369L172.729 109.664H152.28C152.068 109.664 151.89 109.487 151.89 109.275C151.89 109.062 152.068 108.885 152.28 108.885H173.101C173.313 108.885 173.473 109.045 173.49 109.239L174.624 125.298C174.641 125.51 174.482 125.705 174.269 125.723C174.252 125.723 174.234 125.723 174.234 125.723Z" fill="#363E44"/>
<path d="M154.21 137.921C151.837 137.921 149.908 135.992 149.908 133.619C149.908 131.247 151.837 129.317 154.21 129.317C155.361 129.317 156.441 129.759 157.255 130.574C158.069 131.388 158.512 132.468 158.512 133.619C158.512 135.974 156.582 137.921 154.21 137.921ZM154.21 130.096C152.262 130.096 150.687 131.672 150.687 133.619C150.687 135.567 152.262 137.142 154.21 137.142C155.148 137.142 156.033 136.771 156.706 136.115C157.379 135.443 157.733 134.557 157.733 133.619C157.733 132.681 157.361 131.795 156.706 131.123C156.033 130.45 155.148 130.096 154.21 130.096Z" fill="#363E44"/>
<path d="M182.485 137.886C181.334 137.886 180.254 137.443 179.439 136.629C178.625 135.814 178.182 134.734 178.182 133.584C178.182 131.211 180.112 129.281 182.485 129.281C184.857 129.281 186.787 131.211 186.787 133.584C186.787 134.734 186.344 135.814 185.53 136.629C184.715 137.443 183.635 137.886 182.485 137.886ZM182.485 130.06C181.546 130.06 180.661 130.432 179.988 131.087C179.315 131.76 178.961 132.645 178.961 133.584C178.961 134.522 179.333 135.407 179.988 136.08C180.661 136.753 181.546 137.107 182.485 137.107C183.423 137.107 184.308 136.735 184.981 136.08C185.654 135.407 186.008 134.522 186.008 133.584C186.008 131.636 184.414 130.06 182.485 130.06Z" fill="#363E44"/>
<path d="M158.123 133.973C157.91 133.973 157.733 133.796 157.733 133.584C157.733 133.371 157.91 133.194 158.123 133.194L178.536 133.176C178.749 133.176 178.926 133.353 178.926 133.566C178.926 133.778 178.749 133.955 178.536 133.955L158.123 133.973Z" fill="#363E44"/>
<path d="M155.361 130.255C155.325 130.255 155.29 130.255 155.237 130.237C155.024 130.167 154.918 129.954 154.971 129.742L155.909 126.714C155.98 126.502 156.193 126.395 156.405 126.449C156.618 126.519 156.724 126.732 156.671 126.944L155.732 129.972C155.679 130.149 155.52 130.255 155.361 130.255Z" fill="#363E44"/>
<path d="M168.321 126.218C168.126 126.218 167.967 126.077 167.931 125.882L165.612 109.416C165.576 109.204 165.736 109.009 165.948 108.974C166.161 108.938 166.355 109.098 166.391 109.31L168.71 125.776C168.746 125.988 168.586 126.183 168.374 126.218C168.356 126.218 168.338 126.218 168.321 126.218Z" fill="#363E44"/>
<path d="M162 126.75C161.823 126.75 161.646 126.626 161.61 126.431L158.477 109.346C158.441 109.133 158.583 108.938 158.795 108.885C159.008 108.85 159.203 108.992 159.256 109.204L162.389 126.289C162.425 126.502 162.283 126.696 162.071 126.75C162.053 126.75 162.035 126.75 162 126.75Z" fill="#363E44"/>
<path d="M154.387 118.906C154.174 118.906 154.015 118.747 153.997 118.534C153.98 118.322 154.157 118.145 154.369 118.127L180.502 116.906C180.732 116.906 180.909 117.065 180.909 117.277C180.927 117.49 180.749 117.667 180.537 117.685L154.405 118.906H154.387Z" fill="#363E44"/>
<path d="M108.726 72.7317C108.035 72.7317 107.345 72.7317 106.654 72.714C106.442 72.714 106.265 72.537 106.265 72.3245C106.265 72.1121 106.442 71.935 106.654 71.935C107.327 71.9527 108.018 71.9527 108.708 71.9527C109.31 71.9527 109.93 71.9527 110.55 71.935C110.762 71.935 110.939 72.1121 110.939 72.3245C110.939 72.537 110.762 72.714 110.55 72.714C109.948 72.7317 109.346 72.7317 108.726 72.7317ZM114.462 72.6078C114.25 72.6078 114.09 72.4485 114.073 72.236C114.055 72.0235 114.232 71.8465 114.445 71.8288C115.719 71.7757 117.03 71.7049 118.322 71.6163C118.534 71.5986 118.729 71.758 118.747 71.9704C118.765 72.1829 118.605 72.3776 118.393 72.3953C117.083 72.4839 115.772 72.5547 114.462 72.6078C114.48 72.6078 114.48 72.6078 114.462 72.6078ZM102.759 72.5901H102.742C101.431 72.5193 100.121 72.4308 98.8289 72.3245C98.6164 72.3068 98.4571 72.1121 98.4748 71.8996C98.4925 71.6872 98.6695 71.5278 98.8997 71.5455C100.174 71.6517 101.485 71.7403 102.777 71.7934C102.99 71.8111 103.167 71.9881 103.149 72.2006C103.149 72.4308 102.972 72.5901 102.759 72.5901ZM122.252 72.059C122.058 72.059 121.881 71.8996 121.863 71.7049C121.845 71.4924 122.005 71.2976 122.217 71.2799C123.492 71.156 124.784 71.0144 126.094 70.855C126.307 70.8373 126.502 70.979 126.537 71.1914C126.555 71.4039 126.413 71.5986 126.201 71.634C124.89 71.7934 123.598 71.935 122.306 72.059C122.27 72.059 122.27 72.059 122.252 72.059ZM95.0223 71.6872C94.9869 71.6872 94.9692 71.6872 94.9338 71.6694C93.6767 71.3862 92.3843 71.0675 91.1272 70.7311C90.9148 70.678 90.7908 70.4655 90.8439 70.2531C90.897 70.0406 91.1095 69.9167 91.322 69.9698C92.579 70.3062 93.8361 70.6249 95.0931 70.9081C95.3056 70.9613 95.4295 71.156 95.3941 71.3685C95.3587 71.5632 95.1993 71.6872 95.0223 71.6872ZM130.007 71.1383C129.812 71.1383 129.653 70.9967 129.618 70.8019C129.582 70.5894 129.742 70.3947 129.954 70.3593C130.981 70.2176 132.026 70.0583 133.052 69.8813C133.265 69.8458 133.46 69.9875 133.495 70.1999C133.53 70.4124 133.389 70.6072 133.176 70.6426C132.132 70.8019 131.087 70.979 130.06 71.1206C130.043 71.1383 130.025 71.1383 130.007 71.1383ZM87.48 69.6511C87.4446 69.6511 87.4092 69.6511 87.3561 69.6334C86.1344 69.2439 84.8774 68.819 83.638 68.3586C83.4433 68.2878 83.3371 68.0576 83.4079 67.8629C83.4787 67.6681 83.7089 67.5619 83.9036 67.6327C85.1252 68.0753 86.3646 68.5003 87.5862 68.8898C87.7987 68.9606 87.9049 69.1731 87.8341 69.3855C87.7987 69.5449 87.6571 69.6511 87.48 69.6511ZM80.1502 66.9776C80.0971 66.9776 80.0439 66.9599 80.0085 66.9422C78.8223 66.4642 77.6007 65.9331 76.4144 65.3842C76.2197 65.2957 76.1312 65.0655 76.2197 64.8708C76.3082 64.676 76.5384 64.5875 76.7331 64.676C77.9193 65.2072 79.1233 65.7383 80.3095 66.2163C80.5043 66.3049 80.6105 66.5173 80.522 66.7298C80.4511 66.8891 80.3095 66.9776 80.1502 66.9776ZM73.0328 63.7554C72.9797 63.7554 72.9089 63.7376 72.8557 63.7199C71.7049 63.1534 70.5364 62.5514 69.3679 61.9317C69.1731 61.8255 69.1023 61.5953 69.2085 61.4006C69.3148 61.2058 69.5449 61.135 69.7397 61.2413C70.8905 61.8609 72.059 62.4629 73.2098 63.0294C73.4046 63.118 73.4754 63.3658 73.3869 63.5606C73.3161 63.6845 73.1744 63.7554 73.0328 63.7554ZM66.1456 60.0904C66.0748 60.0904 66.0216 60.0727 65.9508 60.0373C64.8354 59.3999 63.7023 58.7272 62.5869 58.0367C62.4098 57.9304 62.339 57.6826 62.463 57.5055C62.5692 57.3285 62.8171 57.2576 62.9941 57.3816C64.1095 58.0544 65.2426 58.7272 66.3403 59.3645C66.5351 59.4708 66.5882 59.7186 66.482 59.8957C66.4112 60.0196 66.2695 60.0904 66.1456 60.0904ZM59.4708 56.0183C59.4 56.0183 59.3292 56.0006 59.2584 55.9475C58.1784 55.257 57.0807 54.5311 56.0007 53.7875C55.8236 53.6635 55.7705 53.4157 55.8944 53.2386C56.0184 53.0616 56.2662 53.0085 56.4433 53.1324C57.5233 53.876 58.621 54.5842 59.701 55.2747C59.878 55.3986 59.9312 55.6288 59.8249 55.8058C59.7187 55.9652 59.5948 56.0183 59.4708 56.0183Z" fill="#8B865C"/>
<path d="M53.3449 22.3259C47.2367 22.3259 42.2794 27.2832 42.2794 33.3914C42.2794 39.4996 53.3449 52.9908 53.3449 52.9908C53.3449 52.9908 64.4105 39.4996 64.4105 33.3914C64.4105 27.2832 59.4531 22.3259 53.3449 22.3259ZM53.3449 40.9691C49.1666 40.9691 45.7672 37.5698 45.7672 33.3914C45.7672 29.2131 49.1666 25.8137 53.3449 25.8137C57.5233 25.8137 60.9226 29.2131 60.9226 33.3914C60.9226 37.5698 57.5233 40.9691 53.3449 40.9691Z" fill="#D87355"/>
<path d="M97.5718 54.8852C94.1548 54.8852 91.3751 57.6649 91.3751 61.0819C91.3751 64.499 97.5718 72.0413 97.5718 72.0413C97.5718 72.0413 103.769 64.499 103.769 61.0819C103.751 57.6649 100.989 54.8852 97.5718 54.8852ZM97.5718 65.3134C95.2348 65.3134 93.3403 63.419 93.3403 61.0819C93.3403 58.7449 95.2348 56.8504 97.5718 56.8504C99.9089 56.8504 101.803 58.7449 101.803 61.0819C101.803 63.419 99.9089 65.3134 97.5718 65.3134Z" fill="#D87355"/>
<path d="M137.974 44.5632C132.946 44.5632 128.856 48.653 128.856 53.6812C128.856 58.7094 137.974 69.8281 137.974 69.8281C137.974 69.8281 147.092 58.7094 147.092 53.6812C147.092 48.653 143.003 44.5632 137.974 44.5632ZM137.974 59.9134C134.522 59.9134 131.742 57.116 131.742 53.6812C131.742 50.2288 134.54 47.4491 137.974 47.4491C141.427 47.4491 144.207 50.2465 144.207 53.6812C144.207 57.1337 141.409 59.9134 137.974 59.9134Z" fill="#D87355"/>
<path d="M248.878 270.974L245.249 269.717C245.55 267.84 245.673 265.963 245.673 264.087L249.445 263.378L247.019 250.613L243.248 251.321C242.575 249.569 241.743 247.869 240.805 246.24L243.708 243.726L235.228 233.882L232.324 236.378C230.872 235.21 229.314 234.148 227.668 233.209L228.925 229.58L216.673 225.295L215.416 228.925C213.539 228.624 211.662 228.5 209.786 228.5L209.077 224.729L196.312 227.154L197.02 230.925C195.268 231.598 193.568 232.43 191.939 233.369L189.425 230.465L179.581 238.946L182.077 241.849C180.909 243.301 179.847 244.859 178.908 246.506L175.279 245.249L170.994 257.5L174.624 258.757C174.323 260.634 174.199 262.511 174.199 264.388L170.428 265.096L172.853 277.861L176.624 277.153C177.297 278.906 178.129 280.605 179.068 282.234L176.164 284.748L184.645 294.592L187.548 292.096C189 293.264 190.558 294.327 192.205 295.265L190.948 298.894L203.199 303.179L204.474 299.55C206.351 299.85 208.228 299.974 210.104 299.974L210.812 303.746L223.578 301.32L222.87 297.549C224.622 296.876 226.322 296.044 227.951 295.106L230.465 298.009L240.309 289.529L237.812 286.625C238.981 285.173 240.043 283.615 240.982 281.969L244.611 283.226L248.878 270.974ZM230.607 272.231C226.428 283.049 214.407 288.856 203.341 285.368C191.125 281.526 184.698 268.212 189.301 256.261C193.479 245.443 205.501 239.636 216.567 243.124C228.783 246.966 235.21 260.28 230.607 272.231Z" fill="white"/>
<path d="M209.963 293.052C206.793 293.052 203.589 292.521 200.455 291.441C193.196 288.909 187.353 283.686 184.007 276.763C180.661 269.841 180.218 262.015 182.768 254.756C185.052 248.205 189.637 242.699 195.639 239.264C201.588 235.865 208.564 234.679 215.274 235.953C215.487 235.989 215.628 236.201 215.593 236.414C215.557 236.626 215.345 236.768 215.132 236.732C201.641 234.183 188.044 242.044 183.511 255.022C181.05 262.086 181.475 269.699 184.715 276.427C187.973 283.172 193.639 288.236 200.703 290.715C212.76 294.929 226.127 290.467 233.227 279.879C233.351 279.702 233.581 279.649 233.776 279.773C233.953 279.897 234.006 280.127 233.882 280.322C228.429 288.449 219.364 293.052 209.963 293.052Z" fill="#F2E6DC"/>
<path d="M300.736 135.62C300.559 135.62 300.399 135.496 300.364 135.319L300.116 134.274C299.638 134.292 299.142 134.274 298.664 134.239L298.363 135.266C298.328 135.372 298.275 135.443 298.169 135.496C298.08 135.549 297.974 135.549 297.868 135.531L293.353 134.221C293.14 134.168 293.034 133.938 293.087 133.743L293.388 132.716C292.963 132.486 292.538 132.238 292.149 131.972L291.388 132.716C291.317 132.787 291.21 132.822 291.104 132.822C290.998 132.822 290.909 132.769 290.839 132.698L287.581 129.317C287.439 129.157 287.439 128.91 287.599 128.768L288.36 128.024C288.112 127.617 287.864 127.192 287.652 126.75L286.625 126.997C286.519 127.015 286.412 126.997 286.324 126.944C286.235 126.891 286.165 126.803 286.147 126.696L285.014 122.129C284.961 121.916 285.085 121.704 285.297 121.65L286.342 121.403C286.324 120.925 286.342 120.429 286.377 119.951L285.35 119.65C285.138 119.597 285.031 119.367 285.085 119.172L286.395 114.657C286.43 114.551 286.483 114.48 286.589 114.427C286.678 114.374 286.784 114.374 286.89 114.391L287.917 114.692C288.148 114.268 288.395 113.843 288.661 113.453L287.917 112.692C287.847 112.621 287.811 112.515 287.811 112.409C287.811 112.302 287.864 112.214 287.935 112.143L291.317 108.885C291.388 108.814 291.511 108.779 291.6 108.779C291.706 108.779 291.795 108.832 291.866 108.903L292.609 109.664C293.016 109.416 293.441 109.169 293.884 108.956L293.636 107.929C293.583 107.717 293.707 107.504 293.919 107.451L298.487 106.318C298.7 106.265 298.912 106.389 298.965 106.601L299.213 107.646C299.691 107.628 300.187 107.646 300.665 107.681L300.966 106.654C301.019 106.442 301.231 106.336 301.444 106.389L305.959 107.699C306.171 107.752 306.277 107.982 306.224 108.177L305.923 109.204C306.348 109.434 306.773 109.682 307.163 109.948L307.924 109.204C307.995 109.133 308.101 109.098 308.207 109.098C308.313 109.098 308.402 109.151 308.473 109.222L311.73 112.603C311.872 112.763 311.872 113.01 311.713 113.152L310.951 113.896C311.199 114.303 311.447 114.728 311.66 115.17L312.687 114.923C312.793 114.905 312.899 114.905 312.988 114.976C313.076 115.029 313.147 115.117 313.165 115.224L314.298 119.791C314.351 120.004 314.227 120.216 314.014 120.27L312.97 120.517C312.988 120.995 312.97 121.491 312.934 121.969L313.961 122.27C314.174 122.323 314.28 122.553 314.227 122.748L312.917 127.263C312.881 127.369 312.828 127.44 312.722 127.493C312.633 127.546 312.527 127.546 312.421 127.529L311.394 127.228C311.164 127.652 310.916 128.077 310.65 128.467L311.394 129.228C311.465 129.299 311.5 129.405 311.5 129.511C311.5 129.618 311.447 129.706 311.376 129.777L307.995 133.035C307.924 133.106 307.818 133.141 307.711 133.141C307.605 133.141 307.517 133.088 307.446 133.017L306.702 132.256C306.295 132.504 305.87 132.751 305.428 132.964L305.675 133.991C305.693 134.097 305.675 134.203 305.622 134.292C305.569 134.38 305.481 134.451 305.374 134.469L300.807 135.602C300.807 135.62 300.771 135.62 300.736 135.62ZM300.417 133.495C300.594 133.495 300.753 133.619 300.789 133.796L301.037 134.77L304.843 133.831L304.613 132.858C304.56 132.681 304.666 132.486 304.826 132.415C305.428 132.15 306.012 131.813 306.561 131.459C306.72 131.353 306.932 131.37 307.056 131.512L307.747 132.238L310.562 129.529L309.871 128.803C309.748 128.662 309.73 128.449 309.836 128.308C310.226 127.776 310.562 127.21 310.863 126.608C310.951 126.449 311.146 126.36 311.323 126.413L312.279 126.696L313.359 122.943L312.403 122.66C312.226 122.607 312.102 122.43 312.12 122.252C312.191 121.597 312.191 120.942 312.155 120.27C312.138 120.075 312.262 119.915 312.456 119.862L313.43 119.614L312.492 115.808L311.518 116.038C311.341 116.091 311.146 115.985 311.075 115.826C310.81 115.224 310.473 114.639 310.119 114.091C310.013 113.931 310.031 113.719 310.172 113.595L310.898 112.904L308.189 110.089L307.464 110.78C307.322 110.904 307.11 110.921 306.968 110.815C306.437 110.426 305.87 110.089 305.268 109.788C305.109 109.7 305.02 109.505 305.073 109.328L305.357 108.372L301.603 107.292L301.32 108.248C301.267 108.425 301.09 108.549 300.913 108.531C300.258 108.46 299.585 108.46 298.93 108.496C298.753 108.513 298.576 108.39 298.523 108.195L298.275 107.221L294.468 108.159L294.698 109.133C294.751 109.31 294.645 109.505 294.486 109.576C293.884 109.841 293.3 110.16 292.751 110.532C292.591 110.638 292.379 110.62 292.255 110.479L291.565 109.753L288.749 112.462L289.44 113.188C289.564 113.329 289.582 113.542 289.475 113.683C289.086 114.214 288.749 114.781 288.449 115.383C288.36 115.542 288.165 115.631 287.988 115.578L287.032 115.294L285.952 119.048L286.908 119.331C287.085 119.384 287.209 119.561 287.191 119.738C287.121 120.393 287.121 121.049 287.156 121.721C287.174 121.916 287.05 122.075 286.855 122.129L285.881 122.376L286.82 126.183L287.793 125.953C287.97 125.9 288.165 126.006 288.236 126.165C288.502 126.767 288.838 127.351 289.192 127.9C289.298 128.06 289.281 128.272 289.139 128.396L288.413 129.087L291.122 131.902L291.848 131.211C291.989 131.087 292.202 131.07 292.344 131.176C292.875 131.565 293.441 131.902 294.043 132.203C294.203 132.291 294.291 132.486 294.238 132.663L293.955 133.619L297.708 134.699L297.991 133.743C298.045 133.566 298.222 133.442 298.399 133.46C299.054 133.53 299.709 133.53 300.382 133.495C300.399 133.495 300.399 133.495 300.417 133.495ZM299.656 129.635C299.603 129.635 299.532 129.635 299.479 129.635C297.071 129.582 294.84 128.573 293.229 126.767C290.184 123.386 290.29 118.198 293.459 114.94C295.141 113.205 297.407 112.285 299.833 112.32C302.241 112.373 304.471 113.382 306.083 115.188C309.128 118.57 309.022 123.757 305.852 127.015C304.188 128.715 301.993 129.635 299.656 129.635ZM299.638 113.117C297.496 113.117 295.513 113.949 294.008 115.489C291.122 118.446 291.033 123.173 293.795 126.254C295.265 127.883 297.283 128.821 299.496 128.856C301.692 128.91 303.746 128.06 305.286 126.484C308.172 123.527 308.26 118.8 305.498 115.719C304.029 114.09 302.01 113.152 299.797 113.117C299.744 113.117 299.691 113.117 299.638 113.117Z" fill="#F7F1EB"/>
<path d="M83.9213 118.676H26.1502V147.482H83.9213V118.676Z" fill="#EFBC73"/>
<path d="M82.1331 120.995H27.9561C27.7436 120.995 27.5666 120.818 27.5666 120.606C27.5666 120.393 27.7436 120.216 27.9561 120.216H82.1331C82.3456 120.216 82.5226 120.393 82.5226 120.606C82.5226 120.818 82.3456 120.995 82.1331 120.995Z" fill="#D87355"/>
<path d="M82.1331 145.924H27.9561C27.7436 145.924 27.5665 145.747 27.5665 145.534C27.5665 145.322 27.7436 145.145 27.9561 145.145H82.1331C82.3456 145.145 82.5226 145.322 82.5226 145.534C82.5226 145.747 82.3456 145.924 82.1331 145.924Z" fill="#D87355"/>
<path d="M27.9561 145.074C27.7436 145.074 27.5666 144.897 27.5666 144.685V121.19C27.5666 120.978 27.7436 120.801 27.9561 120.801C28.1685 120.801 28.3456 120.978 28.3456 121.19V144.685C28.3456 144.897 28.1685 145.074 27.9561 145.074Z" fill="#D87355"/>
<path d="M31.8157 145.074C31.6033 145.074 31.4262 144.897 31.4262 144.685V121.19C31.4262 120.978 31.6033 120.801 31.8157 120.801C32.0282 120.801 32.2053 120.978 32.2053 121.19V144.685C32.2053 144.897 32.0282 145.074 31.8157 145.074Z" fill="#D87355"/>
<path d="M35.6931 145.074C35.4807 145.074 35.3036 144.897 35.3036 144.685V121.19C35.3036 120.978 35.4807 120.801 35.6931 120.801C35.9056 120.801 36.0826 120.978 36.0826 121.19V144.685C36.0826 144.897 35.9056 145.074 35.6931 145.074Z" fill="#D87355"/>
<path d="M39.5528 145.074C39.3403 145.074 39.1633 144.897 39.1633 144.685V121.19C39.1633 120.978 39.3403 120.801 39.5528 120.801C39.7653 120.801 39.9423 120.978 39.9423 121.19V144.685C39.9423 144.897 39.783 145.074 39.5528 145.074Z" fill="#D87355"/>
<path d="M43.4302 145.074C43.2177 145.074 43.0407 144.897 43.0407 144.685V121.19C43.0407 120.978 43.2177 120.801 43.4302 120.801C43.6426 120.801 43.8197 120.978 43.8197 121.19V144.685C43.8197 144.897 43.6426 145.074 43.4302 145.074Z" fill="#D87355"/>
<path d="M47.3076 145.074C47.0951 145.074 46.918 144.897 46.918 144.685V121.19C46.918 120.978 47.0951 120.801 47.3076 120.801C47.52 120.801 47.6971 120.978 47.6971 121.19V144.685C47.6971 144.897 47.52 145.074 47.3076 145.074Z" fill="#D87355"/>
<path d="M51.1672 145.074C50.9548 145.074 50.7777 144.897 50.7777 144.685V121.19C50.7777 120.978 50.9548 120.801 51.1672 120.801C51.3797 120.801 51.5567 120.978 51.5567 121.19V144.685C51.5567 144.897 51.3797 145.074 51.1672 145.074Z" fill="#D87355"/>
<path d="M55.0446 145.074C54.8322 145.074 54.6551 144.897 54.6551 144.685V121.19C54.6551 120.978 54.8322 120.801 55.0446 120.801C55.2571 120.801 55.4341 120.978 55.4341 121.19V144.685C55.4341 144.897 55.2571 145.074 55.0446 145.074Z" fill="#D87355"/>
<path d="M58.9043 145.074C58.6918 145.074 58.5148 144.897 58.5148 144.685V121.19C58.5148 120.978 58.6918 120.801 58.9043 120.801C59.1167 120.801 59.2938 120.978 59.2938 121.19V144.685C59.2938 144.897 59.1167 145.074 58.9043 145.074Z" fill="#D87355"/>
<path d="M62.7817 145.074C62.5692 145.074 62.3922 144.897 62.3922 144.685V121.19C62.3922 120.978 62.5692 120.801 62.7817 120.801C62.9941 120.801 63.1712 120.978 63.1712 121.19V144.685C63.1712 144.897 62.9941 145.074 62.7817 145.074Z" fill="#D87355"/>
<path d="M66.6413 145.074C66.4289 145.074 66.2518 144.897 66.2518 144.685V121.19C66.2518 120.978 66.4289 120.801 66.6413 120.801C66.8538 120.801 67.0308 120.978 67.0308 121.19V144.685C67.0308 144.897 66.8715 145.074 66.6413 145.074Z" fill="#D87355"/>
<path d="M70.5187 145.074C70.3062 145.074 70.1292 144.897 70.1292 144.685V121.19C70.1292 120.978 70.3062 120.801 70.5187 120.801C70.7311 120.801 70.9082 120.978 70.9082 121.19V144.685C70.9082 144.897 70.7311 145.074 70.5187 145.074Z" fill="#D87355"/>
<path d="M74.3961 145.074C74.1836 145.074 74.0066 144.897 74.0066 144.685V121.19C74.0066 120.978 74.1836 120.801 74.3961 120.801C74.6085 120.801 74.7856 120.978 74.7856 121.19V144.685C74.7856 144.897 74.6085 145.074 74.3961 145.074Z" fill="#D87355"/>
<path d="M78.2558 145.074C78.0433 145.074 77.8662 144.897 77.8662 144.685V121.19C77.8662 120.978 78.0433 120.801 78.2558 120.801C78.4682 120.801 78.6453 120.978 78.6453 121.19V144.685C78.6453 144.897 78.4682 145.074 78.2558 145.074Z" fill="#D87355"/>
<path d="M82.1331 145.074C81.9207 145.074 81.7436 144.897 81.7436 144.685V121.19C81.7436 120.978 81.9207 120.801 82.1331 120.801C82.3456 120.801 82.5226 120.978 82.5226 121.19V144.685C82.5226 144.897 82.3456 145.074 82.1331 145.074Z" fill="#D87355"/>
<path d="M38.5477 154.072C39.3234 152.213 38.4452 150.077 36.5862 149.301C34.7272 148.526 32.5913 149.404 31.8156 151.263C31.0399 153.122 31.9181 155.258 33.7771 156.033C35.6361 156.809 37.7719 155.931 38.5477 154.072Z" fill="#363E44"/>
<path d="M35.1796 154.989C33.9048 154.989 32.8603 153.944 32.8603 152.669C32.8603 151.395 33.9048 150.35 35.1796 150.35C36.4544 150.35 37.4989 151.395 37.4989 152.669C37.4989 153.944 36.4544 154.989 35.1796 154.989ZM35.1796 151.129C34.3298 151.129 33.6393 151.82 33.6393 152.669C33.6393 153.519 34.3298 154.21 35.1796 154.21C36.0294 154.21 36.7199 153.519 36.7199 152.669C36.7199 151.82 36.0294 151.129 35.1796 151.129Z" fill="#EFBC73"/>
<path d="M46.7329 154.08C47.5086 152.221 46.6304 150.085 44.7714 149.309C42.9124 148.534 40.7765 149.412 40.0008 151.271C39.2251 153.13 40.1033 155.266 41.9623 156.041C43.8213 156.817 45.9572 155.939 46.7329 154.08Z" fill="#363E44"/>
<path d="M43.3593 154.989C42.0846 154.989 41.04 153.944 41.04 152.669C41.04 151.395 42.0846 150.35 43.3593 150.35C44.6341 150.35 45.6787 151.395 45.6787 152.669C45.6787 153.944 44.6518 154.989 43.3593 154.989ZM43.3593 151.129C42.5095 151.129 41.819 151.82 41.819 152.669C41.819 153.519 42.5095 154.21 43.3593 154.21C44.2092 154.21 44.8997 153.519 44.8997 152.669C44.8997 151.82 44.2092 151.129 43.3593 151.129Z" fill="#EFBC73"/>
<path d="M55.0388 153.728C55.6255 151.801 54.5392 149.764 52.6123 149.177C50.6854 148.59 48.6477 149.676 48.0609 151.603C47.4742 153.53 48.5605 155.568 50.4874 156.155C52.4143 156.741 54.452 155.655 55.0388 153.728Z" fill="#363E44"/>
<path d="M51.5567 154.989C50.2819 154.989 49.2373 153.944 49.2373 152.669C49.2373 151.395 50.2819 150.35 51.5567 150.35C52.8314 150.35 53.876 151.395 53.876 152.669C53.876 153.944 52.8314 154.989 51.5567 154.989ZM51.5567 151.129C50.7068 151.129 50.0163 151.82 50.0163 152.669C50.0163 153.519 50.7068 154.21 51.5567 154.21C52.4065 154.21 53.097 153.519 53.097 152.669C53.097 151.82 52.4065 151.129 51.5567 151.129Z" fill="#EFBC73"/>
<path d="M78.5319 154.612C79.598 152.903 79.077 150.653 77.368 149.587C75.6591 148.521 73.4095 149.042 72.3433 150.751C71.2771 152.46 71.7982 154.709 73.5071 155.776C75.216 156.842 77.4657 156.321 78.5319 154.612Z" fill="#363E44"/>
<path d="M75.4406 154.989C74.1658 154.989 73.1212 153.944 73.1212 152.669C73.1212 151.395 74.1658 150.35 75.4406 150.35C76.7153 150.35 77.7599 151.395 77.7599 152.669C77.7599 153.944 76.7331 154.989 75.4406 154.989ZM75.4406 151.129C74.5908 151.129 73.9003 151.82 73.9003 152.669C73.9003 153.519 74.5908 154.21 75.4406 154.21C76.2904 154.21 76.9809 153.519 76.9809 152.669C76.9809 151.82 76.2904 151.129 75.4406 151.129Z" fill="#EFBC73"/>
<path d="M96.3932 155.776C98.111 154.724 98.6508 152.479 97.599 150.761C96.5471 149.044 94.3018 148.504 92.584 149.556C90.8662 150.608 90.3264 152.853 91.3783 154.571C92.4301 156.288 94.6754 156.828 96.3932 155.776Z" fill="#363E44"/>
<path d="M94.4911 154.989C93.2163 154.989 92.1718 153.944 92.1718 152.669C92.1718 151.395 93.2163 150.35 94.4911 150.35C95.7659 150.35 96.8104 151.395 96.8104 152.669C96.8104 153.944 95.7659 154.989 94.4911 154.989ZM94.4911 151.129C93.6413 151.129 92.9508 151.82 92.9508 152.669C92.9508 153.519 93.6413 154.21 94.4911 154.21C95.3409 154.21 96.0314 153.519 96.0314 152.669C96.0314 151.82 95.3409 151.129 94.4911 151.129Z" fill="#EFBC73"/>
<path d="M70.8019 149.713H56.6026V152.669H70.8019V149.713Z" fill="#363E44"/>
<path d="M85.019 148.951H30.24C30.0275 148.951 29.8505 148.774 29.8505 148.562C29.8505 148.349 30.0275 148.172 30.24 148.172H84.6295V136.204C84.6295 135.991 84.8065 135.814 85.019 135.814C85.2315 135.814 85.4085 135.991 85.4085 136.204V148.562C85.4085 148.774 85.2315 148.951 85.019 148.951Z" fill="#D87355"/>
<path d="M98.404 138.275V131.016L86.1522 127.989V148.562H97.3417H98.404H104.689V139.833L98.404 138.275Z" fill="#363E44"/>
<path d="M98.4039 130.202C98.3685 130.202 98.3331 130.202 98.3154 130.184L86.0636 127.157C85.8512 127.104 85.7272 126.891 85.7803 126.679C85.8334 126.466 86.0459 126.342 86.2584 126.395L98.5102 129.423C98.7226 129.476 98.8466 129.688 98.7934 129.901C98.7403 130.096 98.581 130.202 98.4039 130.202Z" fill="#363E44"/>
<path d="M103.485 143.852C103.273 143.852 103.096 143.675 103.096 143.463V140.719C103.096 140.506 103.273 140.329 103.485 140.329C103.698 140.329 103.875 140.506 103.875 140.719V143.463C103.892 143.675 103.715 143.852 103.485 143.852Z" fill="#E6D0BE"/>
<path d="M97.8374 132.911H90.844V138.275H97.8374V132.911Z" fill="#EFBC73"/>
<path d="M311.624 211.485H210.441V286.519H311.624V211.485Z" fill="#EFBC73"/>
<path d="M235.475 282.553C235.263 282.553 235.086 282.376 235.086 282.163V215.858C235.086 215.646 235.263 215.469 235.475 215.469C235.688 215.469 235.865 215.646 235.865 215.858V282.163C235.865 282.376 235.706 282.553 235.475 282.553Z" fill="#E0AA63"/>
<path d="M280.658 282.553C280.446 282.553 280.269 282.376 280.269 282.163V238.043C280.269 237.83 280.446 237.653 280.658 237.653C280.871 237.653 281.048 237.83 281.048 238.043V282.163C281.048 282.376 280.871 282.553 280.658 282.553Z" fill="#E0AA63"/>
<path d="M290.254 235.759C290.148 235.759 290.06 235.723 289.971 235.652L285.049 230.73L280.977 234.82C280.835 234.962 280.57 234.962 280.428 234.82L276.214 230.607L271.346 235.475C271.239 235.582 271.062 235.617 270.921 235.564C270.779 235.511 270.673 235.369 270.673 235.21V212.512C270.673 212.3 270.85 212.123 271.062 212.123C271.275 212.123 271.452 212.3 271.452 212.512V234.236L275.913 229.757C276.055 229.615 276.321 229.615 276.462 229.757L280.676 233.971L284.748 229.881C284.89 229.739 285.155 229.739 285.297 229.881L289.829 234.413V212.459C289.829 212.247 290.007 212.07 290.219 212.07C290.431 212.07 290.608 212.247 290.608 212.459V235.352C290.608 235.511 290.52 235.652 290.361 235.706C290.343 235.759 290.29 235.759 290.254 235.759Z" fill="#F7F1EB"/>
<path d="M303.356 162.991H237.99V211.468H303.356V162.991Z" fill="#E0AA63"/>
<path d="M254.154 209.042C253.942 209.042 253.765 208.865 253.765 208.652V165.807C253.765 165.594 253.942 165.417 254.154 165.417C254.367 165.417 254.544 165.594 254.544 165.807V208.652C254.544 208.865 254.367 209.042 254.154 209.042Z" fill="#EFBC73"/>
<path d="M283.35 209.042C283.137 209.042 282.96 208.865 282.96 208.652V180.148C282.96 179.935 283.137 179.758 283.35 179.758C283.562 179.758 283.739 179.935 283.739 180.148V208.652C283.739 208.865 283.562 209.042 283.35 209.042Z" fill="#EFBC73"/>
<path d="M289.546 178.82C289.44 178.82 289.351 178.784 289.263 178.713L286.182 175.633L283.65 178.182C283.509 178.324 283.243 178.324 283.102 178.182L280.481 175.544L277.436 178.59C277.33 178.696 277.153 178.731 277.011 178.678C276.87 178.625 276.763 178.483 276.763 178.324V163.664C276.763 163.452 276.94 163.275 277.153 163.275C277.365 163.275 277.542 163.452 277.542 163.664V177.386L280.198 174.73C280.34 174.588 280.605 174.588 280.747 174.73L283.367 177.368L285.899 174.818C285.97 174.748 286.076 174.712 286.182 174.712C286.289 174.712 286.377 174.748 286.466 174.818L289.157 177.509V163.664C289.157 163.452 289.334 163.275 289.546 163.275C289.759 163.275 289.936 163.452 289.936 163.664V178.448C289.936 178.607 289.847 178.749 289.688 178.802C289.635 178.802 289.599 178.82 289.546 178.82Z" fill="#F7F1EB"/>
<path d="M250.401 154.706C242.504 154.706 236.095 161.115 236.095 169.029C236.095 176.943 250.401 194.4 250.401 194.4C250.401 194.4 264.706 176.943 264.706 169.029C264.706 161.132 258.315 154.706 250.401 154.706ZM250.401 178.837C245.001 178.837 240.61 174.447 240.61 169.029C240.61 163.611 244.983 159.22 250.401 159.22C255.801 159.22 260.191 163.611 260.191 169.029C260.191 174.447 255.818 178.837 250.401 178.837Z" fill="#D87355"/>
<path d="M224.711 62.4629H229.562C230.005 64.8177 230.607 67.1016 231.403 69.297L227.207 71.7049L235.405 85.8334L239.601 83.4256C241.141 85.2137 242.823 86.8957 244.629 88.436L242.203 92.6144L256.403 100.776L258.828 96.598C261.041 97.377 263.343 97.9967 265.715 98.4216V103.237H282.128V98.4216C284.483 97.9967 286.784 97.377 289.015 96.598L291.441 100.776L305.64 92.6144L303.214 88.436C305.02 86.8957 306.702 85.2315 308.243 83.4256L312.439 85.8334L320.636 71.7049L316.44 69.297C317.219 67.0839 317.839 64.8 318.281 62.4629H323.132V46.1567H318.281C317.839 43.8019 317.237 41.518 316.44 39.3226L320.636 36.9147L312.439 22.7862L308.243 25.1941C306.702 23.4059 305.02 21.7239 303.214 20.1836L305.64 16.0052L291.423 7.86096L288.997 12.0393C286.784 11.2603 284.483 10.6406 282.11 10.2157V5.38227H265.698V10.198C263.343 10.6229 261.041 11.2426 258.811 12.0216L256.385 7.84325L242.203 16.0052L244.629 20.1836C242.823 21.7239 241.141 23.3882 239.601 25.1941L235.405 22.7862L227.207 36.9147L231.403 39.3226C230.624 41.5357 230.005 43.8196 229.562 46.1567H224.711V62.4629ZM289.883 16.2354C300.151 20.0951 308.313 28.2216 312.209 38.4374C325.399 73.139 292.857 105.504 257.961 92.3842C247.692 88.5246 239.53 80.398 235.635 70.2C222.445 35.4806 254.986 3.11604 289.883 16.2354Z" fill="#D3BBA3"/>
<path d="M323.132 62.8524H318.281C318.069 62.8524 317.892 62.6754 317.892 62.4629C317.892 62.2505 318.069 62.0734 318.281 62.0734H322.743V46.5462H318.281C318.087 46.5462 317.927 46.4046 317.892 46.2275C317.467 43.9259 316.847 41.642 316.068 39.4465C315.997 39.2695 316.086 39.0747 316.245 38.9685L320.105 36.7554L312.297 23.2997L308.437 25.5128C308.278 25.6013 308.066 25.5659 307.942 25.4242C306.419 23.6538 304.737 21.9895 302.949 20.4669C302.807 20.3429 302.772 20.1305 302.86 19.9711L305.091 16.1292L291.565 8.3567L289.334 12.2164C289.245 12.3757 289.051 12.4465 288.873 12.3934C286.66 11.6144 284.359 10.9947 282.057 10.5875C281.88 10.5521 281.738 10.3928 281.738 10.198V5.77179H266.105V10.198C266.105 10.4105 265.928 10.5875 265.715 10.5875C265.503 10.5875 265.326 10.4105 265.326 10.198V5.38228C265.326 5.16982 265.503 4.99277 265.715 4.99277H282.11C282.323 4.99277 282.5 5.16982 282.5 5.38228V9.87933C284.642 10.2865 286.749 10.8531 288.82 11.5613L291.087 7.66621C291.193 7.47146 291.441 7.41834 291.618 7.52457L305.817 15.6865C305.906 15.7397 305.976 15.8282 305.994 15.9167C306.03 16.0229 306.012 16.1292 305.959 16.2177L303.692 20.1128C305.339 21.5292 306.879 23.0695 308.313 24.6983L312.244 22.4498C312.439 22.3436 312.669 22.4144 312.775 22.5915L320.972 36.72C321.026 36.8085 321.043 36.9147 321.008 37.021C320.972 37.1272 320.919 37.198 320.831 37.2511L316.918 39.482C317.626 41.518 318.193 43.6249 318.6 45.7495H323.115C323.327 45.7495 323.504 45.9265 323.504 46.139V62.4452C323.522 62.6754 323.345 62.8524 323.132 62.8524ZM315.201 54.7082C314.988 54.7082 314.811 54.5311 314.811 54.3187C314.811 49.0603 313.802 43.7665 311.837 38.579C307.977 28.4518 299.939 20.4492 289.741 16.6072C284.075 14.4826 278.286 13.4911 272.567 13.6682C272.355 13.6682 272.178 13.5088 272.16 13.2964C272.16 13.0839 272.319 12.9069 272.532 12.8892C278.357 12.6944 284.235 13.7036 290.007 15.8813C300.399 19.7941 308.614 27.956 312.563 38.2957C314.563 43.5718 315.59 48.9718 315.59 54.3187C315.59 54.5311 315.413 54.7082 315.201 54.7082Z" fill="#D3BBA3"/>
<path d="M236.98 54.3187C236.98 65.4374 241.955 75.4052 249.816 82.1508C255.535 87.0551 262.794 90.2419 270.761 90.9147C271.806 91.0033 272.85 91.0564 273.93 91.0564C274.993 91.0564 276.055 91.021 277.1 90.9147C283.987 90.3305 290.343 87.8695 295.619 84.0452C304.861 77.3705 310.863 66.5351 310.863 54.3187C310.863 34.0288 294.327 17.581 273.93 17.581C253.517 17.581 236.98 34.0288 236.98 54.3187Z" fill="#776E42"/>
<path d="M249.816 82.5757C255.535 87.5154 262.794 90.72 270.761 91.3928H277.1C283.987 90.8085 290.343 88.3298 295.619 84.4879V63.4013H256.403L249.816 82.5757Z" fill="#776E42"/>
<path d="M260.245 47.0066C253.658 50.5653 235.263 62.0026 230.536 54.2302C226.641 47.8033 245.036 37.4636 251.357 33.4977C254.331 38.0125 257.288 42.5095 260.245 47.0066Z" fill="#E2A18D"/>
<path d="M238.538 41.9253C234.201 37.2866 224.374 26.7875 223.401 25.7075C221.542 23.6892 212.459 14.0046 211.043 15.3148C210.14 16.1469 214.584 21.0689 215.292 21.9895C214.194 21.1397 209.272 15.8813 208.369 16.5541C207.395 17.28 213.079 24.5213 213.096 24.5921C212.388 23.8839 207.325 18.6433 206.581 19.4046C205.713 20.2898 210.511 26.2033 211.344 27.1239C211.167 27.1594 207.696 23.1049 206.74 23.8662C205.89 24.539 209.679 29.3016 210.104 30.0453C211.273 31.922 213.858 35.0557 216.602 38.7384C223.064 47.3961 226.304 50.9902 230.182 54.602C231.687 56.0007 235.121 57.9482 239.353 56.2131C239.016 51.7161 238.839 46.4046 238.538 41.9253Z" fill="#E2A18D"/>
<path d="M218.107 28.204C218.001 28.204 217.912 28.1686 217.841 28.0977C212.955 23.3528 213.504 22.6092 213.751 22.2551C213.999 21.9187 214.495 21.2459 219.736 23.9194C219.93 24.0256 220.001 24.2558 219.913 24.4505C219.807 24.6453 219.576 24.7161 219.382 24.6276C215.504 22.6446 214.566 22.6977 214.407 22.7331C214.424 22.9279 214.69 23.9371 218.39 27.5489C218.549 27.6905 218.549 27.9384 218.39 28.0977C218.302 28.1686 218.213 28.204 218.107 28.204Z" fill="#363E44"/>
<path d="M302.418 38.1718C308.26 42.8636 325.912 55.381 320.583 62.7463C316.157 68.8367 299.496 55.8767 293.406 51.5922C296.416 47.1128 299.408 42.6512 302.418 38.1718Z" fill="#E2A18D"/>
<path d="M306.915 38.5968C306.915 38.5968 285.315 25.7253 271.7 27.3718C257.235 29.1069 256.898 30.4525 241.548 38.4728L249.746 54.7436L252.26 52.8492C252.26 53.9823 249.214 72.8027 249.214 72.8027H304.436L297.443 54.2479L300.594 57.3994L306.915 38.5968Z" fill="#FFBF23"/>
<path d="M237.742 84.3994H289.21L281.101 49.1843H229.633L237.742 84.3994Z" fill="#363E44"/>
<path d="M259.229 70.4237C260.669 70.1433 261.591 68.6555 261.288 67.1005C260.985 65.5456 259.572 64.5125 258.133 64.7929C256.693 65.0733 255.771 66.5612 256.074 68.1161C256.377 69.671 257.79 70.7042 259.229 70.4237Z" fill="#F2E6DC"/>
<path d="M305.923 57.0807C300.293 61.5777 286.501 71.5102 285.191 72.5371C282.748 74.4492 277.418 78.3797 278.357 80.2918C278.675 80.9292 279.401 81.3364 280.251 81.3718C279.986 82.2394 280.269 83.1777 280.942 83.7266C281.827 84.4525 282.925 84.1161 282.995 84.0984C282.712 84.7357 282.748 85.4617 283.137 85.9751C283.668 86.6833 284.801 86.878 285.704 86.3115C285.722 86.5062 285.81 87.2144 286.395 87.7279C287.032 88.2944 288.024 88.4007 288.891 87.9757C291.069 86.2761 294.875 84.1869 299.302 81.4072C309.677 74.8741 314.014 71.5279 318.458 67.4557C320.176 65.88 322.672 62.162 321.079 57.2223C315.997 57.1515 311.022 57.1338 305.923 57.0807Z" fill="#E2A18D"/>
<path d="M303.781 59.1521C303.657 59.1521 303.551 59.099 303.48 58.9928C303.356 58.8158 303.374 58.5856 303.551 58.4439C304.79 57.4702 305.817 56.6735 306.366 56.2308C306.543 56.0892 306.773 56.1246 306.915 56.3016C307.056 56.4787 307.021 56.7089 306.844 56.8505C306.277 57.2931 305.25 58.0898 304.011 59.0636C303.958 59.1167 303.869 59.1521 303.781 59.1521Z" fill="#363E44"/>
<path d="M282.411 78.7515C282.305 78.7515 282.199 78.7161 282.128 78.6276L281.225 77.6184C281.083 77.459 281.101 77.2112 281.26 77.0695C281.42 76.9279 281.668 76.9456 281.809 77.1049L282.712 78.1141C282.854 78.2735 282.836 78.5213 282.677 78.663C282.606 78.7161 282.517 78.7515 282.411 78.7515Z" fill="#363E44"/>
<path d="M284.73 81.3364C284.624 81.3364 284.518 81.301 284.447 81.2124L283.544 80.2033C283.403 80.0439 283.42 79.796 283.58 79.6544C283.739 79.5128 283.987 79.5305 284.129 79.6898L285.031 80.699C285.173 80.8583 285.155 81.1062 284.996 81.2478C284.908 81.301 284.819 81.3364 284.73 81.3364Z" fill="#363E44"/>
<path d="M287.05 83.9921C286.944 83.9921 286.837 83.9567 286.767 83.8682L285.864 82.859C285.722 82.6996 285.74 82.4518 285.899 82.3101C286.058 82.1685 286.306 82.1862 286.448 82.3455L287.351 83.3547C287.492 83.5141 287.475 83.7619 287.315 83.9036C287.227 83.9567 287.138 83.9921 287.05 83.9921Z" fill="#363E44"/>
<path d="M289.21 86.3646C289.104 86.3646 288.997 86.3291 288.927 86.2406L288.024 85.2314C287.882 85.0721 287.9 84.8242 288.059 84.6826C288.218 84.5409 288.466 84.5587 288.608 84.718L289.511 85.7272C289.652 85.8865 289.635 86.1344 289.475 86.276C289.387 86.3291 289.298 86.3646 289.21 86.3646Z" fill="#363E44"/>
<path d="M275.789 35.9941C272.974 36.1889 270.531 34.0643 270.336 31.2492L269.522 19.9358C269.327 17.1207 271.452 14.6597 274.267 14.4649C277.082 14.2702 279.543 16.3948 279.738 19.2099L280.552 30.5233C280.765 33.3384 278.622 35.7994 275.789 35.9941Z" fill="#E2A18D"/>
<path d="M295.355 25.64C297.163 21.2765 295.091 16.274 290.727 14.4666C286.364 12.6592 281.361 14.7312 279.554 19.0947C277.746 23.4581 279.818 28.4606 284.182 30.268C288.545 32.0755 293.548 30.0034 295.355 25.64Z" fill="#B77250"/>
<path d="M287.457 28.4164C282.517 28.4164 278.516 24.3974 278.516 19.4754C278.516 14.5535 282.535 10.5345 287.457 10.5345C292.379 10.5345 296.398 14.5535 296.398 19.4754C296.398 24.3974 292.379 28.4164 287.457 28.4164ZM287.457 11.2958C282.96 11.2958 279.295 14.9607 279.295 19.4577C279.295 23.9548 282.96 27.6197 287.457 27.6197C291.954 27.6197 295.619 23.9548 295.619 19.4577C295.619 14.9607 291.954 11.2958 287.457 11.2958Z" fill="#B77250"/>
<path d="M290.077 30.1692C285.138 30.1692 281.136 26.1502 281.136 21.2282C281.136 16.3062 285.155 12.2872 290.077 12.2872C294.999 12.2872 299.018 16.3062 299.018 21.2282C299.018 26.1502 294.999 30.1692 290.077 30.1692ZM290.077 13.0485C285.58 13.0485 281.915 16.7134 281.915 21.2105C281.915 25.7075 285.58 29.3725 290.077 29.3725C294.574 29.3725 298.239 25.7075 298.239 21.2105C298.239 16.7134 294.574 13.0485 290.077 13.0485Z" fill="#B77250"/>
<path d="M280.8 3.1515C280.393 2.93904 276.427 0.920683 272.797 2.70888C270.106 4.03675 268.778 6.63937 267.22 11.3135C265.379 16.8197 265.06 20.3784 266.158 22.0781C267.911 24.7515 276.763 24.0079 281.42 20.4492C284.784 17.882 286.359 13.4381 285.633 9.22429C284.908 5.02822 281.048 3.27544 280.8 3.1515Z" fill="#E2A18D"/>
<path d="M270.46 24.4151C270.354 24.4151 270.248 24.4151 270.159 24.4151C269.947 24.4151 269.77 24.2381 269.788 24.0079C269.788 23.7954 269.965 23.6184 270.195 23.6361C273.683 23.7246 278.498 22.1843 281.207 20.1305C281.384 20.0066 281.632 20.0243 281.756 20.2013C281.88 20.3784 281.845 20.6263 281.685 20.7502C278.906 22.8394 274.054 24.4151 270.46 24.4151Z" fill="#BC8271"/>
<path d="M277.135 12.96C277.135 12.96 275.86 11.9154 274.125 11.5967C273.753 11.5259 273.895 14.5888 274.267 14.4826C275.931 14.0577 277.135 12.96 277.135 12.96Z" fill="white"/>
<path d="M272.974 11.5082C273.364 11.4905 273.753 11.5436 274.125 11.5967C274.692 12.4997 274.727 13.5974 274.285 14.4826C273.913 14.5889 273.506 14.642 273.081 14.6597C270.814 14.7305 268.92 13.1902 268.92 13.1902C268.92 13.1902 270.708 11.579 272.974 11.5082Z" fill="#373E44"/>
<path d="M269.292 18.7495C268.849 18.7495 268.389 18.5371 268.088 18.1653C267.946 18.0059 267.982 17.758 268.141 17.6164C268.3 17.4748 268.548 17.5102 268.69 17.6695C268.902 17.9351 269.256 18.0413 269.557 17.9174C269.911 17.758 269.982 17.3331 269.982 17.3154C270.018 17.103 270.212 16.9613 270.425 16.979C270.637 17.0144 270.779 17.2092 270.761 17.4216C270.744 17.5102 270.62 18.3069 269.876 18.6256C269.681 18.7141 269.487 18.7495 269.292 18.7495Z" fill="#B77250"/>
<path d="M266.671 15.6158C266.565 15.6158 266.459 15.5626 266.371 15.4741C265.857 14.8722 265.698 14.3941 265.857 13.9692C265.963 13.6859 266.193 13.5443 266.388 13.4204C266.512 13.3495 266.654 13.261 266.795 13.1371C267.008 12.9423 267.167 12.6767 267.273 12.3758C267.344 12.1633 267.557 12.0571 267.769 12.1279C267.982 12.1987 268.088 12.4112 268.017 12.6236C267.875 13.0486 267.645 13.4204 267.344 13.7036C267.132 13.8984 266.937 14.0046 266.795 14.0931C266.689 14.1463 266.601 14.1994 266.583 14.2348C266.548 14.3056 266.601 14.5358 266.972 14.9607C267.114 15.12 267.096 15.3679 266.937 15.5095C266.849 15.5804 266.76 15.6158 266.671 15.6158Z" fill="#363E44"/>
<path d="M275.913 5.15215L272.603 8.46297C270.779 7.64854 268.938 6.85182 267.114 6.03739C267.574 5.22297 268.389 3.98362 269.77 2.86821C272.302 0.832146 275.01 0.584277 275.789 0.531162C280.18 0.177063 284.908 2.4787 286.873 6.35608C286.979 6.55083 287.422 7.43608 287.705 8.76395C288.927 14.4826 284.571 21.7948 282.376 21.6885C281.685 21.6531 281.066 20.1482 279.454 11.4905C277.578 10.6584 275.719 9.84395 273.842 9.01182L275.913 5.15215Z" fill="#B77250"/>
<path d="M281.702 18.291C283.199 16.9284 283.478 14.798 282.326 13.5325C281.174 12.2671 279.027 12.3459 277.53 13.7085C276.033 15.0711 275.754 17.2016 276.906 18.467C278.058 19.7324 280.205 19.6536 281.702 18.291Z" fill="#E2A18D"/>
<path d="M280.357 17.7934C280.233 17.7934 280.109 17.7226 280.021 17.6164C279.897 17.4393 279.95 17.1915 280.145 17.0852C280.233 17.0321 280.304 16.9613 280.393 16.8905C280.694 16.6249 280.888 16.2708 280.924 15.899C280.977 15.5626 280.888 15.2439 280.676 15.0315C280.57 14.9252 280.446 14.8367 280.304 14.7836C280.109 14.7128 280.003 14.4826 280.074 14.2702C280.145 14.0754 280.375 13.9692 280.57 14.04C280.835 14.1462 281.048 14.2879 281.243 14.5003C281.597 14.8898 281.756 15.4387 281.685 16.0052C281.614 16.5541 281.331 17.0675 280.906 17.4747C280.8 17.581 280.676 17.6695 280.552 17.7403C280.517 17.7757 280.446 17.7934 280.357 17.7934Z" fill="#363E44"/>
<path d="M271.753 22.025C270.195 22.025 268.814 21.4407 267.61 20.2722C267.45 20.1306 267.45 19.8827 267.61 19.7233C267.769 19.564 267.999 19.564 268.159 19.7233C269.274 20.8033 270.584 21.3168 272.054 21.246C276.391 21.0158 280.8 15.7928 280.835 15.7397C280.977 15.5804 281.225 15.545 281.384 15.6866C281.544 15.8283 281.579 16.0761 281.437 16.2355C281.243 16.4656 276.781 21.7771 272.089 22.025C271.983 22.025 271.877 22.025 271.753 22.025Z" fill="#363E44"/>
<path d="M268.235 20.7314C268.817 20.5005 269.101 19.8418 268.87 19.2601C268.639 18.6785 267.981 18.3941 267.399 18.6249C266.817 18.8558 266.533 19.5145 266.764 20.0962C266.995 20.6778 267.653 20.9622 268.235 20.7314Z" fill="#363E44"/>
<path d="M285.825 15.8398C286.457 13.3369 285.256 10.8751 283.142 10.3413C281.027 9.80749 278.801 11.4038 278.169 13.9068C277.537 16.4097 278.739 18.8715 280.853 19.4053C282.967 19.9391 285.194 18.3428 285.825 15.8398Z" fill="#363E44"/>
<path d="M282.004 13.7036C281.791 13.7036 281.614 13.5266 281.614 13.3141V9.11806C281.614 5.2761 280.729 2.4256 279.207 1.3456C278.41 0.779046 277.418 0.672817 276.303 1.06232C276.108 1.13314 275.878 1.02691 275.807 0.814456C275.736 0.601997 275.843 0.389538 276.055 0.318718C277.418 -0.14161 278.658 -0.0176752 279.667 0.708226C281.437 1.96528 282.393 4.95741 282.393 9.11806V13.3141C282.393 13.5266 282.234 13.7036 282.004 13.7036Z" fill="#363E44"/>
<path d="M282.482 18.0767C282.323 18.0767 282.163 17.9705 282.11 17.8112C282.039 17.5987 282.163 17.3863 282.358 17.3154C283.155 17.0499 283.774 16.324 284.022 15.3856C284.359 14.0223 283.739 12.6767 282.606 12.3935C281.986 12.2341 281.331 12.4289 280.8 12.9069C280.641 13.0485 280.393 13.0308 280.251 12.8715C280.109 12.7122 280.127 12.4643 280.287 12.3226C281.012 11.6676 281.933 11.4197 282.801 11.6322C284.341 12.0217 285.226 13.7922 284.784 15.5803C284.483 16.7666 283.65 17.7226 282.606 18.059C282.57 18.0767 282.535 18.0767 282.482 18.0767Z" fill="#363E44"/>
<path d="M51.9285 322.831H144.065L153.395 310.951C162 299.762 154.033 283.42 139.922 283.42H31.8866L29.6026 288.927C22.8039 304.932 34.5423 322.831 51.9285 322.831Z" fill="#64330F"/>
<path d="M150.439 299.992H98.3862C94.8452 299.992 91.9771 297.23 91.9771 293.689H150.456V299.992H150.439Z" fill="#363E44"/>
<path d="M151.023 299.833L166.851 250.047C167.931 246.665 166.054 243.053 162.673 241.991L144.897 297.903L151.023 299.833Z" fill="#363E44"/>
<path d="M145.074 291.299C145.039 291.299 145.003 291.299 144.95 291.281C144.738 291.21 144.631 290.998 144.702 290.786L160.247 241.849C160.318 241.637 160.53 241.53 160.743 241.601C160.955 241.672 161.062 241.885 160.991 242.097L145.446 291.033C145.393 291.193 145.251 291.299 145.074 291.299Z" fill="#363E44"/>
<path d="M129.352 242.593C129.352 242.593 117.295 249.321 92.8977 252.171C65.8623 255.323 92.2249 227.225 92.2249 227.225C92.2249 227.225 111.771 219.594 121.651 215.699C130.096 212.388 129.352 242.593 129.352 242.593Z" fill="#E2A18D"/>
<path d="M111.222 230.713C111.222 230.713 119.721 205.625 123.81 195.728C128.095 185.335 135.938 170.622 137.992 171.755C139.161 172.393 138.506 174.624 136.363 180.466C136.77 180.272 138.134 180.024 139.108 180.785C140.559 181.918 139.957 183.352 139.975 183.512C140.099 183.441 141.657 182.662 142.755 183.264C143.994 183.936 144.295 185.105 144.207 186.203C144.543 186.026 146.066 185.53 147.11 186.15C148.456 186.964 148.42 188.699 147.907 189.885C146.969 192.063 144.26 197.959 143.215 201.27C141.179 207.767 138.417 232.891 131.601 240.433C119.367 253.942 109.062 237.281 111.222 230.713Z" fill="#E2A18D"/>
<path d="M135.212 200.508H135.195C134.982 200.491 134.823 200.313 134.823 200.101C134.947 197.729 134.168 195.94 133.53 194.506C132.875 193.019 132.309 191.727 133.389 190.664C134.009 190.045 134.469 188.965 134.681 187.548C134.752 187.159 134.451 186.964 134.363 186.911C134.168 186.805 133.885 186.769 133.637 186.982L128.06 191.709C127.9 191.851 127.652 191.833 127.511 191.656C127.369 191.496 127.387 191.249 127.564 191.107L133.141 186.38C133.601 185.99 134.239 185.937 134.752 186.22C135.266 186.504 135.549 187.07 135.46 187.672C135.212 189.283 134.699 190.47 133.938 191.213C133.265 191.868 133.566 192.647 134.239 194.188C134.876 195.622 135.726 197.569 135.584 200.136C135.602 200.331 135.425 200.508 135.212 200.508Z" fill="#363E44"/>
<path d="M144.968 193.462C144.915 193.462 144.862 193.444 144.809 193.426C143.268 192.771 142.33 191.249 142.348 189.655L142.259 189.797C141.569 190.93 140.188 191.408 138.948 190.93C138.258 190.664 137.709 190.151 137.426 189.46C137.125 188.788 137.125 188.026 137.408 187.336L137.656 186.734C137.036 187.017 136.31 187.035 135.655 186.698C134.628 186.167 134.168 184.963 134.575 183.883L135.531 181.387C135.602 181.192 135.832 181.086 136.027 181.157C136.222 181.228 136.328 181.458 136.257 181.652L135.301 184.149C135.035 184.857 135.336 185.636 136.009 185.99C136.717 186.362 137.603 186.079 137.992 185.388L138.877 183.759C138.984 183.582 139.196 183.512 139.391 183.6C139.586 183.689 139.656 183.901 139.586 184.096L138.134 187.619C137.939 188.115 137.939 188.646 138.151 189.124C138.364 189.602 138.753 189.974 139.249 190.169C140.134 190.505 141.126 190.169 141.604 189.354L143.091 186.911C143.197 186.734 143.41 186.681 143.587 186.752C143.764 186.84 143.852 187.052 143.782 187.23L143.304 188.611C142.737 190.222 143.534 192.01 145.109 192.683C145.304 192.771 145.393 193.001 145.322 193.196C145.269 193.373 145.127 193.462 144.968 193.462Z" fill="#363E44"/>
<path d="M117.384 217.381C117.384 217.381 86.0636 221.081 63.4367 219.293C52.7961 218.461 32.8072 218.372 26.0616 222.781C10.9948 232.66 6.95804 248.772 6.95804 248.772L33.1259 253.552L23.4944 285.988C20.1482 297.248 22.3613 306.95 29.0538 316.493V316.529H45.36L42.4033 300.824L51.0787 316.493L95.7482 283.633L96.2617 255.11L125.599 245.585L117.384 217.381Z" fill="#FA8A38"/>
<path d="M95.6774 253.481C95.465 253.481 95.2879 253.304 95.2879 253.092V245.603C95.2879 245.39 95.465 245.213 95.6774 245.213C95.8899 245.213 96.0669 245.39 96.0669 245.603V253.092C96.0669 253.304 95.8899 253.481 95.6774 253.481Z" fill="#363E44"/>
<path d="M112.869 220.727C113.152 219.647 120.624 200.101 120.624 200.101L143.038 208.635C143.038 208.635 141.923 241.902 125.616 245.567C109.275 249.25 112.869 220.727 112.869 220.727Z" fill="#FA8A38"/>
<path d="M75.0334 260.156C72.7672 260.953 62.8348 262.741 61.4538 267.238C60.0728 271.771 62.0734 276.586 65.1895 280.127C65.2072 280.127 65.2249 280.127 65.2426 280.127C66.4466 280.658 68.3056 281.26 70.4479 280.906C72.8911 280.517 73.3515 279.26 75.8656 278.445C80.1148 277.064 83.0361 279.384 83.7088 277.95C84.1692 276.958 82.5226 275.542 80.6813 274.621C78.7869 273.683 77.1757 273.877 77.158 273.541C77.1403 273.169 78.8223 273.169 80.8938 273.01C81.8675 272.939 84.6472 274.338 85.4616 273.098C86.1167 272.107 83.6026 269.912 80.7167 269.434C78.6807 269.097 76.9633 270.142 76.8393 269.788C76.7508 269.522 77.7777 268.92 78.84 268.672C80.5751 268.265 83.4256 269.681 84.1692 268.513C84.8951 267.362 82.6466 265.485 80.0262 264.883C77.8131 264.388 75.9541 265.627 75.7948 265.202C75.6885 264.901 76.3967 264.157 78.2911 263.131C79.8669 262.281 83.4787 261.626 82.8413 259.837C82.257 258.368 78.4505 258.952 75.0334 260.156Z" fill="#E2A18D"/>
<path d="M26.398 272.355C21.4229 274.161 18.1121 278.994 18.4485 284.253C18.6787 287.705 20.4669 291.211 25.9377 293.193C39.2341 298.027 68.0577 278.392 68.0577 278.392L70.979 261.307C54.0531 264.848 40.0839 267.38 26.398 272.355Z" fill="#E2A18D"/>
<path d="M43.5187 267.238L47.042 292.414L24.7869 296.823C10.4813 299.656 -2.1423 287.103 0.619664 272.797C3.04524 260.28 6.65704 246.594 11.8446 237.812L39.3049 243.726L32.1167 268.176L43.5187 267.238Z" fill="#FA8A38"/>
<path d="M32.099 268.566C32.0636 268.566 32.0282 268.566 31.9928 268.548C31.7803 268.495 31.6741 268.265 31.7272 268.07L34.9849 257.022C35.038 256.81 35.2682 256.704 35.4629 256.757C35.6754 256.81 35.7816 257.04 35.7285 257.235L32.4708 268.283C32.4177 268.46 32.2584 268.566 32.099 268.566Z" fill="#363E44"/>
<path d="M20.697 297.62C19.617 297.62 18.5548 297.531 17.5102 297.372C17.2977 297.336 17.1561 297.142 17.1915 296.929C17.2269 296.717 17.4216 296.575 17.6341 296.611C19.9711 296.982 22.3436 296.929 24.6984 296.451L46.5993 292.113L45.8026 286.448C45.7672 286.235 45.9266 286.041 46.139 286.005C46.3515 285.97 46.5462 286.129 46.5816 286.342L47.4846 292.733L24.8577 297.23C23.459 297.478 22.078 297.62 20.697 297.62Z" fill="#363E44"/>
<path d="M28.7174 268.849C28.5226 268.849 28.3456 268.69 28.3279 268.495C28.3102 268.283 28.4695 268.088 28.682 268.07L43.4833 266.849C43.6957 266.831 43.8905 266.99 43.9082 267.203C43.9259 267.415 43.7666 267.61 43.5541 267.628L28.7528 268.849C28.7351 268.849 28.7174 268.849 28.7174 268.849Z" fill="#363E44"/>
<path d="M67.6859 253.481C67.4734 253.481 67.2964 253.304 67.2964 253.092V231.386C54.8675 231.492 52.7606 223.135 52.7429 223.064C52.6898 222.852 52.8315 222.639 53.0262 222.586C53.2387 222.533 53.4511 222.675 53.5043 222.87C53.5928 223.206 55.558 230.854 67.6859 230.589H68.0931V253.092C68.0754 253.304 67.9161 253.481 67.6859 253.481Z" fill="#363E44"/>
<path d="M65.9154 226.393L62.8348 225.543C59.9666 224.764 58.3023 221.807 59.0813 218.939L65.5613 195.391C66.3403 192.523 69.2971 190.859 72.1653 191.638L75.2459 192.488C78.1141 193.267 79.7784 196.224 78.9994 199.092L72.5194 222.639C71.7226 225.49 68.7659 227.172 65.9154 226.393Z" fill="#E2A18D"/>
<path d="M86.1344 209.538C84.1869 213.521 71.882 210.972 71.882 210.972L60.958 204.368C57.9836 198.897 60.002 192.063 65.4551 189.071C70.9259 186.096 77.76 188.115 80.7521 193.568C80.7521 193.568 88.0997 205.483 86.1344 209.538Z" fill="#E2A18D"/>
<path d="M81.0354 196.79C81.0354 196.79 85.3908 198.189 85.6741 199.039C85.9928 200.048 83.2131 202.296 83.2131 202.296C83.2131 202.296 81.1063 196.772 81.0354 196.79Z" fill="#E2A18D"/>
<path d="M71.4393 199.003C71.4393 199.003 72.7495 197.658 74.6439 197.056C75.0511 196.932 75.299 200.402 74.8564 200.331C72.9265 200.066 71.4393 199.003 71.4393 199.003Z" fill="white"/>
<mask id="mask0_758_1774" style="mask-type:luminance" maskUnits="userSpaceOnUse" x="71" y="196" width="10" height="5">
<path d="M71.4393 199.003C71.4393 199.003 73.3692 197.038 75.9187 196.808C78.4859 196.578 80.7167 198.189 80.7167 198.189C80.7167 198.189 78.7869 200.154 76.2374 200.384C73.6702 200.597 71.4393 199.003 71.4393 199.003Z" fill="white"/>
</mask>
<g mask="url(#mask0_758_1774)">
<path d="M74.697 196.95C75.5646 195.303 77.5829 194.666 79.2472 195.515C80.8938 196.383 81.5311 198.401 80.6813 200.066C79.8138 201.712 77.7954 202.35 76.1311 201.5C74.4846 200.632 73.8295 198.596 74.697 196.95Z" fill="#363E44"/>
</g>
<path d="M53.6813 194.258C53.6813 194.258 54.6551 207.289 63.8439 207.643L65.0125 205.094L70.4302 204.899L66.0748 200.313C64.623 198.437 65.2603 195.71 67.3849 194.648L76.6623 190.062L73.918 185.247C65.8446 184.68 58.9043 187.176 53.6813 194.258Z" fill="#363E44"/>
<path d="M63.1712 187.601C62.2682 188.38 60.9049 188.256 60.1436 187.371C59.3646 186.468 59.0813 184.645 59.9843 183.866C60.8872 183.087 62.64 183.671 63.419 184.574C64.1803 185.477 64.0741 186.84 63.1712 187.601Z" fill="#363E44"/>
<path d="M64.8708 187.407C63.7023 187.637 62.5692 186.893 62.339 185.725C62.1089 184.556 62.7285 182.821 63.897 182.591C65.0656 182.361 66.3226 183.724 66.5528 184.875C66.8007 186.026 66.0393 187.176 64.8708 187.407Z" fill="#363E44"/>
<path d="M68.5534 187.017C66.9423 187.052 65.6144 185.778 65.579 184.184C65.5436 182.573 66.8006 180.395 68.3941 180.36C70.0052 180.325 71.3508 182.431 71.4039 184.043C71.4393 185.636 70.1646 186.964 68.5534 187.017Z" fill="#363E44"/>
<path d="M60.2498 189.372C59.3646 190.169 58.019 190.115 57.2223 189.23C56.4256 188.345 56.0715 186.539 56.939 185.742C57.8243 184.946 59.5948 185.459 60.3915 186.344C61.1882 187.212 61.1351 188.575 60.2498 189.372Z" fill="#363E44"/>
<path d="M71.1915 186.273C70.0761 185.388 69.8813 183.742 70.7843 182.626C71.6695 181.511 73.7764 180.732 74.8918 181.635C76.0072 182.52 75.7239 184.751 74.8387 185.866C73.9357 186.982 72.3069 187.159 71.1915 186.273Z" fill="#363E44"/>
<path d="M58.2138 191.319C57.3285 192.506 55.6466 192.736 54.4603 191.851C53.2741 190.965 52.4243 188.823 53.3272 187.637C54.2125 186.451 56.5141 186.681 57.7003 187.584C58.8689 188.451 59.099 190.133 58.2138 191.319Z" fill="#363E44"/>
<path d="M56.0184 192.877C55.8059 194.01 54.7082 194.754 53.5751 194.542C52.442 194.329 51.0964 193.125 51.3266 191.992C51.539 190.859 53.221 190.222 54.3541 190.434C55.4872 190.647 56.2308 191.744 56.0184 192.877Z" fill="#363E44"/>
<path d="M73.2452 188.841C72.2892 187.371 72.6964 185.424 74.1659 184.468C75.6354 183.511 78.3443 183.423 79.3003 184.892C80.2564 186.362 79.0702 188.805 77.6183 189.761C76.1488 190.717 74.2013 190.292 73.2452 188.841Z" fill="#363E44"/>
<path d="M59.0459 205.448C59.2584 207.59 61.1528 209.148 63.2951 208.936C65.4374 208.723 66.9954 206.829 66.783 204.687C66.5705 202.544 64.6761 200.986 62.5338 201.199C60.4092 201.411 58.8512 203.306 59.0459 205.448Z" fill="#E2A18D"/>
<path d="M84.5941 200.986L88.0289 209.803C88.5069 211.025 87.8695 212.406 86.6125 212.831C86.2938 212.937 85.9574 213.043 85.5856 213.167C79.2826 215.15 72.4131 213.734 67.4026 209.431C65.7207 207.98 65.1187 205.66 65.8623 203.589L66.1102 202.898L68.2171 202.934C68.2171 202.934 71.8289 206.811 73.7233 206.262C75.6354 205.696 78.061 202.65 84.5941 200.986Z" fill="#363E44"/>
<path d="M80.9292 205.926C80.8761 205.926 80.823 205.926 80.7876 205.926C80.044 205.873 79.3889 205.377 79.1056 204.687C79.0171 204.492 79.1233 204.262 79.3181 204.173C79.5128 204.085 79.743 204.191 79.8315 204.386C79.9908 204.811 80.3981 205.094 80.8407 205.129C81.301 205.165 81.7436 204.917 81.9738 204.51C82.08 204.315 82.3102 204.244 82.5049 204.35C82.6997 204.456 82.7705 204.687 82.6643 204.881C82.3102 205.536 81.6374 205.926 80.9292 205.926Z" fill="#E2A18D"/>
<path d="M65.0479 196.613C65.0302 196.613 64.9948 196.613 64.9771 196.613L59.3823 195.533C59.1698 195.498 59.0282 195.285 59.0813 195.073C59.1167 194.86 59.3292 194.719 59.5416 194.772L65.1364 195.852C65.3489 195.887 65.4905 196.1 65.4374 196.312C65.402 196.489 65.2426 196.613 65.0479 196.613Z" fill="#E2A18D"/>
</g>
<defs>
<clipPath id="clip0_758_1774">
<rect width="324" height="324" fill="white"/>
</clipPath>
</defs>
</svg>
