<svg width="324" height="324" viewBox="0 0 324 324" fill="none" xmlns="http://www.w3.org/2000/svg">
<g clip-path="url(#clip0_758_2231)">
<path d="M161.77 323.54C251.113 323.54 323.54 251.113 323.54 161.77C323.54 72.4268 251.113 0 161.77 0C72.4268 0 0 72.4268 0 161.77C0 251.113 72.4268 323.54 161.77 323.54Z" fill="#FEF0E6"/>
<path d="M39.8892 118.198C35.3213 109.416 30.0806 101.839 24.9108 96.1554L22.9987 110.319L20.3252 91.5875C14.2702 86.2407 8.6754 83.9213 4.86885 85.9043C-3.04525 90.0295 -0.212464 111.151 11.2072 133.123C22.6269 155.077 38.2957 169.542 46.2098 165.417C54.1416 161.292 51.3088 140.17 39.8892 118.198Z" fill="white"/>
<path d="M69.7219 129.246L59.9842 134.947L69.1377 124.66C66.2695 105.999 58.4439 92.2072 50.6006 92.9331C41.9429 93.7298 36.5252 111.895 38.5082 133.495C40.4911 155.113 49.1134 171.986 57.7711 171.189C66.4288 170.392 71.8465 152.227 69.8636 130.627C69.8105 130.149 69.775 129.706 69.7219 129.246Z" fill="#E6D0BE"/>
<path d="M12.7476 155.077L20.9272 153.714L10.9417 152.209C3.77117 140.329 1.69969 128.874 6.46232 125.599C11.7207 121.969 23.3174 129.671 32.3646 142.79C41.4118 155.91 44.4748 169.489 39.2164 173.101C33.9581 176.73 22.3613 169.029 13.3141 155.91C13.1194 155.626 12.9423 155.361 12.7476 155.077Z" fill="#E6D0BE"/>
<path d="M62.64 217.576C62.4629 217.576 62.3036 217.452 62.2682 217.275C51.6275 175.544 37.5875 144.366 27.6905 125.546C16.9436 105.185 8.60457 94.5266 8.53375 94.4203C8.39211 94.2433 8.42752 94.0131 8.60457 93.8715C8.78162 93.7298 9.01178 93.7652 9.15342 93.9423C9.24194 94.0485 17.5987 104.742 28.3633 125.174C38.2957 144.03 52.3711 175.279 63.0295 217.098C63.0826 217.31 62.9587 217.523 62.7462 217.576C62.6931 217.576 62.6577 217.576 62.64 217.576Z" fill="#E6D0BE"/>
<path d="M65.6144 216.814C65.4374 216.814 65.278 216.69 65.2426 216.513C51.0256 156.157 49.8571 107.894 49.8571 107.416C49.8571 107.203 50.0164 107.026 50.2466 107.026C50.4767 107.026 50.6361 107.186 50.6361 107.416C50.6538 107.894 51.8046 156.069 66.0039 216.354C66.0571 216.567 65.9154 216.779 65.7207 216.814C65.6853 216.814 65.6498 216.814 65.6144 216.814Z" fill="#F2E6DC"/>
<path d="M58.7449 218.071C58.5679 218.071 58.4085 217.965 58.3731 217.788C51.3265 192.045 39.7121 170.888 31.2138 157.662C21.8301 143.073 13.9338 134.451 13.1901 133.938C13.0131 133.849 12.9246 133.654 12.9954 133.46C13.0662 133.247 13.2787 133.141 13.4911 133.212C14.7659 133.637 45.537 167.913 59.1344 217.593C59.1875 217.806 59.0636 218.018 58.8688 218.071C58.798 218.071 58.7626 218.071 58.7449 218.071Z" fill="#F2E6DC"/>
<path d="M136.806 66.4997L132.256 64.9062C132.628 62.5515 132.787 60.1967 132.787 57.8597L135.655 57.3108C136.682 57.1161 137.355 56.1246 137.16 55.0977L134.823 42.8105C134.628 41.7836 133.637 41.1108 132.61 41.3056L129.724 41.8544C128.874 39.659 127.847 37.5344 126.661 35.4984L130.308 32.3469L119.685 20.0066L116.038 23.1403C114.214 21.6708 112.267 20.343 110.195 19.1567L111.789 14.6066L96.421 9.24197L94.8275 13.7921C92.4728 13.4203 90.118 13.261 87.781 13.261L86.878 8.53377L70.8728 11.5613L71.7757 16.2885C69.5803 17.1384 67.4557 18.1652 65.4197 19.3515L63.5252 17.1738C62.8525 16.377 61.6485 16.2885 60.8518 16.979L51.3797 25.141C50.583 25.8138 50.4944 27.0177 51.1849 27.8144L53.097 30.0275C51.6275 31.8511 50.2997 33.7987 49.1134 35.8702L44.5633 34.2767L39.1987 49.6446L43.7489 51.238C43.3771 53.5928 43.2177 55.9475 43.2177 58.2846L40.3495 58.8334C39.3226 59.0282 38.6498 60.0197 38.8446 61.0466L41.1816 73.3338C41.3764 74.3607 42.3679 75.0334 43.3948 74.8387L46.2807 74.2898C47.1305 76.4852 48.1574 78.6098 49.3436 80.6459L45.6787 83.7797L56.3016 96.12L59.9489 92.9862C61.7725 94.4557 63.72 95.7836 65.7915 96.9698L64.198 101.52L79.5659 106.885L81.1593 102.334C83.5141 102.706 85.8689 102.866 88.2059 102.866L89.1088 107.593L105.114 104.565L104.211 99.838C106.407 98.9882 108.531 97.9613 110.567 96.7751L112.479 98.9882C113.152 99.7849 114.356 99.8734 115.153 99.1829L124.625 91.021C125.422 90.3482 125.51 89.1443 124.82 88.3475L122.908 86.1344C124.377 84.3108 125.705 82.3633 126.891 80.2918L131.441 81.8852L136.806 66.4997ZM117.118 69.3148C111.24 84.5587 94.2787 92.7384 78.6807 87.8341C61.4538 82.4341 52.4066 63.6492 58.9043 46.8118C64.7823 31.5679 81.7436 23.3882 97.3416 28.2925C114.551 33.6925 123.616 52.4774 117.118 69.3148Z" fill="white"/>
<path d="M88.0112 94.0839C84.0453 94.0839 80.0262 93.4288 76.1312 92.0656C67.0485 88.8964 59.7541 82.381 55.5758 73.7056C51.3974 65.0479 50.8485 55.2748 54.0177 46.1921C56.8859 37.9948 62.6046 31.1252 70.1292 26.823C77.583 22.5561 86.2938 21.0866 94.6859 22.68C94.8984 22.7154 95.04 22.9279 95.0046 23.1403C94.9692 23.3528 94.7567 23.4944 94.5443 23.459C77.583 20.2544 60.48 30.1338 54.779 46.4754C51.6807 55.3633 52.2118 64.9239 56.3017 73.4046C60.3915 81.8852 67.5266 88.259 76.4144 91.3574C91.5699 96.6511 108.39 91.0564 117.313 77.7246C117.437 77.5475 117.667 77.4944 117.862 77.6184C118.039 77.7423 118.092 77.9725 117.968 78.1672C111.098 88.3121 99.7672 94.0839 88.0112 94.0839Z" fill="#F2E6DC"/>
<path d="M292.857 226.357L286.979 224.304C287.457 221.258 287.67 218.213 287.67 215.186L293.778 214.035L289.847 193.338L283.721 194.506C282.624 191.656 281.296 188.911 279.755 186.273L284.483 182.201L270.726 166.231L266.016 170.286C263.662 168.391 261.13 166.674 258.456 165.134L260.51 159.256L240.61 152.298L238.556 158.176C235.511 157.698 232.466 157.485 229.438 157.485L228.287 151.377L207.59 155.308L208.759 161.433C205.908 162.531 203.164 163.859 200.526 165.399L196.454 160.672L180.484 174.429L184.538 179.138C182.644 181.493 180.927 184.025 179.386 186.698L173.508 184.645L166.55 204.527L172.428 206.581C171.95 209.626 171.738 212.671 171.738 215.699L165.63 216.85L169.56 237.547L175.686 236.378C176.784 239.229 178.111 241.973 179.652 244.611L174.925 248.683L188.681 264.653L193.391 260.599C195.746 262.493 198.277 264.21 200.951 265.751L198.897 271.629L218.78 278.587L220.833 272.709C223.879 273.187 226.924 273.399 229.951 273.399L231.102 279.508L251.799 275.577L250.631 269.451C253.481 268.353 256.226 267.026 258.864 265.485L262.936 270.212L278.906 256.456L274.851 251.746C276.746 249.391 278.463 246.86 280.003 244.186L285.881 246.24L292.857 226.357ZM267.362 230.005C259.749 249.746 237.812 260.315 217.647 253.977C195.356 246.984 183.653 222.675 192.045 200.88C199.658 181.139 221.595 170.569 241.761 176.908C264.051 183.919 275.772 208.21 267.362 230.005Z" fill="white"/>
<path d="M229.721 261.927C224.605 261.927 219.417 261.077 214.389 259.324C190.186 250.861 177.386 224.304 185.849 200.119C189.549 189.549 196.932 180.661 206.634 175.119C216.248 169.613 227.49 167.719 238.326 169.772C238.538 169.808 238.68 170.02 238.645 170.233C238.609 170.445 238.397 170.587 238.184 170.551C216.177 166.391 193.993 179.209 186.592 200.402C178.271 224.197 190.877 250.312 214.654 258.616C234.307 265.485 256.119 258.209 267.698 240.946C267.822 240.769 268.052 240.716 268.247 240.84C268.424 240.964 268.477 241.194 268.353 241.389C259.519 254.49 244.894 261.927 229.721 261.927Z" fill="#F2E6DC"/>
<path d="M221.152 52.1233H101.449V277.95H221.152V52.1233Z" fill="#EFBC73"/>
<path d="M215.911 291.689H105.858C98.1915 291.689 91.9417 285.456 91.9417 277.79V50.158C91.9417 42.4918 98.1738 36.242 105.858 36.242H215.929C223.595 36.242 229.845 42.4741 229.845 50.158V277.772C229.828 285.439 223.595 291.689 215.911 291.689ZM105.858 37.0387C98.6164 37.0387 92.7384 42.9344 92.7384 50.158V277.772C92.7384 285.014 98.6341 290.892 105.858 290.892H215.929C223.171 290.892 229.049 284.996 229.049 277.772V50.158C229.049 42.9167 223.153 37.0387 215.929 37.0387H105.858Z" fill="#363E44"/>
<path d="M315.502 135.124H178.731V46.1921H315.502V135.124ZM179.51 134.345H314.723V46.9711H179.51V134.345Z" fill="#8B865C"/>
<path d="M250.171 65.88H195.445V112.745H250.171V65.88Z" fill="#E6D0BE"/>
<path d="M243.637 59.3469H188.911V106.212H243.637V59.3469Z" fill="white"/>
<path d="M305.321 66.1633H256.35C256.137 66.1633 255.96 65.9862 255.96 65.7738C255.96 65.5613 256.137 65.3843 256.35 65.3843H305.321C305.534 65.3843 305.711 65.5613 305.711 65.7738C305.711 65.9862 305.534 66.1633 305.321 66.1633Z" fill="#8B865C"/>
<path d="M294.911 76.202H256.332C256.119 76.202 255.942 76.0249 255.942 75.8125C255.942 75.6 256.119 75.423 256.332 75.423H294.911C295.123 75.423 295.3 75.6 295.3 75.8125C295.3 76.0249 295.141 76.202 294.911 76.202Z" fill="#8B865C"/>
<path d="M301.426 85.2846H256.35C256.137 85.2846 255.96 85.1075 255.96 84.8951C255.96 84.6826 256.137 84.5056 256.35 84.5056H301.426C301.639 84.5056 301.816 84.6826 301.816 84.8951C301.816 85.1252 301.639 85.2846 301.426 85.2846Z" fill="#8B865C"/>
<path d="M287.351 94.8629H256.35C256.137 94.8629 255.96 94.6859 255.96 94.4734C255.96 94.261 256.137 94.0839 256.35 94.0839H287.351C287.563 94.0839 287.74 94.261 287.74 94.4734C287.74 94.6859 287.563 94.8629 287.351 94.8629Z" fill="#8B865C"/>
<path d="M209.821 73.4931C210.689 73.0682 211.574 72.7672 212.477 72.5902L212.14 67.7213C210.618 67.9515 209.113 68.4295 207.661 69.1554C204.138 70.9082 201.606 73.8649 200.278 77.282L204.97 78.6629C205.89 76.4852 207.555 74.6262 209.821 73.4931Z" fill="#EFBC73"/>
<path d="M204.687 86.2407C204.085 84.541 203.961 82.7882 204.226 81.0885L199.534 79.7075C198.95 82.558 199.163 85.5679 200.296 88.4184L204.687 86.2407Z" fill="#EFBC73"/>
<path d="M228.624 77.1226L224.25 79.3003C225.986 84.1692 223.843 89.6754 219.116 92.0479C214.389 94.4203 208.688 92.8092 205.837 88.5069L201.464 90.6846C205.536 97.377 214.159 99.9443 221.294 96.3856C228.429 92.8446 231.545 84.3993 228.624 77.1226Z" fill="#D87355"/>
<path d="M215.026 72.4131C218.231 72.5902 221.258 74.2367 223.117 77.0341L227.49 74.8564C224.711 70.2885 219.789 67.6328 214.69 67.562L215.026 72.4131Z" fill="#EFBC73"/>
<path d="M208.298 265.804H148.155V226.198H148.934V265.025H208.298V265.804Z" fill="white"/>
<path d="M193.774 234.379L186.676 238.619L187.075 239.288L194.173 235.048L193.774 234.379Z" fill="white"/>
<path d="M173.092 222.981L172.44 223.409L182.054 238.044L182.705 237.616L173.092 222.981Z" fill="white"/>
<path d="M168.34 222.237L160.871 228.006L161.348 228.622L168.816 222.853L168.34 222.237Z" fill="white"/>
<path d="M161.681 230.984C162.071 229.328 161.046 227.668 159.39 227.277C157.735 226.887 156.075 227.912 155.684 229.568C155.293 231.223 156.319 232.883 157.974 233.274C159.63 233.665 161.29 232.639 161.681 230.984Z" fill="white"/>
<path d="M174.195 220.831C174.289 219.132 172.988 217.678 171.289 217.584C169.591 217.49 168.137 218.791 168.043 220.49C167.949 222.189 169.25 223.642 170.949 223.736C172.648 223.83 174.101 222.529 174.195 220.831Z" fill="white"/>
<path d="M187.247 240.433C187.247 242.132 185.866 243.513 184.167 243.513C182.467 243.513 181.086 242.132 181.086 240.433C181.086 238.733 182.467 237.352 184.167 237.352C185.866 237.352 187.247 238.733 187.247 240.433Z" fill="white"/>
<path d="M197.874 236.111C199.446 235.46 200.193 233.658 199.542 232.086C198.89 230.514 197.088 229.768 195.516 230.419C193.944 231.07 193.198 232.872 193.849 234.444C194.5 236.016 196.302 236.762 197.874 236.111Z" fill="white"/>
<path d="M162.708 238.237H155.042V259.235H162.708V238.237Z" fill="#8B865C"/>
<path d="M175.367 234.041H167.701V259.235H175.367V234.041Z" fill="#8B865C"/>
<path d="M188.009 245.656H180.342V259.235H188.009V245.656Z" fill="#8B865C"/>
<path d="M200.65 241.761H192.984V259.235H200.65V241.761Z" fill="#8B865C"/>
<path d="M303.958 220.302H202.049V192.382H303.958V220.302ZM202.828 219.523H303.179V193.161H202.828V219.523Z" fill="#8B865C"/>
<path d="M291.069 184.91C286.749 183.547 286.253 176.872 282.641 176.978C273.736 177.209 269.681 206.28 262.936 205.89C257.359 205.572 256.438 185.548 249.993 184.91C243.106 184.22 238.237 206.422 230.801 205.89C224.268 205.43 224.516 188.044 212.937 182.219C210.989 181.245 208.953 180.714 206.9 180.502V215.433H299.107V182.538C295.619 185.052 293.034 185.53 291.069 184.91Z" fill="#8B865C"/>
<path d="M119.455 184.733C135.797 188.646 182.237 202.845 187.991 183.281C192.736 167.099 146.898 155.272 130.928 150.332C127.104 161.805 123.279 173.26 119.455 184.733Z" fill="#E2A18D"/>
<path d="M157.609 172.092C174.039 146.384 185.193 127.812 188.858 122.217C189.248 121.633 189.921 120.588 191.125 119.526C195.604 115.595 200.243 117.649 206.829 115.666C214.3 113.418 217.239 107.911 218.921 109.009C220.09 109.771 219.559 112.161 216.797 116.233C219.24 113.365 222.746 109.629 224.321 110.992C226.056 112.656 222.48 117.525 220.161 120.376C222.958 116.941 225.472 115.95 226.163 116.923C227.243 118.464 225.702 121.633 221.825 126.041C225.348 123.757 226.552 123.722 226.942 124.731C227.668 126.572 224.41 130.131 221.064 132.84C217.275 135.885 213.291 136.93 210.759 137.532C201.128 156.742 194.081 168.71 187.477 184.769C183.281 195.002 158.972 188.77 157.609 172.092Z" fill="#E2A18D"/>
<path d="M157.308 172.623C157.237 172.623 157.167 172.605 157.096 172.57C156.919 172.446 156.866 172.216 156.972 172.039C159.238 168.498 161.54 164.868 163.806 161.292C163.93 161.115 164.16 161.062 164.337 161.168C164.514 161.274 164.567 161.522 164.461 161.699C162.195 165.293 159.893 168.905 157.627 172.446C157.556 172.552 157.432 172.623 157.308 172.623Z" fill="#363E44"/>
<path d="M201.216 118.906C204.952 112.143 204.864 108.903 203.766 108.354C201.925 107.416 196.383 111.895 189.673 121.084C192.948 120.765 197.941 119.225 201.216 118.906Z" fill="#E2A18D"/>
<path d="M199.747 132.079C199.676 132.079 199.623 132.061 199.552 132.026C199.357 131.919 199.287 131.689 199.393 131.494C200.083 130.237 201.376 128.502 203.607 127.334C206.776 125.67 209.874 126.201 211.06 126.502C211.273 126.555 211.397 126.767 211.344 126.98C211.29 127.192 211.078 127.316 210.866 127.263C209.768 126.98 206.9 126.484 203.961 128.024C201.889 129.122 200.703 130.715 200.066 131.884C200.03 132.008 199.889 132.079 199.747 132.079Z" fill="#363E44"/>
<path d="M194.648 118.18C194.489 118.18 194.329 118.074 194.276 117.915C194.205 117.702 194.329 117.49 194.524 117.419C196.17 116.888 197.906 116.782 199.747 116.658C200.597 116.605 201.464 116.534 202.385 116.445C202.597 116.428 202.792 116.569 202.81 116.782C202.828 116.994 202.686 117.189 202.473 117.207C201.535 117.313 200.65 117.366 199.8 117.419C198.012 117.543 196.33 117.649 194.772 118.145C194.736 118.18 194.683 118.18 194.648 118.18Z" fill="#363E44"/>
<path d="M210.759 120.252C210.6 120.252 210.441 120.146 210.388 119.986C210.317 119.791 210.423 119.561 210.635 119.491C211.503 119.19 212.353 118.818 213.132 118.357C214.283 117.702 215.345 116.888 216.283 115.95C216.443 115.79 216.69 115.79 216.832 115.95C216.991 116.109 216.991 116.357 216.832 116.498C215.841 117.49 214.725 118.34 213.504 119.03C212.671 119.508 211.786 119.898 210.866 120.216C210.848 120.234 210.812 120.252 210.759 120.252Z" fill="#363E44"/>
<path d="M214.477 123.934C214.318 123.934 214.159 123.828 214.106 123.669C214.035 123.474 214.141 123.244 214.353 123.173C215.221 122.872 216.053 122.5 216.85 122.04C218.001 121.385 219.063 120.57 220.001 119.632C220.161 119.473 220.409 119.473 220.55 119.632C220.71 119.791 220.71 120.039 220.55 120.181C219.559 121.172 218.443 122.022 217.222 122.713C216.39 123.191 215.504 123.598 214.584 123.899C214.548 123.917 214.513 123.934 214.477 123.934Z" fill="#363E44"/>
<path d="M215.911 130.113C215.752 130.113 215.593 130.007 215.54 129.848C215.469 129.653 215.575 129.423 215.788 129.352C216.655 129.051 217.505 128.679 218.284 128.219C219.435 127.564 220.497 126.75 221.435 125.811C221.595 125.652 221.843 125.652 221.984 125.811C222.144 125.97 222.144 126.218 221.984 126.36C220.993 127.351 219.877 128.201 218.656 128.892C217.824 129.37 216.938 129.759 216.018 130.078C216 130.113 215.947 130.113 215.911 130.113Z" fill="#363E44"/>
<path d="M120.234 211.043C123.616 219.93 126.767 229.863 129.299 240.751C136.894 273.417 136.062 302.382 133.336 323.858C117.561 323.522 101.768 324.195 85.9928 323.858C84.8242 307.074 83.638 289.281 82.4695 272.496C79.7783 280.552 77.1049 288.608 74.4137 296.664C71.3862 305.729 68.3764 314.793 65.3488 323.858C49.2374 323.363 33.1082 324.354 16.9967 323.858C17.8642 307.34 20.8564 282.801 30.0983 256.881C38.9154 232.129 50.4413 213.096 59.8072 199.977C79.9377 203.66 100.086 207.342 120.234 211.043Z" fill="#363E44"/>
<path d="M33.1436 157.202C21.8656 166.285 -11.5436 187.796 4.81573 209.679C10.9947 217.93 38.7915 191.426 50.5829 183.14C44.7757 174.5 38.9685 165.842 33.1436 157.202Z" fill="#E2A18D"/>
<path d="M23.0872 162.018C27.2302 158.193 58.2669 130.432 100.475 137.337C124.82 141.321 140.276 148.314 149.235 153.98C140.311 170.127 137.408 173.703 132.38 179.97C134.947 193.072 137.532 206.156 140.099 219.258C120.96 219.098 59.1875 217.239 39.7121 216.567C43.1823 205.483 46.6525 199.552 50.1226 188.487C47.4315 190.717 44.758 192.966 42.0669 195.197C35.8525 184.857 28.6289 171.755 23.0872 162.018Z" fill="#FA8A38"/>
<path d="M69.6157 209.007C69.5803 209.007 69.5272 209.007 69.4918 208.989C69.297 208.918 69.1908 208.688 69.2616 208.493L87.2321 158.034H126.696C126.909 158.034 127.086 158.211 127.086 158.424C127.086 158.636 126.909 158.813 126.696 158.813H87.7633L69.9698 208.759C69.9167 208.918 69.7751 209.007 69.6157 209.007Z" fill="#D66C4D"/>
<path d="M110.691 211.043H71.4924L89.3744 160.849H128.573L110.691 211.043Z" fill="#D66C4D"/>
<path d="M13.4734 183.016C26.8761 183.919 58.5679 184.468 61.6662 184.645C67.438 184.981 98.4039 187.548 98.5278 192.063C98.581 194.223 92.5967 193.993 90.5783 193.851C92.1541 194.772 98.5987 197.622 98.0321 199.977C97.3593 202.739 89.1619 200.508 89.0203 200.561C90.72 201.323 97.6072 204.102 97.2531 205.891C96.7928 208.21 89.6046 207.537 87.4623 207.236C87.6393 207.555 94.562 209.237 94.137 212.016C93.8184 214.052 87.2321 213.433 84.3639 213.185C79.2295 212.902 19.3338 212.76 8.21507 211.308C3.84196 210.724 7.5954 187.212 13.4734 183.016Z" fill="#E2A18D"/>
<path d="M42.3679 184.379C35.5338 184.149 17.7403 183.37 13.4203 183.122C13.2079 183.104 13.0485 182.927 13.0485 182.715C13.0662 182.502 13.2433 182.325 13.4557 182.343C17.7757 182.591 35.5692 183.37 42.3679 183.6C42.5803 183.6 42.7574 183.795 42.7397 184.007C42.7574 184.22 42.5803 184.379 42.3679 184.379Z" fill="#363E44"/>
<path d="M90.6492 194.028C90.5961 194.028 90.5429 194.01 90.4898 193.993C89.3921 193.515 88.259 193.125 87.1082 192.807C85.0367 192.24 82.9121 191.921 80.7521 191.886C80.5397 191.886 80.3626 191.709 80.3626 191.479C80.3626 191.266 80.5397 191.089 80.7521 191.089C82.9652 191.142 85.1783 191.461 87.3029 192.045C88.4892 192.364 89.6577 192.789 90.7908 193.267C90.9856 193.355 91.0741 193.586 91.0033 193.78C90.9502 193.94 90.8085 194.028 90.6492 194.028Z" fill="#363E44"/>
<path d="M89.1265 200.791C89.0911 200.791 89.0557 200.791 89.0203 200.774C88.7724 200.703 88.5423 200.632 88.2944 200.561C86.2406 199.995 84.0983 199.676 81.9383 199.641C81.7259 199.641 81.5488 199.464 81.5488 199.251C81.5488 199.039 81.7259 198.862 81.9383 198.862C84.1514 198.915 86.3646 199.233 88.4892 199.818C88.7547 199.889 89.0026 199.959 89.2505 200.03C89.4629 200.101 89.5692 200.313 89.516 200.526C89.4452 200.685 89.3036 200.791 89.1265 200.791Z" fill="#363E44"/>
<path d="M87.3029 207.537C87.2852 207.537 87.2498 207.537 87.2321 207.537C85.8511 207.289 84.4524 207.13 83.0361 207.112C82.8236 207.112 82.6465 206.935 82.6465 206.723C82.6465 206.51 82.8059 206.333 83.0538 206.333C84.5056 206.369 85.9574 206.51 87.3738 206.776C87.5862 206.811 87.7279 207.024 87.6924 207.236C87.657 207.413 87.4977 207.537 87.3029 207.537Z" fill="#363E44"/>
<path d="M58.7449 116.339C46.5285 116.339 36.5784 106.407 36.5784 94.1725C36.5784 81.9561 46.5108 72.0059 58.7449 72.0059C70.9613 72.0059 80.9115 81.9384 80.9115 94.1725C80.8938 106.389 70.9613 116.339 58.7449 116.339ZM58.7449 72.8026C46.9534 72.8026 37.3574 82.3987 37.3574 94.1902C37.3574 105.982 46.9534 115.578 58.7449 115.578C70.5364 115.578 80.1325 105.982 80.1325 94.1902C80.1148 82.381 70.5187 72.8026 58.7449 72.8026Z" fill="#363E44"/>
<path d="M62.64 112.001C77.6201 112.001 89.7639 99.8575 89.7639 84.8774C89.7639 69.8972 77.6201 57.7534 62.64 57.7534C47.6598 57.7534 35.5161 69.8972 35.5161 84.8774C35.5161 99.8575 47.6598 112.001 62.64 112.001Z" fill="#363E44"/>
<path d="M91.198 124.306C101.309 124.306 109.505 116.11 109.505 105.999C109.505 95.8887 101.309 87.6925 91.198 87.6925C81.0874 87.6925 72.8911 95.8887 72.8911 105.999C72.8911 116.11 81.0874 124.306 91.198 124.306Z" fill="#363E44"/>
<path d="M106.159 128.414C102.122 131.282 90.6846 123.492 90.6846 123.492L84.1515 109.824C84.1515 102.848 89.7994 97.1823 96.7928 97.1823C103.769 97.1823 109.434 102.83 109.434 109.824C109.416 109.824 110.266 125.492 106.159 128.414Z" fill="#E2A18D"/>
<path d="M92.5259 148.314C100.603 148.314 107.15 145.627 107.15 142.312C107.15 138.997 100.603 136.31 92.5259 136.31C84.4491 136.31 77.9016 138.997 77.9016 142.312C77.9016 145.627 84.4491 148.314 92.5259 148.314Z" fill="#E2A18D"/>
<path d="M99.7672 109.682H84.1515V141.622H99.7672V109.682Z" fill="#E2A18D"/>
<path d="M107.965 113.134C107.965 113.134 111.506 116.852 111.311 117.826C111.081 118.995 107.132 119.703 107.132 119.703C107.132 119.703 108.053 113.152 107.965 113.134Z" fill="#E2A18D"/>
<path d="M102.281 129.511C102.264 129.511 102.228 129.511 102.21 129.511C97.2354 128.626 90.7377 124.218 90.4721 124.041C90.2951 123.917 90.2419 123.669 90.3659 123.492C90.4898 123.315 90.7377 123.262 90.9147 123.386C90.9856 123.439 97.5364 127.883 102.352 128.732C102.565 128.768 102.706 128.98 102.671 129.193C102.618 129.37 102.458 129.511 102.281 129.511Z" fill="#363E44"/>
<path d="M95.3055 111.718C95.3055 111.718 97.6249 110.479 100.422 110.479C101.024 110.479 99.8911 115.241 99.3246 114.958C96.8459 113.772 95.3055 111.718 95.3055 111.718Z" fill="white"/>
<mask id="mask0_758_2231" style="mask-type:luminance" maskUnits="userSpaceOnUse" x="95" y="110" width="14" height="6">
<path d="M95.3055 111.718C95.3055 111.718 98.7226 109.877 102.246 110.673C105.787 111.452 108.106 114.551 108.106 114.551C108.106 114.551 104.689 116.392 101.166 115.595C97.6249 114.816 95.3055 111.718 95.3055 111.718Z" fill="white"/>
</mask>
<g mask="url(#mask0_758_2231)">
<path d="M103.892 118.428C106.503 118.428 108.62 116.312 108.62 113.701C108.62 111.09 106.503 108.974 103.892 108.974C101.282 108.974 99.1652 111.09 99.1652 113.701C99.1652 116.312 101.282 118.428 103.892 118.428Z" fill="#363E44"/>
</g>
<path d="M103.485 122.306C103.043 122.306 102.6 122.182 102.228 121.934C101.485 121.456 101.077 120.57 101.184 119.703C101.201 119.49 101.396 119.331 101.609 119.367C101.821 119.384 101.98 119.579 101.945 119.791C101.874 120.376 102.14 120.96 102.635 121.279C103.149 121.615 103.804 121.615 104.317 121.279C104.494 121.155 104.742 121.208 104.849 121.403C104.972 121.58 104.919 121.828 104.725 121.934C104.371 122.182 103.928 122.306 103.485 122.306Z" fill="#363E44"/>
<path d="M81.0708 113.134C81.0708 113.134 85.1075 111.523 89.2505 115.79L91.9416 114.321C91.9416 114.321 90.3836 97.1292 109.222 103.892C109.222 103.892 102.759 89.463 90.1534 94.7567C77.5652 100.05 81.0708 113.134 81.0708 113.134Z" fill="#363E44"/>
<path d="M80.9115 116.162C81.6551 118.623 83.9921 120.11 86.1344 119.473C88.2767 118.835 89.4275 116.304 88.6839 113.843C87.9403 111.382 85.6033 109.894 83.461 110.532C81.3187 111.169 80.1856 113.683 80.9115 116.162Z" fill="#E2A18D"/>
<path d="M87.0197 114.657C86.8603 114.657 86.701 114.551 86.6479 114.374C86.2938 113.17 85.1607 112.444 84.1515 112.745C83.5495 112.922 83.0892 113.453 82.9121 114.144C82.859 114.356 82.6466 114.48 82.4341 114.427C82.2216 114.374 82.0977 114.161 82.1508 113.949C82.381 112.993 83.0538 112.249 83.9213 112.001C85.3554 111.576 86.9134 112.532 87.3915 114.161C87.4446 114.374 87.3384 114.586 87.1259 114.639C87.0905 114.639 87.0551 114.657 87.0197 114.657Z" fill="#363E44"/>
<path d="M84.9836 126.077C82.6997 126.077 80.8229 124.218 80.8229 121.916C80.8229 119.632 82.682 117.755 84.9836 117.755C87.2675 117.755 89.1442 119.614 89.1442 121.916C89.1442 124.2 87.2852 126.077 84.9836 126.077ZM84.9836 118.534C83.1246 118.534 81.602 120.057 81.602 121.916C81.602 123.775 83.1246 125.298 84.9836 125.298C86.8426 125.298 88.3652 123.775 88.3652 121.916C88.3652 120.057 86.8426 118.534 84.9836 118.534Z" fill="#EFBC73"/>
<path opacity="0.5" d="M173.721 98.8466H122.607C118.464 98.8466 115.082 95.4649 115.082 91.322C115.082 87.179 118.464 83.7974 122.607 83.7974H173.721C177.864 83.7974 181.245 87.179 181.245 91.322C181.245 95.4649 177.864 98.8466 173.721 98.8466Z" fill="white"/>
<path d="M175.226 103.29H127.015C122.306 103.29 118.464 99.4485 118.464 94.739C118.464 90.0295 122.306 86.1875 127.015 86.1875H175.226C179.935 86.1875 183.777 90.0295 183.777 94.739C183.777 99.4485 179.935 103.29 175.226 103.29ZM127.015 86.9843C122.731 86.9843 119.243 90.4721 119.243 94.7567C119.243 99.0413 122.731 102.529 127.015 102.529H175.226C179.51 102.529 182.998 99.0413 182.998 94.7567C182.998 90.4721 179.51 86.9843 175.226 86.9843H127.015Z" fill="white"/>
<path d="M129.972 94.562C129.972 96.2085 128.644 97.5364 126.997 97.5364C125.351 97.5364 124.023 96.2085 124.023 94.562C124.023 92.9154 125.351 91.5875 126.997 91.5875C128.644 91.5875 129.972 92.9154 129.972 94.562Z" fill="#D87355"/>
<path d="M139.462 94.562C139.462 96.2085 138.134 97.5364 136.487 97.5364C134.841 97.5364 133.513 96.2085 133.513 94.562C133.513 92.9154 134.841 91.5875 136.487 91.5875C138.134 91.5875 139.462 92.9154 139.462 94.562Z" fill="#D87355"/>
<path d="M148.951 94.562C148.951 96.2085 147.624 97.5364 145.977 97.5364C144.33 97.5364 143.003 96.2085 143.003 94.562C143.003 92.9154 144.33 91.5875 145.977 91.5875C147.624 91.5875 148.951 92.9154 148.951 94.562Z" fill="#D87355"/>
<path d="M158.441 94.562C158.441 96.2085 157.113 97.5364 155.467 97.5364C153.82 97.5364 152.492 96.2085 152.492 94.562C152.492 92.9154 153.82 91.5875 155.467 91.5875C157.113 91.5875 158.441 92.9154 158.441 94.562Z" fill="#D87355"/>
<path d="M295.76 152.491C305.081 143.171 305.081 128.06 295.76 118.739C286.44 109.419 271.329 109.419 262.009 118.739C252.689 128.06 252.689 143.171 262.009 152.491C271.329 161.811 286.44 161.811 295.76 152.491Z" fill="white"/>
<path d="M292.538 122.961L291.388 122.129L287.705 127.157L284.27 124.643L287.953 119.614L286.802 118.765L280.304 121.633L279.543 128.697L285.279 132.875L291.777 130.025L292.538 122.961Z" fill="#D3BBA3"/>
<path d="M265.22 148.279L266.37 149.111L270.071 144.083L273.488 146.579L269.805 151.625L270.956 152.457L277.454 149.589L278.215 142.542L272.479 138.346L265.999 141.214L265.22 148.279Z" fill="#D3BBA3"/>
<path d="M285.459 130.305L281.958 127.744L271.653 141.836L275.154 144.396L285.459 130.305Z" fill="#D3BBA3"/>
</g>
<defs>
<clipPath id="clip0_758_2231">
<rect width="323.54" height="324" fill="white"/>
</clipPath>
</defs>
</svg>
