<svg width="358" height="182" viewBox="0 0 358 182" fill="none" xmlns="http://www.w3.org/2000/svg">
<g clip-path="url(#clip0_1382_14076)">
<rect width="358" height="182" rx="12" fill="url(#paint0_linear_1382_14076)"/>
<g opacity="0.07" clip-path="url(#clip1_1382_14076)">
<path d="M360 -81.4603C336.842 -81.4603 336.842 -106.474 313.68 -106.474C290.518 -106.474 290.518 -81.4603 267.36 -81.4603C244.202 -81.4603 244.198 -106.474 221.036 -106.474C197.873 -106.474 197.878 -81.4603 174.715 -81.4603C151.553 -81.4603 151.553 -106.474 128.395 -106.474C105.237 -106.474 105.233 -81.4603 82.0709 -81.4603C58.9087 -81.4603 58.9087 -106.474 35.7466 -106.474C12.5844 -106.474 12.5844 -81.4603 -10.5778 -81.4603M360 -156.465C336.842 -156.465 336.842 -181.479 313.68 -181.479C290.518 -181.479 290.518 -156.465 267.36 -156.465C244.202 -156.465 244.198 -181.479 221.036 -181.479C197.873 -181.479 197.878 -156.465 174.715 -156.465C151.553 -156.465 151.553 -181.479 128.395 -181.479C105.237 -181.479 105.233 -156.465 82.0709 -156.465C58.9087 -156.465 58.9087 -181.479 35.7466 -181.479C12.5844 -181.479 12.5844 -156.465 -10.5778 -156.465M360 -6.4554C336.842 -6.4554 336.842 -31.4694 313.68 -31.4694C290.518 -31.4694 290.518 -6.4554 267.36 -6.4554C244.202 -6.4554 244.198 -31.4694 221.036 -31.4694C197.873 -31.4694 197.878 -6.45541 174.715 -6.45541C151.553 -6.45541 151.553 -31.4694 128.395 -31.4694C105.237 -31.4694 105.233 -6.45541 82.0709 -6.45541C58.9087 -6.45541 58.9087 -31.4694 35.7466 -31.4694C12.5844 -31.4694 12.5844 -6.45541 -10.5778 -6.45541M360 106.052C336.842 106.052 336.842 81.0381 313.68 81.0381C290.518 81.0381 290.518 106.052 267.36 106.052C244.202 106.052 244.198 81.0381 221.036 81.0381C197.873 81.0381 197.878 106.052 174.715 106.052C151.553 106.052 151.553 81.0381 128.395 81.0381C105.237 81.0381 105.233 106.052 82.0709 106.052C58.9087 106.052 58.9087 81.0381 35.7466 81.0381C12.5844 81.0381 12.5844 106.052 -10.5778 106.052M360 -193.968C336.842 -193.968 336.842 -218.982 313.68 -218.982C290.518 -218.982 290.518 -193.968 267.36 -193.968C244.202 -193.968 244.198 -218.982 221.036 -218.982C197.873 -218.982 197.878 -193.968 174.715 -193.968C151.553 -193.968 151.553 -218.982 128.395 -218.982C105.237 -218.982 105.233 -193.968 82.0709 -193.968C58.9087 -193.968 58.9087 -218.982 35.7466 -218.982C12.5844 -218.982 12.5844 -193.968 -10.5778 -193.968M360 -43.9578C336.842 -43.9578 336.842 -68.9718 313.68 -68.9718C290.518 -68.9718 290.518 -43.9578 267.36 -43.9578C244.202 -43.9578 244.198 -68.9718 221.036 -68.9718C197.873 -68.9718 197.878 -43.9578 174.715 -43.9578C151.553 -43.9578 151.553 -68.9718 128.395 -68.9718C105.237 -68.9718 105.233 -43.9578 82.0709 -43.9578C58.9087 -43.9578 58.9087 -68.9718 35.7466 -68.9718C12.5844 -68.9718 12.5844 -43.9578 -10.5778 -43.9578M360 68.5496C336.842 68.5496 336.842 43.5356 313.68 43.5356C290.518 43.5356 290.518 68.5496 267.36 68.5496C244.202 68.5496 244.198 43.5356 221.036 43.5356C197.873 43.5356 197.878 68.5496 174.715 68.5496C151.553 68.5496 151.553 43.5356 128.395 43.5356C105.237 43.5356 105.233 68.5496 82.0709 68.5496C58.9087 68.5496 58.9087 43.5356 35.7466 43.5356C12.5844 43.5356 12.5844 68.5496 -10.5778 68.5496M360 -118.963C336.842 -118.963 336.842 -143.977 313.68 -143.977C290.518 -143.977 290.518 -118.963 267.36 -118.963C244.202 -118.963 244.198 -143.977 221.036 -143.977C197.873 -143.977 197.878 -118.963 174.715 -118.963C151.553 -118.963 151.553 -143.977 128.395 -143.977C105.237 -143.977 105.233 -118.963 82.0709 -118.963C58.9087 -118.963 58.9087 -143.977 35.7466 -143.977C12.5844 -143.977 12.5844 -118.963 -10.5778 -118.963M360 31.0471C336.842 31.0471 336.842 6.03306 313.68 6.03306C290.518 6.03306 290.518 31.0471 267.36 31.0471C244.202 31.0471 244.198 6.03305 221.036 6.03305C197.873 6.03305 197.878 31.0471 174.715 31.0471C151.553 31.0471 151.553 6.03305 128.395 6.03305C105.237 6.03305 105.233 31.0471 82.0709 31.0471C58.9087 31.0471 58.9087 6.03305 35.7466 6.03304C12.5844 6.03304 12.5844 31.047 -10.5778 31.047M360 143.555C336.842 143.555 336.842 118.541 313.68 118.541C290.518 118.541 290.518 143.555 267.36 143.555C244.202 143.555 244.198 118.541 221.036 118.541C197.873 118.541 197.878 143.555 174.715 143.555C151.553 143.555 151.553 118.541 128.395 118.541C105.237 118.541 105.233 143.555 82.0709 143.555C58.9087 143.555 58.9087 118.541 35.7466 118.541C12.5844 118.541 12.5844 143.555 -10.5778 143.555M360 -68.9718C336.842 -68.9718 336.842 -93.9859 313.68 -93.9859C290.518 -93.9859 290.518 -68.9718 267.36 -68.9719C244.202 -68.9719 244.198 -93.9859 221.036 -93.9859C197.873 -93.9859 197.878 -68.9719 174.715 -68.9719C151.553 -68.9719 151.553 -93.9859 128.395 -93.9859C105.237 -93.9859 105.233 -68.9719 82.0709 -68.9719C58.9087 -68.9719 58.9087 -93.9859 35.7466 -93.9859C12.5844 -93.9859 12.5844 -68.9719 -10.5778 -68.9719M360 -143.977C336.842 -143.977 336.842 -168.991 313.68 -168.991C290.518 -168.991 290.518 -143.977 267.36 -143.977C244.202 -143.977 244.198 -168.991 221.036 -168.991C197.873 -168.991 197.878 -143.977 174.715 -143.977C151.553 -143.977 151.553 -168.991 128.395 -168.991C105.237 -168.991 105.233 -143.977 82.0709 -143.977C58.9087 -143.977 58.9087 -168.991 35.7466 -168.991C12.5844 -168.991 12.5844 -143.977 -10.5778 -143.977M360 6.03308C336.842 6.03308 336.842 -18.9809 313.68 -18.9809C290.518 -18.9809 290.518 6.03307 267.36 6.03307C244.202 6.03307 244.198 -18.9809 221.036 -18.9809C197.873 -18.9809 197.878 6.03307 174.715 6.03307C151.553 6.03307 151.553 -18.9809 128.395 -18.9809C105.237 -18.9809 105.233 6.03307 82.0709 6.03306C58.9087 6.03306 58.9087 -18.9809 35.7466 -18.9809C12.5844 -18.9809 12.5844 6.03306 -10.5778 6.03306M360 118.541C336.842 118.541 336.842 93.5265 313.68 93.5265C290.518 93.5265 290.518 118.541 267.36 118.541C244.202 118.541 244.198 93.5265 221.036 93.5265C197.873 93.5265 197.878 118.541 174.715 118.541C151.553 118.541 151.553 93.5265 128.395 93.5265C105.237 93.5265 105.233 118.541 82.0709 118.541C58.9087 118.541 58.9087 93.5265 35.7466 93.5265C12.5844 93.5265 12.5844 118.541 -10.5778 118.541M360 -181.479C336.842 -181.479 336.842 -206.493 313.68 -206.493C290.518 -206.493 290.518 -181.479 267.36 -181.479C244.202 -181.479 244.198 -206.493 221.036 -206.493C197.873 -206.493 197.878 -181.479 174.715 -181.479C151.553 -181.479 151.553 -206.493 128.395 -206.493C105.237 -206.493 105.233 -181.479 82.0709 -181.479C58.9087 -181.479 58.9087 -206.493 35.7466 -206.493C12.5844 -206.493 12.5844 -181.479 -10.5778 -181.479M360 -31.4695C336.842 -31.4695 336.842 -56.4835 313.68 -56.4835C290.518 -56.4835 290.518 -31.4695 267.36 -31.4695C244.202 -31.4695 244.198 -56.4835 221.036 -56.4835C197.873 -56.4835 197.878 -31.4695 174.715 -31.4695C151.553 -31.4695 151.553 -56.4835 128.395 -56.4835C105.237 -56.4835 105.233 -31.4695 82.0709 -31.4695C58.9087 -31.4695 58.9087 -56.4835 35.7466 -56.4835C12.5844 -56.4835 12.5844 -31.4695 -10.5778 -31.4695M360 81.038C336.842 81.038 336.842 56.024 313.68 56.024C290.518 56.024 290.518 81.038 267.36 81.038C244.202 81.038 244.198 56.024 221.036 56.024C197.873 56.024 197.878 81.038 174.715 81.038C151.553 81.038 151.553 56.024 128.395 56.024C105.237 56.024 105.233 81.038 82.0709 81.038C58.9087 81.038 58.9087 56.024 35.7466 56.024C12.5844 56.024 12.5844 81.038 -10.5778 81.038M360 -106.474C336.842 -106.474 336.842 -131.488 313.68 -131.488C290.518 -131.488 290.518 -106.474 267.36 -106.474C244.202 -106.474 244.198 -131.488 221.036 -131.488C197.873 -131.488 197.878 -106.474 174.715 -106.474C151.553 -106.474 151.553 -131.488 128.395 -131.488C105.237 -131.488 105.233 -106.474 82.0709 -106.474C58.9087 -106.474 58.9087 -131.488 35.7466 -131.488C12.5844 -131.488 12.5844 -106.474 -10.5778 -106.474M360 43.5356C336.842 43.5356 336.842 18.5216 313.68 18.5216C290.518 18.5216 290.518 43.5356 267.36 43.5356C244.202 43.5356 244.198 18.5216 221.036 18.5216C197.873 18.5216 197.878 43.5356 174.715 43.5356C151.553 43.5356 151.553 18.5216 128.395 18.5216C105.237 18.5216 105.233 43.5356 82.0709 43.5356C58.9087 43.5356 58.9087 18.5216 35.7466 18.5216C12.5844 18.5216 12.5844 43.5356 -10.5778 43.5356M360 156.043C336.842 156.043 336.842 131.029 313.68 131.029C290.518 131.029 290.518 156.043 267.36 156.043C244.202 156.043 244.198 131.029 221.036 131.029C197.873 131.029 197.878 156.043 174.715 156.043C151.553 156.043 151.553 131.029 128.395 131.029C105.237 131.029 105.233 156.043 82.0709 156.043C58.9087 156.043 58.9087 131.029 35.7466 131.029C12.5844 131.029 12.5844 156.043 -10.5778 156.043M360 -218.982C336.842 -218.982 336.842 -243.996 313.68 -243.996C290.518 -243.996 290.518 -218.982 267.36 -218.982C244.202 -218.982 244.198 -243.996 221.036 -243.996C197.873 -243.996 197.878 -218.982 174.715 -218.982C151.553 -218.982 151.553 -243.996 128.395 -243.996C105.237 -243.996 105.233 -218.982 82.0709 -218.982C58.9087 -218.982 58.9087 -243.996 35.7466 -243.996C12.5844 -243.996 12.5844 -218.982 -10.5778 -218.982M360 -206.493C336.842 -206.493 336.842 -231.507 313.68 -231.507C290.518 -231.507 290.518 -206.493 267.36 -206.493C244.202 -206.493 244.198 -231.507 221.036 -231.507C197.873 -231.507 197.878 -206.493 174.715 -206.493C151.553 -206.493 151.553 -231.507 128.395 -231.507C105.237 -231.507 105.233 -206.493 82.0709 -206.493C58.9087 -206.493 58.9087 -231.507 35.7466 -231.507C12.5844 -231.507 12.5844 -206.493 -10.5778 -206.493M360 -56.4834C336.842 -56.4834 336.842 -81.4974 313.68 -81.4974C290.518 -81.4974 290.518 -56.4834 267.36 -56.4834C244.202 -56.4834 244.198 -81.4974 221.036 -81.4974C197.873 -81.4974 197.878 -56.4834 174.715 -56.4834C151.553 -56.4834 151.553 -81.4974 128.395 -81.4974C105.237 -81.4974 105.233 -56.4834 82.0709 -56.4834C58.9087 -56.4834 58.9087 -81.4974 35.7466 -81.4974C12.5844 -81.4974 12.5844 -56.4834 -10.5778 -56.4834M360 -131.488C336.842 -131.488 336.842 -156.502 313.68 -156.502C290.518 -156.502 290.518 -131.488 267.36 -131.488C244.202 -131.488 244.198 -156.502 221.036 -156.502C197.873 -156.502 197.878 -131.488 174.715 -131.488C151.553 -131.488 151.553 -156.502 128.395 -156.502C105.237 -156.502 105.233 -131.488 82.0709 -131.488C58.9087 -131.488 58.9087 -156.502 35.7466 -156.502C12.5844 -156.502 12.5844 -131.488 -10.5778 -131.488M360 18.5216C336.842 18.5216 336.842 -6.49245 313.68 -6.49246C290.518 -6.49246 290.518 18.5215 267.36 18.5215C244.202 18.5215 244.198 -6.49246 221.036 -6.49246C197.873 -6.49246 197.878 18.5215 174.715 18.5215C151.553 18.5215 151.553 -6.49246 128.395 -6.49246C105.237 -6.49246 105.233 18.5215 82.0709 18.5215C58.9087 18.5215 58.9087 -6.49247 35.7466 -6.49247C12.5844 -6.49247 12.5844 18.5215 -10.5778 18.5215M360 131.029C336.842 131.029 336.842 106.015 313.68 106.015C290.518 106.015 290.518 131.029 267.36 131.029C244.202 131.029 244.198 106.015 221.036 106.015C197.873 106.015 197.878 131.029 174.715 131.029C151.553 131.029 151.553 106.015 128.395 106.015C105.237 106.015 105.233 131.029 82.0709 131.029C58.9087 131.029 58.9087 106.015 35.7466 106.015C12.5844 106.015 12.5844 131.029 -10.5778 131.029M360 -168.991C336.842 -168.991 336.842 -194.005 313.68 -194.005C290.518 -194.005 290.518 -168.991 267.36 -168.991C244.202 -168.991 244.198 -194.005 221.036 -194.005C197.873 -194.005 197.878 -168.991 174.715 -168.991C151.553 -168.991 151.553 -194.005 128.395 -194.005C105.237 -194.005 105.233 -168.991 82.0709 -168.991C58.9087 -168.991 58.9087 -194.005 35.7466 -194.005C12.5844 -194.005 12.5844 -168.991 -10.5778 -168.991M360 -18.9809C336.842 -18.9809 336.842 -43.9949 313.68 -43.9949C290.518 -43.9949 290.518 -18.9809 267.36 -18.9809C244.202 -18.9809 244.198 -43.9949 221.036 -43.9949C197.873 -43.9949 197.878 -18.9809 174.715 -18.9809C151.553 -18.9809 151.553 -43.9949 128.395 -43.9949C105.237 -43.9949 105.233 -18.9809 82.0709 -18.9809C58.9087 -18.9809 58.9087 -43.9949 35.7466 -43.9949C12.5844 -43.9949 12.5844 -18.9809 -10.5778 -18.9809M360 93.5266C336.842 93.5266 336.842 68.5125 313.68 68.5125C290.518 68.5125 290.518 93.5266 267.36 93.5266C244.202 93.5266 244.198 68.5125 221.036 68.5125C197.873 68.5125 197.878 93.5266 174.715 93.5266C151.553 93.5266 151.553 68.5125 128.395 68.5125C105.237 68.5125 105.233 93.5266 82.0709 93.5266C58.9087 93.5265 58.9087 68.5125 35.7466 68.5125C12.5844 68.5125 12.5844 93.5265 -10.5778 93.5265M360 -93.9859C336.842 -93.9859 336.842 -119 313.68 -119C290.518 -119 290.518 -93.9859 267.36 -93.9859C244.202 -93.9859 244.198 -119 221.036 -119C197.873 -119 197.878 -93.9859 174.715 -93.9859C151.553 -93.9859 151.553 -119 128.395 -119C105.237 -119 105.233 -93.9859 82.0709 -93.9859C58.9087 -93.9859 58.9087 -119 35.7466 -119C12.5844 -119 12.5844 -93.9859 -10.5778 -93.9859M360 56.024C336.842 56.024 336.842 31.01 313.68 31.01C290.518 31.01 290.518 56.024 267.36 56.024C244.202 56.024 244.198 31.01 221.036 31.01C197.873 31.01 197.878 56.024 174.715 56.024C151.553 56.024 151.553 31.01 128.395 31.01C105.237 31.01 105.233 56.024 82.0709 56.024C58.9087 56.024 58.9087 31.01 35.7466 31.01C12.5844 31.01 12.5844 56.024 -10.5778 56.024M360 168.532C336.842 168.532 336.842 143.517 313.68 143.517C290.518 143.517 290.518 168.532 267.36 168.532C244.202 168.532 244.198 143.517 221.036 143.517C197.873 143.517 197.878 168.532 174.715 168.532C151.553 168.532 151.553 143.517 128.395 143.517C105.237 143.517 105.233 168.532 82.0709 168.532C58.9087 168.532 58.9087 143.517 35.7466 143.517C12.5844 143.517 12.5844 168.532 -10.5778 168.532M360 182.428C336.842 182.428 336.842 157.414 313.68 157.414C290.518 157.414 290.518 182.428 267.36 182.428C244.202 182.428 244.198 157.414 221.036 157.414C197.873 157.414 197.878 182.428 174.715 182.428C151.553 182.428 151.553 157.414 128.395 157.414C105.237 157.414 105.233 182.428 82.0709 182.428C58.9088 182.428 58.9088 157.414 35.7466 157.414C12.5844 157.414 12.5844 182.428 -10.5777 182.428M360 196.325C336.842 196.325 336.842 171.311 313.68 171.311C290.518 171.311 290.518 196.325 267.36 196.325C244.202 196.325 244.198 171.311 221.036 171.311C197.873 171.311 197.878 196.325 174.715 196.325C151.553 196.325 151.553 171.311 128.395 171.311C105.237 171.311 105.233 196.325 82.0709 196.325C58.9088 196.325 58.9088 171.311 35.7466 171.311C12.5844 171.311 12.5844 196.325 -10.5777 196.325M360 210.222C336.842 210.222 336.842 185.208 313.68 185.208C290.518 185.208 290.518 210.222 267.36 210.222C244.202 210.222 244.198 185.208 221.036 185.208C197.873 185.208 197.878 210.222 174.715 210.222C151.553 210.222 151.553 185.208 128.395 185.208C105.237 185.208 105.233 210.222 82.0709 210.222C58.9088 210.222 58.9088 185.208 35.7466 185.208C12.5844 185.208 12.5844 210.222 -10.5777 210.222M360 224.118C336.842 224.118 336.842 199.104 313.68 199.104C290.518 199.104 290.518 224.118 267.36 224.118C244.202 224.118 244.198 199.104 221.036 199.104C197.873 199.104 197.878 224.118 174.715 224.118C151.553 224.118 151.553 199.104 128.395 199.104C105.237 199.104 105.233 224.118 82.0709 224.118C58.9088 224.118 58.9088 199.104 35.7466 199.104C12.5844 199.104 12.5844 224.118 -10.5777 224.118M360 238.015C336.842 238.015 336.842 213.001 313.68 213.001C290.518 213.001 290.518 238.015 267.36 238.015C244.202 238.015 244.198 213.001 221.036 213.001C197.873 213.001 197.878 238.015 174.715 238.015C151.553 238.015 151.553 213.001 128.395 213.001C105.237 213.001 105.233 238.015 82.0709 238.015C58.9088 238.015 58.9088 213.001 35.7466 213.001C12.5844 213.001 12.5844 238.015 -10.5777 238.015M360 251.912C336.842 251.912 336.842 226.898 313.68 226.898C290.518 226.898 290.518 251.912 267.36 251.912C244.202 251.912 244.198 226.898 221.036 226.898C197.873 226.898 197.878 251.912 174.715 251.912C151.553 251.912 151.553 226.898 128.395 226.898C105.237 226.898 105.233 251.912 82.0709 251.912C58.9088 251.912 58.9088 226.898 35.7466 226.898C12.5844 226.898 12.5844 251.912 -10.5777 251.912M360 265.808C336.842 265.808 336.842 240.794 313.68 240.794C290.518 240.794 290.518 265.808 267.36 265.808C244.202 265.808 244.198 240.794 221.036 240.794C197.873 240.794 197.878 265.808 174.715 265.808C151.553 265.808 151.553 240.794 128.395 240.794C105.237 240.794 105.233 265.808 82.0709 265.808C58.9088 265.808 58.9088 240.794 35.7466 240.794C12.5844 240.794 12.5844 265.808 -10.5777 265.808M360 279.705C336.842 279.705 336.842 254.691 313.68 254.691C290.518 254.691 290.518 279.705 267.36 279.705C244.202 279.705 244.198 254.691 221.036 254.691C197.873 254.691 197.878 279.705 174.715 279.705C151.553 279.705 151.553 254.691 128.395 254.691C105.237 254.691 105.233 279.705 82.0709 279.705C58.9088 279.705 58.9088 254.691 35.7466 254.691C12.5844 254.691 12.5844 279.705 -10.5777 279.705M360 293.602C336.842 293.602 336.842 268.588 313.68 268.588C290.518 268.588 290.518 293.602 267.36 293.602C244.202 293.602 244.198 268.588 221.036 268.588C197.873 268.588 197.878 293.602 174.715 293.602C151.553 293.602 151.553 268.588 128.395 268.588C105.237 268.588 105.233 293.602 82.0709 293.602C58.9088 293.602 58.9088 268.588 35.7466 268.588C12.5844 268.588 12.5844 293.602 -10.5777 293.602M360 307.498C336.842 307.498 336.842 282.484 313.68 282.484C290.518 282.484 290.518 307.498 267.36 307.498C244.202 307.498 244.198 282.484 221.036 282.484C197.873 282.484 197.878 307.498 174.715 307.498C151.553 307.498 151.553 282.484 128.395 282.484C105.237 282.484 105.233 307.498 82.0709 307.498C58.9088 307.498 58.9088 282.484 35.7466 282.484C12.5844 282.484 12.5844 307.498 -10.5777 307.498M360 321.395C336.842 321.395 336.842 296.381 313.68 296.381C290.518 296.381 290.518 321.395 267.36 321.395C244.202 321.395 244.198 296.381 221.036 296.381C197.873 296.381 197.878 321.395 174.715 321.395C151.553 321.395 151.553 296.381 128.395 296.381C105.237 296.381 105.233 321.395 82.0709 321.395C58.9088 321.395 58.9088 296.381 35.7466 296.381C12.5844 296.381 12.5844 321.395 -10.5777 321.395M360 335.292C336.842 335.292 336.842 310.278 313.68 310.278C290.518 310.278 290.518 335.292 267.36 335.292C244.202 335.292 244.198 310.278 221.036 310.278C197.873 310.278 197.878 335.292 174.715 335.292C151.553 335.292 151.553 310.278 128.395 310.278C105.237 310.278 105.233 335.292 82.0709 335.292C58.9088 335.292 58.9088 310.278 35.7466 310.278C12.5844 310.278 12.5844 335.292 -10.5777 335.292M360 349.188C336.842 349.188 336.842 324.174 313.68 324.174C290.518 324.174 290.518 349.188 267.36 349.188C244.202 349.188 244.198 324.174 221.036 324.174C197.873 324.174 197.878 349.188 174.715 349.188C151.553 349.188 151.553 324.174 128.395 324.174C105.237 324.174 105.233 349.188 82.0709 349.188C58.9088 349.188 58.9088 324.174 35.7466 324.174C12.5844 324.174 12.5844 349.188 -10.5777 349.188M360 363.085C336.842 363.085 336.842 338.071 313.68 338.071C290.518 338.071 290.518 363.085 267.36 363.085C244.202 363.085 244.198 338.071 221.036 338.071C197.873 338.071 197.878 363.085 174.715 363.085C151.553 363.085 151.553 338.071 128.395 338.071C105.237 338.071 105.233 363.085 82.0709 363.085C58.9088 363.085 58.9087 338.071 35.7466 338.071C12.5844 338.071 12.5844 363.085 -10.5777 363.085M360 376.982C336.842 376.982 336.842 351.968 313.68 351.968C290.518 351.968 290.518 376.982 267.36 376.982C244.202 376.982 244.198 351.968 221.036 351.968C197.873 351.968 197.878 376.982 174.715 376.982C151.553 376.982 151.553 351.968 128.395 351.968C105.237 351.968 105.233 376.982 82.0709 376.982C58.9088 376.982 58.9087 351.968 35.7466 351.968C12.5844 351.968 12.5844 376.982 -10.5777 376.982M360 390.878C336.842 390.878 336.842 365.864 313.68 365.864C290.518 365.864 290.518 390.878 267.36 390.878C244.202 390.878 244.198 365.864 221.036 365.864C197.873 365.864 197.878 390.878 174.715 390.878C151.553 390.878 151.553 365.864 128.395 365.864C105.237 365.864 105.233 390.878 82.0709 390.878C58.9088 390.878 58.9087 365.864 35.7466 365.864C12.5844 365.864 12.5844 390.878 -10.5777 390.878M360 404.775C336.842 404.775 336.842 379.761 313.68 379.761C290.518 379.761 290.518 404.775 267.36 404.775C244.202 404.775 244.198 379.761 221.036 379.761C197.873 379.761 197.878 404.775 174.715 404.775C151.553 404.775 151.553 379.761 128.395 379.761C105.237 379.761 105.233 404.775 82.0709 404.775C58.9088 404.775 58.9087 379.761 35.7466 379.761C12.5844 379.761 12.5844 404.775 -10.5777 404.775M360 418.672C336.842 418.672 336.842 393.658 313.68 393.658C290.518 393.658 290.518 418.672 267.36 418.672C244.202 418.672 244.198 393.658 221.036 393.658C197.873 393.658 197.878 418.672 174.715 418.672C151.553 418.672 151.553 393.658 128.395 393.658C105.237 393.658 105.233 418.672 82.0709 418.672C58.9088 418.672 58.9087 393.658 35.7466 393.658C12.5844 393.658 12.5844 418.672 -10.5778 418.672M360 432.568C336.842 432.568 336.842 407.554 313.68 407.554C290.518 407.554 290.518 432.568 267.36 432.568C244.202 432.568 244.198 407.554 221.036 407.554C197.873 407.554 197.878 432.568 174.715 432.568C151.553 432.568 151.553 407.554 128.395 407.554C105.237 407.554 105.233 432.568 82.0709 432.568C58.9088 432.568 58.9087 407.554 35.7466 407.554C12.5844 407.554 12.5844 432.568 -10.5778 432.568M360 446.465C336.842 446.465 336.842 421.451 313.68 421.451C290.518 421.451 290.518 446.465 267.36 446.465C244.202 446.465 244.198 421.451 221.036 421.451C197.873 421.451 197.878 446.465 174.715 446.465C151.553 446.465 151.553 421.451 128.395 421.451C105.237 421.451 105.233 446.465 82.0709 446.465C58.9088 446.465 58.9087 421.451 35.7466 421.451C12.5844 421.451 12.5844 446.465 -10.5778 446.465M360 460.362C336.842 460.362 336.842 435.348 313.68 435.348C290.518 435.348 290.518 460.362 267.36 460.362C244.202 460.362 244.198 435.348 221.036 435.348C197.873 435.348 197.878 460.362 174.715 460.362C151.553 460.362 151.553 435.348 128.395 435.348C105.237 435.348 105.233 460.362 82.0709 460.362C58.9088 460.362 58.9087 435.348 35.7466 435.348C12.5844 435.348 12.5844 460.362 -10.5778 460.362M360 -231.47C336.842 -231.47 336.842 -256.484 313.68 -256.484C290.518 -256.484 290.518 -231.47 267.36 -231.47C244.202 -231.47 244.198 -256.484 221.036 -256.484C197.873 -256.484 197.878 -231.47 174.715 -231.47C151.553 -231.47 151.553 -256.484 128.395 -256.484C105.237 -256.484 105.233 -231.47 82.071 -231.47C58.9088 -231.47 58.9088 -256.484 35.7466 -256.484C12.5844 -256.484 12.5844 -231.47 -10.5777 -231.47" stroke="url(#paint1_linear_1382_14076)" stroke-width="2.76964" stroke-miterlimit="10"/>
</g>
</g>
<defs>
<linearGradient id="paint0_linear_1382_14076" x1="352.5" y1="214.356" x2="7.04607" y2="-22.7131" gradientUnits="userSpaceOnUse">
<stop stop-color="#4A4AF2"/>
<stop offset="1" stop-color="#00B2CB"/>
</linearGradient>
<linearGradient id="paint1_linear_1382_14076" x1="117" y1="21" x2="597" y2="473.5" gradientUnits="userSpaceOnUse">
<stop stop-color="white" stop-opacity="0"/>
<stop offset="1" stop-color="white"/>
</linearGradient>
<clipPath id="clip0_1382_14076">
<rect width="358" height="182" rx="12" fill="white"/>
</clipPath>
<clipPath id="clip1_1382_14076">
<rect width="655" height="419" fill="white" transform="translate(384 -225) rotate(90)"/>
</clipPath>
</defs>
</svg>
