<svg width="21" height="21" viewBox="0 0 21 21" fill="none" xmlns="http://www.w3.org/2000/svg">
<path d="M1.75026 6.95719L18.2428 0.84375L18.2578 0.839063C18.5232 0.747659 18.809 0.732596 19.0826 0.795588C19.3562 0.858581 19.6067 0.997098 19.8054 1.19538C20.0042 1.39367 20.1434 1.64376 20.207 1.91721C20.2707 2.19066 20.2563 2.47649 20.1656 2.74219C20.1644 2.74731 20.1629 2.75233 20.1609 2.75719L14.0428 19.2497C13.9423 19.5437 13.7517 19.7987 13.4981 19.9782C13.2444 20.1578 12.9407 20.2529 12.63 20.25H12.6018C12.2849 20.2476 11.9772 20.1434 11.724 19.9528C11.4708 19.7623 11.2856 19.4954 11.1956 19.1916L11.1899 19.1728L9.14245 11.8603L1.82995 9.81281L1.8112 9.80719C1.50961 9.71438 1.24496 9.52883 1.05492 9.27693C0.864876 9.02503 0.759109 8.71962 0.75267 8.40413C0.746233 8.08865 0.839449 7.77918 1.01906 7.51973C1.19867 7.26029 1.45552 7.0641 1.75307 6.95906L1.75026 6.95719ZM9.95245 10.5281C10.0763 10.5629 10.1891 10.6289 10.2801 10.7199C10.371 10.8108 10.4371 10.9237 10.4718 11.0475L12.6281 18.75L12.6337 18.7341L18.75 2.25L2.26682 8.36438L2.25183 8.37L9.95245 10.5281Z" fill="#F24A4A"/>
</svg>
