<svg width="121" height="120" viewBox="0 0 121 120" fill="none" xmlns="http://www.w3.org/2000/svg">
<path d="M33 15H88C89.3261 15 90.5979 15.5268 91.5355 16.4645C92.4732 17.4021 93 18.6739 93 20V30H28V20C28 18.6739 28.5268 17.4021 29.4645 16.4645C30.4021 15.5268 31.6739 15 33 15Z" fill="url(#paint0_linear_4533_6113)"/>
<path d="M28 30H93V100C93 101.326 92.4732 102.598 91.5355 103.536C90.5979 104.473 89.3261 105 88 105H33C31.6739 105 30.4021 104.473 29.4645 103.536C28.5268 102.598 28 101.326 28 100V30Z" fill="url(#paint1_linear_4533_6113)"/>
<path d="M3 45H28V100H8C6.67392 100 5.40215 99.4732 4.46447 98.5355C3.52678 97.5979 3 96.3261 3 95V45Z" fill="url(#paint2_linear_4533_6113)"/>
<path d="M8 35H28V45H3V40C3 38.6739 3.52678 37.4021 4.46447 36.4645C5.40215 35.5268 6.67392 35 8 35Z" fill="url(#paint3_linear_4533_6113)"/>
<path d="M113 100H93V45H118V95C118 96.3261 117.473 97.5979 116.536 98.5355C115.598 99.4732 114.326 100 113 100Z" fill="url(#paint4_linear_4533_6113)"/>
<path d="M118 45H93V35H113C114.326 35 115.598 35.5268 116.536 36.4645C117.473 37.4021 118 38.6739 118 40V45Z" fill="url(#paint5_linear_4533_6113)"/>
<path d="M28 60H13C12.337 60 11.7011 59.7366 11.2322 59.2678C10.7634 58.7989 10.5 58.163 10.5 57.5C10.5 56.837 10.7634 56.2011 11.2322 55.7322C11.7011 55.2634 12.337 55 13 55H28V60ZM28 72.5H13C12.337 72.5 11.7011 72.2366 11.2322 71.7678C10.7634 71.2989 10.5 70.663 10.5 70C10.5 69.337 10.7634 68.7011 11.2322 68.2322C11.7011 67.7634 12.337 67.5 13 67.5H28V72.5ZM28 85H13C12.337 85 11.7011 84.7366 11.2322 84.2678C10.7634 83.7989 10.5 83.163 10.5 82.5C10.5 81.837 10.7634 81.2011 11.2322 80.7322C11.7011 80.2634 12.337 80 13 80H28V85ZM93 60H108C108.663 60 109.299 59.7366 109.768 59.2678C110.237 58.7989 110.5 58.163 110.5 57.5C110.5 56.837 110.237 56.2011 109.768 55.7322C109.299 55.2634 108.663 55 108 55H93V60ZM93 72.5H108C108.663 72.5 109.299 72.2366 109.768 71.7678C110.237 71.2989 110.5 70.663 110.5 70C110.5 69.337 110.237 68.7011 109.768 68.2322C109.299 67.7634 108.663 67.5 108 67.5H93V72.5ZM93 85H108C108.663 85 109.299 84.7366 109.768 84.2678C110.237 83.7989 110.5 83.163 110.5 82.5C110.5 81.837 110.237 81.2011 109.768 80.7322C109.299 80.2634 108.663 80 108 80H93V85Z" fill="#B4CDE1"/>
<path d="M47.9989 53.525L51.2239 56.775C51.4575 57.0067 51.7346 57.19 52.0391 57.3144C52.3437 57.4388 52.6699 57.5019 52.9989 57.5C53.4955 57.5029 53.9816 57.3578 54.3954 57.0833C54.8092 56.8088 55.1319 56.4173 55.3223 55.9587C55.5128 55.5001 55.5623 54.9952 55.4646 54.5083C55.3669 54.0214 55.1265 53.5747 54.7739 53.225L51.5239 50L54.7739 46.775C55.2447 46.3042 55.5091 45.6658 55.5091 45C55.5091 44.3343 55.2447 43.6958 54.7739 43.225C54.3032 42.7542 53.6647 42.4898 52.9989 42.4898C52.3332 42.4898 51.6947 42.7542 51.2239 43.225L47.9989 46.475L44.7739 43.225C44.5408 42.9919 44.2641 42.807 43.9595 42.6809C43.655 42.5547 43.3286 42.4898 42.9989 42.4898C42.6693 42.4898 42.3428 42.5547 42.0383 42.6809C41.7337 42.807 41.457 42.9919 41.2239 43.225C40.9908 43.4581 40.8059 43.7348 40.6798 44.0394C40.5536 44.3439 40.4887 44.6704 40.4887 45C40.4887 45.3297 40.5536 45.6561 40.6798 45.9606C40.8059 46.2652 40.9908 46.5419 41.2239 46.775L44.4739 50L41.2239 53.225C40.8713 53.5747 40.6309 54.0214 40.5332 54.5083C40.4355 54.9952 40.4851 55.5001 40.6755 55.9587C40.8659 56.4173 41.1886 56.8088 41.6024 57.0833C42.0162 57.3578 42.5024 57.5029 42.9989 57.5C44.3739 57.5 44.7239 56.825 47.9989 53.525ZM76.5239 50L79.7739 46.775C80.2447 46.3042 80.5092 45.6658 80.5092 45C80.5092 44.3343 80.2447 43.6958 79.7739 43.225C79.3032 42.7542 78.6647 42.4898 77.9989 42.4898C77.3332 42.4898 76.6947 42.7542 76.2239 43.225L72.9989 46.475L69.7739 43.225C69.3032 42.7542 68.6647 42.4898 67.9989 42.4898C67.3332 42.4898 66.6947 42.7542 66.2239 43.225C65.7532 43.6958 65.4887 44.3343 65.4887 45C65.4887 45.6658 65.7532 46.3042 66.2239 46.775L69.4739 50L66.2239 53.225C65.7532 53.6958 65.4887 54.3343 65.4887 55C65.4887 55.6658 65.7532 56.3042 66.2239 56.775C66.6947 57.2458 67.3332 57.5102 67.9989 57.5102C68.6647 57.5102 69.3032 57.2458 69.7739 56.775L72.9989 53.525L76.2239 56.775C76.6947 57.2458 77.3332 57.5102 77.9989 57.5102C78.6647 57.5102 79.3032 57.2458 79.7739 56.775C80.2447 56.3042 80.5092 55.6658 80.5092 55C80.5092 54.3343 80.2447 53.6958 79.7739 53.225L76.5239 50ZM44.1239 72.925C43.8174 73.0894 43.5485 73.316 43.3346 73.5903C43.1206 73.8645 42.9662 74.1804 42.8813 74.5178C42.7964 74.8551 42.7828 75.2064 42.8414 75.5493C42.9 75.8922 43.0295 76.2191 43.2217 76.509C43.4138 76.799 43.6644 77.0457 43.9573 77.2333C44.2502 77.4209 44.5791 77.5453 44.9228 77.5986C45.2666 77.6519 45.6176 77.6328 45.9536 77.5426C46.2896 77.4525 46.603 77.2932 46.8739 77.075C50.9094 74.3866 55.65 72.9521 60.4989 72.9521C65.3479 72.9521 70.0885 74.3866 74.1239 77.075C74.5265 77.357 75.0074 77.5056 75.4989 77.5C76.033 77.4959 76.5518 77.3208 76.9792 77.0004C77.4066 76.68 77.7201 76.2312 77.8738 75.7196C78.0276 75.2081 78.0134 74.6608 77.8335 74.1579C77.6535 73.655 77.3173 73.2229 76.8739 72.925C72.0318 69.6737 66.3313 67.9375 60.4989 67.9375C54.6665 67.9375 48.9661 69.6737 44.1239 72.925Z" fill="#F24A4A"/>
<path d="M35.5 25C36.8807 25 38 23.8807 38 22.5C38 21.1193 36.8807 20 35.5 20C34.1193 20 33 21.1193 33 22.5C33 23.8807 34.1193 25 35.5 25Z" fill="#F0F7FC"/>
<path d="M45.5 25C46.8807 25 48 23.8807 48 22.5C48 21.1193 46.8807 20 45.5 20C44.1193 20 43 21.1193 43 22.5C43 23.8807 44.1193 25 45.5 25Z" fill="#F0F7FC"/>
<path d="M55.5 25C56.8807 25 58 23.8807 58 22.5C58 21.1193 56.8807 20 55.5 20C54.1193 20 53 21.1193 53 22.5C53 23.8807 54.1193 25 55.5 25Z" fill="#F0F7FC"/>
<defs>
<linearGradient id="paint0_linear_4533_6113" x1="60.5" y1="30" x2="60.5" y2="15" gradientUnits="userSpaceOnUse">
<stop stop-color="#F24A4A"/>
<stop offset="1" stop-color="#F67E7E"/>
</linearGradient>
<linearGradient id="paint1_linear_4533_6113" x1="60.5" y1="105" x2="60.5" y2="30" gradientUnits="userSpaceOnUse">
<stop stop-color="#D3E6F5"/>
<stop offset="1" stop-color="#F0F7FC"/>
</linearGradient>
<linearGradient id="paint2_linear_4533_6113" x1="42.475" y1="72.5" x2="-2.975" y2="72.5" gradientUnits="userSpaceOnUse">
<stop stop-color="#D3E6F5"/>
<stop offset="0.56" stop-color="#E6F1FA"/>
<stop offset="1" stop-color="#F0F7FC"/>
</linearGradient>
<linearGradient id="paint3_linear_4533_6113" x1="-52.45" y1="40" x2="-73.475" y2="40" gradientUnits="userSpaceOnUse">
<stop stop-color="#4A4AF2"/>
<stop offset="1" stop-color="#B2B2FA"/>
</linearGradient>
<linearGradient id="paint4_linear_4533_6113" x1="168.525" y1="72.5" x2="213.975" y2="72.5" gradientUnits="userSpaceOnUse">
<stop stop-color="#D3E6F5"/>
<stop offset="0.56" stop-color="#E6F1FA"/>
<stop offset="1" stop-color="#F0F7FC"/>
</linearGradient>
<linearGradient id="paint5_linear_4533_6113" x1="173.45" y1="40" x2="194.475" y2="40" gradientUnits="userSpaceOnUse">
<stop stop-color="#4A4AF2"/>
<stop offset="1" stop-color="#B2B2FA"/>
</linearGradient>
</defs>
</svg>
