<svg width="17" height="16" viewBox="0 0 17 16" fill="none" xmlns="http://www.w3.org/2000/svg">
<path d="M14.4707 8C14.4707 8.13261 14.418 8.25979 14.3243 8.35355C14.2305 8.44732 14.1033 8.5 13.9707 8.5H8.9707V13.5C8.9707 13.6326 8.91803 13.7598 8.82426 13.8536C8.73049 13.9473 8.60331 14 8.4707 14C8.33809 14 8.21092 13.9473 8.11715 13.8536C8.02338 13.7598 7.9707 13.6326 7.9707 13.5V8.5H2.9707C2.83809 8.5 2.71092 8.44732 2.61715 8.35355C2.52338 8.25979 2.4707 8.13261 2.4707 8C2.4707 7.86739 2.52338 7.74021 2.61715 7.64645C2.71092 7.55268 2.83809 7.5 2.9707 7.5H7.9707V2.5C7.9707 2.36739 8.02338 2.24021 8.11715 2.14645C8.21092 2.05268 8.33809 2 8.4707 2C8.60331 2 8.73049 2.05268 8.82426 2.14645C8.91803 2.24021 8.9707 2.36739 8.9707 2.5V7.5H13.9707C14.1033 7.5 14.2305 7.55268 14.3243 7.64645C14.418 7.74021 14.4707 7.86739 14.4707 8Z" fill="#FF780E"/>
</svg>
