<svg width="25" height="24" viewBox="0 0 25 24" fill="none" xmlns="http://www.w3.org/2000/svg">
<path d="M16.2206 21C16.2206 21.1989 16.1416 21.3897 16.0009 21.5303C15.8603 21.671 15.6695 21.75 15.4706 21.75H9.47059C9.27168 21.75 9.08091 21.671 8.94026 21.5303C8.79961 21.3897 8.72059 21.1989 8.72059 21C8.72059 20.8011 8.79961 20.6103 8.94026 20.4697C9.08091 20.329 9.27168 20.25 9.47059 20.25H15.4706C15.6695 20.25 15.8603 20.329 16.0009 20.4697C16.1416 20.6103 16.2206 20.8011 16.2206 21ZM21.2653 16.4944C20.744 15.5981 19.9706 13.0622 19.9706 9.75C19.9706 7.76088 19.1804 5.85322 17.7739 4.4467C16.3674 3.04018 14.4597 2.25 12.4706 2.25C10.4815 2.25 8.57381 3.04018 7.16729 4.4467C5.76077 5.85322 4.97059 7.76088 4.97059 9.75C4.97059 13.0631 4.19622 15.5981 3.67591 16.4944C3.54303 16.7222 3.47259 16.9811 3.47169 17.2449C3.47078 17.5086 3.53944 17.768 3.67075 17.9967C3.80205 18.2255 3.99136 18.4156 4.21957 18.5478C4.44778 18.6801 4.70683 18.7498 4.97059 18.75H19.9706C20.2343 18.7496 20.4932 18.6798 20.7213 18.5475C20.9494 18.4151 21.1385 18.225 21.2697 17.9963C21.4009 17.7676 21.4695 17.5083 21.4686 17.2446C21.4676 16.9809 21.3972 16.7222 21.2643 16.4944H21.2653Z" fill="#2AD587"/>
</svg>
