<svg width="24" height="19" viewBox="0 0 24 19" fill="none" xmlns="http://www.w3.org/2000/svg">
<path d="M23.25 17.5C23.25 17.6989 23.171 17.8897 23.0303 18.0303C22.8897 18.171 22.6989 18.25 22.5 18.25H1.5C1.30109 18.25 1.11032 18.171 0.96967 18.0303C0.829018 17.8897 0.75 17.6989 0.75 17.5C0.75 17.3011 0.829018 17.1103 0.96967 16.9697C1.11032 16.829 1.30109 16.75 1.5 16.75H22.5C22.6989 16.75 22.8897 16.829 23.0303 16.9697C23.171 17.1103 23.25 17.3011 23.25 17.5ZM1.52812 7.20439C1.48352 7.0471 1.49152 6.87955 1.55093 6.72724C1.61033 6.57492 1.71787 6.44619 1.85719 6.36064L11.6072 0.360638C11.7253 0.287999 11.8613 0.249542 12 0.249542C12.1387 0.249542 12.2747 0.287999 12.3928 0.360638L22.1428 6.36064C22.2822 6.44609 22.3898 6.57473 22.4493 6.72698C22.5088 6.87923 22.517 7.04676 22.4725 7.20406C22.428 7.36136 22.3334 7.49983 22.2029 7.59838C22.0725 7.69694 21.9135 7.75018 21.75 7.75001H19.5V13.75H21C21.1989 13.75 21.3897 13.829 21.5303 13.9697C21.671 14.1103 21.75 14.3011 21.75 14.5C21.75 14.6989 21.671 14.8897 21.5303 15.0303C21.3897 15.171 21.1989 15.25 21 15.25H3C2.80109 15.25 2.61032 15.171 2.46967 15.0303C2.32902 14.8897 2.25 14.6989 2.25 14.5C2.25 14.3011 2.32902 14.1103 2.46967 13.9697C2.61032 13.829 2.80109 13.75 3 13.75H4.5V7.75001H2.25C2.08668 7.75007 1.9278 7.69681 1.79751 7.59833C1.66721 7.49985 1.57263 7.36153 1.52812 7.20439ZM13.5 13C13.5 13.1989 13.579 13.3897 13.7197 13.5303C13.8603 13.671 14.0511 13.75 14.25 13.75C14.4489 13.75 14.6397 13.671 14.7803 13.5303C14.921 13.3897 15 13.1989 15 13V8.50001C15 8.3011 14.921 8.11034 14.7803 7.96968C14.6397 7.82903 14.4489 7.75001 14.25 7.75001C14.0511 7.75001 13.8603 7.82903 13.7197 7.96968C13.579 8.11034 13.5 8.3011 13.5 8.50001V13ZM9 13C9 13.1989 9.07902 13.3897 9.21967 13.5303C9.36032 13.671 9.55109 13.75 9.75 13.75C9.94891 13.75 10.1397 13.671 10.2803 13.5303C10.421 13.3897 10.5 13.1989 10.5 13V8.50001C10.5 8.3011 10.421 8.11034 10.2803 7.96968C10.1397 7.82903 9.94891 7.75001 9.75 7.75001C9.55109 7.75001 9.36032 7.82903 9.21967 7.96968C9.07902 8.11034 9 8.3011 9 8.50001V13Z" fill="#4A4AF2"/>
</svg>
