<svg width="23" height="22" viewBox="0 0 23 22" fill="none" xmlns="http://www.w3.org/2000/svg">
<path d="M17.6582 14.4375C17.6571 15.5312 17.2221 16.5797 16.4488 17.3531C15.6754 18.1264 14.6269 18.5614 13.5332 18.5625H12.1582V19.9375C12.1582 20.1198 12.0858 20.2947 11.9568 20.4236C11.8279 20.5526 11.653 20.625 11.4707 20.625C11.2884 20.625 11.1135 20.5526 10.9846 20.4236C10.8556 20.2947 10.7832 20.1198 10.7832 19.9375V18.5625H9.4082C8.31453 18.5614 7.26599 18.1264 6.49264 17.3531C5.7193 16.5797 5.28434 15.5312 5.2832 14.4375C5.2832 14.2552 5.35564 14.0803 5.48457 13.9514C5.6135 13.8224 5.78837 13.75 5.9707 13.75C6.15304 13.75 6.32791 13.8224 6.45684 13.9514C6.58577 14.0803 6.6582 14.2552 6.6582 14.4375C6.6582 15.1668 6.94793 15.8663 7.46366 16.382C7.97938 16.8978 8.67886 17.1875 9.4082 17.1875H13.5332C14.2625 17.1875 14.962 16.8978 15.4777 16.382C15.9935 15.8663 16.2832 15.1668 16.2832 14.4375C16.2832 13.7082 15.9935 13.0087 15.4777 12.493C14.962 11.9772 14.2625 11.6875 13.5332 11.6875H10.0957C9.00169 11.6875 7.95248 11.2529 7.17889 10.4793C6.4053 9.70573 5.9707 8.65652 5.9707 7.5625C5.9707 6.46848 6.4053 5.41927 7.17889 4.64568C7.95248 3.8721 9.00169 3.4375 10.0957 3.4375H10.7832V2.0625C10.7832 1.88016 10.8556 1.7053 10.9846 1.57636C11.1135 1.44743 11.2884 1.375 11.4707 1.375C11.653 1.375 11.8279 1.44743 11.9568 1.57636C12.0858 1.7053 12.1582 1.88016 12.1582 2.0625V3.4375H12.8457C13.9394 3.43864 14.9879 3.8736 15.7613 4.64694C16.5346 5.42028 16.9696 6.46883 16.9707 7.5625C16.9707 7.74484 16.8983 7.9197 16.7693 8.04864C16.6404 8.17757 16.4655 8.25 16.2832 8.25C16.1009 8.25 15.926 8.17757 15.7971 8.04864C15.6681 7.9197 15.5957 7.74484 15.5957 7.5625C15.5957 6.83315 15.306 6.13368 14.7902 5.61796C14.2745 5.10223 13.575 4.8125 12.8457 4.8125H10.0957C9.36636 4.8125 8.66688 5.10223 8.15116 5.61796C7.63543 6.13368 7.3457 6.83315 7.3457 7.5625C7.3457 8.29185 7.63543 8.99132 8.15116 9.50704C8.66688 10.0228 9.36636 10.3125 10.0957 10.3125H13.5332C14.6269 10.3136 15.6754 10.7486 16.4488 11.5219C17.2221 12.2953 17.6571 13.3438 17.6582 14.4375Z" fill="#F4F4F5"/>
</svg>
