<svg width="14" height="12" viewBox="0 0 14 12" fill="none" xmlns="http://www.w3.org/2000/svg">
<path fill-rule="evenodd" clip-rule="evenodd" d="M8.86193 0C9.09398 0 9.31771 0.0806663 9.4957 0.226466L9.56907 0.292893L10.6095 1.33333H12.3333C13.0363 1.33333 13.6121 1.87725 13.663 2.56716L13.6667 2.66667V10.6667C13.6667 11.3696 13.1228 11.9454 12.4328 11.9963L12.3333 12H1.66667C0.963757 12 0.387889 11.4561 0.336989 10.7662L0.333332 10.6667V2.66667C0.333332 1.96376 0.87725 1.38789 1.56716 1.33699L1.66667 1.33333H3.39053L4.43097 0.292893C4.59506 0.128796 4.81031 0.0276225 5.03923 0.00489314L5.13807 0H8.86193ZM8.72387 1.33333H5.27614L4.2357 2.37377C4.07161 2.53786 3.85636 2.63904 3.62743 2.66177L3.52859 2.66667H1.66667V10.6667H12.3333V2.66667H10.4714C10.2393 2.66667 10.0156 2.58601 9.83763 2.4402L9.76427 2.37377L8.72387 1.33333ZM7 3C8.84093 3 10.3333 4.49239 10.3333 6.33333C10.3333 8.17427 8.84093 9.66667 7 9.66667C5.15905 9.66667 3.66667 8.17427 3.66667 6.33333C3.66667 4.49239 5.15905 3 7 3ZM7 4.33333C5.8954 4.33333 5 5.22873 5 6.33333C5 7.43793 5.8954 8.33333 7 8.33333C8.1046 8.33333 9 7.43793 9 6.33333C9 5.22873 8.1046 4.33333 7 4.33333Z" fill="white"/>
</svg>
