<svg width="20" height="20" viewBox="0 0 20 20" fill="none" xmlns="http://www.w3.org/2000/svg">
<path d="M10 0.833252C15.0626 0.833252 19.1667 4.93731 19.1667 9.99992C19.1667 15.0625 15.0626 19.1666 10 19.1666C4.93739 19.1666 0.833336 15.0625 0.833336 9.99992C0.833336 4.93731 4.93739 0.833252 10 0.833252ZM10 2.66659C5.94991 2.66659 2.66667 5.94983 2.66667 9.99992C2.66667 14.05 5.94991 17.3333 10 17.3333C14.0501 17.3333 17.3333 14.05 17.3333 9.99992C17.3333 5.94983 14.0501 2.66659 10 2.66659ZM10 4.49992C10.4701 4.49992 10.8576 4.85379 10.9105 5.30968L10.9167 5.41658V9.62024L13.3982 12.1017C13.7561 12.4597 13.7561 13.0401 13.3982 13.3981C13.0678 13.7285 12.5478 13.7539 12.1882 13.4743L12.1018 13.3981L9.35183 10.6481C9.2086 10.5049 9.11763 10.319 9.09129 10.1204L9.08334 9.99992V5.41658C9.08334 4.91033 9.49373 4.49992 10 4.49992Z" fill="#989898"/>
</svg>
