<svg width="21" height="20" viewBox="0 0 21 20" fill="none" xmlns="http://www.w3.org/2000/svg">
<path d="M10.5 0C16.0228 0 20.5 4.47715 20.5 10C20.5 15.5228 16.0228 20 10.5 20C4.97715 20 0.5 15.5228 0.5 10C0.5 4.47715 4.97715 0 10.5 0ZM14.0354 6.38136L9.0856 11.3311L6.96431 9.2098C6.57379 8.8193 5.94063 8.8193 5.5501 9.2098C5.15958 9.6003 5.15958 10.2335 5.5501 10.624L8.30782 13.3817C8.7374 13.8113 9.4339 13.8113 9.8635 13.3817L15.4496 7.79557C15.8401 7.40505 15.8401 6.77188 15.4496 6.38136C15.0591 5.99083 14.4259 5.99083 14.0354 6.38136Z" fill="#FA8A38"/>
</svg>
