<svg width="16" height="14" viewBox="0 0 16 14" fill="none" xmlns="http://www.w3.org/2000/svg">
<path d="M10.7478 2.87507C10.4224 3.20052 10.4224 3.72815 10.7478 4.05358L12.8606 6.16626H5.5C5.03977 6.16626 4.66667 6.53942 4.66667 6.99959C4.66667 7.45984 5.03976 7.83292 5.5 7.83292H12.861L10.7478 9.94617C10.4224 10.2716 10.4224 10.7993 10.7478 11.1247C11.0732 11.4501 11.6009 11.4501 11.9263 11.1247L15.4619 7.58909C15.7873 7.26367 15.7873 6.73609 15.4619 6.41059L11.9263 2.87507C11.6009 2.54964 11.0732 2.54964 10.7478 2.87507ZM0.5 12.833C0.5 13.2933 0.8731 13.6663 1.33333 13.6663C1.79357 13.6663 2.16667 13.2933 2.16667 12.833V1.16634C2.16667 0.706099 1.79357 0.333008 1.33333 0.333008C0.8731 0.333008 0.5 0.706099 0.5 1.16634V12.833Z" fill="#FC4400"/>
</svg>
