<svg width="18" height="18" viewBox="0 0 18 18" fill="none" xmlns="http://www.w3.org/2000/svg">
<path d="M17.5345 4.30524L13.6948 0.464691C13.5671 0.336977 13.4155 0.235667 13.2487 0.166547C13.0818 0.0974273 12.903 0.0618515 12.7224 0.0618515C12.5418 0.0618515 12.363 0.0974273 12.1961 0.166547C12.0293 0.235667 11.8777 0.336977 11.75 0.464691L1.15305 11.0625C1.02482 11.1897 0.923148 11.3412 0.853956 11.508C0.784764 11.6749 0.74943 11.8538 0.750007 12.0345V15.875C0.750007 16.2397 0.894873 16.5894 1.15274 16.8473C1.4106 17.1051 1.76033 17.25 2.12501 17.25H5.96555C6.14619 17.2506 6.32513 17.2152 6.49199 17.1461C6.65885 17.0769 6.81029 16.9752 6.93751 16.847L17.5345 6.25C17.6622 6.12232 17.7635 5.97073 17.8326 5.80388C17.9017 5.63704 17.9373 5.45821 17.9373 5.27762C17.9373 5.09703 17.9017 4.9182 17.8326 4.75136C17.7635 4.58451 17.6622 4.43292 17.5345 4.30524ZM14.5 7.33969L10.6595 3.5L12.722 1.4375L16.5625 5.27719L14.5 7.33969Z" fill="#3F3F46"/>
</svg>
