<svg width="15" height="15" viewBox="0 0 15 15" fill="none" xmlns="http://www.w3.org/2000/svg">
<path d="M13.9827 4.15884L10.8412 1.01658C10.7367 0.912084 10.6127 0.829194 10.4762 0.772641C10.3397 0.716089 10.1933 0.686981 10.0456 0.686981C9.89783 0.686981 9.75152 0.716089 9.61501 0.772641C9.47851 0.829194 9.35448 0.912084 9.25001 1.01658L0.579771 9.68751C0.474851 9.7916 0.391667 9.91551 0.335055 10.052C0.278443 10.1885 0.249534 10.335 0.250006 10.4827V13.625C0.250006 13.9234 0.368532 14.2095 0.579511 14.4205C0.790489 14.6315 1.07664 14.75 1.37501 14.75H4.51727C4.66506 14.7505 4.81147 14.7216 4.94799 14.665C5.08451 14.6084 5.20842 14.5252 5.31251 14.4202L13.9827 5.75001C14.0872 5.64555 14.1701 5.52151 14.2267 5.38501C14.2832 5.2485 14.3123 5.10219 14.3123 4.95443C14.3123 4.80667 14.2832 4.66036 14.2267 4.52385C14.1701 4.38734 14.0872 4.26331 13.9827 4.15884ZM1.60774 10.25L7.56251 4.29525L8.73602 5.46876L2.78126 11.4228L1.60774 10.25ZM1.37501 11.6077L3.39227 13.625H1.37501V11.6077ZM4.75001 13.3923L3.57649 12.2188L9.53126 6.264L10.7048 7.43751L4.75001 13.3923ZM11.5 6.64228L8.35774 3.50001L10.0452 1.81251L13.1875 4.95408L11.5 6.64228Z" fill="white"/>
</svg>
