<svg width="18" height="18" viewBox="0 0 18 18" fill="none" xmlns="http://www.w3.org/2000/svg">
<path d="M17.5345 4.30525L13.6948 0.464698C13.5671 0.336985 13.4155 0.235675 13.2487 0.166555C13.0818 0.097435 12.903 0.0618591 12.7224 0.0618591C12.5418 0.0618591 12.363 0.097435 12.1961 0.166555C12.0293 0.235675 11.8777 0.336985 11.75 0.464698L1.15305 11.0625C1.02482 11.1897 0.923148 11.3412 0.853956 11.508C0.784764 11.6749 0.74943 11.8538 0.750007 12.0345V15.875C0.750007 16.2397 0.894873 16.5894 1.15274 16.8473C1.4106 17.1051 1.76033 17.25 2.12501 17.25H5.96555C6.14619 17.2506 6.32513 17.2153 6.49199 17.1461C6.65885 17.0769 6.81029 16.9752 6.93751 16.847L17.5345 6.25001C17.6622 6.12233 17.7635 5.97073 17.8326 5.80389C17.9017 5.63705 17.9373 5.45822 17.9373 5.27763C17.9373 5.09703 17.9017 4.91821 17.8326 4.75137C17.7635 4.58452 17.6622 4.43293 17.5345 4.30525ZM5.96555 15.875H2.12501V12.0345L9.68751 4.47196L13.5281 8.31251L5.96555 15.875ZM14.5 7.3397L10.6595 3.50001L12.722 1.43751L16.5625 5.2772L14.5 7.3397Z" fill="#4A4AF2"/>
</svg>
