<svg width="17" height="20" viewBox="0 0 17 20" fill="none" xmlns="http://www.w3.org/2000/svg">
<path d="M3.39996 1V2C3.39996 3.10457 4.29539 4 5.39996 4H11.4C12.5046 4 13.4 3.10457 13.4 2V1H14.4C15.5046 1 16.4 1.89543 16.4 3V14C16.4 17.3137 13.7137 20 10.4 20H2.39996C1.29539 20 0.399963 19.1046 0.399963 18V3C0.399963 1.89543 1.29539 1 2.39996 1H3.39996ZM8.39996 12H5.39996C4.84768 12 4.39996 12.4477 4.39996 13C4.39996 13.5523 4.84768 14 5.39996 14H8.39996C8.95226 14 9.39996 13.5523 9.39996 13C9.39996 12.4477 8.95226 12 8.39996 12ZM11.4 8H5.39996C4.84768 8 4.39996 8.4477 4.39996 9C4.39996 9.51285 4.78601 9.93551 5.28334 9.99327L5.39996 10H11.4C11.9523 10 12.4 9.5523 12.4 9C12.4 8.4477 11.9523 8 11.4 8ZM10.4 0C10.9523 0 11.4 0.44772 11.4 1C11.4 1.51283 11.0139 1.93551 10.5166 1.99327L10.4 2H6.39996C5.84768 2 5.39996 1.55228 5.39996 1C5.39996 0.487169 5.78601 0.0644934 6.28334 0.0067277L6.39996 0H10.4Z" fill="#FA8A38"/>
</svg>
