<svg width="19" height="20" viewBox="0 0 19 20" fill="none" xmlns="http://www.w3.org/2000/svg">
<path d="M13.2 12C15.8887 12 18.0818 14.1223 18.1953 16.7831L18.2 17V18C18.2 19.0544 17.3841 19.9182 16.3492 19.9945L16.2 20H2.19995C1.14559 20 0.281786 19.1841 0.205437 18.1493L0.199951 18V17C0.199951 14.3113 2.32226 12.1182 4.98306 12.0046L5.19995 12H13.2ZM9.19995 0C11.9614 0 14.2 2.23858 14.2 5C14.2 7.76142 11.9614 10 9.19995 10C6.43853 10 4.19995 7.76142 4.19995 5C4.19995 2.23858 6.43853 0 9.19995 0Z" fill="#FA8A38"/>
</svg>
