<svg width="339" height="370" viewBox="0 0 339 370" fill="none" xmlns="http://www.w3.org/2000/svg">
<path fill-rule="evenodd" clip-rule="evenodd" d="M28.5832 193.587C32.656 120.446 76.3454 76.0284 76.3454 76.0284C70.4214 80.4702 64.7936 85.3561 59.536 90.6122C31.8414 118.225 15.7726 154.796 14.0695 193.587H28.5832ZM338.037 218.683C333.817 258.215 316.045 293.675 289.387 320.326C258.73 350.974 216.374 369.926 169.574 369.926C122.775 369.926 80.4181 350.974 49.7615 320.326C22.9554 293.75 5.18349 258.215 0.962647 218.683H14.9581C19.1049 254.366 35.3218 286.421 59.462 310.48C87.6009 338.611 126.477 356.008 169.426 356.008C212.375 356.008 251.251 338.611 279.39 310.48C303.53 286.347 319.747 254.366 323.894 218.683H338.037ZM169.5 0C181.052 0 190.382 9.32773 190.382 20.8764C190.382 24.948 189.197 28.7975 187.124 32.0548C226.889 36.2005 262.581 54.0416 289.313 80.7663C319.969 111.415 338.926 153.76 338.926 200.546V207.505H338.778H324.857H275.613H261.618H77.308H63.3126H14.0695H0.1481H0V200.546C0 153.76 18.9567 111.415 49.6134 80.7663C76.3454 54.0416 112.037 36.1264 151.802 32.0548C149.729 28.7975 148.544 25.022 148.544 20.8764C148.618 9.32773 157.948 0 169.5 0ZM242.439 218.683C239.107 232.157 232.146 244.15 222.668 253.699C209.043 267.321 190.308 275.686 169.5 275.686C148.766 275.686 129.957 267.247 116.332 253.699C106.854 244.224 99.8932 232.157 96.5609 218.683H111.001C113.963 228.307 119.294 236.895 126.181 243.854C137.288 254.958 152.543 261.769 169.5 261.769C186.457 261.769 201.712 254.884 212.819 243.854C219.78 236.895 225.037 228.307 227.999 218.683H242.439ZM261.988 282.645C260.952 283.755 259.915 284.866 258.804 285.902C236.071 308.629 204.748 322.621 170.092 322.621C135.437 322.621 104.114 308.555 81.3807 285.902C80.6402 285.162 79.8257 284.348 79.0852 283.533C68.7182 285.976 57.6107 280.794 53.0937 270.726L49.021 261.769L48.9469 261.695L38.5059 238.597C37.7654 236.969 38.5059 235.044 40.135 234.304C41.7641 233.563 43.6894 234.304 44.4299 235.932L49.2431 246.593L56.3519 262.287C57.0924 263.916 59.0177 264.656 60.6468 263.916C61.5354 263.471 62.2018 262.731 62.424 261.843C61.9056 260.954 61.3873 260.14 60.8689 259.252H62.0537L60.8689 256.587V256.513L50.3539 233.193C49.6134 231.565 50.3539 229.64 51.983 228.9C53.6121 228.159 55.5374 228.9 56.2779 230.528L61.0911 241.188L68.1999 256.883C68.9404 258.511 70.8657 259.252 72.4948 258.511C74.1239 257.771 74.8644 255.846 74.1239 254.218L72.7169 251.108L67.0151 238.523L62.2018 227.863C61.4613 226.234 62.2018 224.31 63.8309 223.569C65.46 222.829 67.3853 223.569 68.1258 225.198L72.9391 235.858L80.0478 251.553C80.7883 253.181 82.7136 253.922 84.3427 253.181C85.9718 252.441 86.7123 250.516 85.9718 248.888L78.863 233.193L74.0498 222.533C73.3093 220.904 74.0498 218.98 75.6789 218.239C77.308 217.499 79.2333 218.239 79.9738 219.868L84.787 230.528L94.6357 252.145C98.0419 259.622 97.0052 268.061 92.7104 274.428L92.8585 274.576C112.556 294.268 139.806 306.483 169.944 306.483C200.083 306.483 227.333 294.268 247.03 274.576C248.067 273.539 249.104 272.429 250.14 271.319C246.66 262.657 247.697 251.034 253.843 240.522C263.025 224.828 279.982 217.721 291.83 224.606C303.604 231.491 305.752 249.776 296.644 265.47C288.35 279.61 273.466 286.791 261.988 282.645Z" fill="url(#paint0_linear_3984_15942)"/>
<defs>
<linearGradient id="paint0_linear_3984_15942" x1="169.463" y1="0" x2="169.463" y2="369.926" gradientUnits="userSpaceOnUse">
<stop stop-color="#F24A4A"/>
<stop offset="1" stop-color="#FF790F"/>
</linearGradient>
</defs>
</svg>
