<svg width="21" height="20" viewBox="0 0 21 20" fill="none" xmlns="http://www.w3.org/2000/svg">
<path d="M17.9707 9.37491V16.8749C17.9707 17.0407 17.9049 17.1996 17.7876 17.3169C17.6704 17.4341 17.5115 17.4999 17.3457 17.4999H12.9707C12.8049 17.4999 12.646 17.4341 12.5288 17.3169C12.4116 17.1996 12.3457 17.0407 12.3457 16.8749V12.8124C12.3457 12.7295 12.3128 12.65 12.2542 12.5914C12.1956 12.5328 12.1161 12.4999 12.0332 12.4999H8.9082C8.82532 12.4999 8.74584 12.5328 8.68723 12.5914C8.62863 12.65 8.5957 12.7295 8.5957 12.8124V16.8749C8.5957 17.0407 8.52985 17.1996 8.41264 17.3169C8.29543 17.4341 8.13646 17.4999 7.9707 17.4999H3.5957C3.42994 17.4999 3.27097 17.4341 3.15376 17.3169C3.03655 17.1996 2.9707 17.0407 2.9707 16.8749V9.37491C2.97086 9.04345 3.10265 8.72562 3.33711 8.49132L9.58711 2.24132C9.82151 2.00707 10.1393 1.87549 10.4707 1.87549C10.8021 1.87549 11.1199 2.00707 11.3543 2.24132L17.6043 8.49132C17.8388 8.72562 17.9705 9.04345 17.9707 9.37491Z" fill="#FF780E"/>
</svg>
