<svg width="18" height="20" viewBox="0 0 18 20" fill="none" xmlns="http://www.w3.org/2000/svg">
<path d="M9 0.833374C11.9685 0.833374 14.3878 3.18515 14.4962 6.12718L14.5 6.33337H15.4167C16.3832 6.33337 17.175 7.08126 17.245 8.02988L17.25 8.16671V17.3334C17.25 18.2999 16.5021 19.0917 15.5535 19.1617L15.4167 19.1667H2.58333C1.61683 19.1667 0.825015 18.4188 0.755029 17.4702L0.75 17.3334V8.16671C0.75 7.20021 1.49789 6.40839 2.44651 6.3384L2.58333 6.33337H3.5C3.5 3.29581 5.96243 0.833374 9 0.833374ZM15.4167 8.16671H2.58333V17.3334H15.4167V8.16671ZM9 10C10.0126 10 10.8333 10.8208 10.8333 11.8334C10.8333 12.4598 10.5192 13.0128 10.0399 13.3435L9.91667 13.4214V14.5834C9.91667 15.0896 9.50628 15.5 9 15.5C8.52989 15.5 8.14245 15.1462 8.0895 14.6903L8.08333 14.5834V13.4214C7.53535 13.1044 7.16667 12.512 7.16667 11.8334C7.16667 10.8208 7.98745 10 9 10ZM9 2.66671C6.97496 2.66671 5.33333 4.30833 5.33333 6.33337H12.6667C12.6667 4.30833 11.025 2.66671 9 2.66671Z" fill="#94A3B8"/>
</svg>
