<svg width="20" height="20" viewBox="0 0 20 20" fill="none" xmlns="http://www.w3.org/2000/svg">
<path d="M10 0.25C8.07164 0.25 6.18657 0.821828 4.58319 1.89317C2.97982 2.96451 1.73013 4.48726 0.992179 6.26884C0.254225 8.05042 0.061142 10.0108 0.437348 11.9021C0.813554 13.7934 1.74215 15.5307 3.10571 16.8943C4.46928 18.2579 6.20656 19.1865 8.09787 19.5627C9.98919 19.9389 11.9496 19.7458 13.7312 19.0078C15.5127 18.2699 17.0355 17.0202 18.1068 15.4168C19.1782 13.8134 19.75 11.9284 19.75 10C19.7473 7.41498 18.7192 4.93661 16.8913 3.10872C15.0634 1.28084 12.585 0.25273 10 0.25ZM18.25 10C18.2508 11.0584 18.0471 12.107 17.65 13.0881L13.4594 10.5109C13.2812 10.401 13.0819 10.3298 12.8744 10.3019L10.735 10.0131C10.4402 9.97469 10.1406 10.0241 9.8738 10.1552C9.60696 10.2863 9.38475 10.4932 9.235 10.75H8.4175L8.06125 10.0131C7.96277 9.80794 7.81863 9.62802 7.63988 9.48713C7.46114 9.34625 7.25252 9.24814 7.03 9.20031L6.28 9.03813L7.01313 7.75H8.57969C8.83319 7.7495 9.08245 7.68501 9.30438 7.5625L10.4528 6.92875C10.5537 6.87251 10.648 6.80522 10.7341 6.72812L13.2569 4.44625C13.5098 4.21957 13.6779 3.91345 13.7335 3.57838C13.7891 3.24331 13.7287 2.89931 13.5625 2.60312L13.5288 2.54219C14.9404 3.21156 16.1333 4.26756 16.969 5.58761C17.8047 6.90767 18.2489 8.43766 18.25 10ZM1.75 10C1.74875 8.77377 2.02233 7.56284 2.55063 6.45625L3.61375 9.29406C3.70235 9.52902 3.84852 9.73798 4.03885 9.90178C4.22918 10.0656 4.45759 10.179 4.70313 10.2316L6.71219 10.6637L7.06938 11.4062C7.19334 11.6588 7.38545 11.8716 7.62401 12.0207C7.86256 12.1698 8.13806 12.2492 8.41938 12.25H8.55813L7.88032 13.7716C7.76089 14.0395 7.72264 14.3365 7.77029 14.626C7.81795 14.9154 7.94942 15.1845 8.14844 15.4L8.16157 15.4131L10 17.3069L9.81813 18.2444C7.66359 18.1942 5.61396 17.3041 4.10662 15.7638C2.59927 14.2235 1.75358 12.1551 1.75 10Z" fill="#00B2CB"/>
</svg>
