<svg width="20" height="16" viewBox="0 0 20 16" fill="none" xmlns="http://www.w3.org/2000/svg">
<path d="M17.3333 0.666626C18.2998 0.666626 19.0916 1.41451 19.1616 2.36314L19.1666 2.49996V13.5C19.1666 14.4665 18.4188 15.2583 17.4701 15.3283L17.3333 15.3333H2.66665C1.70015 15.3333 0.908328 14.5854 0.838342 13.6368L0.833313 13.5V2.49996C0.833313 1.53346 1.5812 0.741641 2.52982 0.671654L2.66665 0.666626H17.3333ZM17.3333 3.79635L10.9722 10.1574C10.4352 10.6944 9.56465 10.6944 9.02767 10.1574L2.66665 3.79635V13.5H17.3333V3.79635ZM16.037 2.49996H3.9629L9.99998 8.53703L16.037 2.49996Z" fill="#94A3B8"/>
</svg>
