<svg width="36" height="36" viewBox="0 0 36 36" fill="none" xmlns="http://www.w3.org/2000/svg">
<rect width="36" height="36" rx="18" fill="#FF790F"/>
<path d="M13.1875 14.5625V10.4375C13.1875 10.2552 13.2599 10.0803 13.3889 9.95141C13.5178 9.82248 13.6927 9.75005 13.875 9.75005C14.0573 9.75005 14.2322 9.82248 14.3611 9.95141C14.4901 10.0803 14.5625 10.2552 14.5625 10.4375V14.5625C14.5625 14.7449 14.4901 14.9198 14.3611 15.0487C14.2322 15.1776 14.0573 15.25 13.875 15.25C13.6927 15.25 13.5178 15.1776 13.3889 15.0487C13.2599 14.9198 13.1875 14.7449 13.1875 14.5625ZM25.5625 10.4375V26.25C25.5625 26.4324 25.4901 26.6073 25.3611 26.7362C25.2322 26.8651 25.0573 26.9375 24.875 26.9375C24.6927 26.9375 24.5178 26.8651 24.3889 26.7362C24.2599 26.6073 24.1875 26.4324 24.1875 26.25V22.125H20.0625C19.8802 22.125 19.7053 22.0526 19.5764 21.9237C19.4474 21.7948 19.375 21.6199 19.375 21.4375C19.4069 19.7907 19.6149 18.152 19.9955 16.5494C20.8359 13.0698 22.4292 10.7375 24.6043 9.80591C24.7088 9.76112 24.8229 9.74298 24.9361 9.75309C25.0494 9.76321 25.1584 9.80127 25.2534 9.86386C25.3483 9.92646 25.4263 10.0116 25.4802 10.1118C25.5342 10.2119 25.5625 10.3238 25.5625 10.4375ZM24.1875 11.6321C21.4229 13.7436 20.8815 18.8869 20.7758 20.75H24.1875V11.6321ZM17.3031 10.325C17.2896 10.2347 17.2583 10.148 17.211 10.07C17.1636 9.99191 17.1013 9.92407 17.0274 9.87038C16.9536 9.8167 16.8699 9.77825 16.781 9.75728C16.6922 9.73631 16.6001 9.73324 16.5101 9.74825C16.42 9.76325 16.3339 9.79603 16.2567 9.84468C16.1794 9.89333 16.1127 9.95686 16.0602 10.0316C16.0078 10.1063 15.9708 10.1907 15.9514 10.2799C15.9319 10.3691 15.9304 10.4612 15.947 10.551L16.625 14.6167C16.625 15.346 16.3353 16.0455 15.8196 16.5612C15.3038 17.077 14.6044 17.3667 13.875 17.3667C13.1457 17.3667 12.4462 17.077 11.9305 16.5612C11.4147 16.0455 11.125 15.346 11.125 14.6167L11.8022 10.551C11.8187 10.4612 11.8172 10.3691 11.7978 10.2799C11.7783 10.1907 11.7413 10.1063 11.6889 10.0316C11.6365 9.95686 11.5697 9.89333 11.4925 9.84468C11.4153 9.79603 11.3291 9.76325 11.2391 9.74825C11.1491 9.73324 11.057 9.73631 10.9681 9.75728C10.8793 9.77825 10.7955 9.8167 10.7217 9.87038C10.6479 9.92407 10.5855 9.99191 10.5382 10.07C10.4909 10.148 10.4596 10.2347 10.4461 10.325L9.7586 14.45C9.75272 14.4872 9.74984 14.5249 9.75001 14.5625C9.75138 15.5369 10.0971 16.4794 10.7261 17.2236C11.3552 17.9677 12.227 18.4655 13.1875 18.6291V26.25C13.1875 26.4324 13.2599 26.6073 13.3889 26.7362C13.5178 26.8651 13.6927 26.9375 13.875 26.9375C14.0573 26.9375 14.2322 26.8651 14.3611 26.7362C14.4901 26.6073 14.5625 26.4324 14.5625 26.25V18.6291C15.523 18.4655 16.3949 17.9677 17.0239 17.2236C17.6529 16.4794 17.9986 15.5369 18 14.5625C17.9999 14.5248 17.9967 14.4872 17.9906 14.45L17.3031 10.325Z" fill="white"/>
</svg>
