<svg width="18" height="20" viewBox="0 0 18 20" fill="none" xmlns="http://www.w3.org/2000/svg">
<path d="M17.05 1V16C17.05 16.1989 16.971 16.3897 16.8304 16.5303C16.6897 16.671 16.499 16.75 16.3 16.75H3.55005C3.15222 16.75 2.77069 16.908 2.48939 17.1893C2.20808 17.4706 2.05005 17.8522 2.05005 18.25H14.8C14.999 18.25 15.1897 18.329 15.3304 18.4697C15.471 18.6103 15.55 18.8011 15.55 19C15.55 19.1989 15.471 19.3897 15.3304 19.5303C15.1897 19.671 14.999 19.75 14.8 19.75H1.30005C1.10114 19.75 0.910371 19.671 0.769719 19.5303C0.629067 19.3897 0.550049 19.1989 0.550049 19V3.25C0.550049 2.45435 0.866119 1.69129 1.42873 1.12868C1.99134 0.56607 2.7544 0.25 3.55005 0.25H16.3C16.499 0.25 16.6897 0.329018 16.8304 0.46967C16.971 0.610322 17.05 0.801088 17.05 1Z" fill="#A1A1AA"/>
</svg>
