<svg width="15" height="16" viewBox="0 0 15 16" fill="none" xmlns="http://www.w3.org/2000/svg">
<path fill-rule="evenodd" clip-rule="evenodd" d="M7.5 0.5C11.228 0.5 14.25 3.52208 14.25 7.25C14.25 9.55535 12.9931 11.4419 11.6688 12.7959C10.9423 13.5387 10.1697 14.148 9.51128 14.6085L9.19229 14.8263C9.14096 14.8605 9.0906 14.8936 9.04132 14.9257L8.75918 15.1055L8.50716 15.2594L8.19532 15.4408C7.76093 15.6861 7.23907 15.6861 6.80468 15.4408L6.49284 15.2594L6.10324 15.0188C6.05619 14.9888 6.00797 14.9578 5.95868 14.9257L5.65087 14.7205C4.95933 14.2486 4.1183 13.6006 3.33121 12.7959C2.00692 11.4419 0.75 9.55535 0.75 7.25C0.75 3.52208 3.77208 0.5 7.5 0.5ZM7.5 2C4.60051 2 2.25 4.35051 2.25 7.25C2.25 8.9918 3.20401 10.5206 4.40356 11.747C4.95515 12.3109 5.54066 12.7921 6.06969 13.1797L6.41302 13.4242C6.52402 13.501 6.63123 13.573 6.73367 13.6402L7.02568 13.8271L7.28311 13.9841L7.5 14.1106L7.84091 13.9094L8.11638 13.7373C8.26251 13.6439 8.4205 13.5394 8.58699 13.4242L8.93032 13.1797C9.45936 12.7921 10.0449 12.3109 10.5964 11.747C11.796 10.5206 12.75 8.9918 12.75 7.25C12.75 4.35051 10.3995 2 7.5 2ZM7.5 4.25C9.15683 4.25 10.5 5.59315 10.5 7.25C10.5 8.90683 9.15683 10.25 7.5 10.25C5.84314 10.25 4.5 8.90683 4.5 7.25C4.5 5.59315 5.84314 4.25 7.5 4.25ZM7.5 5.75C6.67155 5.75 6 6.42157 6 7.25C6 8.07845 6.67155 8.75 7.5 8.75C8.32845 8.75 9 8.07845 9 7.25C9 6.42157 8.32845 5.75 7.5 5.75Z" fill="#7C7C7C"/>
</svg>
