<svg width="31" height="42" viewBox="0 0 31 42" fill="none" xmlns="http://www.w3.org/2000/svg">
<path d="M15.522 36.7977C19.8883 36.7977 23.4279 35.8005 23.4279 34.5704C23.4279 33.3402 19.8883 32.343 15.522 32.343C11.1557 32.343 7.61609 33.3402 7.61609 34.5704C7.61609 35.8005 11.1557 36.7977 15.522 36.7977Z" fill="#FFC89E"/>
<path fill-rule="evenodd" clip-rule="evenodd" d="M5.45862 15.5541C5.45862 9.90666 9.96412 5.32849 15.5219 5.32849C21.0798 5.32849 25.5853 9.90666 25.5853 15.5541C25.5853 17.4473 25.0511 19.3007 24.0461 20.8948L15.5219 34.4154L6.99778 20.8948C5.99279 19.3007 5.45863 17.4473 5.45862 15.5541Z" fill="#FF790F"/>
<path d="M16.3758 19.7853C18.6747 19.3058 20.1557 17.0235 19.6838 14.6875C19.212 12.3516 16.9658 10.8466 14.6669 11.3261C12.3681 11.8056 10.887 14.088 11.3589 16.424C11.8308 18.7599 14.0769 20.2649 16.3758 19.7853Z" fill="white"/>
</svg>
