<svg width="25" height="24" viewBox="0 0 25 24" fill="none" xmlns="http://www.w3.org/2000/svg">
<path d="M19.75 3H17.5V2.25C17.5 2.05109 17.421 1.86032 17.2803 1.71967C17.1397 1.57902 16.9489 1.5 16.75 1.5C16.5511 1.5 16.3603 1.57902 16.2197 1.71967C16.079 1.86032 16 2.05109 16 2.25V3H13V2.25C13 2.05109 12.921 1.86032 12.7803 1.71967C12.6397 1.57902 12.4489 1.5 12.25 1.5C12.0511 1.5 11.8603 1.57902 11.7197 1.71967C11.579 1.86032 11.5 2.05109 11.5 2.25V3H8.5V2.25C8.5 2.05109 8.42098 1.86032 8.28033 1.71967C8.13968 1.57902 7.94891 1.5 7.75 1.5C7.55109 1.5 7.36032 1.57902 7.21967 1.71967C7.07902 1.86032 7 2.05109 7 2.25V3H4.75C4.55109 3 4.36032 3.07902 4.21967 3.21967C4.07902 3.36032 4 3.55109 4 3.75V18.75C4 19.5456 4.31607 20.3087 4.87868 20.8713C5.44129 21.4339 6.20435 21.75 7 21.75H17.5C18.2956 21.75 19.0587 21.4339 19.6213 20.8713C20.1839 20.3087 20.5 19.5456 20.5 18.75V3.75C20.5 3.55109 20.421 3.36032 20.2803 3.21967C20.1397 3.07902 19.9489 3 19.75 3ZM11.5 5.25C11.5 5.05109 11.579 4.86032 11.7197 4.71967C11.8603 4.57902 12.0511 4.5 12.25 4.5C12.4489 4.5 12.6397 4.57902 12.7803 4.71967C12.921 4.86032 13 5.05109 13 5.25V6C13 6.19891 12.921 6.38968 12.7803 6.53033C12.6397 6.67098 12.4489 6.75 12.25 6.75C12.0511 6.75 11.8603 6.67098 11.7197 6.53033C11.579 6.38968 11.5 6.19891 11.5 6V5.25ZM7.75 6.75C7.55109 6.75 7.36032 6.67098 7.21967 6.53033C7.07902 6.38968 7 6.19891 7 6V5.25C7 5.05109 7.07902 4.86032 7.21967 4.71967C7.36032 4.57902 7.55109 4.5 7.75 4.5C7.94891 4.5 8.13968 4.57902 8.28033 4.71967C8.42098 4.86032 8.5 5.05109 8.5 5.25V6C8.5 6.19891 8.42098 6.38968 8.28033 6.53033C8.13968 6.67098 7.94891 6.75 7.75 6.75ZM15.25 15.75H9.25C9.05109 15.75 8.86032 15.671 8.71967 15.5303C8.57902 15.3897 8.5 15.1989 8.5 15C8.5 14.8011 8.57902 14.6103 8.71967 14.4697C8.86032 14.329 9.05109 14.25 9.25 14.25H15.25C15.4489 14.25 15.6397 14.329 15.7803 14.4697C15.921 14.6103 16 14.8011 16 15C16 15.1989 15.921 15.3897 15.7803 15.5303C15.6397 15.671 15.4489 15.75 15.25 15.75ZM15.25 12.75H9.25C9.05109 12.75 8.86032 12.671 8.71967 12.5303C8.57902 12.3897 8.5 12.1989 8.5 12C8.5 11.8011 8.57902 11.6103 8.71967 11.4697C8.86032 11.329 9.05109 11.25 9.25 11.25H15.25C15.4489 11.25 15.6397 11.329 15.7803 11.4697C15.921 11.6103 16 11.8011 16 12C16 12.1989 15.921 12.3897 15.7803 12.5303C15.6397 12.671 15.4489 12.75 15.25 12.75ZM17.5 6C17.5 6.19891 17.421 6.38968 17.2803 6.53033C17.1397 6.67098 16.9489 6.75 16.75 6.75C16.5511 6.75 16.3603 6.67098 16.2197 6.53033C16.079 6.38968 16 6.19891 16 6V5.25C16 5.05109 16.079 4.86032 16.2197 4.71967C16.3603 4.57902 16.5511 4.5 16.75 4.5C16.9489 4.5 17.1397 4.57902 17.2803 4.71967C17.421 4.86032 17.5 5.05109 17.5 5.25V6Z" fill="#A1A1AA"/>
</svg>
