<svg width="20" height="20" viewBox="0 0 20 20" fill="none" xmlns="http://www.w3.org/2000/svg">
<path d="M11.2711 3.58812C11.2923 3.5088 11.329 3.43444 11.3789 3.36929C11.4289 3.30413 11.4912 3.24946 11.5623 3.2084C11.6334 3.16733 11.7119 3.14068 11.7933 3.12996C11.8747 3.11925 11.9574 3.12467 12.0367 3.14594C13.1954 3.44824 14.2525 4.05394 15.0992 4.90065C15.9459 5.74736 16.5516 6.80448 16.8539 7.96312C16.8752 8.04243 16.8806 8.12515 16.8699 8.20655C16.8592 8.28796 16.8325 8.36645 16.7915 8.43755C16.7504 8.50865 16.6957 8.57097 16.6306 8.62093C16.5654 8.6709 16.491 8.70753 16.4117 8.72875C16.3589 8.74262 16.3046 8.7497 16.25 8.74984C16.1124 8.74988 15.9786 8.7045 15.8694 8.62073C15.7602 8.53696 15.6817 8.4195 15.6461 8.28656C15.3997 7.34057 14.9054 6.47743 14.2142 5.78613C13.5231 5.09482 12.66 4.60037 11.7141 4.35375C11.6347 4.33262 11.5602 4.29604 11.495 4.24611C11.4298 4.19618 11.375 4.13388 11.3339 4.06277C11.2927 3.99166 11.266 3.91314 11.2552 3.8317C11.2445 3.75025 11.2499 3.66748 11.2711 3.58812ZM11.0891 6.85375C12.1664 7.14125 12.8586 7.83422 13.1461 8.91156C13.1817 9.0445 13.2602 9.16196 13.3694 9.24573C13.4786 9.3295 13.6124 9.37488 13.75 9.37484C13.8046 9.3747 13.8589 9.36762 13.9117 9.35375C13.991 9.33253 14.0654 9.2959 14.1306 9.24593C14.1957 9.19597 14.2504 9.13365 14.2915 9.06255C14.3325 8.99145 14.3592 8.91296 14.3699 8.83155C14.3806 8.75015 14.3752 8.66743 14.3539 8.58812C13.9539 7.09125 12.9086 6.04594 11.4117 5.64594C11.2516 5.60315 11.081 5.62574 10.9374 5.70874C10.7939 5.79174 10.6893 5.92835 10.6465 6.08851C10.6037 6.24868 10.6263 6.41928 10.7093 6.56279C10.7923 6.7063 10.9289 6.81096 11.0891 6.85375ZM16.7477 13.0045L13.0672 11.3553L13.057 11.3506C12.866 11.2689 12.6575 11.2361 12.4506 11.2552C12.2437 11.2743 12.0448 11.3447 11.8719 11.46C11.8515 11.4734 11.832 11.488 11.8133 11.5037L9.91173 13.1248C8.70704 12.5397 7.46329 11.3053 6.87813 10.1162L8.50157 8.18578C8.51719 8.16625 8.53204 8.14672 8.5461 8.12562C8.65894 7.9532 8.72739 7.75556 8.74539 7.55029C8.76338 7.34502 8.73034 7.13848 8.64923 6.94906V6.93969L6.99532 3.25297C6.88809 3.00552 6.7037 2.79938 6.46968 2.66534C6.23567 2.5313 5.96458 2.47653 5.69688 2.50922C4.63826 2.64852 3.66655 3.16841 2.96324 3.97179C2.25992 4.77517 1.87309 5.8071 1.87501 6.87484C1.87501 13.078 6.92188 18.1248 13.125 18.1248C14.1927 18.1268 15.2247 17.7399 16.0281 17.0366C16.8314 16.3333 17.3513 15.3616 17.4906 14.303C17.5234 14.0354 17.4687 13.7643 17.3348 13.5303C17.2009 13.2963 16.995 13.1119 16.7477 13.0045Z" fill="white"/>
</svg>
