<svg width="20" height="20" viewBox="0 0 20 20" fill="none" xmlns="http://www.w3.org/2000/svg">
<path d="M14.3252 9.25C14.3252 10.0658 14.0833 10.8634 13.63 11.5417C13.1768 12.2201 12.5325 12.7488 11.7788 13.061C11.025 13.3732 10.1956 13.4549 9.39545 13.2957C8.59528 13.1366 7.86028 12.7437 7.28338 12.1668C6.70649 11.5899 6.31362 10.8549 6.15446 10.0547C5.9953 9.25458 6.07699 8.42518 6.3892 7.67143C6.70141 6.91769 7.23012 6.27345 7.90847 5.82019C8.58683 5.36693 9.38435 5.125 10.2002 5.125C11.2938 5.12624 12.3423 5.56124 13.1156 6.33455C13.889 7.10787 14.324 8.15636 14.3252 9.25ZM19.9502 10C19.9502 11.9284 19.3784 13.8134 18.307 15.4168C17.2357 17.0202 15.7129 18.2699 13.9314 19.0078C12.1498 19.7458 10.1894 19.9389 8.29807 19.5627C6.40675 19.1865 4.66947 18.2579 3.30591 16.8943C1.94235 15.5307 1.01375 13.7934 0.637543 11.9021C0.261337 10.0108 0.45442 8.05042 1.19237 6.26884C1.93033 4.48726 3.18001 2.96451 4.78339 1.89317C6.38677 0.821828 8.27183 0.25 10.2002 0.25C12.7852 0.25273 15.2636 1.28084 17.0915 3.10872C18.9194 4.93661 19.9475 7.41498 19.9502 10ZM18.4502 10C18.449 8.88956 18.2239 7.79077 17.7883 6.76934C17.3527 5.7479 16.7156 4.82481 15.915 4.05525C15.1145 3.2857 14.167 2.68549 13.1291 2.29053C12.0913 1.89556 10.9845 1.71395 9.87489 1.75656C5.45926 1.92719 1.93801 5.605 1.9502 10.0234C1.95443 12.0349 2.69628 13.9749 4.0352 15.4759C4.58047 14.6851 5.27311 14.0068 6.0752 13.4781C6.14358 13.433 6.22488 13.4114 6.30666 13.4169C6.38843 13.4223 6.46618 13.4543 6.52801 13.5081C7.54724 14.3897 8.84979 14.8749 10.1974 14.8749C11.545 14.8749 12.8475 14.3897 13.8668 13.5081C13.9286 13.4543 14.0063 13.4223 14.0881 13.4169C14.1699 13.4114 14.2512 13.433 14.3196 13.4781C15.1227 14.0065 15.8163 14.6848 16.3624 15.4759C17.7079 13.9694 18.4512 12.0199 18.4502 10Z" fill="#A1A1AA"/>
</svg>
