<svg width="20" height="20" viewBox="0 0 20 20" fill="none" xmlns="http://www.w3.org/2000/svg">
<path d="M17.3336 6.4967C18.2009 8.31061 18.3655 10.3815 17.7958 12.3096C17.226 14.2378 15.9622 15.8866 14.2482 16.9377C12.5343 17.9889 10.4918 18.3679 8.51483 18.0016C6.53789 17.6354 4.76669 16.5498 3.54307 14.9544C2.31946 13.359 1.73017 11.367 1.88894 9.36266C2.04771 7.35835 2.94328 5.4839 4.40282 4.10107C5.86235 2.71825 7.78237 1.92507 9.79233 1.87463C11.8023 1.82419 13.7597 2.52007 15.2867 3.82795L17.0578 2.05607C17.1751 1.9388 17.3342 1.87291 17.5 1.87291C17.6659 1.87291 17.8249 1.9388 17.9422 2.05607C18.0595 2.17335 18.1254 2.33241 18.1254 2.49826C18.1254 2.66411 18.0595 2.82317 17.9422 2.94045L13.0938 7.78967L10.1477 10.7358L8.27657 12.6069C8.76031 12.9268 9.32353 13.1058 9.90322 13.1239C10.4829 13.1419 11.0562 12.9983 11.5589 12.7091C12.0616 12.4199 12.4739 11.9965 12.7497 11.4863C13.0254 10.976 13.1538 10.3991 13.1203 9.82014C13.111 9.65437 13.1679 9.4917 13.2785 9.3679C13.3891 9.24409 13.5444 9.1693 13.7102 9.15998C13.8759 9.15066 14.0386 9.20756 14.1624 9.31818C14.2862 9.4288 14.361 9.58406 14.3703 9.74982C14.4207 10.6348 14.2011 11.5143 13.7406 12.2717C13.28 13.0291 12.6003 13.6287 11.7913 13.9912C10.9824 14.3536 10.0824 14.4618 9.2106 14.3014C8.3388 14.1409 7.53631 13.7195 6.90938 13.0928C6.12968 12.3102 5.67492 11.2615 5.63641 10.1575C5.5979 9.05342 5.9785 7.97566 6.70178 7.14062C7.42507 6.30557 8.43748 5.77507 9.53574 5.65563C10.634 5.53619 11.7368 5.83666 12.6227 6.4967L14.3984 4.71779C13.0959 3.63638 11.4398 3.07432 9.74818 3.13957C8.05652 3.20481 6.44862 3.89276 5.23328 5.07128C4.01794 6.2498 3.28087 7.83579 3.16364 9.52464C3.0464 11.2135 3.55726 12.8861 4.5981 14.2212C5.63894 15.5564 7.13637 16.4599 8.80279 16.7583C10.4692 17.0566 12.1871 16.7288 13.6265 15.8377C15.0659 14.9466 16.1254 13.5552 16.6014 11.9306C17.0774 10.3059 16.9364 8.56274 16.2055 7.03576C16.134 6.88616 16.1249 6.71429 16.1801 6.55796C16.2353 6.40163 16.3504 6.27365 16.5 6.20217C16.6496 6.13068 16.8215 6.12155 16.9778 6.17679C17.1341 6.23202 17.2621 6.3471 17.3336 6.4967Z" fill="#FF790F"/>
</svg>
