<svg width="18" height="20" viewBox="0 0 18 20" fill="none" xmlns="http://www.w3.org/2000/svg">
<path fill-rule="evenodd" clip-rule="evenodd" d="M12.6667 11.8334C15.1313 11.8334 17.1417 13.7788 17.2458 16.2179L17.25 16.4167V18.25C17.25 18.7563 16.8396 19.1667 16.3333 19.1667C15.8632 19.1667 15.4758 18.8128 15.4228 18.3569L15.4167 18.25V16.4167C15.4167 14.9521 14.2719 13.755 12.8283 13.6714L12.6667 13.6667H5.33333C3.8688 13.6667 2.67164 14.8115 2.588 16.2551L2.58333 16.4167V18.25C2.58333 18.7563 2.17292 19.1667 1.66667 19.1667C1.19657 19.1667 0.809119 18.8128 0.756167 18.3569L0.75 18.25V16.4167C0.75 13.952 2.69545 11.9417 5.13452 11.8376L5.33333 11.8334H12.6667ZM9 0.833374C11.5313 0.833374 13.5833 2.88541 13.5833 5.41671C13.5833 7.94801 11.5313 10 9 10C6.4687 10 4.41667 7.94801 4.41667 5.41671C4.41667 2.88541 6.4687 0.833374 9 0.833374ZM9 2.66671C7.48117 2.66671 6.25 3.89793 6.25 5.41671C6.25 6.93549 7.48117 8.16671 9 8.16671C10.5188 8.16671 11.75 6.93549 11.75 5.41671C11.75 3.89793 10.5188 2.66671 9 2.66671Z" fill="#656565"/>
</svg>
