<svg width="21" height="21" viewBox="0 0 21 21" fill="none" xmlns="http://www.w3.org/2000/svg">
<path fill-rule="evenodd" clip-rule="evenodd" d="M7.17156 13.8285C11.0174 17.6743 14.5802 18.0954 15.6259 18.1339C16.8904 18.1804 18.1802 17.1483 18.7376 16.0906C17.848 15.0465 16.6892 14.2367 15.4195 13.3587C14.6712 14.107 13.7484 15.4973 12.5186 14.9999C11.8203 14.7175 10.0941 13.9226 8.58578 12.4143C7.0774 10.9059 6.28254 9.17969 6.00014 8.48149C5.50232 7.25061 6.89574 6.32612 7.6446 5.57726C6.76705 4.28657 5.97059 3.09818 4.92868 2.2532C3.85726 2.81369 2.81907 4.0937 2.86618 5.37412C2.90466 6.41978 3.32576 9.98269 7.17156 13.8285ZM15.5523 20.1325C14.1114 20.0795 10.0307 19.5161 5.75735 15.2427C1.48396 10.9693 0.920562 6.88862 0.867542 5.44767C0.786742 3.25221 2.46854 1.11902 4.41215 0.28605C4.86821 0.09059 5.4206 0.12636 5.85728 0.44489C7.46491 1.61756 8.57406 3.39531 9.52661 4.78731C9.93241 5.38037 9.86541 6.1849 9.35021 6.70012L7.99378 8.05649C8.30859 8.75179 8.95086 9.95089 10 11C11.0491 12.0492 12.2482 12.6914 12.9435 13.0063L14.2992 11.6505C14.8149 11.1349 15.6229 11.0669 16.2173 11.4787C17.6373 12.4625 19.305 13.556 20.521 15.1133C20.8625 15.5507 20.9133 16.1227 20.7096 16.5981C19.8728 18.5507 17.7552 20.2136 15.5523 20.1325Z" fill="#000105"/>
</svg>
