<svg width="18" height="20" viewBox="0 0 18 20" fill="none" xmlns="http://www.w3.org/2000/svg">
<path d="M16.5 0.75H1.5C1.10218 0.75 0.720644 0.908035 0.43934 1.18934C0.158035 1.47064 0 1.85218 0 2.25V7.5C0 12.4425 2.3925 15.4378 4.39969 17.0803C6.56156 18.8484 8.71219 19.4494 8.80594 19.4738C8.93484 19.5088 9.07078 19.5088 9.19969 19.4738C9.29344 19.4494 11.4413 18.8484 13.6059 17.0803C15.6075 15.4378 18 12.4425 18 7.5V2.25C18 1.85218 17.842 1.47064 17.5607 1.18934C17.2794 0.908035 16.8978 0.75 16.5 0.75ZM9 17.9644C7.67363 17.5012 6.4387 16.8092 5.35125 15.9197C3.17156 14.1366 1.90969 11.8125 1.58438 9H9V2.25H16.5V7.5C16.5003 8.00119 16.4721 8.502 16.4156 9H9V17.9644Z" fill="#00B2CB"/>
</svg>
