<svg width="21" height="21" viewBox="0 0 21 21" fill="none" xmlns="http://www.w3.org/2000/svg">
<path fill-rule="evenodd" clip-rule="evenodd" d="M17.5 0.166748C19.295 0.166748 20.75 1.62183 20.75 3.41675V17.5001C20.75 19.2951 19.295 20.7501 17.5 20.7501H14.25V14.2501C14.25 12.4551 12.795 11.0001 11 11.0001H9.91666C8.12174 11.0001 6.66666 12.4551 6.66666 14.2501V20.7501H3.41666C1.62174 20.7501 0.166656 19.2951 0.166656 17.5001V3.41675C0.166656 1.62183 1.62174 0.166748 3.41666 0.166748H17.5ZM11 13.1667C11.5556 13.1667 12.0135 13.5849 12.076 14.1237L12.0833 14.2501V20.7501H8.83332V14.2501C8.83332 13.6945 9.25152 13.2366 9.79031 13.174L9.91666 13.1667H11ZM17.5 2.33341H3.41666C2.86109 2.33341 2.40319 2.75163 2.34061 3.29041L2.33332 3.41675V4.50008C2.33332 5.6967 3.30337 6.66675 4.49999 6.66675C5.51292 6.66675 6.36517 5.97071 6.60144 5.0308L6.63665 4.8625C6.72006 4.36538 7.12967 4.00452 7.60949 3.96237L7.74999 3.95841C8.30556 3.95841 8.76346 4.37663 8.82603 4.91541L8.83332 5.04175C8.83332 5.93921 9.56089 6.66675 10.4583 6.66675C11.303 6.66675 11.9971 6.02229 12.0759 5.19825L12.0833 5.04175C12.0833 4.48618 12.5015 4.02828 13.0403 3.9657L13.1858 3.95858C13.6756 3.94634 14.1165 4.26802 14.2525 4.74116L14.28 4.8625C14.4518 5.88641 15.3442 6.66675 16.4167 6.66675C17.5589 6.66675 18.4947 5.78288 18.5774 4.66178L18.5833 4.50008V3.41675C18.5833 2.86118 18.1651 2.40328 17.6263 2.3407L17.5 2.33341Z" fill="white"/>
</svg>
