<svg width="22" height="22" viewBox="0 0 22 22" fill="none" xmlns="http://www.w3.org/2000/svg">
<path d="M20.75 20H18.5V2H19.25C19.4489 2 19.6397 1.92098 19.7803 1.78033C19.921 1.63968 20 1.44891 20 1.25C20 1.05109 19.921 0.860322 19.7803 0.71967C19.6397 0.579018 19.4489 0.5 19.25 0.5H2.75C2.55109 0.5 2.36032 0.579018 2.21967 0.71967C2.07902 0.860322 2 1.05109 2 1.25C2 1.44891 2.07902 1.63968 2.21967 1.78033C2.36032 1.92098 2.55109 2 2.75 2H3.5V20H1.25C1.05109 20 0.860322 20.079 0.71967 20.2197C0.579018 20.3603 0.5 20.5511 0.5 20.75C0.5 20.9489 0.579018 21.1397 0.71967 21.2803C0.860322 21.421 1.05109 21.5 1.25 21.5H20.75C20.9489 21.5 21.1397 21.421 21.2803 21.2803C21.421 21.1397 21.5 20.9489 21.5 20.75C21.5 20.5511 21.421 20.3603 21.2803 20.2197C21.1397 20.079 20.9489 20 20.75 20ZM7.25 4.25H9.5C9.69891 4.25 9.88968 4.32902 10.0303 4.46967C10.171 4.61032 10.25 4.80109 10.25 5C10.25 5.19891 10.171 5.38968 10.0303 5.53033C9.88968 5.67098 9.69891 5.75 9.5 5.75H7.25C7.05109 5.75 6.86032 5.67098 6.71967 5.53033C6.57902 5.38968 6.5 5.19891 6.5 5C6.5 4.80109 6.57902 4.61032 6.71967 4.46967C6.86032 4.32902 7.05109 4.25 7.25 4.25ZM7.25 8H9.5C9.69891 8 9.88968 8.07902 10.0303 8.21967C10.171 8.36032 10.25 8.55109 10.25 8.75C10.25 8.94891 10.171 9.13968 10.0303 9.28033C9.88968 9.42098 9.69891 9.5 9.5 9.5H7.25C7.05109 9.5 6.86032 9.42098 6.71967 9.28033C6.57902 9.13968 6.5 8.94891 6.5 8.75C6.5 8.55109 6.57902 8.36032 6.71967 8.21967C6.86032 8.07902 7.05109 8 7.25 8ZM6.5 12.5C6.5 12.3011 6.57902 12.1103 6.71967 11.9697C6.86032 11.829 7.05109 11.75 7.25 11.75H9.5C9.69891 11.75 9.88968 11.829 10.0303 11.9697C10.171 12.1103 10.25 12.3011 10.25 12.5C10.25 12.6989 10.171 12.8897 10.0303 13.0303C9.88968 13.171 9.69891 13.25 9.5 13.25H7.25C7.05109 13.25 6.86032 13.171 6.71967 13.0303C6.57902 12.8897 6.5 12.6989 6.5 12.5ZM13.25 20H8.75V16.25H13.25V20ZM14.75 13.25H12.5C12.3011 13.25 12.1103 13.171 11.9697 13.0303C11.829 12.8897 11.75 12.6989 11.75 12.5C11.75 12.3011 11.829 12.1103 11.9697 11.9697C12.1103 11.829 12.3011 11.75 12.5 11.75H14.75C14.9489 11.75 15.1397 11.829 15.2803 11.9697C15.421 12.1103 15.5 12.3011 15.5 12.5C15.5 12.6989 15.421 12.8897 15.2803 13.0303C15.1397 13.171 14.9489 13.25 14.75 13.25ZM14.75 9.5H12.5C12.3011 9.5 12.1103 9.42098 11.9697 9.28033C11.829 9.13968 11.75 8.94891 11.75 8.75C11.75 8.55109 11.829 8.36032 11.9697 8.21967C12.1103 8.07902 12.3011 8 12.5 8H14.75C14.9489 8 15.1397 8.07902 15.2803 8.21967C15.421 8.36032 15.5 8.55109 15.5 8.75C15.5 8.94891 15.421 9.13968 15.2803 9.28033C15.1397 9.42098 14.9489 9.5 14.75 9.5ZM14.75 5.75H12.5C12.3011 5.75 12.1103 5.67098 11.9697 5.53033C11.829 5.38968 11.75 5.19891 11.75 5C11.75 4.80109 11.829 4.61032 11.9697 4.46967C12.1103 4.32902 12.3011 4.25 12.5 4.25H14.75C14.9489 4.25 15.1397 4.32902 15.2803 4.46967C15.421 4.61032 15.5 4.80109 15.5 5C15.5 5.19891 15.421 5.38968 15.2803 5.53033C15.1397 5.67098 14.9489 5.75 14.75 5.75Z" fill="#A1A1AA"/>
</svg>
