<svg width="18" height="18" viewBox="0 0 18 18" fill="none" xmlns="http://www.w3.org/2000/svg">
<path d="M16.4735 8.07544L13.3095 10.8057L14.2735 14.8887C14.3266 15.1104 14.3129 15.3428 14.2341 15.5567C14.1552 15.7706 14.0148 15.9563 13.8304 16.0903C13.6461 16.2244 13.4262 16.3008 13.1984 16.31C12.9706 16.3191 12.7453 16.2606 12.5508 16.1417L9.00002 13.9564L5.44713 16.1417C5.25266 16.2599 5.02757 16.3179 4.80021 16.3084C4.57284 16.2989 4.35336 16.2224 4.16941 16.0884C3.98546 15.9545 3.84525 15.7691 3.76645 15.5556C3.68765 15.3421 3.67378 15.1101 3.72658 14.8887L4.69408 10.8057L1.53002 8.07544C1.35796 7.92674 1.23353 7.73064 1.17225 7.51164C1.11098 7.29264 1.11559 7.06044 1.1855 6.84404C1.2554 6.62764 1.38752 6.43663 1.56533 6.29487C1.74315 6.1531 1.95879 6.06687 2.18533 6.04693L6.33377 5.71224L7.93408 1.83943C8.0207 1.62836 8.16813 1.44782 8.35762 1.32076C8.54711 1.1937 8.77011 1.12585 8.99826 1.12585C9.22641 1.12585 9.4494 1.1937 9.6389 1.32076C9.82839 1.44782 9.97582 1.62836 10.0624 1.83943L11.662 5.71224L15.8105 6.04693C16.0375 6.06612 16.2537 6.15188 16.4322 6.29345C16.6107 6.43502 16.7434 6.6261 16.8137 6.84276C16.8841 7.05943 16.8889 7.29203 16.8277 7.51143C16.7664 7.73083 16.6417 7.92728 16.4693 8.07615L16.4735 8.07544Z" fill="#FFD622"/>
</svg>
