<svg width="20" height="18" viewBox="0 0 20 18" fill="none" xmlns="http://www.w3.org/2000/svg">
<path d="M19.75 10V15.25C19.75 15.8467 19.5129 16.419 19.091 16.841C18.669 17.2629 18.0967 17.5 17.5 17.5H16C15.4033 17.5 14.831 17.2629 14.409 16.841C13.9871 16.419 13.75 15.8467 13.75 15.25V11.5C13.75 10.9033 13.9871 10.331 14.409 9.90901C14.831 9.48705 15.4033 9.25 16 9.25H18.2172C18.037 7.20821 17.1008 5.30732 15.592 3.91993C14.0832 2.53253 12.1106 1.75865 10.0609 1.75H10C7.94173 1.74989 5.95776 2.51918 4.43759 3.90683C2.91742 5.29448 1.97087 7.20025 1.78375 9.25H4C4.59674 9.25 5.16903 9.48705 5.59099 9.90901C6.01295 10.331 6.25 10.9033 6.25 11.5V15.25C6.25 15.8467 6.01295 16.419 5.59099 16.841C5.16903 17.2629 4.59674 17.5 4 17.5H2.5C1.90326 17.5 1.33097 17.2629 0.90901 16.841C0.487053 16.419 0.25 15.8467 0.25 15.25V10C0.252103 8.06865 0.827147 6.18134 1.90235 4.57696C2.97755 2.97258 4.50456 1.72325 6.29012 0.987104C8.07567 0.250962 10.0395 0.0611018 11.933 0.441556C13.8265 0.822011 15.5646 1.75567 16.9272 3.12437C17.8268 4.02841 18.5393 5.10108 19.0237 6.28092C19.5081 7.46077 19.7549 8.7246 19.75 10Z" fill="#B29516"/>
</svg>
