<svg width="20" height="18" viewBox="0 0 20 18" fill="none" xmlns="http://www.w3.org/2000/svg">
<path d="M19.95 16.5C19.95 16.6989 19.871 16.8897 19.7303 17.0303C19.5897 17.171 19.3989 17.25 19.2 17.25H1.20001C1.0011 17.25 0.810334 17.171 0.669682 17.0303C0.52903 16.8897 0.450012 16.6989 0.450012 16.5C0.450012 16.3011 0.52903 16.1103 0.669682 15.9697C0.810334 15.829 1.0011 15.75 1.20001 15.75H1.95001V9.75C1.95001 9.55109 2.02903 9.36032 2.16968 9.21967C2.31033 9.07902 2.5011 9 2.70001 9H4.95001C5.14892 9 5.33969 9.07902 5.48034 9.21967C5.62099 9.36032 5.70001 9.55109 5.70001 9.75V15.75H7.20001V5.25C7.20001 5.05109 7.27903 4.86032 7.41968 4.71967C7.56033 4.57902 7.7511 4.5 7.95001 4.5H10.95C11.1489 4.5 11.3397 4.57902 11.4803 4.71967C11.621 4.86032 11.7 5.05109 11.7 5.25V15.75H13.2V0.75C13.2 0.551088 13.279 0.360322 13.4197 0.21967C13.5603 0.0790178 13.7511 0 13.95 0H17.7C17.8989 0 18.0897 0.0790178 18.2303 0.21967C18.371 0.360322 18.45 0.551088 18.45 0.75V15.75H19.2C19.3989 15.75 19.5897 15.829 19.7303 15.9697C19.871 16.1103 19.95 16.3011 19.95 16.5Z" fill="#A1A1AA"/>
</svg>
