<svg width="4" height="16" viewBox="0 0 4 16" fill="none" xmlns="http://www.w3.org/2000/svg">
<path d="M2 12.5C2.8284 12.5 3.5 13.1716 3.5 14C3.5 14.8284 2.8284 15.5 2 15.5C1.1716 15.5 0.5 14.8284 0.5 14C0.5 13.1716 1.1716 12.5 2 12.5ZM2 6.5C2.8284 6.5 3.5 7.1716 3.5 8C3.5 8.8284 2.8284 9.5 2 9.5C1.1716 9.5 0.5 8.8284 0.5 8C0.5 7.1716 1.1716 6.5 2 6.5ZM2 0.5C2.8284 0.5 3.5 1.17157 3.5 2C3.5 2.82843 2.8284 3.5 2 3.5C1.1716 3.5 0.5 2.82843 0.5 2C0.5 1.17157 1.1716 0.5 2 0.5Z" fill="#BDBDBD"/>
</svg>
