<svg width="19" height="19" viewBox="0 0 19 19" fill="none" xmlns="http://www.w3.org/2000/svg">
<path d="M17.5 12.0001C18.0523 12.0001 18.5 12.4478 18.5 13.0001V17.0001C18.5 18.1047 17.6046 19.0001 16.5 19.0001H2.5C1.39543 19.0001 0.5 18.1047 0.5 17.0001V13.0001C0.5 12.4478 0.94772 12.0001 1.5 12.0001C2.05228 12.0001 2.5 12.4478 2.5 13.0001V17.0001H16.5V13.0001C16.5 12.4478 16.9477 12.0001 17.5 12.0001ZM10.3839 0.474511L14.4497 4.54038C14.8403 4.9309 14.8403 5.56407 14.4497 5.95459C14.0592 6.34511 13.4261 6.34511 13.0355 5.95459L10.5 3.41906V13.0001C10.5 13.5524 10.0523 14.0001 9.5 14.0001C8.9477 14.0001 8.5 13.5524 8.5 13.0001V3.41906L5.96447 5.95459C5.57394 6.34511 4.94078 6.34511 4.55025 5.95459C4.15973 5.56407 4.15973 4.9309 4.55025 4.54038L8.6161 0.474511C9.1043 -0.0136391 9.8957 -0.0136391 10.3839 0.474511Z" fill="#989898"/>
</svg>
