<svg width="25" height="24" viewBox="0 0 25 24" fill="none" xmlns="http://www.w3.org/2000/svg">
<path d="M20.5 6H5.5C5.30109 6 5.11032 5.92098 4.96967 5.78033C4.82902 5.63968 4.75 5.44891 4.75 5.25C4.75 5.05109 4.82902 4.86032 4.96967 4.71967C5.11032 4.57902 5.30109 4.5 5.5 4.5H18.25C18.4489 4.5 18.6397 4.42098 18.7803 4.28033C18.921 4.13968 19 3.94891 19 3.75C19 3.55109 18.921 3.36032 18.7803 3.21967C18.6397 3.07902 18.4489 3 18.25 3H5.5C4.90326 3 4.33097 3.23705 3.90901 3.65901C3.48705 4.08097 3.25 4.65326 3.25 5.25V17.25C3.25 17.8467 3.48705 18.419 3.90901 18.841C4.33097 19.2629 4.90326 19.5 5.5 19.5H20.5C20.8978 19.5 21.2794 19.342 21.5607 19.0607C21.842 18.7794 22 18.3978 22 18V7.5C22 7.10218 21.842 6.72064 21.5607 6.43934C21.2794 6.15804 20.8978 6 20.5 6ZM17.125 13.5C16.9025 13.5 16.685 13.434 16.5 13.3104C16.315 13.1868 16.1708 13.0111 16.0856 12.8055C16.0005 12.6 15.9782 12.3738 16.0216 12.1555C16.065 11.9373 16.1722 11.7368 16.3295 11.5795C16.4868 11.4222 16.6873 11.315 16.9055 11.2716C17.1238 11.2282 17.35 11.2505 17.5555 11.3356C17.7611 11.4208 17.9368 11.565 18.0604 11.75C18.184 11.935 18.25 12.1525 18.25 12.375C18.25 12.6734 18.1315 12.9595 17.9205 13.1705C17.7095 13.3815 17.4234 13.5 17.125 13.5Z" fill="#A1A1AA"/>
</svg>
