<svg width="21" height="18" viewBox="0 0 21 18" fill="none" xmlns="http://www.w3.org/2000/svg">
<path d="M19.3999 15.75H18.6499V0.75C18.6499 0.551088 18.5709 0.360322 18.4302 0.21967C18.2896 0.0790178 18.0988 0 17.8999 0H12.6499C12.451 0 12.2602 0.0790178 12.1196 0.21967C11.9789 0.360322 11.8999 0.551088 11.8999 0.75V4.5H7.3999C7.20099 4.5 7.01022 4.57902 6.86957 4.71967C6.72892 4.86032 6.6499 5.05109 6.6499 5.25V9H2.8999C2.70099 9 2.51022 9.07902 2.36957 9.21967C2.22892 9.36032 2.1499 9.55109 2.1499 9.75V15.75H1.3999C1.20099 15.75 1.01022 15.829 0.869572 15.9697C0.72892 16.1103 0.649902 16.3011 0.649902 16.5C0.649902 16.6989 0.72892 16.8897 0.869572 17.0303C1.01022 17.171 1.20099 17.25 1.3999 17.25H19.3999C19.5988 17.25 19.7896 17.171 19.9302 17.0303C20.0709 16.8897 20.1499 16.6989 20.1499 16.5C20.1499 16.3011 20.0709 16.1103 19.9302 15.9697C19.7896 15.829 19.5988 15.75 19.3999 15.75ZM13.3999 1.5H17.1499V15.75H13.3999V1.5ZM8.1499 6H11.8999V15.75H8.1499V6ZM3.6499 10.5H6.6499V15.75H3.6499V10.5Z" fill="#71717A"/>
</svg>
