<svg width="19" height="18" viewBox="0 0 19 18" fill="none" xmlns="http://www.w3.org/2000/svg">
<path d="M15.9775 4.65115L9.79 1.26561C9.62468 1.17426 9.43888 1.12634 9.25 1.12634C9.06112 1.12634 8.87532 1.17426 8.71 1.26561L2.5225 4.65256C2.3458 4.74924 2.19829 4.89159 2.09539 5.06475C1.99248 5.2379 1.93796 5.43551 1.9375 5.63693V12.3616C1.93796 12.563 1.99248 12.7607 2.09539 12.9338C2.19829 13.107 2.3458 13.2493 2.5225 13.346L8.71 16.7329C8.87532 16.8243 9.06112 16.8722 9.25 16.8722C9.43888 16.8722 9.62468 16.8243 9.79 16.7329L15.9775 13.346C16.1542 13.2493 16.3017 13.107 16.4046 12.9338C16.5075 12.7607 16.562 12.563 16.5625 12.3616V5.63764C16.5624 5.43586 16.5081 5.23781 16.4051 5.06425C16.3022 4.89069 16.1545 4.74801 15.9775 4.65115ZM9.25 2.24998L14.8989 5.34373L12.8057 6.48983L7.15609 3.39608L9.25 2.24998ZM9.25 8.43748L3.60109 5.34373L5.98469 4.03873L11.6336 7.13248L9.25 8.43748ZM3.0625 6.32811L8.6875 9.40639V15.4385L3.0625 12.3623V6.32811ZM15.4375 12.3595L9.8125 15.4385V9.4092L12.0625 8.17803V10.6875C12.0625 10.8367 12.1218 10.9797 12.2273 11.0852C12.3327 11.1907 12.4758 11.25 12.625 11.25C12.7742 11.25 12.9173 11.1907 13.0227 11.0852C13.1282 10.9797 13.1875 10.8367 13.1875 10.6875V7.56209L15.4375 6.32811V12.3588V12.3595Z" fill="white"/>
</svg>
