<svg width="19" height="18" viewBox="0 0 19 18" fill="none" xmlns="http://www.w3.org/2000/svg">
<path d="M11.7813 5.625C12.1706 5.625 12.5513 5.50954 12.875 5.29321C13.1988 5.07688 13.4511 4.7694 13.6001 4.40966C13.7491 4.04992 13.7881 3.65407 13.7122 3.27217C13.6362 2.89027 13.4487 2.53947 13.1734 2.26413C12.898 1.9888 12.5472 1.80129 12.1653 1.72533C11.7834 1.64937 11.3876 1.68835 11.0278 1.83736C10.6681 1.98637 10.3606 2.23871 10.1443 2.56247C9.92797 2.88623 9.8125 3.26687 9.8125 3.65625C9.8125 4.1784 10.0199 4.67915 10.3891 5.04837C10.7583 5.41758 11.2591 5.625 11.7813 5.625ZM11.7813 2.8125C11.9481 2.8125 12.1113 2.86199 12.25 2.9547C12.3888 3.04741 12.4969 3.17919 12.5608 3.33336C12.6246 3.48754 12.6413 3.65719 12.6088 3.82086C12.5762 3.98453 12.4959 4.13487 12.3779 4.25287C12.2599 4.37087 12.1095 4.45123 11.9459 4.48379C11.7822 4.51634 11.6125 4.49964 11.4584 4.43577C11.3042 4.37191 11.1724 4.26377 11.0797 4.12501C10.987 3.98626 10.9375 3.82313 10.9375 3.65625C10.9375 3.43247 11.0264 3.21786 11.1846 3.05963C11.3429 2.9014 11.5575 2.8125 11.7813 2.8125ZM14.3125 9.5625C13.7562 9.5625 13.2125 9.72745 12.75 10.0365C12.2874 10.3455 11.927 10.7848 11.7141 11.2987C11.5012 11.8126 11.4455 12.3781 11.554 12.9237C11.6626 13.4693 11.9304 13.9704 12.3238 14.3637C12.7171 14.7571 13.2182 15.0249 13.7638 15.1335C14.3094 15.242 14.8749 15.1863 15.3888 14.9734C15.9027 14.7605 16.342 14.4001 16.651 13.9375C16.9601 13.475 17.125 12.9313 17.125 12.375C17.125 11.6291 16.8287 10.9137 16.3012 10.3863C15.7738 9.85882 15.0584 9.5625 14.3125 9.5625ZM14.3125 14.0625C13.9787 14.0625 13.6525 13.9635 13.375 13.7781C13.0975 13.5927 12.8812 13.3291 12.7535 13.0208C12.6257 12.7124 12.5923 12.3731 12.6574 12.0458C12.7225 11.7184 12.8833 11.4178 13.1193 11.1818C13.3553 10.9458 13.6559 10.785 13.9833 10.7199C14.3106 10.6548 14.6499 10.6882 14.9583 10.816C15.2666 10.9437 15.5302 11.16 15.7156 11.4375C15.901 11.715 16 12.0412 16 12.375C16 12.8226 15.8222 13.2518 15.5057 13.5682C15.1893 13.8847 14.7601 14.0625 14.3125 14.0625ZM4.1875 9.5625C3.63124 9.5625 3.08747 9.72745 2.62496 10.0365C2.16245 10.3455 1.80196 10.7848 1.58909 11.2987C1.37622 11.8126 1.32052 12.3781 1.42904 12.9237C1.53756 13.4693 1.80543 13.9704 2.19876 14.3637C2.5921 14.7571 3.09324 15.0249 3.63881 15.1335C4.18438 15.242 4.74988 15.1863 5.2638 14.9734C5.77772 14.7605 6.21697 14.4001 6.52601 13.9375C6.83505 13.475 7 12.9313 7 12.375C7 12.0057 6.92725 11.6399 6.78591 11.2987C6.64457 10.9575 6.4374 10.6474 6.17624 10.3863C5.91507 10.1251 5.60503 9.91793 5.2638 9.77659C4.92257 9.63525 4.55684 9.5625 4.1875 9.5625ZM4.1875 14.0625C3.85375 14.0625 3.52748 13.9635 3.24998 13.7781C2.97247 13.5927 2.75618 13.3291 2.62845 13.0208C2.50073 12.7124 2.46731 12.3731 2.53243 12.0458C2.59754 11.7184 2.75826 11.4178 2.99426 11.1818C3.23026 10.9458 3.53094 10.785 3.85829 10.7199C4.18563 10.6548 4.52493 10.6882 4.83328 10.816C5.14163 10.9437 5.40518 11.16 5.59061 11.4375C5.77603 11.715 5.875 12.0412 5.875 12.375C5.875 12.8226 5.69721 13.2518 5.38074 13.5682C5.06428 13.8847 4.63505 14.0625 4.1875 14.0625ZM13.75 8.4375H10.9375C10.8636 8.43756 10.7904 8.42306 10.7221 8.39483C10.6539 8.3666 10.5918 8.32519 10.5395 8.27297L8.6875 6.42024L7.23274 7.875L9.64797 10.2895C9.70019 10.3418 9.7416 10.4039 9.76983 10.4721C9.79806 10.5404 9.81256 10.6136 9.8125 10.6875V14.0625C9.8125 14.2117 9.75324 14.3548 9.64775 14.4602C9.54226 14.5657 9.39919 14.625 9.25 14.625C9.10082 14.625 8.95774 14.5657 8.85225 14.4602C8.74676 14.3548 8.6875 14.2117 8.6875 14.0625V10.9202L6.03953 8.27297C5.98723 8.22073 5.94574 8.15869 5.91744 8.0904C5.88913 8.02212 5.87456 7.94892 5.87456 7.875C5.87456 7.80108 5.88913 7.72788 5.91744 7.6596C5.94574 7.59131 5.98723 7.52927 6.03953 7.47703L8.28953 5.22703C8.34177 5.17473 8.40381 5.13324 8.4721 5.10494C8.54038 5.07663 8.61358 5.06206 8.6875 5.06206C8.76142 5.06206 8.83462 5.07663 8.9029 5.10494C8.97119 5.13324 9.03323 5.17473 9.08547 5.22703L11.1702 7.3125H13.75C13.8992 7.3125 14.0423 7.37176 14.1477 7.47725C14.2532 7.58274 14.3125 7.72582 14.3125 7.875C14.3125 8.02419 14.2532 8.16726 14.1477 8.27275C14.0423 8.37824 13.8992 8.4375 13.75 8.4375Z" fill="white"/>
</svg>
