<svg width="19" height="18" viewBox="0 0 19 18" fill="none" xmlns="http://www.w3.org/2000/svg">
<path d="M5.81251 6.18747V2.81247C5.81251 2.66329 5.87177 2.52021 5.97726 2.41472C6.08275 2.30923 6.22582 2.24997 6.37501 2.24997C6.52419 2.24997 6.66726 2.30923 6.77275 2.41472C6.87824 2.52021 6.93751 2.66329 6.93751 2.81247V6.18747C6.93751 6.33666 6.87824 6.47973 6.77275 6.58522C6.66726 6.69071 6.52419 6.74997 6.37501 6.74997C6.22582 6.74997 6.08275 6.69071 5.97726 6.58522C5.87177 6.47973 5.81251 6.33666 5.81251 6.18747ZM15.9375 2.81247V15.75C15.9375 15.8992 15.8782 16.0422 15.7728 16.1477C15.6673 16.2532 15.5242 16.3125 15.375 16.3125C15.2258 16.3125 15.0827 16.2532 14.9773 16.1477C14.8718 16.0422 14.8125 15.8992 14.8125 15.75V12.375H11.4375C11.2883 12.375 11.1452 12.3157 11.0398 12.2102C10.9343 12.1047 10.875 11.9617 10.875 11.8125C10.9011 10.4651 11.0713 9.1243 11.3827 7.8131C12.0703 4.96614 13.3739 3.05786 15.1535 2.29567C15.2391 2.25903 15.3323 2.24419 15.425 2.25246C15.5177 2.26074 15.6069 2.29188 15.6846 2.34309C15.7623 2.39431 15.8261 2.46399 15.8702 2.54591C15.9143 2.62783 15.9375 2.71942 15.9375 2.81247ZM14.8125 3.78981C12.5506 5.51739 12.1076 9.7256 12.0211 11.25H14.8125V3.78981ZM9.17977 2.72036C9.16875 2.6465 9.14314 2.57557 9.10442 2.51172C9.06571 2.44786 9.01466 2.39235 8.95427 2.34843C8.89388 2.30451 8.82534 2.27305 8.75266 2.25589C8.67998 2.23873 8.60461 2.23622 8.53095 2.2485C8.45729 2.26078 8.38681 2.2876 8.32362 2.3274C8.26044 2.3672 8.20581 2.41918 8.16292 2.48032C8.12004 2.54146 8.08976 2.61052 8.07385 2.68348C8.05793 2.75644 8.05671 2.83184 8.07024 2.90528L8.62501 6.23177C8.62501 6.82851 8.38795 7.4008 7.966 7.82276C7.54404 8.24472 6.97174 8.48177 6.37501 8.48177C5.77827 8.48177 5.20597 8.24472 4.78401 7.82276C4.36206 7.4008 4.12501 6.82851 4.12501 6.23177L4.67907 2.90528C4.6926 2.83184 4.69138 2.75644 4.67546 2.68348C4.65955 2.61052 4.62927 2.54146 4.58638 2.48032C4.5435 2.41918 4.48887 2.3672 4.42568 2.3274C4.3625 2.2876 4.29202 2.26078 4.21836 2.2485C4.1447 2.23622 4.06933 2.23873 3.99665 2.25589C3.92397 2.27305 3.85543 2.30451 3.79504 2.34843C3.73464 2.39235 3.6836 2.44786 3.64488 2.51172C3.60617 2.57557 3.58055 2.6465 3.56954 2.72036L3.00704 6.09536C3.00222 6.12583 2.99987 6.15663 3.00001 6.18747C3.00113 6.98468 3.28401 7.75584 3.79866 8.36467C4.31331 8.9735 5.02661 9.38082 5.81251 9.51466V15.75C5.81251 15.8992 5.87177 16.0422 5.97726 16.1477C6.08275 16.2532 6.22582 16.3125 6.37501 16.3125C6.52419 16.3125 6.66726 16.2532 6.77275 16.1477C6.87824 16.0422 6.93751 15.8992 6.93751 15.75V9.51466C7.7234 9.38082 8.4367 8.9735 8.95135 8.36467C9.466 7.75584 9.74888 6.98468 9.75001 6.18747C9.74991 6.15661 9.74732 6.12581 9.74227 6.09536L9.17977 2.72036Z" fill="white"/>
</svg>
