<svg width="19" height="18" viewBox="0 0 19 18" fill="none" xmlns="http://www.w3.org/2000/svg">
<path d="M12.9605 6.91453C13.0128 6.96677 13.0543 7.02881 13.0826 7.0971C13.1109 7.16538 13.1254 7.23858 13.1254 7.3125C13.1254 7.38642 13.1109 7.45962 13.0826 7.5279C13.0543 7.59619 13.0128 7.65823 12.9605 7.71047L9.02297 11.648C8.97073 11.7003 8.90869 11.7418 8.84041 11.7701C8.77212 11.7984 8.69892 11.8129 8.625 11.8129C8.55108 11.8129 8.47789 11.7984 8.4096 11.7701C8.34131 11.7418 8.27928 11.7003 8.22703 11.648L6.53953 9.96047C6.43399 9.85492 6.37469 9.71177 6.37469 9.5625C6.37469 9.41323 6.43399 9.27008 6.53953 9.16453C6.64508 9.05898 6.78824 8.99969 6.9375 8.99969C7.08677 8.99969 7.22992 9.05898 7.33547 9.16453L8.625 10.4548L12.1645 6.91453C12.2168 6.86223 12.2788 6.82074 12.3471 6.79244C12.4154 6.76413 12.4886 6.74956 12.5625 6.74956C12.6364 6.74956 12.7096 6.76413 12.7779 6.79244C12.8462 6.82074 12.9082 6.86223 12.9605 6.91453ZM17.0625 9C17.0625 10.4463 16.6336 11.8601 15.8301 13.0626C15.0266 14.2651 13.8846 15.2024 12.5484 15.7559C11.2122 16.3093 9.74189 16.4541 8.32341 16.172C6.90492 15.8898 5.60196 15.1934 4.57928 14.1707C3.55661 13.148 2.86017 11.8451 2.57801 10.4266C2.29586 9.00811 2.44067 7.53781 2.99413 6.20163C3.5476 4.86544 4.48486 3.72339 5.6874 2.91988C6.88993 2.11637 8.30373 1.6875 9.75 1.6875C11.6888 1.68955 13.5475 2.46063 14.9185 3.83154C16.2894 5.20246 17.0605 7.06123 17.0625 9ZM15.9375 9C15.9375 7.77623 15.5746 6.57994 14.8947 5.56241C14.2148 4.54488 13.2485 3.75181 12.1179 3.2835C10.9872 2.81518 9.74314 2.69264 8.54288 2.93139C7.34262 3.17014 6.24012 3.75944 5.37478 4.62478C4.50944 5.49011 3.92014 6.59262 3.68139 7.79288C3.44265 8.99314 3.56518 10.2372 4.0335 11.3679C4.50182 12.4985 5.29488 13.4648 6.31241 14.1447C7.32994 14.8246 8.52623 15.1875 9.75 15.1875C11.3905 15.1856 12.9632 14.5331 14.1232 13.3732C15.2831 12.2132 15.9356 10.6405 15.9375 9Z" fill="white"/>
</svg>
