<svg width="152" height="132" viewBox="0 0 152 132" fill="none" xmlns="http://www.w3.org/2000/svg">
<g clip-path="url(#clip0_291_6678)">
<path fill-rule="evenodd" clip-rule="evenodd" d="M51.059 34.5204C51.7798 21.5715 59.5125 13.7078 59.5125 13.7078C58.464 14.4941 57.4679 15.3591 56.5374 16.2897C51.6356 21.1783 48.7916 27.6527 48.4902 34.5204H51.059ZM105.83 38.9633C105.083 45.962 101.937 52.2399 97.2189 56.9581C91.7929 62.384 84.2962 65.7392 76.0131 65.7392C67.73 65.7392 60.2333 62.384 54.8073 56.9581C50.0629 52.253 46.9174 45.962 46.1704 38.9633H48.6474C49.3814 45.2805 52.2516 50.9555 56.5242 55.215C61.5046 60.1953 68.3853 63.2753 75.9869 63.2753C83.5885 63.2753 90.4692 60.1953 95.4495 55.215C99.7221 50.9424 102.592 45.2805 103.326 38.9633H105.83ZM76 0.247742C78.0446 0.247742 79.6959 1.89912 79.6959 3.94368C79.6959 4.66452 79.4862 5.34604 79.1193 5.92271C86.1573 6.65665 92.4744 9.81524 97.2058 14.5466C102.632 19.9725 105.987 27.4692 105.987 35.7523V36.9843H105.961H103.497H94.7811H92.3041H59.6828H57.2058H48.4902H46.0262H46V35.7523C46 27.4692 49.3552 19.9725 54.7811 14.5466C59.5125 9.81524 65.8296 6.64355 72.8676 5.92271C72.5007 5.34604 72.291 4.67762 72.291 3.94368C72.3041 1.89912 73.9554 0.247742 76 0.247742ZM88.9096 38.9633C88.3198 41.3487 87.0878 43.4719 85.4102 45.1626C82.9987 47.5741 79.6828 49.0551 76 49.0551C72.3303 49.0551 69.0013 47.561 66.5898 45.1626C64.9122 43.485 63.6802 41.3487 63.0904 38.9633H65.6461C66.1704 40.6671 67.114 42.1875 68.3329 43.4194C70.2988 45.3854 72.9987 46.5911 76 46.5911C79.0013 46.5911 81.7012 45.3722 83.6671 43.4194C84.8991 42.1875 85.8296 40.6671 86.3539 38.9633H88.9096ZM92.3696 50.2871C92.1861 50.4837 92.0026 50.6802 91.806 50.8637C87.7824 54.8873 82.2385 57.3644 76.1048 57.3644C69.9712 57.3644 64.4273 54.8742 60.4037 50.8637C60.2726 50.7327 60.1284 50.5885 59.9974 50.4443C58.1625 50.8768 56.1966 49.9594 55.3971 48.177L54.6763 46.5911L54.6632 46.578L52.8152 42.4889C52.6841 42.2006 52.8152 41.8598 53.1035 41.7287C53.3919 41.5977 53.7326 41.7287 53.8637 42.0171L54.7156 43.9044L55.9738 46.6829C56.1048 46.9712 56.4456 47.1023 56.7339 46.9712C56.8912 46.8926 57.0092 46.7615 57.0485 46.6042C56.9567 46.447 56.865 46.3028 56.7733 46.1455H56.983L56.7733 45.6737V45.6606L54.9122 41.5321C54.7811 41.2438 54.9122 40.903 55.2005 40.772C55.4889 40.6409 55.8296 40.772 55.9607 41.0603L56.8126 42.9476L58.0708 45.7261C58.2018 46.0145 58.5426 46.1455 58.8309 46.0145C59.1193 45.8834 59.2503 45.5426 59.1193 45.2543L58.8702 44.7038L57.8611 42.4758L57.0092 40.5885C56.8781 40.3002 57.0092 39.9594 57.2975 39.8283C57.5858 39.6973 57.9266 39.8283 58.0577 40.1167L58.9096 42.004L60.1678 44.7825C60.2988 45.0708 60.6396 45.2019 60.9279 45.0708C61.2163 44.9397 61.3473 44.599 61.2163 44.3107L59.9581 41.5321L59.1062 39.6449C58.9751 39.3565 59.1062 39.0158 59.3945 38.8847C59.6828 38.7536 60.0236 38.8847 60.1547 39.173L61.0066 41.0603L62.7497 44.8873C63.3526 46.211 63.1691 47.7051 62.4089 48.8323L62.4351 48.8585C65.9214 52.3447 70.7444 54.5072 76.0786 54.5072C81.4128 54.5072 86.2359 52.3447 89.7221 48.8585C89.9056 48.675 90.0891 48.4784 90.2726 48.2818C89.6566 46.7484 89.8401 44.6907 90.9279 42.8297C92.5531 40.0511 95.5544 38.793 97.6514 40.0118C99.7353 41.2307 100.115 44.4679 98.5033 47.2464C97.0354 49.7497 94.401 51.021 92.3696 50.2871Z" fill="url(#paint0_linear_291_6678)"/>
</g>
<path d="M34.9868 91.2923C32.0868 91.2923 30.4268 93.3923 30.4268 96.5523C30.4268 99.8123 32.3068 101.592 35.0068 101.592C37.5468 101.592 39.0868 100.192 39.0868 97.8523V97.7923H34.6668V95.5323H41.4668V103.752H39.3068L39.1468 102.072C38.3468 103.192 36.6868 103.972 34.7068 103.972C30.6068 103.972 27.7468 100.992 27.7468 96.4923C27.7468 92.0523 30.6468 88.8923 35.0468 88.8923C38.3868 88.8923 40.9668 90.8323 41.3868 93.8123H38.6868C38.2268 92.0923 36.7468 91.2923 34.9868 91.2923ZM43.2913 98.7923C43.2913 95.7123 45.5113 93.5923 48.5713 93.5923C51.6313 93.5923 53.8513 95.7123 53.8513 98.7923C53.8513 101.872 51.6313 103.992 48.5713 103.992C45.5113 103.992 43.2913 101.872 43.2913 98.7923ZM45.7313 98.7923C45.7313 100.592 46.8913 101.812 48.5713 101.812C50.2513 101.812 51.4113 100.592 51.4113 98.7923C51.4113 96.9923 50.2513 95.7723 48.5713 95.7723C46.8913 95.7723 45.7313 96.9923 45.7313 98.7923ZM72.096 100.972H70.316V103.752H67.896V100.972H60.476V98.7323L67.096 89.1323H70.316V98.7323H72.096V100.972ZM63.196 98.7323H67.896V91.8923L63.196 98.7323ZM87.8563 97.7723H82.4163V103.752H79.8563V89.1323H88.8963V91.4923H82.4163V95.4723H87.8563V97.7723ZM89.5023 98.7923C89.5023 95.7123 91.7223 93.5923 94.7823 93.5923C97.8423 93.5923 100.062 95.7123 100.062 98.7923C100.062 101.872 97.8423 103.992 94.7823 103.992C91.7223 103.992 89.5023 101.872 89.5023 98.7923ZM91.9423 98.7923C91.9423 100.592 93.1023 101.812 94.7823 101.812C96.4623 101.812 97.6223 100.592 97.6223 98.7923C97.6223 96.9923 96.4623 95.7723 94.7823 95.7723C93.1023 95.7723 91.9423 96.9923 91.9423 98.7923ZM101.416 98.7923C101.416 95.7123 103.636 93.5923 106.696 93.5923C109.756 93.5923 111.976 95.7123 111.976 98.7923C111.976 101.872 109.756 103.992 106.696 103.992C103.636 103.992 101.416 101.872 101.416 98.7923ZM103.856 98.7923C103.856 100.592 105.016 101.812 106.696 101.812C108.376 101.812 109.536 100.592 109.536 98.7923C109.536 96.9923 108.376 95.7723 106.696 95.7723C105.016 95.7723 103.856 96.9923 103.856 98.7923ZM117.97 104.012C115.11 104.012 113.33 101.912 113.33 98.8523C113.33 95.7723 115.13 93.5723 118.11 93.5723C119.49 93.5723 120.71 94.1523 121.33 95.1323V88.8723H123.75V103.752H121.51L121.35 102.212C120.75 103.352 119.47 104.012 117.97 104.012ZM118.51 101.772C120.21 101.772 121.31 100.552 121.31 98.7723C121.31 96.9923 120.21 95.7523 118.51 95.7523C116.81 95.7523 115.77 97.0123 115.77 98.7723C115.77 100.532 116.81 101.772 118.51 101.772Z" fill="#18181B"/>
<path d="M8.7457 126.41L7.9197 125.262C7.1777 125.682 6.3377 125.92 5.4277 125.92C2.8797 125.92 1.1717 124.142 1.1717 121.524C1.1717 118.136 3.5377 115.462 6.5897 115.462C9.1237 115.462 10.8457 117.254 10.8457 119.872C10.8457 121.79 10.0757 123.484 8.8577 124.59L9.6557 125.696L8.7457 126.41ZM9.4597 119.97C9.4597 117.996 8.2977 116.736 6.4637 116.736C4.2797 116.736 2.5717 118.822 2.5717 121.412C2.5717 123.372 3.7197 124.632 5.5537 124.632C6.1417 124.632 6.6877 124.492 7.1777 124.226L6.0857 122.7L6.9957 121.972L8.1017 123.526C8.9417 122.672 9.4597 121.398 9.4597 119.97ZM17.2381 118.906H18.4841L17.4061 125.752H16.2721L16.3281 124.66C15.7121 125.514 15.0261 125.92 14.0461 125.92C12.5341 125.92 11.6101 124.73 11.8761 123.078L12.5341 118.906H13.7941L13.1641 122.784C12.9681 124.072 13.4721 124.786 14.4801 124.786C15.6421 124.786 16.4401 123.932 16.6641 122.532L17.2381 118.906ZM21.2794 117.254C20.8594 117.254 20.5514 116.946 20.5514 116.54C20.5514 116.022 21.0134 115.546 21.5314 115.546C21.9514 115.546 22.2454 115.854 22.2454 116.26C22.2454 116.778 21.7834 117.254 21.2794 117.254ZM19.3054 125.752L20.3974 118.906H21.6434L20.5654 125.752H19.3054ZM22.4919 122.868C22.4919 120.53 24.1159 118.724 26.2299 118.724C27.8959 118.724 28.9319 119.648 29.0439 121.216H27.7559C27.6719 120.362 27.0839 119.858 26.1739 119.858C24.8159 119.858 23.7799 121.132 23.7799 122.798C23.7799 124.016 24.4659 124.8 25.5439 124.8C26.4399 124.8 27.1679 124.282 27.4759 123.442H28.7779C28.3439 124.954 27.0699 125.92 25.5019 125.92C23.6819 125.92 22.4919 124.716 22.4919 122.868ZM31.0801 125.752H29.8201L31.4441 115.448H32.7041L31.6401 122.126L35.1401 118.906H36.7501L33.7121 121.72L35.5881 125.752H34.2161L32.7461 122.546L31.3881 123.792L31.0801 125.752ZM40.7211 125.752L42.3171 115.63H46.0831C47.7071 115.63 48.7851 116.582 48.7851 118.038C48.7851 119.298 48.0991 120.292 46.9091 120.74C47.7771 121.048 48.2391 121.762 48.2391 122.742C48.2391 124.604 46.8531 125.752 44.6271 125.752H40.7211ZM45.8171 116.82H43.4511L42.9331 120.11H45.3971C46.6291 120.11 47.4411 119.368 47.4411 118.22C47.4411 117.352 46.8251 116.82 45.8171 116.82ZM45.2291 121.272H42.7371L42.2191 124.576H44.7251C46.0691 124.576 46.8951 123.876 46.8951 122.742C46.8951 121.804 46.2931 121.272 45.2291 121.272ZM51.2618 117.254C50.8418 117.254 50.5338 116.946 50.5338 116.54C50.5338 116.022 50.9958 115.546 51.5138 115.546C51.9338 115.546 52.2278 115.854 52.2278 116.26C52.2278 116.778 51.7658 117.254 51.2618 117.254ZM49.2878 125.752L50.3798 118.906H51.6258L50.5478 125.752H49.2878ZM54.2804 125.752H53.0344L53.9444 119.97H52.6284L52.7964 118.906H54.1124L54.4484 116.764H55.7084L55.3724 118.906H56.6884L56.5204 119.97H55.2044L54.2804 125.752ZM59.75 125.92C57.93 125.92 56.74 124.716 56.74 122.868C56.74 120.53 58.364 118.724 60.478 118.724C62.424 118.724 63.558 120.124 63.25 122.084L63.18 122.56L57.972 122.574C57.972 122.644 57.972 122.714 57.972 122.798C57.972 124.072 58.658 124.856 59.792 124.856C60.688 124.856 61.444 124.408 61.752 123.638H63.012C62.55 125.038 61.248 125.92 59.75 125.92ZM60.422 119.788C59.344 119.788 58.462 120.572 58.126 121.72H62.046C62.228 120.558 61.556 119.788 60.422 119.788ZM63.8418 123.792H65.0738C65.0878 124.478 65.6338 124.926 66.4598 124.926C67.3138 124.926 67.9018 124.492 67.9018 123.876C67.9018 123.4 67.6918 123.148 67.1038 122.952L65.9698 122.574C65.0178 122.252 64.4998 121.678 64.4998 120.796C64.4998 119.55 65.5218 118.724 67.0758 118.724C68.5318 118.724 69.4558 119.564 69.4558 120.852H68.2238C68.2098 120.096 67.7898 119.718 66.9918 119.718C66.2078 119.718 65.7178 120.082 65.7178 120.698C65.7178 121.146 65.9838 121.454 66.5718 121.664L67.6918 122.042C68.6858 122.378 69.1338 122.91 69.1338 123.764C69.1338 125.066 68.0558 125.92 66.3898 125.92C64.8778 125.92 63.8418 125.066 63.8418 123.792ZM72.1945 124.94C72.1945 125.99 71.2705 127.012 70.1785 127.166L70.2765 126.592C70.8505 126.466 71.3125 126.088 71.3685 125.682C71.2705 125.738 71.1585 125.766 70.9905 125.766C70.5845 125.766 70.2765 125.486 70.2765 125.08C70.2765 124.478 70.7665 123.974 71.3545 123.974C71.8445 123.974 72.1945 124.352 72.1945 124.94ZM77.9633 125.752L79.5593 115.63H83.3253C84.9493 115.63 86.0273 116.582 86.0273 118.038C86.0273 119.298 85.3413 120.292 84.1513 120.74C85.0193 121.048 85.4813 121.762 85.4813 122.742C85.4813 124.604 84.0953 125.752 81.8693 125.752H77.9633ZM83.0593 116.82H80.6933L80.1753 120.11H82.6393C83.8713 120.11 84.6833 119.368 84.6833 118.22C84.6833 117.352 84.0673 116.82 83.0593 116.82ZM82.4713 121.272H79.9793L79.4613 124.576H81.9673C83.3113 124.576 84.1373 123.876 84.1373 122.742C84.1373 121.804 83.5353 121.272 82.4713 121.272ZM88.504 117.254C88.084 117.254 87.776 116.946 87.776 116.54C87.776 116.022 88.238 115.546 88.756 115.546C89.176 115.546 89.47 115.854 89.47 116.26C89.47 116.778 89.008 117.254 88.504 117.254ZM86.53 125.752L87.622 118.906H88.868L87.79 125.752H86.53ZM89.7446 122.714C89.7446 120.488 91.3686 118.724 93.4266 118.724C94.4626 118.724 95.2886 119.242 95.5966 120.054L95.8906 118.906H97.0526L96.0166 125.486C95.6526 127.796 94.4206 128.986 92.3906 128.986C90.5426 128.986 89.2826 127.88 89.2406 126.214H90.5006C90.5566 127.222 91.2846 127.838 92.4186 127.838C93.6786 127.838 94.5046 127.082 94.7286 125.668L94.9526 124.268C94.4066 125.094 93.5246 125.57 92.5166 125.57C90.8786 125.57 89.7446 124.408 89.7446 122.714ZM91.0326 122.63C91.0326 123.75 91.7186 124.478 92.7546 124.478C94.1826 124.478 95.2746 123.274 95.2746 121.65C95.2746 120.544 94.6026 119.844 93.5106 119.844C92.1106 119.844 91.0326 121.076 91.0326 122.63ZM105.096 125.752H101.848L103.444 115.63H106.496C109.17 115.63 110.892 117.506 110.892 120.068C110.892 123.568 108.442 125.752 105.096 125.752ZM106.286 116.848H104.564L103.36 124.52H105.208C107.714 124.52 109.506 122.882 109.506 120.068C109.506 118.15 108.316 116.848 106.286 116.848ZM114.656 125.92C112.836 125.92 111.646 124.716 111.646 122.868C111.646 120.53 113.27 118.724 115.384 118.724C117.33 118.724 118.464 120.124 118.156 122.084L118.086 122.56L112.878 122.574C112.878 122.644 112.878 122.714 112.878 122.798C112.878 124.072 113.564 124.856 114.698 124.856C115.594 124.856 116.35 124.408 116.658 123.638H117.918C117.456 125.038 116.154 125.92 114.656 125.92ZM115.328 119.788C114.25 119.788 113.368 120.572 113.032 121.72H116.952C117.134 120.558 116.462 119.788 115.328 119.788ZM120.33 125.752H119.07L120.694 115.448H121.954L120.33 125.752ZM124.242 117.254C123.822 117.254 123.514 116.946 123.514 116.54C123.514 116.022 123.976 115.546 124.494 115.546C124.914 115.546 125.208 115.854 125.208 116.26C125.208 116.778 124.746 117.254 124.242 117.254ZM122.268 125.752L123.36 118.906H124.606L123.528 125.752H122.268ZM125.483 122.714C125.483 120.488 127.107 118.724 129.165 118.724C130.201 118.724 131.027 119.242 131.335 120.054L131.629 118.906H132.791L131.755 125.486C131.391 127.796 130.159 128.986 128.129 128.986C126.281 128.986 125.021 127.88 124.979 126.214H126.239C126.295 127.222 127.023 127.838 128.157 127.838C129.417 127.838 130.243 127.082 130.467 125.668L130.691 124.268C130.145 125.094 129.263 125.57 128.255 125.57C126.617 125.57 125.483 124.408 125.483 122.714ZM126.771 122.63C126.771 123.75 127.457 124.478 128.493 124.478C129.921 124.478 131.013 123.274 131.013 121.65C131.013 120.544 130.341 119.844 129.249 119.844C127.849 119.844 126.771 121.076 126.771 122.63ZM134.848 125.752H133.602L135.226 115.448H136.486L135.772 119.998C136.388 119.116 137.102 118.71 138.082 118.71C139.636 118.71 140.588 119.914 140.336 121.566L139.664 125.752H138.418L139.034 121.86C139.244 120.572 138.726 119.858 137.648 119.858C136.486 119.858 135.646 120.712 135.422 122.14L134.848 125.752ZM143.339 125.752H142.093L143.003 119.97H141.687L141.855 118.906H143.171L143.507 116.764H144.767L144.431 118.906H145.747L145.579 119.97H144.263L143.339 125.752ZM145.6 123.792H146.832C146.846 124.478 147.392 124.926 148.218 124.926C149.072 124.926 149.66 124.492 149.66 123.876C149.66 123.4 149.45 123.148 148.862 122.952L147.728 122.574C146.776 122.252 146.258 121.678 146.258 120.796C146.258 119.55 147.28 118.724 148.834 118.724C150.29 118.724 151.214 119.564 151.214 120.852H149.982C149.968 120.096 149.548 119.718 148.75 119.718C147.966 119.718 147.476 120.082 147.476 120.698C147.476 121.146 147.742 121.454 148.33 121.664L149.45 122.042C150.444 122.378 150.892 122.91 150.892 123.764C150.892 125.066 149.814 125.92 148.148 125.92C146.636 125.92 145.6 125.066 145.6 123.792Z" fill="#71717A"/>
<defs>
<linearGradient id="paint0_linear_291_6678" x1="75.9934" y1="0.247742" x2="75.9934" y2="65.7392" gradientUnits="userSpaceOnUse">
<stop stop-color="#F24A4A"/>
<stop offset="1" stop-color="#FF790F"/>
</linearGradient>
<clipPath id="clip0_291_6678">
<rect width="60" height="65.5046" fill="white" transform="translate(46 0.247742)"/>
</clipPath>
</defs>
</svg>
